<svg width="40" height="13" viewBox="0 0 40 13" fill="none" xmlns="http://www.w3.org/2000/svg">
<path fill-rule="evenodd" clip-rule="evenodd" d="M3.62814 0.692814L1.71552 4.90419H2.96323L3.31621 4.06347H5.36837L5.72134 4.90419H6.99369L5.08107 0.692814H3.62814ZM4.33409 1.67365L4.95794 3.14491H3.71022L4.33409 1.67365Z" fill="white"/>
<path fill-rule="evenodd" clip-rule="evenodd" d="M7.11683 4.90419V0.692814L8.88168 0.700598L9.91597 3.41736L10.9174 0.692814H12.6741V4.90419H11.5577V1.80599L10.3839 4.90419H9.40704L8.22498 1.80599V4.90419H7.11683Z" fill="white"/>
<path fill-rule="evenodd" clip-rule="evenodd" d="M13.4293 4.90419V0.692814H17.0575V1.63473H14.5539V2.35868H16.9918V3.24611H14.5539V3.99341H17.0575V4.90419H13.4293Z" fill="white"/>
<path fill-rule="evenodd" clip-rule="evenodd" d="M17.6978 0.692814V4.90419H18.806V3.40958H19.2739L20.6037 4.90419H21.9581L20.4969 3.35509C21.0962 3.30838 21.7118 2.81796 21.7118 2.06287C21.7118 1.17545 20.9813 0.692814 20.1604 0.692814H17.6896H17.6978ZM18.806 1.63473H20.0783C20.382 1.63473 20.6037 1.86048 20.6037 2.07844C20.6037 2.35868 20.3164 2.52216 20.0947 2.52216H18.806V1.63473Z" fill="white"/>
<path fill-rule="evenodd" clip-rule="evenodd" d="M23.3043 4.90419H22.1715V0.692814H23.3043V4.90419Z" fill="white"/>
<path fill-rule="evenodd" clip-rule="evenodd" d="M25.7505 4.90419C24.5684 4.90419 23.8461 4.01677 23.8461 2.81796C23.8461 1.61916 24.5602 0.692814 26.0542 0.692814H27.2855V1.68922H26.0132C25.4057 1.68922 24.9789 2.14072 24.9789 2.82575C24.9789 3.64311 25.4714 3.98563 26.1773 3.98563H26.4729L26.005 4.90419H25.7505Z" fill="white"/>
<path fill-rule="evenodd" clip-rule="evenodd" d="M28.4101 0.692814L26.4975 4.90419H27.7452L28.0982 4.06347H30.1503L30.5033 4.90419H31.7757L29.863 0.692814H28.4101ZM29.116 1.67365L29.7399 3.14491H28.4922L29.116 1.67365Z" fill="white"/>
<path fill-rule="evenodd" clip-rule="evenodd" d="M31.8988 4.90419V0.692814H33.3107L35.1166 3.33952V0.692814H36.2248V4.90419H34.8621L33.007 2.18742V4.90419H31.8988Z" fill="white"/>
<path fill-rule="evenodd" clip-rule="evenodd" d="M9.80926 12.276V8.06467H13.4293V9.00659H10.9256V9.73054H13.3718V10.618H10.9256V11.3653H13.4293V12.276H9.80926Z" fill="white"/>
<path fill-rule="evenodd" clip-rule="evenodd" d="M27.5646 12.276V8.06467H31.1846V9.00659H28.6892V9.73054H31.119V10.618H28.6892V11.3653H31.1846V12.276H27.5646Z" fill="white"/>
<path fill-rule="evenodd" clip-rule="evenodd" d="M13.5688 12.276L15.3337 10.1976L13.5278 8.06467H14.9315L16.0068 9.38024L17.0821 8.06467H18.4284L16.6471 10.1743L18.4119 12.276H17.0165L15.9658 10.9838L14.9479 12.276H13.5688Z" fill="white"/>
<path fill-rule="evenodd" clip-rule="evenodd" d="M18.5433 8.06467V12.276H19.6843V10.9449H20.8499C21.835 10.9449 22.5901 10.4467 22.5901 9.48144C22.5901 8.67964 21.9991 8.06467 20.9977 8.06467H18.5433ZM19.6843 9.01437H20.9156C21.2357 9.01437 21.4656 9.2012 21.4656 9.49701C21.4656 9.77725 21.2357 9.97964 20.9156 9.97964H19.6843V9.00659V9.01437Z" fill="white"/>
<path fill-rule="evenodd" clip-rule="evenodd" d="M23.0745 8.06467V12.276H24.1826V10.7814H24.6505L25.9803 12.276H27.3348L25.8736 10.7269C26.4728 10.6802 27.0885 10.1898 27.0885 9.43473C27.0885 8.54731 26.3579 8.06467 25.5371 8.06467H23.0662H23.0745ZM24.1826 9.00659H25.455C25.7587 9.00659 25.9803 9.23234 25.9803 9.4503C25.9803 9.73054 25.693 9.89401 25.4714 9.89401H24.1826V9.00659Z" fill="white"/>
<path fill-rule="evenodd" clip-rule="evenodd" d="M31.7018 11.3653H33.9263C34.2547 11.3653 34.3942 11.194 34.3942 11.015C34.3942 10.8359 34.2547 10.6569 33.9263 10.6569H32.9249C32.0547 10.6569 31.5622 10.1509 31.5622 9.39581C31.5622 8.71856 32.0055 8.07246 33.3025 8.07246H35.4613L34.9934 9.02216H33.1219C32.7607 9.02216 32.654 9.2012 32.654 9.37246C32.654 9.54371 32.7935 9.73832 33.0644 9.73832H34.1151C35.092 9.73832 35.5106 10.2599 35.5106 10.9449C35.5106 11.6844 35.0427 12.2838 34.0659 12.2838H31.7018V11.3653Z" fill="white"/>
<path fill-rule="evenodd" clip-rule="evenodd" d="M35.7815 12.276V11.3653H37.9075C38.2359 11.3653 38.3754 11.194 38.3754 11.015C38.3754 10.8359 38.2359 10.6569 37.9075 10.6569H36.9964C36.1262 10.6569 35.6337 10.1509 35.6337 9.39581C35.6337 8.71856 36.077 8.07246 37.374 8.07246H39.4918L39.0239 9.02216H37.1934C36.8322 9.02216 36.7255 9.2012 36.7255 9.37246C36.7255 9.54371 36.865 9.73832 37.1359 9.73832H38.0963C39.0732 9.73832 39.4918 10.2599 39.4918 10.9449C39.4918 11.6844 39.0239 12.2838 38.0471 12.2838H35.7733L35.7815 12.276Z" fill="white"/>
</svg>
