<svg width="24" height="20" viewBox="0 0 24 20" fill="none" xmlns="http://www.w3.org/2000/svg">
    <g clip-path="url(#clip0_437_250)">
        <path
            d="M23.2501 1.09859e-05H20.4901C20.1401 0.010011 19.8301 0.260011 19.7601 0.610011L19.3801 2.41001H0.750101C0.520101 2.41001 0.310101 2.51001 0.170101 2.69001C0.0301006 2.87001 -0.0298994 3.09001 0.0201006 3.31001L1.6001 10.83C1.6001 10.83 1.6301 10.89 1.6401 10.92C1.6501 10.95 1.6601 10.98 1.6801 11.01C1.7101 11.07 1.7401 11.12 1.7801 11.16C1.8001 11.19 1.8301 11.21 1.8601 11.24C1.9001 11.28 1.9501 11.31 1.9901 11.33C2.0301 11.35 2.0701 11.37 2.1101 11.38C2.1601 11.4 2.2101 11.41 2.2601 11.41C2.2901 11.41 2.3101 11.42 2.3301 11.42H17.4801L17.0201 13.59C15.8601 13.67 14.9101 14.48 14.6001 15.56H6.1501C5.8201 14.42 4.7801 13.57 3.5301 13.57C2.0201 13.57 0.790101 14.8 0.790101 16.31C0.790101 17.82 2.0201 19.05 3.5301 19.05C4.7801 19.05 5.8201 18.21 6.1501 17.06H14.6001C14.9301 18.2 15.9701 19.05 17.2201 19.05C18.7301 19.05 19.9601 17.82 19.9601 16.31C19.9601 15.26 19.3601 14.36 18.4901 13.9L20.7201 3.30001C20.7201 3.30001 20.7201 3.29001 20.7201 3.28001L21.1001 1.49001H23.2501C23.6601 1.49001 24.0001 1.14001 24.0001 0.730011C24.0001 0.320011 23.6601 -0.019989 23.2501 -0.019989V1.09859e-05ZM2.9401 9.93001L1.6701 3.91001H19.0601L17.8001 9.93001H2.9401ZM3.5301 17.56C2.8501 17.56 2.2901 17 2.2901 16.32C2.2901 15.64 2.8401 15.08 3.5301 15.08C4.2201 15.08 4.7701 15.64 4.7701 16.32C4.7701 17 4.2201 17.56 3.5301 17.56ZM17.2201 17.56C16.5401 17.56 15.9801 17 15.9801 16.32C15.9801 15.64 16.5301 15.08 17.2201 15.08C17.9101 15.08 18.4601 15.64 18.4601 16.32C18.4601 17 17.9101 17.56 17.2201 17.56Z"
            fill="#666666" />
    </g>
    <defs>
        <clipPath id="clip0_437_250">
            <rect width="24" height="19.06" fill="white" />
        </clipPath>
    </defs>
</svg>