<svg width="24" height="24" viewBox="0 0 24 24" fill="none" xmlns="http://www.w3.org/2000/svg">
<path d="M23.2445 2.5H20.4845C20.1245 2.51 19.8245 2.76 19.7545 3.11L19.3845 4.91H0.744485C0.514485 4.91 0.304485 5.01 0.164485 5.19C0.0244854 5.36 -0.0355146 5.59 0.0144854 5.82L1.59449 13.34C1.65449 13.64 1.90449 13.87 2.20449 13.92C2.24449 13.93 2.28449 13.93 2.33449 13.93H18.3945C18.7445 13.93 19.0345 13.7 19.1245 13.37C19.1245 13.36 19.1345 13.35 19.1345 13.34L20.7145 5.82V5.8L21.0945 4.01H23.2445C23.6645 4 23.9945 3.66 23.9945 3.25C23.9945 2.84 23.6545 2.5 23.2445 2.5ZM17.7945 12.43H2.93449L1.66449 6.41H19.0545L17.7945 12.43Z" fill="#EB741E"/>
<path d="M18.4842 15.9602L19.1242 12.9302C19.0342 13.2602 18.7442 13.4902 18.3942 13.4902H17.4842L17.0242 15.6502C15.8542 15.7302 14.8942 16.5402 14.5842 17.6302H6.15418C5.83418 16.4802 4.77418 15.6402 3.52418 15.6402C2.01418 15.6402 0.78418 16.8702 0.78418 18.3802C0.78418 19.8902 2.01418 21.1202 3.52418 21.1202C4.77418 21.1202 5.83418 20.2802 6.15418 19.1302H14.5842C14.9042 20.2802 15.9642 21.1202 17.2142 21.1202C18.7242 21.1202 19.9542 19.8902 19.9542 18.3802C19.9542 17.3302 19.3642 16.4202 18.4842 15.9602ZM3.52418 19.6202C2.84418 19.6202 2.28418 19.0602 2.28418 18.3802C2.28418 17.7002 2.84418 17.1402 3.52418 17.1402C4.20418 17.1402 4.76418 17.7002 4.76418 18.3802C4.76418 19.0602 4.20418 19.6202 3.52418 19.6202ZM17.2142 19.6202C16.5342 19.6202 15.9742 19.0602 15.9742 18.3802C15.9742 17.7002 16.5342 17.1402 17.2142 17.1402C17.3042 17.1402 17.3842 17.1502 17.4642 17.1702C18.0242 17.2802 18.4542 17.7902 18.4542 18.3802C18.4542 19.0602 17.8942 19.6202 17.2142 19.6202Z" fill="#666666"/>
</svg>
