<svg width="24" height="25" viewBox="0 0 24 25" fill="none" xmlns="http://www.w3.org/2000/svg">
    <path
        d="M20.23 8.295L16.73 11.785C16.68 11.625 16.63 11.455 16.57 11.295C16.45 10.955 16.29 10.615 16.1 10.295L19.17 7.235C19.81 6.595 19.81 5.545 19.16 4.895C18.8 4.535 18.39 4.355 17.95 4.355C17.49 4.315 17.09 4.525 16.77 4.845L13.72 7.905L12.63 8.985L12.23 9.385C12.16 9.455 12.11 9.525 12.05 9.605C11.98 9.705 11.92 9.815 11.88 9.925C11.66 10.425 11.72 11.005 12.02 11.465C12.08 11.555 12.15 11.645 12.23 11.725C12.33 11.825 12.43 11.935 12.51 12.045C12.75 12.415 12.82 12.855 12.73 13.265C12.72 13.325 12.7 13.395 12.67 13.455C12.39 13.245 11.88 12.855 11.54 12.515C10.4 11.365 9.94 9.985 10.83 8.725C10.94 8.575 11.04 8.455 11.17 8.325L15.71 3.785C16.31 3.185 17.1 2.855 17.94 2.855H17.95C18.79 2.855 19.58 3.185 20.17 3.785C21.45 5.075 21.45 7.075 20.23 8.295Z"
        fill="#EA601D" />
    <path
        d="M12.68 13.465C12.67 13.515 12.65 13.575 12.62 13.625C12.64 13.565 12.65 13.515 12.67 13.455C12.68 13.455 12.68 13.455 12.68 13.455V13.465Z"
        fill="#EA601D" />
    <path
        d="M24 6.115C24 7.635 23.41 9.065 22.33 10.145L17.91 14.575C17.44 15.045 16.91 15.425 16.32 15.705C16.46 15.425 16.57 15.145 16.66 14.855C16.8 14.395 16.88 13.925 16.9 13.465L21.27 9.085C22.06 8.295 22.5 7.235 22.5 6.115C22.5 4.995 22.06 3.935 21.27 3.145L20.86 2.725C20.04 1.915 18.96 1.505 17.89 1.505C16.82 1.505 15.74 1.915 14.92 2.725L10.12 7.525C9.84 7.805 9.61 8.125 9.43 8.455C9.28 8.725 9.16 8.995 9.08 9.285C8.81 10.155 8.83 11.045 9.13 11.885C9.18 12.035 9.24 12.185 9.31 12.325C9.51 12.745 9.78 13.135 10.12 13.475L10.53 13.885C10.84 14.195 11.3 14.505 11.69 14.705L10.59 15.805C10.18 15.575 9.81 15.285 9.47 14.945L9.06 14.535C8.73 14.205 8.44 13.825 8.2 13.425C8 13.095 7.84 12.745 7.72 12.385C7.67 12.235 7.62 12.075 7.58 11.925C7.43 11.375 7.37 10.815 7.4 10.265C7.42 9.795 7.5 9.325 7.64 8.855C7.7 8.645 7.78 8.425 7.87 8.225C8.14 7.585 8.54 6.985 9.05 6.475L13.86 1.665C16.08 -0.555 19.7 -0.555 21.92 1.665L22.33 2.085C23.41 3.155 24 4.585 24 6.115Z"
        fill="#EA601D" />
    <path
        d="M13.46 15.055L13.31 15.195L12.31 16.195L8.29 20.225C7.71 20.815 6.92 21.145 6.08 21.145H6.07C5.23 21.145 4.43 20.815 3.84 20.225C3.19 19.575 2.86 18.785 2.86 17.945C2.86 17.105 3.19 16.305 3.79 15.715L7.58 11.925C7.62 12.075 7.67 12.235 7.72 12.385C7.84 12.745 8 13.095 8.2 13.425L4.85 16.775C4.53 17.085 4.36 17.505 4.36 17.945C4.36 18.385 4.53 18.795 4.85 19.105C5.21 19.475 5.63 19.655 6.07 19.645C6.51 19.645 6.92 19.475 7.23 19.165L11.69 14.705L12.36 14.025C12.43 13.945 12.49 13.865 12.54 13.785C12.57 13.735 12.6 13.685 12.62 13.625C12.65 13.575 12.67 13.515 12.68 13.465C12.7 13.395 12.72 13.335 12.73 13.265C12.82 12.855 12.75 12.415 12.51 12.045C12.43 11.935 12.33 11.825 12.23 11.725C12.15 11.645 12.08 11.555 12.02 11.465C11.72 11.005 11.66 10.425 11.88 9.925C12.27 10.145 12.89 10.515 13.16 10.785C14.39 12.015 14.55 13.815 13.46 15.055Z"
        fill="#666666" />
    <path
        d="M16.9 13.465C16.88 13.925 16.8 14.395 16.66 14.855C16.57 15.145 16.46 15.425 16.32 15.705C16.05 16.255 15.69 16.785 15.24 17.235L10.16 22.335C9.05 23.445 7.59 24.005 6.12 24.005C4.65 24.005 3.2 23.445 2.08 22.335L1.67 21.925C0.6 20.845 0 19.415 0 17.895C0 16.375 0.6 14.935 1.67 13.855L6.1 9.425C6.61 8.915 7.2 8.505 7.87 8.225C7.78 8.425 7.7 8.645 7.64 8.855C7.5 9.325 7.42 9.795 7.4 10.265C7.32 10.335 7.24 10.405 7.17 10.485L2.73 14.915C1.94 15.715 1.5 16.765 1.5 17.895C1.5 19.025 1.94 20.065 2.73 20.865L3.14 21.275C4.79 22.915 7.46 22.915 9.1 21.275L14.18 16.185C14.34 16.015 14.49 15.835 14.61 15.645C14.89 15.275 15.09 14.855 15.22 14.425C15.49 13.545 15.47 12.645 15.16 11.805C15.11 11.665 15.05 11.525 14.99 11.395C14.79 10.965 14.52 10.575 14.18 10.235L13.77 9.825C13.48 9.545 12.97 9.175 12.63 8.985L13.72 7.905C14.12 8.135 14.49 8.425 14.83 8.765L15.24 9.175C15.58 9.515 15.87 9.885 16.1 10.295C16.29 10.615 16.45 10.955 16.57 11.295C16.63 11.455 16.68 11.625 16.73 11.785C16.87 12.335 16.93 12.905 16.9 13.465Z"
        fill="#666666" />
</svg>