<svg width="24" height="25" viewBox="0 0 24 25" fill="none" xmlns="http://www.w3.org/2000/svg">
    <path
        d="M22.33 2.085L21.92 1.665C19.7 -0.555 16.08 -0.555 13.86 1.665L9.05 6.475C8.54 6.985 8.14 7.585 7.87 8.225C7.2 8.505 6.61 8.915 6.1 9.425L1.67 13.855C0.6 14.935 0 16.365 0 17.895C0 19.425 0.6 20.845 1.67 21.925L2.08 22.335C3.2 23.445 4.66 24.005 6.12 24.005C7.58 24.005 9.05 23.445 10.16 22.335L15.24 17.235C15.69 16.785 16.05 16.255 16.32 15.705C16.91 15.425 17.44 15.045 17.91 14.575L22.33 10.145C23.41 9.065 24 7.635 24 6.115C24 4.595 23.41 3.155 22.33 2.085ZM8.2 13.425C8.44 13.825 8.73 14.205 9.06 14.535L9.47 14.945C9.81 15.285 10.18 15.575 10.59 15.805L7.23 19.165C6.92 19.475 6.51 19.645 6.07 19.645C5.63 19.645 5.21 19.475 4.85 19.105C4.53 18.795 4.36 18.375 4.36 17.945C4.36 17.515 4.53 17.085 4.85 16.775L8.2 13.425ZM15.22 14.415C15.09 14.855 14.89 15.275 14.61 15.645C14.49 15.835 14.34 16.015 14.18 16.185L9.1 21.275C7.46 22.915 4.79 22.915 3.14 21.275L2.73 20.865C1.94 20.065 1.5 19.015 1.5 17.895C1.5 16.775 1.94 15.715 2.73 14.915L7.17 10.485C7.24 10.405 7.32 10.335 7.4 10.265C7.37 10.815 7.43 11.375 7.58 11.915L3.79 15.715C3.19 16.305 2.86 17.105 2.86 17.945C2.86 18.785 3.19 19.575 3.84 20.225C4.43 20.815 5.23 21.145 6.07 21.145H6.08C6.92 21.145 7.71 20.815 8.29 20.225L12.31 16.195L12.46 16.045L13.31 15.195L13.46 15.055C14.55 13.815 14.39 12.015 13.16 10.785C12.89 10.515 12.27 10.145 11.88 9.925C11.92 9.815 11.98 9.705 12.05 9.605C12.11 9.525 12.16 9.455 12.23 9.385L12.63 8.985C12.97 9.175 13.48 9.545 13.77 9.825L14.18 10.235C14.52 10.575 14.79 10.965 14.99 11.395C15.05 11.525 15.11 11.665 15.16 11.805C15.47 12.645 15.49 13.545 15.22 14.415ZM15.24 9.175L14.83 8.765C14.49 8.425 14.12 8.135 13.72 7.905L16.77 4.845C17.09 4.525 17.49 4.315 17.95 4.355C18.39 4.355 18.8 4.535 19.16 4.895C19.81 5.545 19.81 6.595 19.17 7.235L16.1 10.295C15.87 9.885 15.58 9.515 15.24 9.175ZM21.27 9.085L16.9 13.465C16.93 12.905 16.87 12.335 16.73 11.785L20.23 8.295C21.45 7.075 21.45 5.075 20.17 3.785C19.58 3.185 18.79 2.855 17.95 2.855H17.94C17.1 2.855 16.31 3.185 15.71 3.785L11.17 8.325C11.04 8.455 10.94 8.575 10.83 8.725C9.94 9.985 10.4 11.365 11.54 12.515C11.88 12.855 12.39 13.245 12.67 13.455C12.7 13.395 12.72 13.325 12.73 13.265C12.72 13.335 12.7 13.395 12.68 13.465C12.68 13.465 12.68 13.465 12.67 13.465C12.65 13.525 12.64 13.575 12.62 13.635C12.6 13.695 12.57 13.745 12.54 13.795C12.49 13.875 12.43 13.955 12.36 14.035L11.69 14.705C11.3 14.515 10.84 14.205 10.53 13.895L10.12 13.485C9.78 13.145 9.51 12.755 9.31 12.335C9.24 12.195 9.18 12.045 9.13 11.895C8.83 11.055 8.81 10.165 9.08 9.295C9.16 9.005 9.28 8.735 9.43 8.465C9.61 8.135 9.84 7.815 10.12 7.535L14.92 2.735C15.74 1.925 16.81 1.515 17.89 1.515C18.97 1.515 20.04 1.925 20.86 2.735L21.27 3.155C22.06 3.945 22.5 5.005 22.5 6.125C22.5 7.245 22.06 8.305 21.27 9.095V9.085Z"
        fill="#1E1E1E" />
</svg>