<svg width="24" height="18" viewBox="0 0 24 18" fill="none" xmlns="http://www.w3.org/2000/svg">
<g clip-path="url(#clip0_3109_210)">
<path d="M23.68 1.12C23.66 1.06 23.63 1.01 23.59 0.96C23.57 0.92 23.54 0.89 23.51 0.86C23.11 0.31 22.46 0 21.77 0H2.22996C1.52996 0 0.889965 0.33 0.489965 0.86C0.449965 0.9 0.419965 0.94 0.399965 0.98C0.199965 1.26 0.239965 1.66 0.489965 1.92L10.41 11.83C10.85 12.26 11.43 12.48 12 12.48C12.57 12.48 13.15 12.26 13.59 11.83L15.51 9.92L16.57 8.85L23.51 1.92C23.72 1.7 23.78 1.38 23.68 1.12ZM14.97 8.32L12.52 10.77C12.24 11.05 11.76 11.06 11.48 10.77L9.02996 8.32L2.19996 1.5H21.8L14.97 8.32Z" fill="#EB741E"/>
<path d="M23.68 1.12C23.78 1.38 23.72 1.7 23.51 1.92L22.5 2.93V14.78L16.58 8.85L15.52 9.92L21.61 16H2.39L8.49 9.91L7.43 8.85L1.5 14.77V2.93L0.49 1.92C0.24 1.66 0.2 1.26 0.4 0.979996C0.13 1.34 0 1.78 0 2.24V15.26C0 15.77 0.17 16.24 0.47 16.6C0.5 16.65 0.54 16.7 0.58 16.75H0.59C1 17.22 1.61 17.5 2.23 17.5H21.77C22.41 17.5 23.03 17.2 23.41 16.75C23.45 16.71 23.49 16.67 23.52 16.62C23.84 16.24 24 15.77 24 15.26V2.24C24 1.84 23.88 1.46 23.68 1.12Z" fill="#666666"/>
</g>
<defs>
<clipPath id="clip0_3109_210">
<rect width="24" height="17.5" fill="white"/>
</clipPath>
</defs>
</svg>
