<svg width="30" height="30" viewBox="0 0 24 24" fill="none" xmlns="http://www.w3.org/2000/svg">
    <g clip-path="url(#clip0_2660_187)">
        <path
            d="M12 2C14.82 2 17.15 2.95 19.1 4.9C21.05 6.85 22 9.17 22 12C22 14.83 21.05 17.14 19.08 19.09C17.11 21.04 14.8 22 12.01 22C9.22 22 6.9 21.04 4.93 19.07C2.96 17.1 2 14.77 2 11.97C2 9.17 2.96 6.91 4.93 4.93C6.9 2.96 9.22 2 12 2ZM12 0C8.69 0 5.86 1.17 3.52 3.52C1.18 5.87 0 8.68 0 11.97C0 15.26 1.17 18.14 3.52 20.48C5.87 22.82 8.7 24 12.01 24C15.32 24 18.15 22.84 20.49 20.51C22.83 18.19 24 15.35 24 12C24 8.65 22.84 5.81 20.51 3.49C18.19 1.16 15.35 0 12 0Z"
            fill="#10AC61" />
        <path
            d="M17.5761 10.3296L10.9986 16.6072C10.4694 17.1072 9.62733 17.1289 9.06973 16.6778L6.41256 14.5038C5.91754 14.107 5.86064 13.4005 6.28169 12.933C6.70843 12.4548 7.43674 12.433 7.93175 12.8026L9.78665 13.9222L15.5619 8.40562C16.9217 7.17186 18.8677 9.02522 17.5761 10.3296Z"
            fill="#10AC61" />
    </g>
    <defs>
        <clipPath id="clip0_2660_187">
            <rect width="24" height="24" fill="white" />
        </clipPath>
    </defs>
</svg>