<svg width="20" height="17" viewBox="0 0 20 17" fill="none" xmlns="http://www.w3.org/2000/svg">
<path d="M9.21733 5.23071H6.86951V7.53841H9.21733V5.23071Z" stroke="black" stroke-linejoin="round"/>
<path d="M13.1305 5.23071H10.7827V7.53841H13.1305V5.23071Z" stroke="black" stroke-linejoin="round"/>
<path d="M10 12.9231V12.4231H9.5V12.9231H10ZM12.3478 12.9231H12.8478C12.8478 12.647 12.624 12.4231 12.3478 12.4231V12.9231ZM12.3478 16V16.5H12.8478V16H12.3478ZM10 16H9.5V16.5H10V16ZM10 13.4231H12.3478V12.4231H10V13.4231ZM11.8478 12.9231V16H12.8478V12.9231H11.8478ZM12.3478 15.5H10V16.5H12.3478V15.5ZM10.5 16V12.9231H9.5V16H10.5Z" fill="black"/>
<path d="M13.1305 9.0769H10.7827V11.3846H13.1305V9.0769Z" stroke="black" stroke-linejoin="round"/>
<path d="M9.21733 9.0769H6.86951V11.3846H9.21733V9.0769Z" stroke="black" stroke-linejoin="round"/>
<path d="M7.65216 12.9231V12.4231C7.37602 12.4231 7.15216 12.647 7.15216 12.9231H7.65216ZM9.99999 12.9231H10.5L9.99999 12.4231V12.9231ZM9.99999 16V16.5C10.2761 16.5 10.5 16.2762 10.5 16H9.99999ZM7.65216 16H7.15216V16.5H7.65216V16ZM7.65216 13.4231H9.99999V12.4231H7.65216V13.4231ZM9.49999 12.9231V16H10.5V12.9231H9.49999ZM9.99999 15.5H7.65216V16.5H9.99999V15.5ZM8.15216 16V12.9231H7.15216V16H8.15216Z" fill="black"/>
<path d="M3.34783 0.5C3.07168 0.5 2.84783 0.723858 2.84783 1C2.84783 1.27614 3.07168 1.5 3.34783 1.5V0.5ZM17.0435 1.5C17.3196 1.5 17.5435 1.27614 17.5435 1C17.5435 0.723858 17.3196 0.5 17.0435 0.5V1.5ZM19 6.28036C19.2761 6.28036 19.5 6.05651 19.5 5.78036C19.5 5.50422 19.2761 5.28036 19 5.28036V6.28036ZM17.8261 16V16.5C18.1022 16.5 18.3261 16.2761 18.3261 16H17.8261ZM2.17391 16H1.67391C1.67391 16.2761 1.89777 16.5 2.17391 16.5V16ZM2.17391 6H2.67391V5.5H2.17391V6ZM1 5.5C0.723858 5.5 0.5 5.72386 0.5 6C0.5 6.27614 0.723858 6.5 1 6.5V5.5ZM8.82609 3.69231H8.32609C8.32609 3.96845 8.54994 4.19231 8.82609 4.19231V3.69231ZM11.1739 3.69231V4.19231C11.4501 4.19231 11.6739 3.96845 11.6739 3.69231H11.1739ZM15.087 1.5H17.0435V0.5H15.087V1.5ZM14.587 1V5.78036H15.587V1H14.587ZM15.087 6.28036H17.8261V5.28036H15.087V6.28036ZM17.8261 6.28036H19V5.28036H17.8261V6.28036ZM17.3261 5.78036V16H18.3261V5.78036H17.3261ZM17.8261 15.5H15.087V16.5H17.8261V15.5ZM15.587 16V5.78036H14.587V16H15.587ZM2.67391 16V6H1.67391V16H2.67391ZM2.17391 5.5H1V6.5H2.17391V5.5ZM1 6.5H4.91304V5.5H1V6.5ZM15.087 15.5H4.91304V16.5H15.087V15.5ZM4.91304 15.5H2.17391V16.5H4.91304V15.5ZM4.41304 6V16H5.41304V6H4.41304ZM3.34783 1.5H4.91304V0.5H3.34783V1.5ZM5.41304 6V1H4.41304V6H5.41304ZM4.91304 1.5H8.82609V0.5H4.91304V1.5ZM8.32609 1V3.69231H9.32609V1H8.32609ZM8.82609 4.19231H11.1739V3.19231H8.82609V4.19231ZM8.82609 1.5H11.1739V0.5H8.82609V1.5ZM11.1739 1.5H15.087V0.5H11.1739V1.5ZM11.6739 3.69231V1H10.6739V3.69231H11.6739Z" fill="black"/>
</svg>
