<svg width="221" height="200" viewBox="0 0 221 200" fill="none" xmlns="http://www.w3.org/2000/svg">
<path d="M108.089 61.0663C107.192 60.4468 105.465 59.4143 103.255 58.0376L149.596 0.285645H195.937C215.344 0.423313 227.36 21.4866 217.415 38.1445L183.229 95.5523L156.571 94.5198L108.089 61.0663Z" fill="#F4F4F4"/>
<path d="M91.3092 78.3467C94.0027 79.861 96.0745 81.0312 97.3177 81.6507L147.733 105.812L162.444 130.454L128.672 187.105C118.727 203.763 94.417 203.35 85.0936 186.348L62.8555 145.804L91.3092 78.3467Z" fill="#F4F4F4"/>
<path d="M32.1197 16.6682C22.3818 11.9186 13.4728 8.47693 7.1881 7.78859C11.6772 3.17669 17.8928 0.285645 25.1443 0.285645L115.616 0.492147L70.4493 38.5575C57.5347 31.0546 35.5037 18.3202 32.1197 16.6682Z" fill="#F4F4F4"/>
<path d="M58.576 59.0698L46.6282 116.065L3.18785 36.974C-0.0580864 31.0543 -0.610584 24.5838 0.908791 18.8018C4.29285 23.4825 10.7157 28.9204 19.0032 34.7713C22.5944 37.3182 45.1779 50.9474 58.7141 59.001L58.576 59.0698Z" fill="#F4F4F4"/>
</svg>
