<svg width="25" height="31" viewBox="0 0 25 31" fill="none" xmlns="http://www.w3.org/2000/svg">
    <path
        d="M12.5049 0C5.88488 0 0.504883 5.38 0.504883 12C0.504883 18.62 11.3649 29.54 11.8249 30.02C12.0049 30.2 12.2449 30.3 12.5049 30.3C12.7649 30.3 13.0049 30.2 13.1849 30.02C13.6449 29.55 24.5049 18.42 24.5049 12C24.5049 5.58 19.1249 0 12.5049 0ZM12.5049 27.99C9.15488 24.44 2.39488 16.37 2.39488 12C2.39488 6.43 6.93488 1.89 12.5049 1.89C18.0749 1.89 22.6149 6.42 22.6149 12C22.6149 16.37 15.8549 24.44 12.5049 27.99Z"
        fill="#666666" />
    <path
        d="M12.4849 6.5C9.44485 6.5 6.97485 8.97 6.97485 12.01C6.97485 15.05 9.44485 17.52 12.4849 17.52C15.5249 17.52 17.9949 15.05 17.9949 12.01C17.9949 8.97 15.5249 6.5 12.4849 6.5ZM12.4849 15.62C10.4949 15.62 8.87485 14 8.87485 12.01C8.87485 10.02 10.4949 8.4 12.4849 8.4C14.4749 8.4 16.0949 10.02 16.0949 12.01C16.0949 14 14.4749 15.62 12.4849 15.62Z"
        fill="#666666" />
</svg>