<svg width="26" height="17" viewBox="0 0 26 17" fill="none" xmlns="http://www.w3.org/2000/svg">
<path d="M16.5134 14.6068H9.48662V2.02972H16.5134V14.6068Z" fill="#FF5F00"/>
<path d="M9.93021 8.32327C9.93021 5.77373 11.1299 3.49521 12.995 2.03976C11.5836 0.925592 9.82939 0.323338 8.0349 0.333375C3.59907 0.333375 0 3.91678 0 8.33331C0 12.7498 3.59907 16.3333 8.0349 16.3333C9.83947 16.3333 11.5836 15.731 12.995 14.6269C11.1299 13.1614 9.93021 10.8929 9.93021 8.34335" fill="#EB001B"/>
<path d="M26 8.32327C26 12.7398 22.4009 16.3232 17.9651 16.3232C16.1605 16.3232 14.4164 15.721 13.005 14.6168C14.8701 13.1513 16.0698 10.8829 16.0698 8.33331C16.0698 5.78377 14.8701 3.50525 13.005 2.0498C14.4164 0.93563 16.1706 0.333375 17.9651 0.343413C22.4009 0.343413 26 3.92682 26 8.34335" fill="#F79E1B"/>
</svg>
