<svg width="16" height="16" viewBox="0 0 24 24" fill="none" xmlns="http://www.w3.org/2000/svg">
    <g clip-path="url(#clip0_684_11)">
        <path
            d="M12.0501 23.99C11.5001 23.99 10.9501 23.95 10.3901 23.88C5.07006 23.14 0.840058 18.92 0.110058 13.59C-0.749942 7.27001 3.43006 1.31001 9.63006 0.0200104C10.1001 -0.0799896 10.5801 0.14001 10.8101 0.56001C11.0401 0.98001 10.9701 1.50001 10.6401 1.85001C8.93006 3.63001 8.12006 6.07001 8.42006 8.53001C8.86006 12.16 11.8201 15.13 15.4601 15.57C17.9301 15.87 20.3601 15.06 22.1401 13.35C22.4901 13.02 23.0001 12.95 23.4301 13.18C23.8501 13.41 24.0701 13.89 23.9701 14.36C22.8001 20.02 17.7401 23.99 12.0601 23.99H12.0501ZM8.70006 1.83001C3.96006 3.43001 0.900058 8.28001 1.60006 13.39C2.23006 17.98 6.01006 21.76 10.6001 22.39C15.7101 23.09 20.5501 20.03 22.1601 15.29C20.1901 16.72 17.7501 17.36 15.2801 17.06C10.9701 16.53 7.46006 13.02 6.94006 8.71001C6.64006 6.24001 7.28006 3.79001 8.71006 1.83001H8.70006Z"
            fill="#666666" />
    </g>
    <defs>
        <clipPath id="clip0_684_11">
            <rect width="23.98" height="23.99" fill="white" />
        </clipPath>
    </defs>
</svg>