<svg width="7" height="14" viewBox="0 0 7 14" fill="none" xmlns="http://www.w3.org/2000/svg">
<path d="M6.48981 7.0331C6.48981 6.98978 6.48471 6.94645 6.47452 6.90854C6.46433 6.86521 6.45413 6.82188 6.44394 6.77856C6.43375 6.73523 6.41846 6.6919 6.40317 6.65399C6.38788 6.61608 6.3726 6.57817 6.35221 6.54568C6.33183 6.50235 6.31144 6.45902 6.28087 6.4157C6.27577 6.40486 6.27067 6.39403 6.26048 6.37778L2.81548 1.23272C2.40779 0.62073 1.61279 0.479918 1.03693 0.913186C0.461062 1.34645 0.328564 2.19133 0.736256 2.80332L3.65635 7.16308L0.736256 11.5228C0.328564 12.1294 0.461062 12.9797 1.03693 13.413C1.26116 13.5809 1.52106 13.6621 1.77587 13.6621C2.17337 13.6621 2.56577 13.4617 2.81548 13.0934L6.26048 7.94838C6.26048 7.94838 6.27067 7.92672 6.28087 7.91047C6.30635 7.86714 6.32673 7.82382 6.35221 7.78049C6.3726 7.74258 6.38788 7.71008 6.40317 7.67217C6.41846 7.62885 6.42865 7.59094 6.44394 7.54761C6.45413 7.50428 6.46942 7.46096 6.47452 7.41763C6.47961 7.3743 6.48471 7.33639 6.48981 7.29306C6.48981 7.24974 6.5 7.20641 6.5 7.16308C6.5 7.11976 6.5 7.07643 6.48981 7.0331Z" fill="#1E1E1E"/>
</svg>
