<svg width="16" height="20" viewBox="0 0 16 20" fill="none" xmlns="http://www.w3.org/2000/svg">
<path d="M13.4033 13.9852C12.6931 13.9852 12.0516 14.2753 11.5857 14.7334L5.04057 10.7558C5.12458 10.4962 5.18568 10.229 5.18568 9.93891C5.18568 9.6488 5.12458 9.38159 5.04057 9.12202L11.5246 5.18261C11.9981 5.68648 12.6625 6.00713 13.411 6.00713C14.8391 6.00713 16 4.84669 16 3.41903C16 1.99138 14.8391 0.830933 13.411 0.830933C11.9828 0.830933 10.822 1.99138 10.822 3.41903C10.822 3.68624 10.8754 3.94581 10.9518 4.19012L4.45251 8.13717C3.979 7.64856 3.3222 7.34317 2.59666 7.34317C1.16086 7.35844 0 8.51889 0 9.94654C0 11.3742 1.16086 12.5346 2.58902 12.5346C3.31456 12.5346 3.97136 12.2293 4.44487 11.7407L10.9747 15.7106C10.8754 15.9854 10.8143 16.2756 10.8143 16.5809C10.8143 18.0086 11.9752 19.169 13.4033 19.169C14.8315 19.169 15.9924 18.0086 15.9924 16.5809C15.9924 15.1533 14.8315 13.9928 13.4033 13.9928V13.9852ZM13.4033 1.98374C14.1976 1.98374 14.8468 2.63268 14.8468 3.42667C14.8468 4.22066 14.1976 4.86959 13.4033 4.86959C12.6091 4.86959 11.9599 4.22066 11.9599 3.42667C11.9599 2.63268 12.6091 1.98374 13.4033 1.98374ZM2.58902 11.3818C1.79475 11.3818 1.14558 10.7329 1.14558 9.93891C1.14558 9.14492 1.79475 8.49599 2.58902 8.49599C3.38329 8.49599 4.03246 9.14492 4.03246 9.93891C4.03246 10.7329 3.38329 11.3818 2.58902 11.3818ZM13.4033 18.0162C12.6091 18.0162 11.9599 17.3673 11.9599 16.5733C11.9599 15.7793 12.6091 15.1304 13.4033 15.1304C14.1976 15.1304 14.8468 15.7793 14.8468 16.5733C14.8468 17.3673 14.1976 18.0162 13.4033 18.0162Z" fill="#F4F4F4"/>
</svg>
