<svg width="21" height="24" viewBox="0 0 21 24" fill="none" xmlns="http://www.w3.org/2000/svg">
<path d="M17.5416 17.2157C16.6121 17.2157 15.7725 17.5953 15.1628 18.1948L6.59685 12.9892C6.7068 12.6495 6.78676 12.2998 6.78676 11.9201C6.78676 11.5404 6.7068 11.1907 6.59685 10.851L15.0828 5.69525C15.7025 6.3547 16.5721 6.77435 17.5516 6.77435C19.4207 6.77435 20.94 5.25562 20.94 3.38718C20.94 1.51874 19.4207 0 17.5516 0C15.6825 0 14.1632 1.51874 14.1632 3.38718C14.1632 3.73689 14.2332 4.0766 14.3332 4.39634L5.82722 9.56203C5.20751 8.92257 4.34792 8.5229 3.39838 8.5229C1.51927 8.54288 0 10.0616 0 11.9301C0 13.7985 1.51927 15.3172 3.38838 15.3172C4.33793 15.3172 5.19752 14.9176 5.81722 14.2781L14.3631 19.4738C14.2332 19.8335 14.1532 20.2132 14.1532 20.6128C14.1532 22.4813 15.6725 24 17.5416 24C19.4107 24 20.93 22.4813 20.93 20.6128C20.93 18.7444 19.4107 17.2256 17.5416 17.2256V17.2157ZM17.5416 1.50874C18.5811 1.50874 19.4307 2.35803 19.4307 3.39717C19.4307 4.4363 18.5811 5.28559 17.5416 5.28559C16.5021 5.28559 15.6525 4.4363 15.6525 3.39717C15.6525 2.35803 16.5021 1.50874 17.5416 1.50874ZM3.38838 13.8085C2.34888 13.8085 1.49928 12.9592 1.49928 11.9201C1.49928 10.8809 2.34888 10.0316 3.38838 10.0316C4.42789 10.0316 5.27748 10.8809 5.27748 11.9201C5.27748 12.9592 4.42789 13.8085 3.38838 13.8085ZM17.5416 22.4913C16.5021 22.4913 15.6525 21.642 15.6525 20.6028C15.6525 19.5637 16.5021 18.7144 17.5416 18.7144C18.5811 18.7144 19.4307 19.5637 19.4307 20.6028C19.4307 21.642 18.5811 22.4913 17.5416 22.4913Z" fill="#666666"/>
</svg>
