<svg width="21" height="24" viewBox="0 0 21 24" fill="none" xmlns="http://www.w3.org/2000/svg">
<path d="M17.5498 0C15.6798 0 14.1598 1.52 14.1598 3.38C14.1598 3.74 14.2298 4.07 14.3298 4.39L5.81982 9.56C6.16982 9.92 6.43982 10.36 6.59982 10.84L15.0798 5.69C15.6998 6.35 16.5698 6.77 17.5498 6.77C19.4198 6.77 20.9398 5.25 20.9398 3.38C20.9398 1.51 19.4198 0 17.5498 0ZM17.5498 5.27C16.5098 5.27 15.6598 4.43 15.6598 3.38C15.6598 2.33 16.5098 1.5 17.5498 1.5C18.5898 1.5 19.4398 2.34 19.4398 3.38C19.4398 4.42 18.5898 5.27 17.5498 5.27Z" fill="#EA601D"/>
<path d="M17.55 17.22C16.62 17.22 15.78 17.59 15.17 18.2L6.59 12.98C6.71 12.65 6.78 12.29 6.78 11.92C6.78 11.55 6.71982 11.18 6.59982 10.84C6.43982 10.36 6.16982 9.92 5.81982 9.56C5.20982 8.93 4.34 8.53 3.39 8.53C1.52 8.53 0 10.05 0 11.92C0 13.79 1.52 15.31 3.39 15.31C4.35 15.31 5.21 14.91 5.82 14.27L14.37 19.47C14.24 19.82 14.16 20.2 14.16 20.61C14.16 22.47 15.68 24 17.55 24C19.42 24 20.94 22.47 20.94 20.61C20.94 18.75 19.42 17.22 17.55 17.22ZM3.39 13.81C2.35 13.81 1.5 12.96 1.5 11.92C1.5 10.88 2.35 10.03 3.39 10.03C4.43 10.03 5.28 10.87 5.28 11.92C5.28 12.97 4.43 13.81 3.39 13.81ZM17.55 22.5C16.51 22.5 15.66 21.65 15.66 20.61C15.66 19.57 16.51 18.72 17.55 18.72C18.59 18.72 19.44 19.56 19.44 20.61C19.44 21.66 18.59 22.5 17.55 22.5Z" fill="#666666"/>
</svg>
