<svg width="21" height="24" viewBox="0 0 16 20" fill="none" xmlns="http://www.w3.org/2000/svg">
<path d="M13.4033 13.9852C12.6931 13.9852 12.0516 14.2753 11.5857 14.7334L5.04057 10.7558C5.12458 10.4963 5.18568 10.2291 5.18568 9.93894C5.18568 9.64883 5.12458 9.38162 5.04057 9.12205L11.5246 5.18264C11.9981 5.68651 12.6625 6.00717 13.411 6.00717C14.8391 6.00717 16 4.84672 16 3.41906C16 1.99141 14.8391 0.830963 13.411 0.830963C11.9828 0.830963 10.822 1.99141 10.822 3.41906C10.822 3.68627 10.8754 3.94585 10.9518 4.19015L4.45251 8.1372C3.979 7.64859 3.3222 7.34321 2.59666 7.34321C1.16086 7.35847 0 8.51892 0 9.94658C0 11.3742 1.16086 12.5347 2.58902 12.5347C3.31456 12.5347 3.97136 12.2293 4.44487 11.7407L10.9747 15.7106C10.8754 15.9855 10.8143 16.2756 10.8143 16.581C10.8143 18.0086 11.9752 19.1691 13.4033 19.1691C14.8315 19.1691 15.9924 18.0086 15.9924 16.581C15.9924 15.1533 14.8315 13.9929 13.4033 13.9929V13.9852ZM13.4033 1.98378C14.1976 1.98378 14.8468 2.63271 14.8468 3.4267C14.8468 4.22069 14.1976 4.86962 13.4033 4.86962C12.6091 4.86962 11.9599 4.22069 11.9599 3.4267C11.9599 2.63271 12.6091 1.98378 13.4033 1.98378ZM2.58902 11.3819C1.79475 11.3819 1.14558 10.7329 1.14558 9.93894C1.14558 9.14495 1.79475 8.49602 2.58902 8.49602C3.38329 8.49602 4.03246 9.14495 4.03246 9.93894C4.03246 10.7329 3.38329 11.3819 2.58902 11.3819ZM13.4033 18.0163C12.6091 18.0163 11.9599 17.3673 11.9599 16.5733C11.9599 15.7793 12.6091 15.1304 13.4033 15.1304C14.1976 15.1304 14.8468 15.7793 14.8468 16.5733C14.8468 17.3673 14.1976 18.0163 13.4033 18.0163Z" fill="#EB741E"/>
</svg>
