<svg width="24" height="12" viewBox="0 0 24 12" fill="none" xmlns="http://www.w3.org/2000/svg">
<path d="M22.9497 7.21L13.4497 0.46C13.4497 0.46 13.3997 0.44 13.3797 0.42C13.2997 0.37 13.2297 0.33 13.1497 0.29C13.0797 0.25 13.0097 0.22 12.9397 0.19C12.8697 0.16 12.7897 0.14 12.7097 0.11C12.6297 0.09 12.5497 0.06 12.4697 0.05C12.3897 0.04 12.3197 0.03 12.2397 0.02C12.1597 0.02 12.0797 0 11.9997 0C11.9197 0 11.8397 0 11.7597 0.02C11.6797 0.02 11.6097 0.03 11.5297 0.05C11.4497 0.07 11.3697 0.09 11.2897 0.11C11.2097 0.13 11.1397 0.15 11.0597 0.18C10.9897 0.21 10.9197 0.25 10.8497 0.28C10.7697 0.32 10.6897 0.36 10.6197 0.41C10.5997 0.42 10.5697 0.43 10.5497 0.45L1.04969 7.21C-0.0803103 8.01 -0.34031 9.57 0.45969 10.7C0.94969 11.39 1.71969 11.75 2.49969 11.75C2.99969 11.75 3.50969 11.6 3.94969 11.29L11.9997 5.56L20.0497 11.29C20.4897 11.6 20.9997 11.75 21.4997 11.75C22.2797 11.75 23.0497 11.38 23.5397 10.7C24.3397 9.58 24.0797 8.01 22.9497 7.21Z" fill="#666666"/>
</svg>
