<svg width="24" height="12" viewBox="0 0 24 12" fill="none" xmlns="http://www.w3.org/2000/svg">
<path d="M20.0536 0.473596L12.0036 6.2036L3.95359 0.473596C2.83359 -0.326404 1.2636 -0.0664042 0.463596 1.0636C-0.336404 2.1836 -0.076404 3.7536 1.0536 4.5536L10.5536 11.3136C10.6436 11.3836 10.7436 11.4336 10.8436 11.4836C10.8536 11.4836 10.8736 11.5036 10.8836 11.5036C11.0436 11.5836 11.2036 11.6436 11.3736 11.6836C11.4136 11.6836 11.4436 11.7036 11.4836 11.7136C11.6536 11.7536 11.8236 11.7736 12.0036 11.7736C12.1736 11.7736 12.3536 11.7536 12.5236 11.7136C12.5636 11.7136 12.5936 11.6936 12.6336 11.6836C12.8036 11.6436 12.9636 11.5836 13.1236 11.5036C13.1336 11.5036 13.1436 11.4836 13.1636 11.4836C13.2636 11.4336 13.3636 11.3736 13.4536 11.3036L22.9536 4.5436C24.0836 3.7436 24.3436 2.1836 23.5436 1.0536C22.7436 -0.076404 21.1836 -0.336404 20.0536 0.463596V0.473596Z" fill="#B5B5B5"/>
</svg>
