<svg width="24" height="24" viewBox="0 0 24 24" fill="none" xmlns="http://www.w3.org/2000/svg">
<path d="M22.9467 13.2078L13.4496 6.45986C13.4496 6.45986 13.3996 6.43987 13.3796 6.41987C13.2996 6.36989 13.2296 6.3299 13.1497 6.28991C13.0797 6.24993 13.0097 6.21993 12.9397 6.18994C12.8697 6.15995 12.7898 6.13996 12.7098 6.10997C12.6298 6.08997 12.5498 6.05998 12.4699 6.04999C12.3899 6.03999 12.3199 6.02999 12.2399 6.01999C12.16 6.01999 12.08 6 12 6C11.92 6 11.84 6 11.7601 6.01999C11.6801 6.01999 11.6101 6.02999 11.5301 6.04999C11.4502 6.06998 11.3702 6.08997 11.2902 6.10997C11.2102 6.12996 11.1403 6.14996 11.0603 6.17995C10.9903 6.20994 10.9203 6.24993 10.8503 6.27992C10.7704 6.3199 10.6904 6.35989 10.6204 6.40988C10.6004 6.41987 10.5704 6.42987 10.5504 6.44987L1.05328 13.2078C-0.0763812 14.0076 -0.336303 15.5671 0.463457 16.6968C0.95331 17.3866 1.72308 17.7465 2.50285 17.7465C3.0027 17.7465 3.51254 17.5965 3.95241 17.2866L12 11.5583L20.0476 17.2866C20.4875 17.5965 20.9973 17.7465 21.4972 17.7465C22.2769 17.7465 23.0467 17.3766 23.5365 16.6968C24.3363 15.5771 24.0764 14.0076 22.9467 13.2078Z" fill="#FAFAFA"/>
</svg>
