<svg width="24" height="24" viewBox="0 0 24 24" fill="none" xmlns="http://www.w3.org/2000/svg">
<path d="M20.0476 6.47265L12 12.1912L3.95241 6.47265C2.83274 5.67425 1.26322 5.93373 0.463457 7.06146C-0.336303 8.17922 -0.0763811 9.74607 1.05328 10.5445L10.5504 17.2909C10.6404 17.3608 10.7404 17.4107 10.8403 17.4606C10.8503 17.4606 10.8703 17.4805 10.8803 17.4805C11.0403 17.5604 11.2002 17.6203 11.3702 17.6602C11.4102 17.6602 11.4402 17.6801 11.4802 17.6901C11.6501 17.73 11.8201 17.75 12 17.75C12.17 17.75 12.3499 17.73 12.5198 17.6901C12.5598 17.6901 12.5898 17.6702 12.6298 17.6602C12.7998 17.6203 12.9597 17.5604 13.1197 17.4805C13.1297 17.4805 13.1397 17.4606 13.1597 17.4606C13.2596 17.4107 13.3596 17.3508 13.4496 17.2809L22.9467 10.5345C24.0764 9.73609 24.3363 8.17922 23.5365 7.05148C22.7368 5.92375 21.1772 5.66427 20.0476 6.46267V6.47265Z" fill="#FAFAFA"/>
</svg>
