<svg width="40" height="36" viewBox="0 0 29 25" fill="none" xmlns="http://www.w3.org/2000/svg">
    <g clip-path="url(#clip0_2117_150)">
        <path
            d="M28.5899 23.03L27.2999 18.73C27.1999 18.41 26.9099 18.2 26.5799 18.2H25.7599L24.8799 14.47C24.7999 14.13 24.4999 13.89 24.1499 13.89H23.2999L22.6099 10.13C22.5399 9.77 22.2299 9.52 21.8699 9.52H21.1899L20.6899 5.87C20.6399 5.5 20.32 5.22 19.9499 5.22H18.4899V1.5H19.8499C20.2599 1.5 20.5999 1.16 20.5999 0.75C20.5999 0.34 20.2599 0 19.8499 0H8.75995C8.34995 0 8.00995 0.34 8.00995 0.75C8.00995 1.16 8.34995 1.5 8.75995 1.5H10.1199V5.22H8.64995C8.26995 5.22 7.95995 5.5 7.90995 5.87L7.40995 9.52H6.72995C6.36995 9.52 6.05995 9.78 5.98995 10.13L5.29995 13.89H4.45995C4.10995 13.89 3.80995 14.13 3.72995 14.47L2.83995 18.2H2.01995C1.68995 18.2 1.39995 18.42 1.29995 18.74L0.0299485 23.04C-0.0400515 23.27 0.00994848 23.51 0.149948 23.7C0.289948 23.89 0.519948 24 0.749948 24H10.2599C10.2599 24 10.2899 24.01 10.3099 24.01H18.3099C18.3099 24.01 18.3399 24.01 18.3599 24H27.8699C28.1099 24 28.3299 23.89 28.4699 23.7C28.6099 23.51 28.6499 23.26 28.5899 23.04V23.03ZM24.2199 18.2H18.5499L18.2599 15.39H23.5599L24.2299 18.2H24.2199ZM17.4799 22.5H11.1399L11.4999 19.03L11.9299 14.75C11.9299 14.75 11.9399 14.66 11.9399 14.65L12.7099 6.99L12.7399 6.73H15.8799L16.2499 10.36L16.6899 14.63C16.6899 14.63 16.6899 14.72 16.6899 14.73L17.1299 19.04L17.3899 21.57L17.4899 22.51L17.4799 22.5ZM18.1099 13.82L17.9699 12.47L17.8199 11.02H21.2399L21.7499 13.82H18.0999H18.1099ZM19.6799 9.52H17.6699L17.5199 8.06L17.3799 6.72H19.2999L19.6799 9.52ZM11.6299 1.5H16.9899V5.22H16.5699C16.5699 5.22 16.5399 5.22 16.5299 5.22H12.0799C12.0799 5.22 12.0499 5.22 12.0399 5.22H11.6199V1.5H11.6299ZM9.31995 6.72H11.2399L10.9499 9.52H8.93995L9.31995 6.72ZM7.36995 11.02H10.7999L10.5199 13.82H6.85995L7.36995 11.02ZM5.06995 15.39H10.3599L10.0799 18.2H4.39995L5.06995 15.39ZM2.59995 19.7H9.92995L9.64995 22.5H1.75995L2.58995 19.7H2.59995ZM18.9999 22.5L18.9499 22.03L18.7099 19.7H26.0299L26.8699 22.5H18.9999Z"
            fill="#F3AC78" />
    </g>
    <defs>
        <clipPath id="clip0_2117_150">
            <rect width="28.62" height="24.01" fill="white" />
        </clipPath>
    </defs>
</svg>