<svg width="28" height="10" viewBox="0 0 28 10" fill="none" xmlns="http://www.w3.org/2000/svg">
<path d="M19.8754 9.17477C20.14 8.52732 20.3831 7.92402 20.6263 7.32808C21.4845 5.23124 22.3356 3.12704 23.1939 1.0302C23.4728 0.338614 23.7374 0.162037 24.4669 0.162037C24.9604 0.162037 25.4539 0.162037 25.9474 0.162037C26.1047 0.162037 26.2049 0.18411 26.2406 0.375401C26.8128 3.2374 27.3992 6.10676 27.9785 8.96876C27.9928 9.02026 27.9857 9.07912 28 9.17477C27.342 9.17477 26.6912 9.17477 26.0404 9.16741C25.976 9.16741 25.883 9.04234 25.8616 8.95405C25.7757 8.60089 25.7114 8.24774 25.6327 7.84309C25.4754 7.84309 25.318 7.84309 25.1607 7.84309C24.4741 7.84309 23.7875 7.8578 23.1009 7.84309C22.8363 7.84309 22.6861 7.90195 22.6217 8.18153C22.5573 8.46111 22.4501 8.72597 22.3356 8.98348C22.2999 9.07176 22.1783 9.16741 22.0925 9.17477C21.3773 9.18948 20.6621 9.18212 19.8754 9.18212V9.17477ZM25.2393 5.95961C25.0176 4.86337 24.8031 3.81863 24.5885 2.77389C24.5671 2.77389 24.5456 2.77389 24.5241 2.77389C24.1522 3.82599 23.7803 4.87809 23.4084 5.95961H25.2393Z" fill="white"/>
<path d="M10.6493 0.162037C10.5992 0.301827 10.5635 0.40483 10.5277 0.500475C9.39055 3.2889 8.25339 6.07733 7.12337 8.87312C7.0304 9.10119 6.93027 9.18948 6.67995 9.18212C5.98621 9.16005 5.29247 9.18212 4.58442 9.18212C4.26973 7.93138 3.9622 6.71006 3.65466 5.48874C3.36858 4.36307 3.07535 3.2374 2.81073 2.09702C2.68914 1.57465 2.41737 1.22885 1.93103 1.05963C1.38033 0.875699 0.82963 0.699122 0.286079 0.515189C0.207408 0.48576 0.128736 0.463688 0 0.345971C0.0858238 0.287112 0.171648 0.169395 0.257471 0.169395C1.50192 0.162038 2.73921 0.15468 3.98365 0.169395C4.47714 0.169395 4.84904 0.51519 4.95632 1.05963C5.19949 2.31038 5.42835 3.56848 5.65722 4.81923C5.73589 5.25331 5.81456 5.68004 5.91469 6.21712C6.00051 6.01847 6.05058 5.90811 6.09349 5.79775C6.78008 4.01728 7.46667 2.2368 8.13895 0.45633C8.21763 0.242968 8.3106 0.147323 8.54662 0.15468C9.23321 0.176752 9.91264 0.15468 10.6421 0.15468L10.6493 0.162037Z" fill="white"/>
<path d="M13.9607 6.83514C14.6616 7.19565 15.3481 7.41636 16.0777 7.40165C16.4424 7.39429 16.8286 7.34279 17.1648 7.203C17.7298 6.96757 17.787 6.34955 17.3078 5.96697C17.0503 5.76097 16.7428 5.61382 16.4567 5.43724C16.142 5.24595 15.8202 5.07673 15.5198 4.86337C13.8963 3.69356 14.3969 1.83215 15.4054 0.963987C16.2779 0.213539 17.3078 -0.00718058 18.402 0.000176754C19.0886 0.000176754 19.7609 0.125251 20.4332 0.412187C20.3045 1.04492 20.1757 1.66293 20.047 2.26623C19.5464 2.14852 19.0743 1.98666 18.5951 1.94251C18.2018 1.90572 17.787 1.96458 17.3936 2.04551C17.1147 2.10437 16.8501 2.31774 16.8715 2.6341C16.8858 2.84746 17.0575 3.09761 17.2363 3.2374C17.5152 3.46548 17.8585 3.61998 18.1732 3.81127C18.3949 3.94371 18.6166 4.07614 18.8383 4.21593C20.6692 5.36367 20.1257 7.62973 18.8955 8.51996C18.2447 8.99083 17.5152 9.21891 16.7356 9.29984C15.7558 9.39549 14.7903 9.28513 13.8462 8.98348C13.6174 8.9099 13.5172 8.82162 13.5959 8.54204C13.739 8.00495 13.8319 7.44579 13.9535 6.85721L13.9607 6.83514Z" fill="white"/>
<path d="M13.8891 0.162037C13.2598 3.19326 12.6375 6.17298 12.0153 9.16005H9.73384C9.82682 8.68918 9.9198 8.23303 10.0128 7.77687C10.5206 5.33424 11.0355 2.89896 11.5361 0.45633C11.5862 0.228253 11.6577 0.147323 11.8866 0.15468C12.5374 0.169395 13.1883 0.15468 13.882 0.15468L13.8891 0.162037Z" fill="white"/>
</svg>
