<svg width="24" height="24" viewBox="0 0 24 24" fill="none" xmlns="http://www.w3.org/2000/svg">
<g clip-path="url(#clip0_3109_118)">
<path d="M15.0299 18.93C12.3499 18.83 9.51989 17.25 7.44989 14.71C5.31989 12.08 3.93989 8.44 6.47989 6.1C7.26989 5.37 8.01989 5.03 8.73989 5.08C9.73989 5.15 10.2099 5.94 10.5199 6.46L10.5899 6.57C10.6799 6.72 10.7799 6.87 10.8899 7.02C11.2399 7.54 11.6399 8.12 11.7699 8.77C11.9799 9.85 11.2599 10.46 10.7799 10.86C10.6999 10.93 10.6199 11 10.5399 11.07C10.6099 11.19 10.7399 11.35 10.8199 11.45L10.9299 11.59C11.3699 12.15 11.8599 12.64 12.3699 13.04L12.5199 13.16C12.6199 13.24 12.8299 13.42 12.9799 13.49C13.0499 13.41 13.1299 13.31 13.2099 13.2C13.4999 12.81 13.9299 12.22 14.8199 12.2C15.6099 12.2 16.3199 12.67 16.8999 13.06C17.0299 13.15 17.1599 13.24 17.2699 13.31L17.4599 13.42C18.0599 13.77 18.9699 14.3 18.9499 15.42C18.9199 17.25 16.9399 18.61 15.5199 18.88C15.3899 18.91 15.2499 18.91 15.1499 18.92C15.1299 18.92 15.0599 18.92 15.0299 18.92V18.93ZM8.59989 6.58C8.44989 6.58 8.09989 6.65 7.49989 7.2C5.19989 9.31 8.02989 13.03 8.61989 13.76C10.4099 15.97 12.8199 17.33 15.0599 17.43C15.0799 17.43 15.0999 17.43 15.0999 17.43C15.1399 17.43 15.1899 17.43 15.2399 17.42C16.2199 17.23 17.4399 16.27 17.4499 15.41C17.4499 15.2 17.2199 15.03 16.6999 14.72L16.4899 14.59C16.3499 14.51 16.2099 14.41 16.0499 14.3C15.6699 14.04 15.1399 13.69 14.8399 13.7C14.7199 13.7 14.6699 13.74 14.4199 14.08C14.2399 14.33 14.0099 14.64 13.6399 14.86C12.8199 15.34 12.0099 14.68 11.5699 14.32L11.4499 14.22C10.8399 13.74 10.2699 13.17 9.74989 12.52L9.64989 12.4C9.33989 12.01 8.50989 10.99 9.37989 10.1C9.50989 9.97 9.65989 9.84 9.80989 9.72C10.2699 9.34 10.3199 9.24 10.2899 9.07C10.2199 8.72 9.90989 8.27 9.63989 7.87C9.51989 7.69 9.39989 7.52 9.29989 7.35L9.22989 7.23C8.96989 6.79 8.81989 6.59 8.62989 6.57C8.62989 6.57 8.60989 6.57 8.59989 6.57V6.58Z" fill="#EB741E"/>
<path d="M12.02 0C5.41 0 0.04 5.38 0.04 12C0.04 14.02 0.57 16 1.55 17.77L0.03 23.03C0.03 23.03 0.03 23.09 0.03 23.12C0.03 23.16 0 23.2 0 23.25C0 23.29 0.01 23.32 0.02 23.35C0.02 23.36 0.02 23.38 0.02 23.39C0.07 23.61 0.21 23.8 0.42 23.91C0.44 23.91 0.45 23.93 0.46 23.94C0.55 23.98 0.65 24 0.74 24C0.76 24 0.77 24 0.79 24C0.85 24 0.91 23.99 0.96 23.97C0.96 23.97 0.97 23.97 0.98 23.97C0.98 23.97 0.99 23.97 1 23.97L6.19 22.47C7.96 23.47 9.96 24.02 12.01 24.02C18.62 24.02 23.99 18.64 23.99 12.02C23.99 5.4 18.63 0 12.02 0ZM12.02 22.5C10.13 22.5 8.28 21.98 6.67 21.01C6.67 21.01 6.67 21.01 6.66 21.01C6.6 20.98 6.54 20.96 6.48 20.94C6.45 20.94 6.42 20.91 6.39 20.91C6.34 20.91 6.3 20.91 6.25 20.91C6.2 20.91 6.15 20.91 6.1 20.92C6.1 20.92 6.09 20.92 6.08 20.92L1.86 22.14L3.09 17.9C3.09 17.9 3.09 17.9 3.09 17.89C3.11 17.83 3.1 17.77 3.11 17.7C3.11 17.67 3.12 17.63 3.11 17.6C3.11 17.57 3.09 17.54 3.08 17.51C3.06 17.44 3.05 17.38 3.01 17.32C2.06 15.7 1.55 13.86 1.55 12C1.54 6.21 6.24 1.5 12.02 1.5C17.8 1.5 22.5 6.21 22.5 12C22.5 17.79 17.8 22.5 12.02 22.5Z" fill="#666666"/>
</g>
<defs>
<clipPath id="clip0_3109_118">
<rect width="24" height="24" fill="white"/>
</clipPath>
</defs>
</svg>
