<svg width="25" height="24" viewBox="0 0 25 24" fill="none" xmlns="http://www.w3.org/2000/svg">
<g clip-path="url(#clip0_1170_1012)">
<path d="M23.9965 15.33C23.6265 15.15 23.1765 15.3 22.9965 15.67C22.7365 16.19 21.7665 17.89 19.9565 17.9C18.7165 17.9 17.5865 17.12 17.1365 15.95C16.9865 15.55 16.6165 15.29 16.1965 15.29C15.7765 15.29 15.4065 15.55 15.2565 15.95C14.8165 17.12 13.6865 17.91 12.4365 17.91C11.1665 17.91 10.0565 17.15 9.60646 15.96C9.45646 15.56 9.08646 15.3 8.66646 15.3C8.24646 15.3 7.87646 15.56 7.72646 15.96C7.28646 17.15 6.17646 17.92 4.91646 17.92C3.26646 17.92 2.54646 16.79 1.84646 15.69L1.82646 15.67C1.60646 15.32 1.14646 15.23 0.796464 15.45C0.446464 15.67 0.356464 16.15 0.576464 16.5C1.31646 17.67 2.43646 19.43 4.91646 19.43H4.92646C6.45646 19.43 7.86646 18.64 8.68646 17.4C9.51646 18.64 10.9265 19.42 12.4565 19.42C13.9865 19.42 15.3965 18.63 16.2165 17.39C17.0465 18.63 18.4465 19.41 19.9765 19.41C22.6465 19.41 24.0065 17.06 24.3565 16.35C24.5365 15.98 24.3865 15.53 24.0165 15.35L23.9965 15.33Z" fill="#666666"/>
<path d="M23.9964 19.92C23.6264 19.74 23.1764 19.89 22.9964 20.26C22.7364 20.78 21.7664 22.48 19.9564 22.48C18.7164 22.48 17.5864 21.7 17.1464 20.53C16.9964 20.13 16.6264 19.87 16.2064 19.87C15.7864 19.87 15.4164 20.13 15.2664 20.53C14.8264 21.7 13.6964 22.49 12.4464 22.49C11.1764 22.49 10.0664 21.73 9.62642 20.54C9.47642 20.14 9.10642 19.88 8.68642 19.88C8.26642 19.88 7.89642 20.14 7.74642 20.54C7.30642 21.71 6.20642 22.47 4.93642 22.47C3.26642 22.47 2.54642 21.34 1.84642 20.24C1.62642 19.89 1.15642 19.79 0.806415 20.01C0.456415 20.23 0.356415 20.7 0.576415 21.05C1.31642 22.21 2.43642 23.97 4.92642 23.97H4.93642C6.48641 23.97 7.87641 23.21 8.69641 21.97C9.52641 23.2 10.9364 23.98 12.4564 23.98H12.4664C13.9964 23.98 15.4064 23.19 16.2364 21.95C17.0664 23.19 18.4664 23.97 19.9964 23.97H20.0064C22.6764 23.97 24.0364 21.62 24.3864 20.91C24.5664 20.54 24.4164 20.09 24.0464 19.91L23.9964 19.92Z" fill="#666666"/>
<path d="M4.89644 14.85C6.42644 14.85 7.83644 14.06 8.65644 12.82C9.48644 14.06 10.8964 14.84 12.4264 14.84C13.9564 14.84 15.3664 14.05 16.1964 12.81C17.0264 14.05 18.4264 14.83 19.9564 14.83C22.6264 14.83 23.9864 12.48 24.3364 11.77C24.5164 11.4 24.3664 10.95 23.9964 10.77C23.6264 10.59 23.1764 10.74 22.9964 11.11C22.7364 11.63 21.7664 13.33 19.9564 13.34C19.8364 13.34 19.7264 13.33 19.6164 13.31V10.87C19.6164 10.87 19.6664 10.87 19.6864 10.87C20.3564 10.87 21.0164 10.67 21.5764 10.29C22.3364 9.77999 22.8464 9.00999 23.0164 8.10999C23.1864 7.21999 23.0064 6.30999 22.4964 5.55999C21.9864 4.79999 21.2164 4.28999 20.3264 4.11999C19.3864 3.93999 18.4564 4.16999 17.7164 4.68999C16.6264 2.12999 14.3864 0.809993 13.0564 0.579993L10.3864 0.0399932C9.92644 -0.0500068 9.45644 0.0299932 9.09644 0.239993C8.55644 0.519993 8.18644 1.00999 8.06644 1.60999C7.96644 2.12999 8.06644 2.65999 8.36644 3.09999C8.66644 3.53999 9.11644 3.83999 9.63644 3.94999L11.2264 4.25999C12.0964 4.42999 12.7464 5.12999 12.8564 5.98999L8.45644 10.77C8.11644 10.84 7.83644 11.07 7.70644 11.4C7.26644 12.59 6.15644 13.36 4.89644 13.36C3.24644 13.36 2.52644 12.23 1.82644 11.13L1.80644 11.1C1.58644 10.75 1.12644 10.66 0.776444 10.88C0.426444 11.1 0.336444 11.58 0.556444 11.93C1.29644 13.1 2.41644 14.85 4.89644 14.85ZM19.6664 5.53999C19.7864 5.53999 19.9064 5.54999 20.0364 5.57999C20.5364 5.67999 20.9664 5.95999 21.2564 6.38999C21.5464 6.81999 21.6464 7.31999 21.5464 7.81999C21.4464 8.31999 21.1664 8.74999 20.7364 9.03999C20.3164 9.31999 19.8064 9.42999 19.3064 9.32999C18.7164 9.20999 18.2264 8.84999 17.9564 8.28999C17.7664 7.92999 17.7064 7.51999 17.7964 7.09999C17.8364 6.87999 17.9164 6.67999 18.0264 6.49999V6.48999C18.3664 5.91999 18.9864 5.55999 19.6564 5.55999L19.6664 5.53999ZM11.5064 2.76999L9.91644 2.45999C9.79644 2.43999 9.68644 2.35999 9.61644 2.25999C9.54644 2.14999 9.51644 2.01999 9.54644 1.88999C9.58644 1.69999 9.71644 1.60999 9.81644 1.54999C9.90644 1.49999 10.0064 1.48999 10.1164 1.50999L12.7964 2.02999C13.7464 2.19999 15.8764 3.39999 16.6064 6.01999C16.4964 6.25999 16.3964 6.51999 16.3464 6.79999C16.1964 7.56999 16.3064 8.31999 16.6464 8.95999C16.9564 9.60999 17.4864 10.13 18.1264 10.46V12.68C17.6964 12.35 17.3564 11.9 17.1564 11.38C17.0064 10.98 16.6364 10.72 16.2164 10.72C15.7964 10.72 15.4264 10.98 15.2764 11.38C14.8364 12.55 13.7064 13.34 12.4564 13.34C11.2764 13.34 10.2364 12.67 9.73644 11.62L14.2064 6.75999C14.3364 6.61999 14.4064 6.43999 14.4064 6.24999C14.4064 4.55999 13.2064 3.09999 11.5464 2.77999L11.5064 2.76999Z" fill="#666666"/>
</g>
<defs>
<clipPath id="clip0_1170_1012">
<rect width="24" height="24" fill="white" transform="translate(0.416504)"/>
</clipPath>
</defs>
</svg>
