<svg width="25" height="25" viewBox="0 0 25 25" fill="none" xmlns="http://www.w3.org/2000/svg">
<g clip-path="url(#clip0_1170_1016)">
<path d="M22.9966 6.40499C22.4866 5.64499 21.7166 5.13499 20.8266 4.95499C19.8866 4.77499 18.9566 5.01499 18.2166 5.52499C17.1366 2.96499 14.8866 1.64499 13.5566 1.41499L10.8966 0.894989C10.4366 0.804989 9.96656 0.884989 9.60656 1.09499C9.06656 1.36499 8.68656 1.86499 8.57656 2.46499C8.47656 2.98499 8.57656 3.50499 8.87656 3.94499C9.16656 4.39499 9.61656 4.69499 10.1366 4.79499L11.7266 5.10499C12.5966 5.27499 13.2466 5.97499 13.3666 6.83499L8.96656 11.605C9.02656 11.595 9.09656 11.585 9.15656 11.585C9.57656 11.585 9.94656 11.845 10.0966 12.245C10.1266 12.325 10.1666 12.405 10.2066 12.485L14.6766 7.61499C14.8066 7.47499 14.8766 7.29499 14.8766 7.10499C14.8766 5.41499 13.6766 3.95499 12.0166 3.63499L10.4266 3.32499C10.2966 3.29499 10.1966 3.22499 10.1266 3.11499C10.0466 3.00499 10.0266 2.87499 10.0466 2.74499C10.0866 2.55499 10.2166 2.46499 10.3166 2.41499C10.4066 2.36499 10.5066 2.34499 10.6166 2.36499L13.2866 2.88499C14.2466 3.05499 16.3666 4.26499 17.0966 6.87499C16.9766 7.12499 16.8866 7.37499 16.8366 7.65499C16.6866 8.41499 16.7866 9.17499 17.1266 9.80499C17.4366 10.465 17.9766 10.975 18.6166 11.315V13.535C19.0466 13.875 19.5666 14.095 20.1166 14.145V11.705C20.1166 11.705 20.1566 11.715 20.1866 11.715C20.8566 11.715 21.5066 11.515 22.0766 11.135C22.8366 10.625 23.3466 9.85499 23.5266 8.95499C23.6966 8.06499 23.5066 7.15499 22.9966 6.40499ZM22.0466 8.66499C21.9566 9.16499 21.6666 9.60499 21.2466 9.88499C20.8166 10.165 20.3166 10.275 19.8166 10.175C19.2166 10.055 18.7366 9.69499 18.4666 9.13499C18.2766 8.77499 18.2166 8.36499 18.3066 7.93499C18.3466 7.72499 18.4266 7.51499 18.5366 7.33499C18.5366 7.33499 18.5366 7.32499 18.5466 7.32499C18.8866 6.75499 19.5066 6.39499 20.1766 6.39499C20.2966 6.39499 20.4166 6.40499 20.5466 6.43499C21.0366 6.52499 21.4666 6.81499 21.7566 7.23499C22.0466 7.66499 22.1466 8.17499 22.0466 8.66499Z" fill="#666666"/>
<path d="M5.39669 20.285C2.91669 20.285 1.79669 18.525 1.05669 17.355C0.836688 17.005 0.926688 16.525 1.27669 16.305C1.62669 16.085 2.08669 16.175 2.30669 16.525L2.32669 16.545C3.02669 17.645 3.74669 18.775 5.39669 18.775C6.66669 18.775 7.76669 18.005 8.20669 16.815C8.35669 16.415 8.72669 16.155 9.14669 16.155C9.56669 16.155 9.93669 16.415 10.0867 16.815C10.5367 17.995 11.6467 18.765 12.9167 18.765C14.1667 18.765 15.2967 17.975 15.7367 16.805C15.8867 16.405 16.2567 16.145 16.6767 16.145C17.0967 16.145 17.4667 16.405 17.6167 16.805C18.0567 17.965 19.1867 18.755 20.4367 18.755C22.2367 18.755 23.2167 17.055 23.4767 16.525C23.6567 16.155 24.1067 15.995 24.4767 16.185C24.8467 16.365 24.9967 16.815 24.8167 17.185C24.4667 17.905 23.1067 20.245 20.4367 20.245C18.9167 20.245 17.5067 19.465 16.6767 18.225C15.8567 19.465 14.4367 20.255 12.9167 20.255C11.3867 20.255 9.97669 19.475 9.14669 18.235C8.32669 19.475 6.91669 20.265 5.38669 20.265H5.37669L5.39669 20.285Z" fill="#EB741E"/>
<path d="M12.9266 24.855C11.3966 24.855 9.98663 24.075 9.16663 22.845C8.35663 24.085 6.96663 24.845 5.40663 24.845H5.39663C2.90663 24.845 1.78663 23.085 1.04663 21.925C0.82663 21.575 0.92663 21.115 1.27663 20.885C1.62663 20.665 2.08663 20.765 2.31663 21.115C3.01663 22.205 3.73663 23.345 5.40663 23.345C6.67663 23.345 7.78663 22.585 8.21663 21.415C8.36663 21.015 8.73663 20.755 9.15663 20.755C9.57663 20.755 9.94663 21.015 10.0966 21.415C10.5466 22.595 11.6566 23.365 12.9166 23.365C14.1666 23.365 15.2966 22.575 15.7366 21.405C15.8866 21.005 16.2566 20.745 16.6766 20.745C17.0966 20.745 17.4666 21.005 17.6166 21.405C18.0566 22.565 19.1866 23.355 20.4266 23.355C22.2366 23.355 23.2066 21.655 23.4666 21.135C23.6466 20.765 24.0966 20.615 24.4666 20.795C24.8366 20.975 24.9866 21.425 24.8066 21.795C24.4566 22.515 23.0966 24.855 20.4266 24.855H20.4166C18.8966 24.855 17.4866 24.075 16.6566 22.835C15.8366 24.075 14.4166 24.865 12.8866 24.865H12.8766L12.9266 24.855Z" fill="#EB741E"/>
<path d="M24.8467 12.615C24.4967 13.335 23.1367 15.665 20.4667 15.675H20.4567C18.9367 15.675 17.5267 14.895 16.6967 13.655C15.8767 14.905 14.4667 15.685 12.9367 15.695H12.9267C11.3967 15.695 9.98669 14.915 9.15669 13.675C8.33669 14.915 6.92669 15.705 5.40669 15.705H5.39669C2.91669 15.705 1.79669 13.945 1.05669 12.785C0.836688 12.435 0.926688 11.955 1.27669 11.735C1.62669 11.515 2.08669 11.605 2.30669 11.955L2.32669 11.975C3.01669 13.075 3.73669 14.205 5.39669 14.205C6.66669 14.205 7.76669 13.435 8.21669 12.245C8.34669 11.905 8.62669 11.665 8.96669 11.605C9.02669 11.595 9.09669 11.585 9.15669 11.585C9.57669 11.585 9.94669 11.845 10.0967 12.245C10.1267 12.325 10.1667 12.405 10.2067 12.485C10.7067 13.525 11.7467 14.195 12.9267 14.195H12.9367C14.1767 14.185 15.3167 13.405 15.7567 12.235C15.9067 11.835 16.2767 11.575 16.6967 11.575C17.1167 11.575 17.4867 11.825 17.6367 12.225C17.8367 12.755 18.1867 13.205 18.6167 13.535C19.0467 13.875 19.5667 14.095 20.1167 14.145C20.2267 14.165 20.3467 14.175 20.4567 14.175H20.4667C22.2667 14.175 23.2467 12.475 23.4967 11.955C23.6867 11.575 24.1367 11.425 24.5067 11.605C24.8767 11.795 25.0267 12.245 24.8467 12.615Z" fill="#EB741E"/>
</g>
<defs>
<clipPath id="clip0_1170_1016">
<rect width="24" height="24" fill="white" transform="translate(0.926514 0.854996)"/>
</clipPath>
</defs>
</svg>
