<svg width="25" height="25" viewBox="0 0 25 25" fill="none" xmlns="http://www.w3.org/2000/svg">
<g clip-path="url(#clip0_1172_1047)">
<path d="M24.2093 14.604C24.2093 14.604 24.2093 14.594 24.1993 14.584L21.8193 11.754L21.7993 5.14403C21.7993 2.32403 19.4793 0.0240326 16.6293 0.0240326H8.73932C4.21932 0.0240326 0.549316 3.66403 0.549316 8.13403V16.204C0.549316 20.524 4.08932 24.034 8.44932 24.034H18.9793C20.4293 24.034 21.6293 22.934 21.7793 21.534L22.2693 20.934C22.8093 20.264 23.0393 19.404 22.8793 18.564C22.8093 18.174 22.6593 17.804 22.4393 17.474L23.0993 17.224C23.7393 17.084 24.2393 16.684 24.4493 16.124C24.6393 15.614 24.5493 15.054 24.1993 14.614L24.2093 14.604ZM9.73932 15.034C8.91932 15.034 8.24932 14.364 8.24932 13.544V8.65403H11.2393V15.034H9.73932ZM11.9993 7.15403C11.9993 7.15403 11.9993 7.15403 11.9893 7.15403H7.49932C7.49932 7.15403 7.49932 7.15403 7.48932 7.15403H2.12932C2.20932 6.65403 2.33932 6.16403 2.51932 5.70403H20.2893V7.15403H11.9993ZM8.73932 1.53403H16.6293C18.3193 1.53403 19.7293 2.67403 20.1493 4.20403H3.36932C4.58932 2.58403 6.52932 1.53403 8.72932 1.53403H8.73932ZM2.04932 16.194V8.64403H6.73932V13.534C6.73932 15.124 7.98932 16.414 9.55932 16.504V22.524H8.44932C4.91932 22.524 2.04932 19.684 2.04932 16.194ZM23.0493 15.564C23.0493 15.564 22.9793 15.704 22.7593 15.744C22.7093 15.744 22.6693 15.764 22.6193 15.784L20.8093 16.484C20.5393 16.584 20.3593 16.834 20.3293 17.124C20.2993 17.414 20.4493 17.684 20.6993 17.834C20.9293 17.964 21.0993 18.154 21.2293 18.374H19.2493C18.8393 18.374 18.4993 18.714 18.4993 19.124C18.4993 19.534 18.8393 19.874 19.2493 19.874H21.1593C21.1593 19.874 21.1193 19.944 21.0993 19.974L20.4493 20.764C20.3393 20.894 20.2793 21.064 20.2793 21.234C20.2793 21.944 19.6893 22.514 18.9693 22.514H11.0493V16.514H11.9693C12.3793 16.514 12.7193 16.174 12.7193 15.764V8.63403H20.2893V12.014C20.2993 12.194 20.3593 12.364 20.4793 12.494L23.0393 15.534V15.554L23.0493 15.564Z" fill="#666666"/>
<path d="M18.1393 11.524H15.3193C14.9093 11.524 14.5693 11.864 14.5693 12.274C14.5693 12.684 14.9093 13.024 15.3193 13.024H18.1393C18.5493 13.024 18.8893 12.684 18.8893 12.274C18.8893 11.864 18.5493 11.524 18.1393 11.524Z" fill="#666666"/>
</g>
<defs>
<clipPath id="clip0_1172_1047">
<rect width="24" height="24" fill="white" transform="translate(0.549316 0.0240326)"/>
</clipPath>
</defs>
</svg>
