<svg width="25" height="25" viewBox="0 0 25 25" fill="none" xmlns="http://www.w3.org/2000/svg">
<g clip-path="url(#clip0_1172_1050)">
<path d="M20.2893 5.985V6.535H2.5293C2.7393 5.995 3.0293 5.485 3.3793 5.035H20.1593C20.2493 5.335 20.2893 5.655 20.2893 5.985Z" fill="#EB741E"/>
<path d="M11.9993 7.985H2.12932C2.07932 8.305 2.04932 8.635 2.04932 8.975V9.485H6.73932V14.375C6.73932 15.965 7.99932 17.255 9.55932 17.345V23.365H11.0593V17.365H11.9793C12.3993 17.365 12.7293 17.025 12.7293 16.615V9.485H20.2993V7.985H11.9993ZM11.2293 15.865H9.72932C8.90932 15.865 8.23932 15.195 8.23932 14.375V9.485H11.2293V15.865Z" fill="#EB741E"/>
<path d="M24.2093 15.435C24.2093 15.435 24.1993 15.435 24.1893 15.435L21.8093 12.605L21.7893 5.99501C21.7893 3.17501 19.4693 0.875005 16.6293 0.875005H8.73932C4.21932 0.865005 0.549316 4.50501 0.549316 8.97501V17.035C0.549316 21.355 4.09932 24.865 8.44932 24.865H18.9793C20.4293 24.865 21.6293 23.765 21.7793 22.365L22.2693 21.765C22.8093 21.095 23.0293 20.235 22.8793 19.395C22.8093 18.995 22.6593 18.625 22.4393 18.305L23.0993 18.045C23.7393 17.915 24.2393 17.505 24.4493 16.955C24.6493 16.445 24.5493 15.875 24.2093 15.435ZM23.0493 16.405C23.0493 16.405 22.9793 16.545 22.7593 16.585C22.7093 16.595 22.6693 16.605 22.6193 16.625L20.8093 17.325C20.5393 17.425 20.3593 17.675 20.3293 17.965C20.3093 18.255 20.4593 18.525 20.7093 18.675C20.9293 18.805 21.1193 18.995 21.2293 19.215H19.2593C18.8393 19.215 18.5093 19.555 18.5093 19.965C18.5093 20.375 18.8393 20.715 19.2593 20.715H21.1693C21.1693 20.715 21.1293 20.785 21.0993 20.815L20.4593 21.615C20.3493 21.745 20.2893 21.915 20.2893 22.085C20.2893 22.795 19.6993 23.365 18.9793 23.365H8.44932C4.91932 23.365 2.04932 20.525 2.04932 17.035V8.97501C2.04932 8.635 2.07932 8.30501 2.12932 7.98501C2.19932 7.47501 2.33932 6.99501 2.52932 6.53501C2.73932 5.99501 3.02932 5.48501 3.37932 5.03501C4.58932 3.41501 6.53932 2.36501 8.73932 2.36501H16.6293C18.3193 2.36501 19.7393 3.49501 20.1593 5.03501C20.2493 5.33501 20.2893 5.65501 20.2893 5.98501V7.98501L20.2993 9.48501V12.865C20.2993 13.045 20.3793 13.215 20.4893 13.345L23.0493 16.385V16.405Z" fill="#666666"/>
<path d="M18.1393 12.365H15.3193C14.9093 12.365 14.5693 12.705 14.5693 13.115C14.5693 13.525 14.9093 13.865 15.3193 13.865H18.1393C18.5493 13.865 18.8893 13.525 18.8893 13.115C18.8893 12.705 18.5493 12.365 18.1393 12.365Z" fill="#666666"/>
</g>
<defs>
<clipPath id="clip0_1172_1050">
<rect width="24" height="24" fill="white" transform="translate(0.549316 0.865005)"/>
</clipPath>
</defs>
</svg>
