<svg width="24" height="24" viewBox="0 0 24 24" fill="none" xmlns="http://www.w3.org/2000/svg">
<g clip-path="url(#clip0_1170_1022)">
<path d="M24 11.4C24 10.99 23.66 10.65 23.25 10.65C22.84 10.65 22.5 10.99 22.5 11.4V13.52H21.53V11.4C21.53 10.99 21.19 10.65 20.78 10.65C20.37 10.65 20.03 10.99 20.03 11.4V13.54H19.06V9.09999C19.06 8.68999 18.72 8.34999 18.31 8.34999H12.73V6.00999L17.12 3.81999C17.37 3.68999 17.53 3.42999 17.53 3.14999C17.53 2.86999 17.37 2.60999 17.12 2.47999L12.32 0.0799945H12.3C12.25 0.0599945 12.2 0.0499945 12.15 0.0399945C12.1 0.0299945 12.06 0.00999451 12.01 0.00999451H11.99C11.95 0.00999451 11.92 0.0299945 11.88 0.0299945C11.83 0.0299945 11.78 0.0399945 11.73 0.0599945C11.68 0.0799945 11.65 0.109995 11.6 0.129995C11.56 0.159994 11.52 0.179994 11.48 0.209994C11.44 0.249994 11.41 0.289995 11.38 0.339995C11.36 0.369995 11.33 0.389995 11.31 0.429995V0.449995C11.29 0.489994 11.28 0.539994 11.27 0.589994C11.26 0.639995 11.24 0.689995 11.24 0.739995C11.24 0.739995 11.24 0.749995 11.24 0.759995V8.36999H5.98C5.57 8.36999 5.23 8.70999 5.23 9.11999V13.57H3.97V11.42C3.97 11.01 3.63 10.67 3.22 10.67C2.81 10.67 2.47 11.01 2.47 11.42V13.55H1.5V11.42C1.5 11.01 1.16 10.67 0.75 10.67C0.34 10.67 0 11.01 0 11.42V23.27C0 23.68 0.34 24.02 0.75 24.02H9.95C10.36 24.02 10.7 23.68 10.7 23.27V18.82C10.7 18.11 11.28 17.53 11.99 17.53C12.7 17.53 13.28 18.11 13.28 18.82V23.27C13.28 23.68 13.62 24.02 14.03 24.02H23.23C23.64 24.02 23.98 23.68 23.98 23.27V14.39C23.98 14.39 24 14.32 24 14.28V11.42V11.4ZM12.74 4.33999V1.95999L15.11 3.14999L12.74 4.33999ZM15.07 9.85999V12.08H13.7V9.85999H15.07ZM10.27 9.85999V12.08H8.9V9.85999H10.27ZM1.5 15.02L5.23 15.06V22.51H1.5V15.03V15.02ZM11.99 16.01C10.45 16.01 9.2 17.26 9.2 18.8V22.5H6.73V9.85999H7.41V12.83C7.41 13.24 7.75 13.58 8.16 13.58H11.03C11.44 13.58 11.78 13.24 11.78 12.83V9.85999H12.22V12.83C12.22 13.24 12.56 13.58 12.97 13.58H15.84C16.25 13.58 16.59 13.24 16.59 12.83V9.85999H17.59V22.5H14.8V18.8C14.8 17.26 13.55 16.01 12.01 16.01H11.99ZM22.48 22.51H19.07V15.06L22.48 15.03V22.51Z" fill="#666666"/>
</g>
<defs>
<clipPath id="clip0_1170_1022">
<rect width="24" height="24" fill="white"/>
</clipPath>
</defs>
</svg>
