<svg width="24" height="25" viewBox="0 0 24 25" fill="none" xmlns="http://www.w3.org/2000/svg">
<g clip-path="url(#clip0_1170_1024)">
<path d="M11.99 10.725H12.21V10.695C12.14 10.715 12.07 10.725 11.99 10.725ZM11.77 10.695V10.725H11.99C11.91 10.725 11.84 10.715 11.77 10.695ZM12.74 9.22501V9.26501C12.81 9.23501 12.88 9.22501 12.96 9.22501H12.74ZM11.99 10.725H12.21V10.695C12.14 10.715 12.07 10.725 11.99 10.725ZM11.77 10.695V10.725H11.99C11.91 10.725 11.84 10.715 11.77 10.695ZM11.02 9.22501C11.1 9.22501 11.17 9.23501 11.24 9.26501V9.22501H11.02Z" fill="#666666"/>
<path d="M18.32 9.22501H12.96C12.88 9.22501 12.81 9.23501 12.74 9.26501V9.22501H11.24V9.26501C11.17 9.23501 11.1 9.22501 11.02 9.22501H5.97998C5.55998 9.22501 5.22998 9.56501 5.22998 9.97501V24.115C5.22998 24.535 5.55998 24.865 5.97998 24.865H9.94998C10.36 24.865 10.7 24.535 10.7 24.115V19.665C10.7 18.955 11.28 18.375 11.99 18.375C12.7 18.375 13.28 18.955 13.28 19.665V24.115C13.28 24.535 13.62 24.865 14.03 24.865H18.32C18.73 24.865 19.07 24.535 19.07 24.115V9.97501C19.07 9.56501 18.73 9.22501 18.32 9.22501ZM17.57 23.365H14.78V19.665C14.78 18.125 13.53 16.875 11.99 16.875C10.45 16.875 9.19998 18.125 9.19998 19.665V23.365H6.72998V10.725H11.77V10.695C11.84 10.715 11.91 10.725 11.99 10.725C12.07 10.725 12.14 10.715 12.21 10.695V10.725H17.57V23.365Z" fill="#EB741E"/>
<path d="M17.1302 3.335L12.3302 0.935003C12.2802 0.915003 12.2302 0.895003 12.1702 0.885003C12.0502 0.855003 11.9302 0.855003 11.8102 0.885003C11.7502 0.905003 11.6902 0.925003 11.6302 0.955003C11.6002 0.965003 11.5702 0.985003 11.5502 1.005C11.5502 1.005 11.5469 1.005 11.5402 1.005C11.4902 1.035 11.4502 1.075 11.4202 1.115C11.3802 1.165 11.3502 1.215 11.3202 1.265C11.2602 1.375 11.2402 1.495 11.2402 1.605V9.205H12.7402V6.875L17.1302 4.675C17.3802 4.545 17.5402 4.285 17.5402 4.005C17.5402 3.725 17.3802 3.455 17.1302 3.325V3.335ZM12.7402 5.195V2.835L15.1102 4.015L12.7402 5.195Z" fill="#666666"/>
<path d="M5.98 24.865H0.75C0.34 24.865 0 24.535 0 24.115V12.265C0 11.855 0.34 11.515 0.75 11.515C1.16 11.515 1.5 11.855 1.5 12.265V14.395H2.47V12.265C2.47 11.855 2.8 11.515 3.22 11.515C3.64 11.515 3.97 11.855 3.97 12.265V14.415H5.23V15.915L1.5 15.885V23.365H5.23V24.115C5.23 24.535 5.56 24.865 5.98 24.865Z" fill="#666666"/>
<path d="M23.9998 12.265V15.135C23.9998 15.185 23.9898 15.235 23.9798 15.285V24.115C23.9798 24.535 23.6398 24.865 23.2298 24.865H18.3198C18.7298 24.865 19.0698 24.535 19.0698 24.115V23.365H22.4798V15.885L19.0698 15.915V14.425H20.0298V12.265C20.0298 11.855 20.3698 11.515 20.7798 11.515C21.1898 11.515 21.5298 11.855 21.5298 12.265V14.405H22.4998V12.265C22.4998 11.855 22.8398 11.515 23.2498 11.515C23.6598 11.515 23.9998 11.855 23.9998 12.265Z" fill="#666666"/>
<path d="M10.2702 10.725V12.945H8.91016V10.725H7.41016V13.695C7.41016 14.115 7.74016 14.445 8.16016 14.445H11.0202C11.4402 14.445 11.7702 14.115 11.7702 13.695V10.725H10.2702Z" fill="#666666"/>
<path d="M15.07 10.725V12.945H13.71V10.725H12.21V13.695C12.21 14.115 12.54 14.445 12.96 14.445H15.82C16.24 14.445 16.57 14.115 16.57 13.695V10.725H15.07Z" fill="#666666"/>
</g>
<defs>
<clipPath id="clip0_1170_1024">
<rect width="24" height="24" fill="white" transform="translate(0 0.865005)"/>
</clipPath>
</defs>
</svg>
