<svg width="25" height="25" viewBox="0 0 25 25" fill="none" xmlns="http://www.w3.org/2000/svg">
<g clip-path="url(#clip0_1172_1041)">
<path d="M15.383 16.5L15.443 16.33C15.523 16.29 15.603 16.25 15.663 16.18C18.773 13.08 23.653 13.86 23.703 13.87C23.993 13.92 24.293 13.79 24.453 13.54C24.613 13.29 24.613 12.97 24.453 12.72C24.283 12.46 22.803 10.21 21.913 9.45998C21.113 8.56998 19.713 7.61998 18.183 7.61998C18.053 7.61998 17.933 7.65998 17.833 7.71998C17.593 7.60998 17.333 7.54998 17.063 7.54998H15.453C14.753 7.52998 14.133 7.16998 13.773 6.61998C15.373 6.04998 16.343 4.36998 15.953 2.66998C15.753 1.78998 15.213 1.02998 14.443 0.549982C13.673 0.0599815 12.753 -0.0900184 11.873 0.109982C10.043 0.529982 8.89303 2.35998 9.31303 4.18998C9.35303 4.37998 9.43303 4.54998 9.50303 4.71998C8.49303 5.82998 5.71303 9.18998 5.80303 12.35C5.80303 12.38 5.80303 12.42 5.81303 12.45C3.29303 12.33 1.16303 12.98 1.14303 12.98C1.10303 12.99 1.07303 13.01 1.04303 13.02C0.783027 13.14 0.603027 13.4 0.603027 13.7C0.603027 14.11 0.943027 14.45 1.35303 14.45C1.44303 14.45 1.54303 14.43 1.63303 14.4C1.90303 14.32 4.16303 13.71 6.56303 14.02C6.81303 14.26 7.10303 14.44 7.44303 14.56L11.423 15.92L10.353 19.04C10.183 19.54 10.213 20.08 10.453 20.56C10.683 21.04 11.093 21.39 11.593 21.56C11.803 21.63 12.013 21.66 12.223 21.66C13.043 21.66 13.813 21.14 14.103 20.32L15.413 16.49L15.383 16.5ZM20.823 10.48C20.823 10.48 20.863 10.5 20.873 10.52C20.893 10.54 20.903 10.56 20.923 10.57C21.233 10.81 21.803 11.53 22.333 12.27C20.813 12.24 18.483 12.5 16.353 13.78L16.383 13.7C16.453 13.51 16.443 13.3 16.353 13.12C16.263 12.94 16.113 12.8 15.923 12.74L12.933 11.71L13.073 11.31C13.543 11.44 13.973 11.5 14.323 11.5L17.013 11.52C17.013 11.52 17.053 11.52 17.083 11.52C17.533 11.52 17.973 11.36 18.283 11.09C18.763 10.71 19.043 10.16 19.043 9.56998C19.043 9.45998 19.033 9.35998 19.013 9.25998C19.763 9.49998 20.433 10.02 20.843 10.48H20.823ZM12.193 1.56998C12.683 1.45998 13.193 1.54998 13.633 1.81998C14.063 2.08998 14.363 2.50998 14.483 3.00998C14.713 4.03998 14.073 5.05998 13.053 5.29998C12.633 5.39998 12.213 5.34998 11.823 5.15998C11.283 4.92998 10.903 4.44998 10.773 3.85998C10.543 2.82998 11.183 1.80998 12.213 1.56998H12.193ZM12.653 19.85C12.563 20.1 12.293 20.23 12.043 20.15C11.923 20.11 11.823 20.02 11.763 19.91C11.703 19.79 11.693 19.66 11.743 19.54L13.053 15.71C13.183 15.32 12.983 14.89 12.583 14.76L7.89303 13.16C7.53303 13.04 7.29303 12.7 7.28303 12.32C7.21303 9.91998 9.35303 7.16998 10.373 5.98998C10.613 6.19998 10.883 6.38998 11.173 6.51998C11.483 6.66998 11.823 6.74998 12.163 6.79998C12.673 8.12998 13.943 9.02998 15.413 9.04998H17.023C17.153 9.05998 17.273 9.11998 17.363 9.20998C17.453 9.30998 17.503 9.42998 17.503 9.56998C17.503 9.73998 17.403 9.84998 17.293 9.93998C17.223 9.99998 17.123 10.04 17.003 10.03L14.283 10.01C13.683 10.01 12.613 9.73998 11.583 8.95998C11.253 8.70998 10.783 8.77998 10.533 9.10998C10.283 9.43998 10.353 9.90998 10.683 10.16C11.003 10.4 11.313 10.59 11.633 10.76L11.233 11.94C11.103 12.33 11.313 12.76 11.703 12.89L14.683 13.91L13.943 16L12.633 19.83L12.653 19.85Z" fill="#666666"/>
<path d="M19.9332 14.72C17.3732 14.72 15.2832 16.81 15.2832 19.37C15.2832 21.93 17.3732 24.02 19.9332 24.02C22.4932 24.02 24.5832 21.93 24.5832 19.37C24.5832 16.81 22.4932 14.72 19.9332 14.72ZM19.9332 22.52C18.1932 22.52 16.7832 21.11 16.7832 19.37C16.7832 17.63 18.1932 16.22 19.9332 16.22C21.6732 16.22 23.0832 17.63 23.0832 19.37C23.0832 21.11 21.6732 22.52 19.9332 22.52Z" fill="#666666"/>
<path d="M19.933 17.23C18.753 17.23 17.793 18.19 17.793 19.37C17.793 20.55 18.753 21.51 19.933 21.51C21.113 21.51 22.073 20.55 22.073 19.37C22.073 18.19 21.113 17.23 19.933 17.23ZM19.933 20C19.583 20 19.293 19.71 19.293 19.36C19.293 19.01 19.583 18.72 19.933 18.72C20.283 18.72 20.573 19.01 20.573 19.36C20.573 19.71 20.283 20 19.933 20Z" fill="#666666"/>
<path d="M5.23301 14.72C2.67301 14.72 0.583008 16.81 0.583008 19.37C0.583008 21.93 2.67301 24.02 5.23301 24.02C7.79301 24.02 9.88301 21.93 9.88301 19.37C9.88301 16.81 7.79301 14.72 5.23301 14.72ZM5.23301 22.52C3.49301 22.52 2.08301 21.11 2.08301 19.37C2.08301 17.63 3.49301 16.22 5.23301 16.22C6.97301 16.22 8.38301 17.63 8.38301 19.37C8.38301 21.11 6.97301 22.52 5.23301 22.52Z" fill="#666666"/>
<path d="M5.23277 17.23C4.05277 17.23 3.09277 18.19 3.09277 19.37C3.09277 20.55 4.05277 21.51 5.23277 21.51C6.41277 21.51 7.37277 20.55 7.37277 19.37C7.37277 18.19 6.41277 17.23 5.23277 17.23ZM5.23277 20C4.88277 20 4.59277 19.71 4.59277 19.36C4.59277 19.01 4.88277 18.72 5.23277 18.72C5.58277 18.72 5.87277 19.01 5.87277 19.36C5.87277 19.71 5.58277 20 5.23277 20Z" fill="#666666"/>
</g>
<defs>
<clipPath id="clip0_1172_1041">
<rect width="24" height="24" fill="white" transform="translate(0.583008 0.019989)"/>
</clipPath>
</defs>
</svg>
