<svg width="25" height="25" viewBox="0 0 25 25" fill="none" xmlns="http://www.w3.org/2000/svg">
<g clip-path="url(#clip0_1172_1033)">
<path d="M24.4433 13.2392C24.2733 12.9792 22.7933 10.7292 21.9033 9.97919C21.1033 9.08919 19.7033 8.13919 18.1733 8.13919C18.0433 8.13919 17.9233 8.17919 17.8233 8.23919C17.5833 8.12919 17.3233 8.06919 17.0533 8.06919H15.4433C14.7433 8.04919 14.1233 7.68919 13.7633 7.13919C15.3633 6.56919 16.3333 4.88919 15.9433 3.18919C15.7433 2.30919 15.2033 1.54919 14.4333 1.06919C13.6633 0.579192 12.7433 0.429192 11.8633 0.629192C10.0333 1.04919 8.88326 2.87919 9.30326 4.70919C9.34326 4.89919 9.42326 5.06919 9.49326 5.23919C8.48326 6.34919 5.70326 9.70919 5.79326 12.8692C5.79326 12.8992 5.79326 12.9392 5.80326 12.9692C3.28326 12.8492 1.15326 13.4992 1.13326 13.4992C1.09326 13.5092 1.06326 13.5292 1.03326 13.5392C0.773262 13.6592 0.593262 13.9192 0.593262 14.2192C0.593262 14.6292 0.933262 14.9692 1.34326 14.9692C1.43326 14.9692 1.53326 14.9492 1.62326 14.9192C1.89326 14.8392 4.15326 14.2292 6.55326 14.5392C6.80326 14.7792 7.09326 14.9592 7.43326 15.0792L11.4133 16.4392L10.3433 19.5592C10.1733 20.0592 10.2033 20.5992 10.4433 21.0792C10.6733 21.5592 11.0833 21.9092 11.5833 22.0792C11.7933 22.1492 12.0033 22.1792 12.2133 22.1792C13.0333 22.1792 13.8033 21.6592 14.0933 20.8392L15.4033 17.0092L15.4633 16.8392C15.5433 16.7992 15.6233 16.7592 15.6833 16.6892C18.7933 13.5892 23.6733 14.3692 23.7233 14.3792C24.0133 14.4292 24.3133 14.2992 24.4733 14.0492C24.6333 13.7992 24.6333 13.4792 24.4733 13.2292L24.4433 13.2392ZM12.1833 2.07919C12.6733 1.96919 13.1833 2.05919 13.6233 2.32919C14.0533 2.59919 14.3533 3.01919 14.4733 3.51919C14.7033 4.54919 14.0633 5.56919 13.0433 5.80919C12.6233 5.90919 12.2033 5.85919 11.8133 5.66919C11.2733 5.43919 10.8933 4.95919 10.7633 4.36919C10.5333 3.33919 11.1733 2.31919 12.2033 2.07919H12.1833ZM12.6433 20.3592C12.5533 20.6092 12.2833 20.7392 12.0333 20.6592C11.9133 20.6192 11.8133 20.5292 11.7533 20.4192C11.6933 20.2992 11.6833 20.1692 11.7333 20.0492L13.0433 16.2192C13.1733 15.8292 12.9733 15.3992 12.5733 15.2692L7.88326 13.6692C7.52326 13.5492 7.28326 13.2092 7.27326 12.8292C7.20326 10.4292 9.34326 7.67919 10.3633 6.49919C10.6033 6.70919 10.8733 6.89919 11.1633 7.02919C11.4733 7.17919 11.8133 7.25919 12.1533 7.30919C12.6633 8.63919 13.9333 9.53919 15.4033 9.55919H17.0133C17.1433 9.56919 17.2633 9.62919 17.3533 9.71919C17.4433 9.81919 17.4933 9.93919 17.4933 10.0792C17.4933 10.2492 17.3933 10.3592 17.2833 10.4492C17.2133 10.5092 17.1133 10.5492 16.9933 10.5392L14.2733 10.5192C13.6733 10.5192 12.6033 10.2492 11.5733 9.46919C11.2433 9.21919 10.7733 9.28919 10.5233 9.61919C10.2733 9.94919 10.3433 10.4192 10.6733 10.6692C10.9933 10.9092 11.3033 11.0992 11.6233 11.2692L11.2233 12.4492C11.0933 12.8392 11.3033 13.2692 11.6933 13.3992L14.6733 14.4192L13.9333 16.5092L12.6233 20.3392L12.6433 20.3592ZM16.3333 14.2992L16.3633 14.2192C16.4333 14.0292 16.4233 13.8192 16.3333 13.6392C16.2433 13.4592 16.0933 13.3192 15.9033 13.2592L12.9133 12.2292L13.0533 11.8292C13.5233 11.9592 13.9533 12.0192 14.3033 12.0192L16.9933 12.0392C16.9933 12.0392 17.0333 12.0392 17.0633 12.0392C17.5133 12.0392 17.9533 11.8792 18.2633 11.6092C18.7433 11.2292 19.0233 10.6792 19.0233 10.0892C19.0233 9.97919 19.0133 9.87919 18.9933 9.77919C19.7433 10.0192 20.4133 10.5392 20.8233 10.9992C20.8333 11.0192 20.8633 11.0192 20.8733 11.0392C20.8933 11.0592 20.9033 11.0792 20.9233 11.0892C21.2333 11.3292 21.8033 12.0492 22.3333 12.7892C20.8133 12.7592 18.4833 13.0192 16.3533 14.2992H16.3333Z" fill="#666666"/>
<path d="M19.9234 24.5292C17.3634 24.5292 15.2734 22.4392 15.2734 19.8792C15.2734 17.3192 17.3634 15.2292 19.9234 15.2292C22.4834 15.2292 24.5734 17.3192 24.5734 19.8792C24.5734 22.4392 22.4834 24.5292 19.9234 24.5292ZM19.9234 16.7292C18.1834 16.7292 16.7734 18.1392 16.7734 19.8792C16.7734 21.6192 18.1834 23.0292 19.9234 23.0292C21.6634 23.0292 23.0734 21.6192 23.0734 19.8792C23.0734 18.1392 21.6634 16.7292 19.9234 16.7292Z" fill="#EB741E"/>
<path d="M19.9232 22.0192C18.7432 22.0192 17.7832 21.0592 17.7832 19.8792C17.7832 18.6992 18.7432 17.7392 19.9232 17.7392C21.1032 17.7392 22.0632 18.6992 22.0632 19.8792C22.0632 21.0592 21.1032 22.0192 19.9232 22.0192ZM19.9232 19.2492C19.5732 19.2492 19.2832 19.5392 19.2832 19.8892C19.2832 20.2392 19.5732 20.5292 19.9232 20.5292C20.2732 20.5292 20.5632 20.2392 20.5632 19.8892C20.5632 19.5392 20.2732 19.2492 19.9232 19.2492Z" fill="#EB741E"/>
<path d="M5.22324 24.5292C2.66324 24.5292 0.573242 22.4392 0.573242 19.8792C0.573242 17.3192 2.66324 15.2292 5.22324 15.2292C7.78324 15.2292 9.87324 17.3192 9.87324 19.8792C9.87324 22.4392 7.78324 24.5292 5.22324 24.5292ZM5.22324 16.7292C3.48324 16.7292 2.07324 18.1392 2.07324 19.8792C2.07324 21.6192 3.48324 23.0292 5.22324 23.0292C6.96324 23.0292 8.37324 21.6192 8.37324 19.8792C8.37324 18.1392 6.96324 16.7292 5.22324 16.7292Z" fill="#EB741E"/>
<path d="M5.22301 22.0192C4.04301 22.0192 3.08301 21.0592 3.08301 19.8792C3.08301 18.6992 4.04301 17.7392 5.22301 17.7392C6.40301 17.7392 7.36301 18.6992 7.36301 19.8792C7.36301 21.0592 6.40301 22.0192 5.22301 22.0192ZM5.22301 19.2492C4.87301 19.2492 4.58301 19.5392 4.58301 19.8892C4.58301 20.2392 4.87301 20.5292 5.22301 20.5292C5.57301 20.5292 5.86301 20.2392 5.86301 19.8892C5.86301 19.5392 5.57301 19.2492 5.22301 19.2492Z" fill="#EB741E"/>
</g>
<defs>
<clipPath id="clip0_1172_1033">
<rect width="24" height="24" fill="white" transform="translate(0.573242 0.52919)"/>
</clipPath>
</defs>
</svg>
