<svg width="24" height="25" viewBox="0 0 24 25" fill="none" xmlns="http://www.w3.org/2000/svg">
<g clip-path="url(#clip0_1_13281)">
<path d="M22.4866 14.4984H20.0115V9.58815C19.6006 9.98898 19.0896 10.2796 18.5083 10.4199V21.8737C18.5083 22.495 18.0073 22.9961 17.386 22.9961H6.85407C6.22275 22.9961 5.71169 22.495 5.71169 21.8737V10.4199C5.13048 10.2796 4.61941 9.97896 4.20856 9.57812V14.4984H1.60313C1.19227 14.4984 0.851562 14.8291 0.851562 15.2499V19.2583C0.851562 20.6913 2.26451 21.8537 3.9881 21.8537H4.20856V21.8737C4.20856 23.3268 5.40104 24.4992 6.85407 24.4992H17.386C18.839 24.4992 20.0115 23.3268 20.0115 21.8737V21.8537H20.0916C21.8253 21.8537 23.2382 20.6913 23.2382 19.2583V15.2499C23.2382 14.8291 22.9075 14.4984 22.4866 14.4984ZM4.20856 20.3506H3.9881C3.10626 20.3506 2.35469 19.8495 2.35469 19.2583V16.0015H4.20856V20.3506ZM21.7351 19.2583C21.7351 19.8395 20.9635 20.3506 20.0916 20.3506H20.0115V16.0015H21.7351V19.2583Z" fill="#666666"/>
<path d="M13.9882 0.5H10.1001C8.89755 0.5 7.93555 1.47203 7.93555 2.66451V3.13549H9.43868V2.66451C9.43868 2.30376 9.72928 2.00313 10.1001 2.00313H13.9882C14.3589 2.00313 14.6495 2.30376 14.6495 2.66451V3.13549H16.1527V2.66451C16.1527 1.47203 15.1806 0.5 13.9882 0.5Z" fill="#666666"/>
<path d="M16.6444 14.5H7.58555C7.17469 14.5 6.83398 14.8307 6.83398 15.2516V17.7568C6.83398 19.4804 8.23691 20.8733 9.95048 20.8733H14.2795C15.9931 20.8733 17.396 19.4804 17.396 17.7568V15.2516C17.396 14.8307 17.0553 14.5 16.6444 14.5ZM15.8929 17.7568C15.8929 18.6486 15.1613 19.3701 14.2795 19.3701H12.7964V18.1777C12.7964 17.7668 12.4557 17.4261 12.0448 17.4261C11.634 17.4261 11.2933 17.7668 11.2933 18.1777V19.3701H9.95048C9.05862 19.3701 8.33712 18.6486 8.33712 17.7568V16.0031H15.8929V17.7568Z" fill="#666666"/>
<path d="M20.1718 3.13672H4.05821C3.64735 3.13672 3.30664 3.47743 3.30664 3.88828V7.38557C3.30664 8.23734 3.65737 9.00895 4.20852 9.58014C4.61938 9.98098 5.13044 10.2816 5.71165 10.4219C5.94213 10.472 6.18263 10.5021 6.42313 10.5021H7.54547V11.2536C7.54547 11.6645 7.88618 12.0052 8.29704 12.0052C8.70789 12.0052 9.0486 11.6645 9.0486 11.2536V10.5021H14.9709V11.2536C14.9709 11.6645 15.3117 12.0052 15.7225 12.0052C16.1334 12.0052 16.4741 11.6645 16.4741 11.2536V10.5021H17.8069C18.0474 10.5021 18.2879 10.472 18.5083 10.4219C19.0895 10.2816 19.6006 9.991 20.0114 9.59016C20.5726 9.01897 20.9233 8.23734 20.9233 7.38557V3.88828C20.9233 3.47743 20.5826 3.13672 20.1718 3.13672ZM19.4202 7.38557C19.4202 7.84653 19.2198 8.26741 18.9091 8.55801C18.839 8.62816 18.7689 8.68828 18.6887 8.73839C18.4382 8.89872 18.1375 8.99893 17.8069 8.99893H16.4741V8.32753C16.4741 7.91668 16.1434 7.57597 15.7225 7.57597C15.3016 7.57597 14.9709 7.91668 14.9709 8.32753V8.99893H9.0486V8.32753C9.0486 7.91668 8.71791 7.57597 8.29704 7.57597C7.87616 7.57597 7.54547 7.91668 7.54547 8.32753V8.99893H6.42313C6.09244 8.99893 5.7818 8.89872 5.52125 8.72837C5.45111 8.67826 5.39098 8.62816 5.33086 8.57805C5.01019 8.27743 4.80977 7.85655 4.80977 7.38557V4.63985H19.4202V7.38557Z" fill="#666666"/>
</g>
<defs>
<clipPath id="clip0_1_13281">
<rect width="24" height="24" fill="white" transform="translate(0 0.5)"/>
</clipPath>
</defs>
</svg>
