<svg width="14" height="14" viewBox="0 0 14 14" fill="none" xmlns="http://www.w3.org/2000/svg">
<path d="M11.844 1.36559H11.1384C10.9283 0.6048 10.1927 0.0400391 9.31193 0.0400391C8.43119 0.0400391 7.69558 0.6048 7.4854 1.36559H6.67473C6.46455 0.6048 5.72894 0.0400391 4.84821 0.0400391C3.96747 0.0400391 3.23186 0.6048 3.02168 1.36559H2.17598C1.53044 1.36559 1 1.85568 1 2.46244V4.04004H1.94579V2.46244C1.94579 2.34576 2.04587 2.25241 2.17098 2.25241H5.65388C5.48874 2.51378 5.18849 2.69115 4.8382 2.69115C4.57798 2.69115 4.3628 2.88718 4.3628 3.13456C4.3628 3.38193 4.57298 3.57796 4.8382 3.57796C5.71893 3.57796 6.45455 3.0132 6.66472 2.25241H10.1126C9.94746 2.51378 9.64721 2.69115 9.29691 2.69115C9.0367 2.69115 8.82152 2.88718 8.82152 3.13456C8.82152 3.38193 9.03169 3.57796 9.29691 3.57796C10.1776 3.57796 10.9133 3.0132 11.1234 2.25241H11.829C11.9541 2.25241 12.0542 2.34576 12.0542 2.46244V4.04004H13V2.46244C13 1.86034 12.4746 1.36559 11.824 1.36559H11.844ZM9.31193 0.926854C9.66222 0.926854 9.96247 1.10422 10.1276 1.36559H8.50125C8.66639 1.10422 8.96664 0.926854 9.31693 0.926854H9.31193ZM4.85321 0.926854C5.2035 0.926854 5.50375 1.10422 5.66889 1.36559H4.04254C4.20767 1.10422 4.50792 0.926854 4.85822 0.926854H4.85321Z" fill="#2743A6"/>
<path fill-rule="evenodd" clip-rule="evenodd" d="M1.14246 4.04004H11.9306H11.9354H12.8576V11.9861C12.8576 12.6354 12.3404 13.1598 11.711 13.1598H2.28909C1.65478 13.1598 1.14246 12.6304 1.14246 11.9861V4.04004ZM11.711 12.2109C11.833 12.2109 11.9306 12.111 11.9306 11.9861V4.98398H2.06952V11.9861C2.06952 12.111 2.16711 12.2109 2.28909 12.2109H11.711ZM10.491 8.8346H3.50385C3.24525 8.8346 3.04032 8.62483 3.04032 8.36013C3.04032 8.09543 3.25013 7.88566 3.50385 7.88566H10.491C10.7496 7.88566 10.9545 8.09543 10.9545 8.36013C10.9545 8.62483 10.7447 8.8346 10.491 8.8346Z" fill="#2743A6"/>
</svg>
