<svg width="16" height="16" viewBox="0 0 16 16" fill="none" xmlns="http://www.w3.org/2000/svg">
<g clip-path="url(#clip0_627_28813)">
<path d="M8 1.33333C9.88 1.33333 11.4333 1.96667 12.7333 3.26667C14.0333 4.56667 14.6667 6.11333 14.6667 8C14.6667 9.88667 14.0333 11.4267 12.72 12.7267C11.4067 14.0267 9.86667 14.6667 8.00667 14.6667C6.14667 14.6667 4.6 14.0267 3.28667 12.7133C1.97333 11.4 1.33333 9.84667 1.33333 7.98C1.33333 6.11333 1.97333 4.60667 3.28667 3.28667C4.6 1.97333 6.14667 1.33333 8 1.33333ZM8 0C5.79333 0 3.90667 0.78 2.34667 2.34667C0.786667 3.91333 0 5.78667 0 7.98C0 10.1733 0.78 12.0933 2.34667 13.6533C3.91333 15.2133 5.8 16 8.00667 16C10.2133 16 12.1 15.2267 13.66 13.6733C15.22 12.1267 16 10.2333 16 8C16 5.76667 15.2267 3.87333 13.6733 2.32667C12.1267 0.773333 10.2333 0 8 0Z" fill="#10AC61"/>
<path d="M11.7174 6.88659L7.33239 11.0716C6.97962 11.4049 6.41822 11.4194 6.04648 11.1187L4.27504 9.66935C3.94503 9.40484 3.9071 8.9338 4.1878 8.62219C4.47229 8.30333 4.95782 8.28884 5.28784 8.53523L6.52443 9.28165L10.3746 5.60391C11.2812 4.7814 12.5784 6.01698 11.7174 6.88659Z" fill="#10AC61"/>
</g>
<defs>
<clipPath id="clip0_627_28813">
<rect width="16" height="16" fill="white"/>
</clipPath>
</defs>
</svg>
