<svg width="34" height="24" viewBox="0 0 34 24" fill="none" xmlns="http://www.w3.org/2000/svg">
<path d="M31.7647 19.5388V21.1906C31.7647 21.5294 31.6518 21.8259 31.3976 22.1082C31.1435 22.4047 30.7624 22.5882 30.3671 22.5882H2.80941C2.4 22.5882 2.01882 22.4047 1.73646 22.0659C1.5247 21.8259 1.41176 21.5294 1.41176 21.1906V19.5388H31.7647Z" fill="white"/>
<path d="M31.7647 15.7835H1.41176V19.5388H31.7647V15.7835Z" fill="#D6062F"/>
<path d="M31.7647 12.0141H1.41176V15.7835H31.7647V12.0141Z" fill="white"/>
<path d="M31.7647 8.24471H14.9506V12.0141H31.7647V8.24471Z" fill="#D6062F"/>
<path d="M31.7647 4.47529H14.9506V8.24471H31.7647V4.47529Z" fill="white"/>
<path d="M31.7647 2.80941V4.47529H14.9506V1.41176H30.3671C30.8188 1.41176 31.2424 1.63765 31.5106 2.03294C31.68 2.25882 31.7647 2.52706 31.7647 2.80941Z" fill="#D6062F"/>
<path d="M2.80941 1.41176C2.34353 1.41176 1.93411 1.63765 1.67999 2.00471C1.49646 2.25882 1.41176 2.52706 1.41176 2.80941V12.0141H14.9506V1.41176H2.80941Z" fill="#2956B0"/>
<path d="M11.5341 4.50353C12.0019 4.50353 12.3812 4.12429 12.3812 3.65647C12.3812 3.18865 12.0019 2.80941 11.5341 2.80941C11.0663 2.80941 10.6871 3.18865 10.6871 3.65647C10.6871 4.12429 11.0663 4.50353 11.5341 4.50353Z" fill="white"/>
<path d="M11.5341 7.32706C12.0019 7.32706 12.3812 6.94782 12.3812 6.48C12.3812 6.01218 12.0019 5.63294 11.5341 5.63294C11.0663 5.63294 10.6871 6.01218 10.6871 6.48C10.6871 6.94782 11.0663 7.32706 11.5341 7.32706Z" fill="white"/>
<path d="M11.5341 10.0235C12.0019 10.0235 12.3812 9.64429 12.3812 9.17647C12.3812 8.70865 12.0019 8.32941 11.5341 8.32941C11.0663 8.32941 10.6871 8.70865 10.6871 9.17647C10.6871 9.64429 11.0663 10.0235 11.5341 10.0235Z" fill="white"/>
<path d="M7.83529 4.50353C8.30311 4.50353 8.68235 4.12429 8.68235 3.65647C8.68235 3.18865 8.30311 2.80941 7.83529 2.80941C7.36747 2.80941 6.98823 3.18865 6.98823 3.65647C6.98823 4.12429 7.36747 4.50353 7.83529 4.50353Z" fill="white"/>
<path d="M7.83529 7.32706C8.30311 7.32706 8.68235 6.94782 8.68235 6.48C8.68235 6.01218 8.30311 5.63294 7.83529 5.63294C7.36747 5.63294 6.98823 6.01218 6.98823 6.48C6.98823 6.94782 7.36747 7.32706 7.83529 7.32706Z" fill="white"/>
<path d="M7.83529 10.0235C8.30311 10.0235 8.68235 9.64429 8.68235 9.17647C8.68235 8.70865 8.30311 8.32941 7.83529 8.32941C7.36747 8.32941 6.98823 8.70865 6.98823 9.17647C6.98823 9.64429 7.36747 10.0235 7.83529 10.0235Z" fill="white"/>
<path d="M4.12235 4.50353C4.59017 4.50353 4.96941 4.12429 4.96941 3.65647C4.96941 3.18865 4.59017 2.80941 4.12235 2.80941C3.65453 2.80941 3.27529 3.18865 3.27529 3.65647C3.27529 4.12429 3.65453 4.50353 4.12235 4.50353Z" fill="white"/>
<path d="M4.12235 7.32706C4.59017 7.32706 4.96941 6.94782 4.96941 6.48C4.96941 6.01218 4.59017 5.63294 4.12235 5.63294C3.65453 5.63294 3.27529 6.01218 3.27529 6.48C3.27529 6.94782 3.65453 7.32706 4.12235 7.32706Z" fill="white"/>
<path d="M4.12235 10.0235C4.59017 10.0235 4.96941 9.64429 4.96941 9.17647C4.96941 8.70865 4.59017 8.32941 4.12235 8.32941C3.65453 8.32941 3.27529 8.70865 3.27529 9.17647C3.27529 9.64429 3.65453 10.0235 4.12235 10.0235Z" fill="white"/>
<path d="M32.6541 1.22824C32.1459 0.465882 31.2988 0 30.3671 0H2.80941C1.87764 0 1.01647 0.451765 0.536467 1.18588C0.183526 1.65176 0 2.21647 0 2.80941V21.1906C0 21.8965 0.239994 22.5318 0.677641 22.9976C1.18588 23.6329 1.99059 24 2.80941 24H30.3671C31.1859 24 31.9765 23.6329 32.4565 23.0259C32.9224 22.5318 33.1765 21.8965 33.1765 21.1906V2.80941C33.1765 2.21647 32.9929 1.65176 32.6541 1.22824ZM31.7647 21.1906C31.7647 21.5294 31.6518 21.8259 31.3976 22.1082C31.1435 22.4047 30.7624 22.5882 30.3671 22.5882H2.80941C2.4 22.5882 2.01882 22.4047 1.73646 22.0659C1.5247 21.8259 1.41176 21.5294 1.41176 21.1906V2.80941C1.41176 2.52706 1.49646 2.25882 1.67999 2.00471C1.93411 1.63765 2.34353 1.41176 2.80941 1.41176H30.3671C30.8188 1.41176 31.2424 1.63765 31.5106 2.03294C31.68 2.25882 31.7647 2.52706 31.7647 2.80941V21.1906Z" fill="#666666"/>
</svg>
