<svg width="24" height="17" viewBox="0 0 24 17" fill="none" xmlns="http://www.w3.org/2000/svg">
<path d="M22.5649 13.84V15.01C22.5649 15.25 22.4849 15.46 22.3049 15.66C22.1249 15.87 21.8549 16 21.5749 16H2.05494C1.76494 16 1.49494 15.87 1.29494 15.63C1.14494 15.46 1.06494 15.25 1.06494 15.01V13.84H22.5649Z" fill="white"/>
<path d="M22.5649 11.18H1.06494V13.84H22.5649V11.18Z" fill="#D6062F"/>
<path d="M22.5649 8.51H1.06494V11.18H22.5649V8.51Z" fill="white"/>
<path d="M22.5649 5.84H10.6549V8.51H22.5649V5.84Z" fill="#D6062F"/>
<path d="M22.5649 3.17H10.6549V5.84H22.5649V3.17Z" fill="white"/>
<path d="M22.5649 1.99V3.17H10.6549V1H21.5749C21.8949 1 22.1949 1.16 22.3849 1.44C22.5049 1.6 22.5649 1.79 22.5649 1.99Z" fill="#D6062F"/>
<path d="M2.05494 1C1.72494 1 1.43494 1.16 1.25494 1.42C1.12494 1.6 1.06494 1.79 1.06494 1.99V8.51H10.6549V1H2.05494Z" fill="#2956B0"/>
<path d="M8.23494 3.19C8.56631 3.19 8.83494 2.92137 8.83494 2.59C8.83494 2.25863 8.56631 1.99 8.23494 1.99C7.90357 1.99 7.63494 2.25863 7.63494 2.59C7.63494 2.92137 7.90357 3.19 8.23494 3.19Z" fill="white"/>
<path d="M8.23494 5.19C8.56631 5.19 8.83494 4.92137 8.83494 4.59C8.83494 4.25863 8.56631 3.99 8.23494 3.99C7.90357 3.99 7.63494 4.25863 7.63494 4.59C7.63494 4.92137 7.90357 5.19 8.23494 5.19Z" fill="white"/>
<path d="M8.23494 7.1C8.56631 7.1 8.83494 6.83137 8.83494 6.5C8.83494 6.16863 8.56631 5.9 8.23494 5.9C7.90357 5.9 7.63494 6.16863 7.63494 6.5C7.63494 6.83137 7.90357 7.1 8.23494 7.1Z" fill="white"/>
<path d="M5.61494 3.19C5.94631 3.19 6.21494 2.92137 6.21494 2.59C6.21494 2.25863 5.94631 1.99 5.61494 1.99C5.28357 1.99 5.01494 2.25863 5.01494 2.59C5.01494 2.92137 5.28357 3.19 5.61494 3.19Z" fill="white"/>
<path d="M5.61494 5.19C5.94631 5.19 6.21494 4.92137 6.21494 4.59C6.21494 4.25863 5.94631 3.99 5.61494 3.99C5.28357 3.99 5.01494 4.25863 5.01494 4.59C5.01494 4.92137 5.28357 5.19 5.61494 5.19Z" fill="white"/>
<path d="M5.61494 7.1C5.94631 7.1 6.21494 6.83137 6.21494 6.5C6.21494 6.16863 5.94631 5.9 5.61494 5.9C5.28357 5.9 5.01494 6.16863 5.01494 6.5C5.01494 6.83137 5.28357 7.1 5.61494 7.1Z" fill="white"/>
<path d="M2.98494 3.19C3.31631 3.19 3.58494 2.92137 3.58494 2.59C3.58494 2.25863 3.31631 1.99 2.98494 1.99C2.65357 1.99 2.38494 2.25863 2.38494 2.59C2.38494 2.92137 2.65357 3.19 2.98494 3.19Z" fill="white"/>
<path d="M2.98494 5.19C3.31631 5.19 3.58494 4.92137 3.58494 4.59C3.58494 4.25863 3.31631 3.99 2.98494 3.99C2.65357 3.99 2.38494 4.25863 2.38494 4.59C2.38494 4.92137 2.65357 5.19 2.98494 5.19Z" fill="white"/>
<path d="M2.98494 7.1C3.31631 7.1 3.58494 6.83137 3.58494 6.5C3.58494 6.16863 3.31631 5.9 2.98494 5.9C2.65357 5.9 2.38494 6.16863 2.38494 6.5C2.38494 6.83137 2.65357 7.1 2.98494 7.1Z" fill="white"/>
<path d="M23.1949 0.87C22.8349 0.33 22.2349 0 21.5749 0H2.05494C1.39494 0 0.784939 0.32 0.444939 0.84C0.194939 1.17 0.0649414 1.57 0.0649414 1.99V15.01C0.0649414 15.51 0.234937 15.96 0.544937 16.29C0.904937 16.74 1.47494 17 2.05494 17H21.5749C22.1549 17 22.7149 16.74 23.0549 16.31C23.3849 15.96 23.5649 15.51 23.5649 15.01V1.99C23.5649 1.57 23.4349 1.17 23.1949 0.87ZM22.5649 15.01C22.5649 15.25 22.4849 15.46 22.3049 15.66C22.1249 15.87 21.8549 16 21.5749 16H2.05494C1.76494 16 1.49494 15.87 1.29494 15.63C1.14494 15.46 1.06494 15.25 1.06494 15.01V1.99C1.06494 1.79 1.12494 1.6 1.25494 1.42C1.43494 1.16 1.72494 1 2.05494 1H21.5749C21.8949 1 22.1949 1.16 22.3849 1.44C22.5049 1.6 22.5649 1.79 22.5649 1.99V15.01Z" fill="#666666"/>
</svg>
