<svg width="24" height="17" viewBox="0 0 24 17" fill="none" xmlns="http://www.w3.org/2000/svg">
<path d="M22.915 1.99V15.01C22.915 15.25 22.835 15.46 22.655 15.66C22.475 15.87 22.205 16 21.925 16H16.165V1H21.925C22.245 1 22.545 1.16 22.735 1.44C22.855 1.6 22.915 1.79 22.915 1.99Z" fill="#D6062F"/>
<path d="M16.165 1H8.16504V16H16.165V1Z" fill="white"/>
<path d="M8.16504 1V16H2.40504C2.11504 16 1.84504 15.87 1.64504 15.63C1.49504 15.46 1.41504 15.25 1.41504 15.01V1.99C1.41504 1.79 1.47504 1.6 1.60504 1.42C1.78504 1.16 2.07504 1 2.40504 1H8.16504Z" fill="#2956B0"/>
<path d="M23.545 0.87C23.185 0.32 22.575 0 21.925 0H2.40504C1.74504 0 1.13504 0.32 0.795039 0.84C0.545039 1.17 0.415039 1.57 0.415039 1.99V15.01C0.415039 15.51 0.585039 15.96 0.895039 16.29C1.25504 16.73 1.81504 17 2.40504 17H21.925C22.505 17 23.065 16.73 23.405 16.31C23.735 15.96 23.915 15.51 23.915 15.01V1.99C23.915 1.57 23.775 1.17 23.545 0.87ZM22.915 15.01C22.915 15.25 22.835 15.46 22.655 15.66C22.475 15.87 22.205 16 21.925 16H2.40504C2.11504 16 1.84504 15.87 1.64504 15.63C1.49504 15.46 1.41504 15.25 1.41504 15.01V1.99C1.41504 1.79 1.47504 1.6 1.60504 1.42C1.78504 1.16 2.07504 1 2.40504 1H21.925C22.245 1 22.545 1.16 22.735 1.44C22.855 1.6 22.915 1.79 22.915 1.99V15.01Z" fill="#666666"/>
</svg>
