<svg width="28" height="24" viewBox="0 0 28 24" fill="none" xmlns="http://www.w3.org/2000/svg">
<path d="M18.4954 17.6254H15.4128C15.0025 17.6254 14.6622 17.2851 14.6622 16.8748V12.8714C14.6622 12.4611 15.0025 12.1208 15.4128 12.1208H18.4954C18.9058 12.1208 19.246 12.4611 19.246 12.8714V16.8748C19.246 17.2851 18.9058 17.6254 18.4954 17.6254ZM16.1635 16.1241H17.7448V13.6221H16.1635V16.1241Z" fill="#EB741E"/>
<path d="M18.4954 11.4703H15.4128C15.0025 11.4703 14.6622 11.13 14.6622 10.7196V6.7163C14.6622 6.30596 15.0025 5.96567 15.4128 5.96567H18.4954C18.9058 5.96567 19.246 6.30596 19.246 6.7163V10.7196C19.246 11.13 18.9058 11.4703 18.4954 11.4703ZM16.1635 9.96901H17.7448V7.46692H16.1635V9.96901Z" fill="#EB741E"/>
<path d="M14.7323 1.50195V4.00404H13.151V1.50195H11.6497V4.75466C11.6497 5.16501 11.99 5.50529 12.4003 5.50529H15.4829C15.9033 5.50529 16.2335 5.16501 16.2335 4.75466V1.50195H14.7323Z" fill="#EB741E"/>
<path d="M12.6005 17.6254H9.51793C9.10759 17.6254 8.76731 17.2851 8.76731 16.8748V12.8714C8.76731 12.4611 9.10759 12.1208 9.51793 12.1208H12.6005C13.0108 12.1208 13.3511 12.4611 13.3511 12.8714V16.8748C13.3511 17.2851 13.0108 17.6254 12.6005 17.6254ZM10.2686 16.1241H11.8499V13.6221H10.2686V16.1241Z" fill="#EB741E"/>
<path d="M12.6005 11.4703H9.51793C9.10759 11.4703 8.76731 11.13 8.76731 10.7196V6.7163C8.76731 6.30596 9.10759 5.96567 9.51793 5.96567H12.6005C13.0108 5.96567 13.3511 6.30596 13.3511 6.7163V10.7196C13.3511 11.13 13.0108 11.4703 12.6005 11.4703ZM10.2686 9.96901H11.8499V7.46692H10.2686V9.96901Z" fill="#EB741E"/>
<path d="M27.8732 7.98736C27.8732 8.40771 27.543 8.73798 27.1226 8.73798H26.2018V23.2501C26.2018 23.6704 25.8616 24.0007 25.4512 24.0007H21.4479C21.8582 24.0007 22.1985 23.6704 22.1985 23.2501V22.4995H24.7006V8.73798H22.1985V7.23673H27.1226C27.543 7.23673 27.8732 7.57702 27.8732 7.98736Z" fill="#EB741E"/>
<path d="M6.43536 24.0007H2.43203C2.01168 24.0007 1.6814 23.6704 1.6814 23.2501V8.73798H0.750625C0.340284 8.73798 0 8.40771 0 7.98736C0 7.56701 0.340284 7.23673 0.750625 7.23673H5.68474V8.73798H3.18265V22.4995H5.68474V23.2501C5.68474 23.6704 6.01501 24.0007 6.43536 24.0007Z" fill="#EB741E"/>
<path d="M17.7043 18.9666V22.4995H16.203V19.7172H14.6217V22.4995H13.1204V19.7172H11.6792V22.4995H10.178V18.9666C10.178 18.5562 10.5183 18.216 10.9286 18.216H16.9536C17.364 18.216 17.7043 18.5562 17.7043 18.9666Z" fill="#EB741E"/>
<path d="M23.4491 0H4.43324C4.01289 0 3.68262 0.330275 3.68262 0.750625C3.68262 1.17098 4.01289 1.50125 4.43324 1.50125H5.68429V23.2494C5.68429 23.6697 6.01456 24 6.43491 24H21.4474C21.8578 24 22.198 23.6697 22.198 23.2494V1.50125H23.4491C23.8594 1.50125 24.1997 1.16097 24.1997 0.750625C24.1997 0.340284 23.8594 0 23.4491 0ZM20.6968 22.4987H7.18554V1.50125H20.6968V22.4987Z" fill="#EB741E"/>
</svg>
