<svg width="24" height="25" viewBox="0 0 24 25" fill="none" xmlns="http://www.w3.org/2000/svg">
<g clip-path="url(#clip0_447_23013)">
<path d="M12 2.50586C14.82 2.50586 17.15 3.45586 19.1 5.40586C21.05 7.35586 22 9.67586 22 12.5059C22 15.3359 21.05 17.6459 19.08 19.5959C17.11 21.5459 14.8 22.5059 12.01 22.5059C9.22 22.5059 6.9 21.5459 4.93 19.5759C2.96 17.6059 2 15.2759 2 12.4759C2 9.67586 2.96 7.41586 4.93 5.43586C6.9 3.46586 9.22 2.50586 12 2.50586ZM12 0.505859C8.69 0.505859 5.86 1.67586 3.52 4.02586C1.18 6.37586 0 9.18586 0 12.4759C0 15.7659 1.17 18.6459 3.52 20.9859C5.87 23.3259 8.7 24.5059 12.01 24.5059C15.32 24.5059 18.15 23.3459 20.49 21.0159C22.83 18.6959 24 15.8559 24 12.5059C24 9.15586 22.84 6.31586 20.51 3.99586C18.19 1.66586 15.35 0.505859 12 0.505859Z" fill="#FAFAFA"/>
<path d="M11.0809 15.3866H13.2109L13.4209 6.24656C13.4209 5.54656 12.8509 4.97656 12.1509 4.97656C11.4509 4.97656 10.8809 5.54656 10.8809 6.24656L11.0909 15.3866H11.0809Z" fill="#FAFAFA"/>
<path d="M12.1294 19.3066C12.4994 19.3066 12.8194 19.1866 13.0694 18.9566C13.3194 18.7266 13.4494 18.4066 13.4494 18.0166C13.4494 17.6266 13.3194 17.3066 13.0594 17.0766C12.7994 16.8366 12.4994 16.7266 12.1494 16.7266C11.7194 16.7666 11.3894 16.9066 11.1794 17.1366C10.9694 17.3666 10.8594 17.6766 10.8594 18.0466C10.8594 18.4166 10.9794 18.7266 11.2094 18.9566C11.4394 19.1866 11.7494 19.3066 12.1194 19.3066H12.1294Z" fill="#FAFAFA"/>
</g>
<defs>
<clipPath id="clip0_447_23013">
<rect width="24" height="24" fill="white" transform="translate(0 0.505859)"/>
</clipPath>
</defs>
</svg>
