<svg width="14" height="14" viewBox="0 0 14 14" fill="none" xmlns="http://www.w3.org/2000/svg">
<path d="M7 0C3.96583 0 1.5 2.48581 1.5 5.54455C1.5 8.6033 6.4775 13.6488 6.68833 13.8706C6.77083 13.9538 6.88083 14 7 14C7.11917 14 7.22917 13.9538 7.31167 13.8706C7.5225 13.6535 12.5 8.51089 12.5 5.54455C12.5 2.57822 10.0342 0 7 0ZM7 12.9327C5.46458 11.2924 2.36625 7.5637 2.36625 5.54455C2.36625 2.97096 4.44708 0.873267 7 0.873267C9.55292 0.873267 11.6338 2.96634 11.6338 5.54455C11.6338 7.5637 8.53542 11.2924 7 12.9327Z" fill="#2743A6"/>
<path d="M6.99075 3.00336C5.59742 3.00336 4.46533 4.14461 4.46533 5.54923C4.46533 6.95385 5.59742 8.09511 6.99075 8.09511C8.38408 8.09511 9.51617 6.95385 9.51617 5.54923C9.51617 4.14461 8.38408 3.00336 6.99075 3.00336ZM6.99075 7.21722C6.07867 7.21722 5.33617 6.4687 5.33617 5.54923C5.33617 4.62976 6.07867 3.88124 6.99075 3.88124C7.90283 3.88124 8.64533 4.62976 8.64533 5.54923C8.64533 6.4687 7.90283 7.21722 6.99075 7.21722Z" fill="#2743A6"/>
</svg>
