<svg width="21" height="26" viewBox="0 0 21 26" fill="none" xmlns="http://www.w3.org/2000/svg">
<path fill-rule="evenodd" clip-rule="evenodd" d="M0 10.11C0 4.54168 4.53726 0.00273507 10.105 0.00999219C10.1077 0.00999579 10.11 0.00775795 10.11 0.00499551C10.11 0.00223656 10.1123 -1.20726e-07 10.115 1.2266e-06C15.6927 0.00272509 20.22 4.54167 20.22 10.11C20.22 14.1859 14.3392 21.4807 10.8295 25.3244C10.4418 25.7491 9.77824 25.7491 9.39049 25.3244C5.88082 21.4807 0 14.1859 0 10.11ZM10.09 6.5C8.09998 6.5 6.47998 8.12 6.47998 10.11C6.47998 12.1 8.09998 13.72 10.09 13.72C12.08 13.72 13.7 12.1 13.7 10.11C13.7 8.12 12.08 6.5 10.09 6.5Z" fill="#EB741E"/>
</svg>
