<svg width="16" height="218" viewBox="0 0 16 218" fill="none" xmlns="http://www.w3.org/2000/svg">
<path fill-rule="evenodd" clip-rule="evenodd" d="M0 8.11302C0 3.64323 3.59426 0 7.99604 0H8.00396C12.4216 0 16 3.64323 16 8.11302C16 11.3871 11.3449 17.2371 8.56606 20.3186C8.2573 20.6557 7.73479 20.6557 7.42603 20.3186C4.65512 17.2371 0 11.3871 0 8.11302ZM7.98812 5.21608C6.41267 5.21608 5.13013 6.51609 5.13013 8.11302C5.13013 9.70994 6.41267 11.0099 7.98812 11.0099C9.56358 11.0099 10.8461 9.70994 10.8461 8.11302C10.8461 6.51609 9.56358 5.21608 7.98812 5.21608Z" fill="#EB741E"/>
<path d="M9 217.571H7V209.354H9V217.571ZM9 201.137H7V192.919H9V201.137ZM9 184.702H7V176.484H9V184.702ZM9 168.267H7V160.05H9V168.267ZM9 151.832H7V143.615H9V151.832ZM9 135.397H7V127.18H9V135.397ZM9 118.963H7V110.745H9V118.963ZM9 102.528H7V94.3104H9V102.528ZM9 86.093H7V77.8756H9V86.093ZM9 69.6582H7V61.4408H9V69.6582ZM9 53.2235H7V45.0061H9V53.2235ZM9 36.7887H7V28.5713H9V36.7887Z" fill="#EB741E"/>
<path d="M9 217.571H7V209.354H9V217.571ZM9 201.137H7V192.919H9V201.137ZM9 184.702H7V176.484H9V184.702ZM9 168.267H7V160.05H9V168.267ZM9 151.832H7V143.615H9V151.832ZM9 135.397H7V127.18H9V135.397ZM9 118.963H7V110.745H9V118.963ZM9 102.528H7V94.3104H9V102.528ZM9 86.093H7V77.8756H9V86.093ZM9 69.6582H7V61.4408H9V69.6582ZM9 53.2235H7V45.0061H9V53.2235ZM9 36.7887H7V28.5713H9V36.7887Z" fill="#EB741E"/>
</svg>
