<svg width="24" height="25" viewBox="0 0 24 25" fill="none" xmlns="http://www.w3.org/2000/svg">
<g clip-path="url(#clip0_1_13990)">
<path d="M12 24.5C5.38 24.5 0 19.12 0 12.5C0 5.88 5.38 0.5 12 0.5C18.62 0.5 24 5.88 24 12.5C24 19.12 18.62 24.5 12 24.5ZM12 2C6.21 2 1.5 6.71 1.5 12.5C1.5 18.29 6.21 23 12 23C17.79 23 22.5 18.29 22.5 12.5C22.5 6.71 17.79 2 12 2Z" fill="#FAFAFA"/>
<path d="M12.6693 10.4298C12.0393 10.2898 11.0793 10.0898 10.9393 9.94984C10.9393 9.78984 11.3593 9.61984 12.1293 9.61984C13.0693 9.61984 14.0693 9.89984 15.1093 10.4498C15.2993 10.5498 15.5093 10.5598 15.7193 10.4998C15.9193 10.4298 16.0793 10.2798 16.1593 10.0798L17.2093 7.56984C17.3493 7.21984 17.2193 6.81984 16.8993 6.62984C15.7093 5.92984 14.1893 5.63984 13.1193 5.51984C12.9993 5.50984 12.8793 5.49984 12.7593 5.48984V4.08984C12.7593 3.67984 12.4193 3.33984 12.0093 3.33984C11.5993 3.33984 11.2593 3.67984 11.2593 4.08984V5.50984C11.0393 5.52984 10.8993 5.54984 10.8893 5.54984C7.34927 5.98984 6.08927 8.18984 6.08927 10.1098C6.08927 13.3998 9.13927 14.0798 11.1493 14.5198C11.7993 14.6598 12.7793 14.8798 12.9293 15.0598C12.9293 15.0598 12.7293 15.2798 11.7193 15.2798C10.5193 15.2798 9.15927 14.8798 8.16927 14.2198C7.98927 14.0998 7.75927 14.0598 7.54927 14.1298C7.33927 14.1898 7.16927 14.3398 7.07927 14.5398L5.95927 17.0298C5.80927 17.3598 5.91927 17.7498 6.21927 17.9498C7.42927 18.7798 9.89927 19.2698 10.9093 19.3798C11.0393 19.3898 11.1493 19.3898 11.2693 19.3998V20.8098C11.2693 21.2198 11.6093 21.5598 12.0193 21.5598C12.4293 21.5598 12.7693 21.2198 12.7693 20.8098V19.3698C12.9693 19.3498 13.1193 19.3198 13.1793 19.3098C16.5693 18.8098 17.7793 16.6498 17.7793 14.7898C17.7793 11.4998 14.7193 10.8398 12.6893 10.3998L12.6693 10.4298ZM12.9193 17.8498C12.9193 17.8498 12.8893 17.8498 12.8793 17.8498C12.8793 17.8498 12.0493 18.0098 11.0493 17.9098C10.1393 17.8098 8.57927 17.4698 7.59927 17.0298L8.09927 15.9198C9.20927 16.4698 10.5293 16.7898 11.7193 16.7898C14.0693 16.7898 14.4293 15.7098 14.4293 15.0698C14.4293 13.7198 12.9293 13.3898 11.4893 13.0598C9.20927 12.5498 7.59927 12.0498 7.59927 10.1098C7.59927 8.45984 8.89927 7.30984 11.0993 7.03984C11.0993 7.03984 12.0493 6.90984 12.9693 7.00984C13.9693 7.11984 14.8693 7.33984 15.5793 7.62984L15.1093 8.75984C14.1093 8.32984 13.1193 8.10984 12.1693 8.10984C9.73927 8.10984 9.47927 9.38984 9.47927 9.93984C9.47927 11.2598 10.9593 11.5798 12.3893 11.8898C14.6793 12.3798 16.2893 12.8798 16.2893 14.8098C16.2893 16.3998 15.0393 17.5398 12.9493 17.8398L12.9193 17.8498Z" fill="#FAFAFA"/>
</g>
<defs>
<clipPath id="clip0_1_13990">
<rect width="24" height="24" fill="white" transform="translate(0 0.5)"/>
</clipPath>
</defs>
</svg>
