<svg width="29" height="24" viewBox="0 0 29 24" fill="none" xmlns="http://www.w3.org/2000/svg">
<path d="M16.6802 5.22777C16.6802 5.22777 16.5903 5.22777 16.5403 5.22777H12.0022C12.0022 5.22777 12.0522 5.21777 12.0722 5.21777H16.5203C16.5203 5.21777 16.6103 5.21777 16.6503 5.22777C16.6503 5.22777 16.6703 5.22777 16.6802 5.22777Z" fill="#EB741E"/>
<path d="M28.5751 23.0204L27.2856 18.7222C27.1857 18.4123 26.8958 18.1924 26.5659 18.1924H25.7463L24.8666 14.464C24.7867 14.1241 24.4868 13.8842 24.1369 13.8842H23.2873L22.5976 10.1258C22.5276 9.77593 22.2177 9.51604 21.8579 9.51604H21.1782L20.6884 5.86756C20.6284 5.49771 20.3185 5.21783 19.9387 5.21783H18.4793V1.49938H19.8387C20.2586 1.49938 20.5884 1.15952 20.5884 0.749688C20.5884 0.339858 20.2586 0 19.8387 0H8.76335C8.34352 0 8.01366 0.339858 8.01366 0.749688C8.01366 1.15952 8.34352 1.49938 8.76335 1.49938H10.1228V5.21783H8.65339C8.28355 5.21783 7.96368 5.49771 7.9137 5.86756L7.41391 9.51604H6.73419C6.37434 9.51604 6.06447 9.77593 5.9945 10.1258L5.30479 13.8842H4.46514C4.11529 13.8842 3.81541 14.1241 3.73544 14.464L2.84581 18.1924H2.02616C1.69629 18.1924 1.40641 18.4123 1.30646 18.7322L0.0269888 23.0304C-0.0329863 23.2503 0.00699708 23.5002 0.146939 23.6901C0.28688 23.8801 0.516785 23.99 0.746689 23.99H10.2327C10.2327 23.99 10.2027 23.98 10.1828 23.97C10.1728 23.98 10.1628 23.98 10.1528 23.97C10.0928 23.97 10.0528 23.95 10.0028 23.92C9.98284 23.92 9.96285 23.91 9.95285 23.9C9.87289 23.8601 9.81291 23.8001 9.75294 23.7401C9.72295 23.7001 9.69296 23.6701 9.66297 23.6302C9.64298 23.5902 9.62299 23.5502 9.603 23.5102C9.57301 23.4302 9.55302 23.3503 9.55302 23.2603C9.55302 23.2203 9.56301 23.1903 9.56301 23.1603V23.1004L9.91287 19.6918L9.62299 22.4906H1.75627L2.58592 19.6918H9.91287L10.0628 18.1924H4.38517L5.05489 15.3836H10.3427V15.3136L10.4327 14.5539C10.4327 14.5439 10.4426 14.474 10.4426 14.464L10.5026 13.8842L10.7925 11.0154L10.9424 9.51604H8.92328L9.31312 6.7172H11.2323L11.3023 5.97751V5.88755C11.3023 5.88755 11.3123 5.87755 11.3123 5.86756C11.3123 5.85756 11.3123 5.83757 11.3223 5.82757C11.3223 5.79758 11.3323 5.7676 11.3423 5.73761C11.3423 5.69763 11.3723 5.66764 11.3923 5.62766C11.4122 5.57768 11.4322 5.54769 11.4622 5.50771C11.5022 5.45773 11.5422 5.41774 11.5922 5.37776C11.5922 5.37776 11.6122 5.35777 11.6222 5.35777C11.6721 5.31778 11.7221 5.2878 11.7721 5.26781C11.8421 5.23782 11.912 5.22782 11.992 5.21783H11.6122V1.49938H16.9699V5.21783H16.6401C16.6401 5.21783 16.6601 5.21783 16.6701 5.21783C16.71 5.22782 16.74 5.23782 16.78 5.24781C17.0499 5.33778 17.2498 5.57768 17.2798 5.87755L17.3598 6.70721H19.279L19.6588 9.50604H17.6496L17.7996 11.0054H21.2282L21.7379 13.8042H18.0895V13.8742L18.1594 14.474V14.6239L18.2294 15.3036V15.3736H23.5372L24.1969 18.1824H18.5293L18.6792 19.6818H25.9962L26.8358 22.4806H18.9691L19.0391 23.1504V23.2603C19.0391 23.2603 19.0291 23.3503 19.0191 23.3903C19.0191 23.4202 19.0191 23.4602 18.9891 23.4902C18.9691 23.5402 18.9491 23.5802 18.9291 23.6202C18.9091 23.6601 18.8891 23.7001 18.8491 23.7301C18.8192 23.7701 18.7792 23.8101 18.7292 23.8401C18.6292 23.92 18.5093 23.97 18.3693 23.98H27.8454C28.0853 23.98 28.3052 23.8701 28.4451 23.6801C28.5851 23.4902 28.6351 23.2403 28.5651 23.0104L28.5751 23.0204ZM10.7825 11.0154L10.5026 13.8142H6.84415L7.36393 11.0154H10.7825Z" fill="#EB741E"/>
<path d="M15.8706 6.71777H15.8606L16.2305 10.2463L15.8706 6.71777ZM15.8706 6.71777H15.8606L16.2305 10.2463L15.8706 6.71777ZM9.81315 23.7807C9.81315 23.7807 9.77317 23.7607 9.75317 23.7407C9.81315 23.8007 9.87312 23.8606 9.95309 23.9006C9.90311 23.8606 9.86313 23.8306 9.81315 23.7807ZM10.113 23.9506C10.113 23.9506 10.0431 23.9306 10.0031 23.9206C10.053 23.9506 10.093 23.9606 10.153 23.9706C10.143 23.9706 10.123 23.9506 10.113 23.9506ZM15.8706 6.71777H15.8606L16.2305 10.2463L15.8706 6.71777Z" fill="#EB741E"/>
<path d="M18.9793 22.4913L18.6894 19.6925L18.5395 18.1931L18.2496 15.3843V15.3143L18.1696 14.6346V14.4847L18.1097 13.8849V13.8149L17.8098 11.0161L17.6599 9.51673L17.37 6.71789L17.29 5.88824C17.26 5.58837 17.0601 5.34847 16.7902 5.2585C16.7502 5.24851 16.7203 5.23851 16.6803 5.22852C16.6403 5.22852 16.5903 5.22852 16.5403 5.22852H12.0022C11.9223 5.22852 11.8523 5.24851 11.7823 5.27849C11.7323 5.29849 11.6824 5.32847 11.6324 5.36846C11.6224 5.36846 11.6124 5.37845 11.6024 5.38845C11.5524 5.42843 11.5124 5.46842 11.4724 5.51839C11.4424 5.55838 11.4225 5.58837 11.4025 5.63834C11.3825 5.67833 11.3625 5.70832 11.3525 5.7483C11.3425 5.77829 11.3325 5.80827 11.3325 5.83826C11.3225 5.84826 11.3225 5.86825 11.3225 5.87824V5.9882L11.2425 6.72789L10.9527 9.52672L10.8027 11.0261L10.5128 13.8949L10.4529 14.4747C10.4529 14.4747 10.4429 14.5546 10.4429 14.5646L10.3629 15.3243V15.3943L10.073 18.2031L9.92308 19.7025L9.58322 23.1111V23.171C9.58322 23.171 9.56323 23.231 9.56323 23.271C9.56323 23.361 9.58322 23.4409 9.61321 23.5209C9.6332 23.5609 9.6532 23.6009 9.67319 23.6408C9.70317 23.6808 9.73316 23.7108 9.76315 23.7508C9.78314 23.7708 9.80313 23.7808 9.82312 23.7908C9.8731 23.8408 9.91309 23.8707 9.96307 23.9107C9.97306 23.9107 9.99305 23.9307 10.013 23.9307C10.053 23.9407 10.083 23.9507 10.123 23.9607C10.133 23.9607 10.153 23.9707 10.163 23.9807C10.163 23.9907 10.183 23.9907 10.193 23.9807C10.233 24.0007 10.2729 24.0007 10.3129 24.0007H18.3096C18.4695 24.0007 18.6195 23.9507 18.7494 23.8608C18.7994 23.8308 18.8394 23.7908 18.8694 23.7508C18.8993 23.7108 18.9293 23.6808 18.9493 23.6408C18.9693 23.6009 18.9893 23.5609 19.0093 23.5109C19.0293 23.4809 19.0393 23.4409 19.0393 23.4109C19.0493 23.371 19.0593 23.321 19.0593 23.281V23.171L18.9893 22.5013L18.9793 22.4913ZM11.1326 22.4913L11.4824 19.0628L11.4924 19.0228V18.9528L11.7723 16.2039L11.9223 14.7346V14.6846C11.9223 14.6846 11.9322 14.6446 11.9322 14.6346L12.3621 10.3564V10.3364L12.7319 6.71789H15.8706L16.2305 10.2464V10.3464L16.6703 14.5646V14.6146C16.6703 14.6146 16.6703 14.6346 16.6803 14.6446V14.7146L17.1101 18.9228V19.0228L17.4699 22.4913H11.1326Z" fill="#EB741E"/>
</svg>
