<svg width="86" height="19" viewBox="0 0 86 19" fill="none" xmlns="http://www.w3.org/2000/svg">
<path fill-rule="evenodd" clip-rule="evenodd" d="M31.4523 12.3344C28.4507 11.5227 19.7331 12.0238 17.5764 12.4296C19.1452 9.47673 20.3445 6.16977 20.3445 6.09461C20.3445 5.79899 19.807 5.33301 19.3501 5.33301C19.1905 5.33301 18.9839 5.66203 18.7337 6.19649C17.5797 7.83327 15.2248 11.1402 15.2248 10.1966C15.2248 9.95774 17.1682 6.83283 17.7275 6.08292C17.9896 5.71882 17.1329 5.33301 16.6072 5.33301C16.4258 5.33301 15.7069 6.50047 15.0938 7.70801C14.8939 7.85331 14.259 8.41115 13.3503 8.40113C13.6593 7.80989 13.7971 7.37898 13.7971 6.86624C13.7971 5.63865 12.974 5.34303 12.5171 5.34303C11.4421 5.34303 10.9634 6.14973 10.9735 7.01321C10.8139 6.75099 10.5385 6.39858 10.1841 6.41028C9.17793 6.43366 6.5257 11.354 9.72718 11.354C10.9735 11.354 12.2417 10.2851 13.0311 9.05751C13.7316 9.15105 14.348 8.79864 14.7444 8.42619C14.4018 9.16608 14.1515 9.83415 14.1515 10.1498C14.1515 10.888 14.7343 11.344 14.9057 11.344C15.6951 11.344 17.138 9.61536 18.0987 8.12722C17.5915 9.40658 16.8272 11.2521 16.0327 12.8756C14.5076 13.3699 12.7758 14.0747 12.4466 14.808C11.8335 16.1675 12.8749 16.8088 12.8749 16.8088C12.8749 16.8088 12.9001 16.7988 12.9404 16.7804C13.0798 16.9057 13.2528 16.9926 13.4628 16.9926C14.7192 16.9926 16.1537 15.0384 17.3866 12.787C18.7303 12.6835 22.1837 12.4831 27.1926 12.6751C29.2401 12.7536 31.0256 12.9457 31.0256 12.9457C31.0256 12.9457 32.4063 12.5916 31.4556 12.3344H31.4523ZM9.67847 10.6859C9.33582 10.6859 9.29046 10.3786 9.29046 10.2083C9.29046 9.05919 10.6057 7.76479 11.0054 7.40069C11.0978 7.93515 11.3716 8.45792 11.8066 8.76523C11.1885 9.78738 10.3201 10.6859 9.68015 10.6859H9.67847ZM12.193 7.98025C11.6555 7.74141 11.3011 6.04785 12.0099 5.8658C12.2047 5.8207 12.581 5.95766 12.581 6.61571C12.581 7.04829 12.455 7.42241 12.193 7.98025ZM13.7299 16.3211C13.7047 16.3245 13.6778 16.3278 13.6409 16.3362C12.324 16.6001 12.6112 14.4689 15.9185 13.101C15.1408 14.661 14.343 15.9754 13.7299 16.3211Z" fill="#EBEBEB"/>
<path fill-rule="evenodd" clip-rule="evenodd" d="M8.88219 12.2121C8.59664 12.2121 8.96281 12.6213 8.42531 12.6213C7.32848 12.6213 5.86547 10.3248 4.61914 8.62122C7.32848 8.17862 10.152 6.31303 10.152 4.46079C10.152 3.47205 9.86648 2.14258 6.80273 2.14258C3.57773 2.14091 0 3.55054 0 5.68838C0 6.84749 1.76031 6.80239 1.76031 6.3481C1.76031 6.12096 1.41766 6.53015 1.41766 5.91552C1.41766 4.97187 2.96129 3.91464 4.86941 3.37016C4.31008 4.13177 3.50887 5.46123 2.7782 6.82577H2.75469C2.2407 6.82577 2.01227 7.21159 2.42379 7.21159C2.4809 7.21159 2.52625 7.22328 2.56152 7.24499C2.50441 7.35856 2.4473 7.49552 2.37844 7.62078C2.09289 7.46211 2.26422 7.25668 2.11641 7.25668C1.88797 7.25668 1.66961 7.84792 2.0593 8.27883C1.49828 9.48303 1.09852 10.5636 1.09852 11.1098C1.09852 12.0301 1.51004 12.4844 2.13824 12.4844C2.65223 12.4844 2.97305 12.0635 2.89242 11.995C2.75469 11.848 2.12648 12.4844 2.12648 11.7111C2.12648 11.0179 2.58336 9.90392 3.23508 8.72143C3.30395 8.72143 3.38457 8.73312 3.46352 8.73312C3.54246 8.73312 3.62477 8.72143 3.70371 8.72143C4.89293 10.7106 6.50543 13.9725 8.11625 13.9725C9.17949 13.9725 9.15598 12.2104 8.88219 12.2104V12.2121ZM3.8532 7.64249C4.99707 5.75519 6.32234 3.97143 6.665 3.6424C6.75738 3.54052 6.58437 3.2783 6.32234 3.06285C6.71035 3.02945 7.10004 2.99437 7.48805 2.99437C8.02555 2.99437 9.26012 3.08623 9.26012 3.92633C9.26012 5.47125 5.93434 7.67757 4.0027 7.80283C3.94559 7.75773 3.90023 7.70095 3.85488 7.64416L3.8532 7.64249Z" fill="#EBEBEB"/>
<path fill-rule="evenodd" clip-rule="evenodd" d="M20.6165 11.3553C21.1422 11.3553 22.491 9.41125 22.491 9.41125C22.491 9.41125 21.977 11.3553 23.1881 11.3553C23.828 11.3553 24.6712 10.6104 25.37 9.78704C25.333 9.95573 25.3078 10.1127 25.3078 10.2397C25.3078 11.0581 25.8218 11.342 26.1309 11.342H26.2115C27.6409 11.342 30.0748 7.64754 29.6633 7.64754C29.4684 7.64754 27.1706 10.6706 26.6566 10.6706C26.1426 10.6706 27.3084 8.44254 27.5939 7.93147C27.9819 7.32853 28.4052 6.69219 28.8285 6.08926C30.4057 5.29425 31.8116 3.87292 31.8116 3.33846C31.8116 2.99775 31.5496 2.54346 30.8978 2.54346C30.189 2.54346 29.2517 3.31675 28.3598 4.39569C27.9601 4.87336 27.5704 5.41784 27.216 5.96399C27.0329 5.98737 26.8498 5.9974 26.655 5.9974C25.9344 5.9974 26.5525 6.63374 26.7692 6.65712C26.3862 7.30348 26.0553 7.9465 25.8034 8.52772C25.0307 9.4196 23.9641 10.6706 23.6332 10.6706C23.1192 10.6706 24.6041 8.19202 24.6041 7.90808C24.6041 7.43041 23.6097 7.14648 23.6097 7.14648C23.6097 7.14648 21.3471 10.42 20.7408 10.42C20.1915 10.42 21.8158 6.59031 23.393 6.59031C23.645 6.59031 23.5878 7.13646 23.781 6.94272C23.9759 6.74898 23.6433 5.33934 22.7984 5.33934C21.4496 5.33934 19.4944 7.95318 19.4944 9.84049C19.4944 11.0798 20.2839 11.352 20.6148 11.352L20.6165 11.3553ZM31.2405 3.3418C31.2623 3.3418 30.6912 4.30717 29.5709 5.06877C30.3368 4.06833 30.9885 3.3418 31.2405 3.3418Z" fill="#EBEBEB"/>
<path fill-rule="evenodd" clip-rule="evenodd" d="M44.1758 3.7631C44.5184 3.52427 44.3135 3.99025 44.4949 3.99025C44.6427 3.99025 44.7922 3.81989 44.7922 3.53596C44.7922 2.98981 44.0599 2.46704 43.729 2.46704C41.4093 2.46704 35.727 13.39 33.9549 13.39C33.75 13.39 33.6576 13.2314 33.6576 13.1178C33.6576 11.3107 35.7958 8.05881 37.2017 6.22996C37.6468 5.65041 37.5326 3.6963 35.7606 3.6963C31.7377 3.6963 30.5602 5.64039 30.5602 6.17485C30.5602 7.08343 31.6924 7.58448 32.2299 7.03833C32.4919 6.7878 31.8872 7.12852 31.8872 6.65252C31.8872 5.09591 34.3328 4.36771 35.774 4.36771C36.3804 4.36771 36.1166 4.93557 35.9907 5.08422C34.6755 6.87966 32.6985 10.5173 32.6985 12.7787C32.6985 13.4485 33.0647 13.8694 33.8524 13.8694C36.9044 13.8694 40.7795 6.06127 44.1741 3.76477L44.1758 3.7631Z" fill="#EBEBEB"/>
<path fill-rule="evenodd" clip-rule="evenodd" d="M62.2341 6.03241C62.2341 6.69213 63.1378 7.02116 63.1378 6.71385C63.1378 6.00903 64.7604 5.51967 64.2699 5.04366C63.939 4.70295 63.4351 4.46411 63.2302 4.46411C62.7498 4.46411 62.2358 5.2825 62.2358 6.03241H62.2341Z" fill="#EBEBEB"/>
<path fill-rule="evenodd" clip-rule="evenodd" d="M78.9504 8.8822C78.6531 8.8822 77.3731 9.59871 75.9101 10.5073C75.7506 9.94945 75.6011 9.40497 75.6011 8.90391C75.6011 7.99533 77.0523 7.59783 77.2354 7.59783C77.4185 7.59783 77.4185 8.25755 77.4185 8.25755C77.4185 8.25755 77.8519 8.16736 77.8519 7.41578C77.8519 7.05168 77.2119 6.52891 76.6626 6.52891C76.1134 6.52891 74.6168 7.19865 74.6386 8.5515C74.642 8.82541 74.6873 9.12103 74.7495 9.41833C73.6812 10.3403 71.9444 11.9887 71.9444 11.7232C71.9444 11.314 73.7282 8.61998 73.7282 7.76819C73.7282 7.00658 73.2713 6.51722 72.8934 6.51722C72.4601 6.51722 71.5446 7.41578 70.6645 8.41455C70.9735 7.92518 71.2473 7.51766 71.4304 7.26713C71.6941 6.89134 70.9735 6.50553 70.4478 6.50553C70.2613 6.50553 69.4299 7.88343 68.7664 9.21624C68.4523 9.41332 67.9938 9.62543 67.4294 9.62042C67.7385 9.02917 67.8762 8.59827 67.8762 8.08552C67.8762 6.85794 67.0531 6.56231 66.5963 6.56231C65.5213 6.56231 65.0426 7.36901 65.0526 8.2325C64.8931 7.97028 64.6176 7.61787 64.2632 7.62956C63.8433 7.63958 63.1378 8.50307 62.6893 9.50518C61.9284 10.3804 60.6754 11.9036 60.3075 11.9036C59.7818 11.9036 62.5818 7.51599 62.5818 7.37903C62.5818 7.0951 61.9872 6.412 61.6109 6.62912C61.4732 6.70261 60.7795 7.66965 60.1547 8.80537C60.1446 8.79535 60.1311 8.79034 60.1127 8.79034C59.896 8.79034 57.62 11.8818 57.0724 11.8818C56.6995 11.8818 58.9822 7.79157 61.7084 4.01362C66.561 2.9781 71.6773 2.08288 73.9063 3.40901C74.0289 3.4825 74.6655 2.18477 71.9746 1.81064C69.398 1.45323 66.0487 1.95094 62.7481 2.61901C63.294 1.91086 63.8466 1.2361 64.3892 0.626485C64.5706 0.421053 63.4217 -0.00317383 62.8606 -0.00317383C62.6557 -0.00317383 61.4648 2.14134 60.8668 3.01485C55.7757 4.12719 51.1952 5.34141 50.2882 4.037C50.1118 3.78313 49.969 5.81741 52.7002 5.69716C54.3984 5.622 57.0691 5.02408 59.98 4.38607C59.172 5.66543 57.9358 7.62121 57.0573 9.17782C56.3552 9.94778 54.7965 11.8919 54.3833 11.8919C53.8693 11.8919 55.3541 9.41332 55.3541 9.12939C55.3541 8.65171 54.3597 8.36778 54.3597 8.36778C54.3597 8.36778 52.0972 11.6413 51.4908 11.6413C50.9416 11.6413 52.5658 7.81161 54.1431 7.81161C54.395 7.81161 54.3362 8.35776 54.5311 8.16402C54.7259 7.97028 54.395 6.56064 53.5484 6.56064C52.7019 6.56064 51.5463 7.66296 50.8593 8.95235C50.2915 9.43837 48.4842 11.9152 47.1236 11.9152C45.9008 11.9152 47.9584 7.81161 49.5239 7.81161C50.0379 7.81161 49.0889 9.48346 48.632 9.0392C48.3801 8.78867 48.3347 9.56196 49.1242 9.56196C49.9136 9.56196 50.4041 8.41455 50.4041 8.00535C50.4041 7.55106 49.7859 6.56231 48.9411 6.56231C47.8056 6.56231 46.2452 8.41622 45.7782 10.1282C45.0576 10.9582 44.2195 11.8935 43.9339 11.8935C43.4199 11.8935 44.9048 9.41499 44.9048 9.13106C44.9048 8.65338 43.9104 8.36945 43.9104 8.36945C43.9104 8.36945 41.6479 11.643 41.0415 11.643C40.4922 11.643 42.1165 7.81328 43.6937 7.81328C43.9457 7.81328 43.8886 8.35943 44.0817 8.16569C44.2766 7.97195 43.944 6.56231 43.0991 6.56231C41.7503 6.56231 39.7952 9.17615 39.7952 11.0635C39.7952 12.3027 40.5846 12.575 40.9155 12.575C41.4413 12.575 42.79 10.6309 42.79 10.6309C42.79 10.6309 42.2761 12.575 43.4871 12.575C44.1187 12.575 44.9451 11.8518 45.6371 11.0451C45.6371 11.0518 45.6371 11.0584 45.6371 11.0635C45.6371 12.3027 46.4266 12.575 46.7575 12.575C47.8593 12.575 49.5122 11.0852 50.4209 9.99454C50.31 10.362 50.2445 10.7244 50.2445 11.0635C50.2445 12.3027 51.034 12.575 51.3649 12.575C51.8906 12.575 53.2394 10.6309 53.2394 10.6309C53.2394 10.6309 52.7254 12.575 53.9365 12.575C54.5882 12.575 55.4482 11.805 56.152 10.9666C56.0646 11.1871 56.0176 11.3591 56.0176 11.4727C56.0176 12.291 56.5316 12.575 56.8406 12.575C57.5511 12.575 58.7437 11.2472 59.4929 10.1649C58.9688 11.4476 58.8327 12.5867 59.9497 12.5867C60.6619 12.5867 61.5992 11.6597 62.3063 10.7361C62.1552 11.7282 62.4743 12.575 63.8013 12.575C65.0476 12.575 66.3158 11.5061 67.1052 10.2785C67.5957 10.3436 68.0442 10.1883 68.4053 9.96281C68.1046 10.6309 67.893 11.2104 67.893 11.4944C67.893 12.2326 68.4305 12.5282 68.6136 12.5282C68.6472 12.5282 68.6589 12.5048 68.6707 12.4714C70.2143 8.64169 72.6835 7.42413 72.6835 7.42413C72.6835 7.42413 70.6947 10.4021 70.6947 11.4359C70.6947 12.0722 71.3683 12.5265 71.5749 12.5265C72.2182 12.5265 73.8811 10.9399 74.8452 9.84255C74.951 10.2484 75.077 10.6409 75.1694 10.9699C73.9231 11.8 72.8598 12.6635 72.8598 13.1412C72.8598 13.3683 73.2596 14.0965 74.3463 14.0965C75.6498 14.0965 76.3351 13.1879 76.3351 12.5399C76.3351 12.0856 76.2091 11.5846 76.0731 11.0852C77.7192 9.97116 79.2729 8.88053 78.942 8.88053L78.9504 8.8822ZM63.7626 11.9069C63.42 11.9069 63.3746 11.5996 63.3746 11.4292C63.3746 10.2818 64.6898 8.98575 65.0896 8.62165C65.182 9.15611 65.4558 9.67888 65.8908 9.98619C65.2744 11.0083 64.4043 11.9069 63.7643 11.9069H63.7626ZM66.2771 9.2012C65.7396 8.96237 65.3852 7.2688 66.094 7.08675C66.2889 7.04166 66.6651 7.17861 66.6651 7.83666C66.6651 8.26924 66.5392 8.64336 66.2771 9.2012ZM73.5535 13.1445C73.394 12.9858 74.2506 12.3378 75.3374 11.5762C75.371 11.7349 75.3945 11.8718 75.3945 11.9854C75.3945 12.7821 74.0121 13.5988 73.5535 13.1445Z" fill="#EBEBEB"/>
<path d="M82.3148 6.57721C82.3467 6.5555 82.4038 6.52042 82.4794 6.47533L80.9005 4.50952L79.3199 4.51286C78.6581 4.51286 78.2482 5.23104 78.5859 5.79723L79.7516 7.74968L80.6603 7.7146L82.3131 6.57721H82.3148Z" fill="#EBEBEB"/>
<path d="M82.886 7.16382C82.7936 7.21559 82.723 7.25568 82.6811 7.27572L80.9627 8.09745L80.4605 8.93421L81.6111 10.8616C81.9487 11.4278 82.7785 11.4144 83.0959 10.8365L83.8552 9.45865L82.886 7.16382Z" fill="#EBEBEB"/>
<path d="M84.9065 5.06569C85.2374 4.90368 85.5414 4.78677 85.7548 4.76339C85.6019 4.60806 85.3903 4.50952 85.1417 4.50952L82.0561 4.5162L83.5964 5.81226C84.0364 5.55673 84.7873 5.12415 84.9048 5.06736L84.9065 5.06569Z" fill="#EB741E"/>
<path d="M84.0046 6.50847L84.4128 8.44755L85.8943 5.75688C86.0051 5.55479 86.0253 5.336 85.9732 5.13892C85.8573 5.29758 85.6373 5.48297 85.3568 5.6834C85.2342 5.77024 84.4649 6.23289 84.0046 6.50847Z" fill="#EB741E"/>
<path d="M47.2412 15.8867C47.1673 15.8867 47.1069 15.9201 47.0581 15.9886L45.9966 17.5586L44.9602 15.9886C44.9384 15.9585 44.9098 15.9352 44.8712 15.9151C44.8326 15.8967 44.7956 15.8867 44.7587 15.8867C44.6965 15.8867 44.6411 15.9101 44.5957 15.9552C44.5487 16.002 44.5269 16.0537 44.5269 16.1122V18.7728C44.5269 18.8379 44.547 18.893 44.5873 18.9348C44.6276 18.9782 44.6797 18.9983 44.7419 18.9983C44.8074 18.9983 44.8594 18.9766 44.8997 18.9348C44.9401 18.8914 44.9602 18.8379 44.9602 18.7728V16.7402L45.8001 18.0396C45.8202 18.0663 45.8488 18.0897 45.8824 18.1081C45.916 18.1264 45.9496 18.1365 45.9831 18.1365C46.0167 18.1365 46.0486 18.1264 46.0839 18.1081C46.1175 18.0897 46.1461 18.0663 46.1662 18.0396L47.0061 16.7686V18.7728C47.0061 18.8379 47.0279 18.8914 47.0699 18.9348C47.1136 18.9782 47.169 18.9983 47.2379 18.9983C47.3067 18.9983 47.3622 18.9766 47.4058 18.9348C47.4495 18.8914 47.4697 18.8379 47.4697 18.7728V16.1122C47.4697 16.0471 47.4462 15.9919 47.4008 15.9502C47.3538 15.9068 47.3017 15.8867 47.2429 15.8867H47.2412Z" fill="#EB741E"/>
<path d="M51.2641 15.7098C51.2792 15.7098 51.296 15.7098 51.3128 15.7064C51.3313 15.7031 51.3464 15.6964 51.3615 15.6847L51.8083 15.4576C51.8537 15.4342 51.8873 15.4041 51.9108 15.3657C51.9343 15.329 51.946 15.2905 51.946 15.2521C51.946 15.1937 51.9242 15.1469 51.8789 15.1118C51.8335 15.0784 51.7882 15.0601 51.7411 15.0601C51.7092 15.0601 51.6756 15.0684 51.6437 15.0834C51.6101 15.1001 51.5816 15.1202 51.5547 15.1436L51.1667 15.4676C51.1482 15.486 51.1348 15.5027 51.1247 15.521C51.1146 15.5394 51.1096 15.5561 51.1096 15.5745C51.1096 15.6129 51.123 15.6446 51.1516 15.6697C51.1801 15.6947 51.2171 15.7081 51.2658 15.7081L51.2641 15.7098Z" fill="#EB741E"/>
<path d="M51.9998 16.3177C52.0653 16.3177 52.119 16.2994 52.1627 16.2593C52.2064 16.2209 52.2265 16.1708 52.2265 16.109C52.2265 16.0472 52.2047 15.9954 52.1627 15.9536C52.119 15.9119 52.0653 15.8918 51.9998 15.8918H50.4595C50.394 15.8918 50.3403 15.9136 50.2966 15.9553C50.2529 15.9987 50.2311 16.0522 50.2311 16.1173V18.7729C50.2311 18.838 50.2529 18.8915 50.2966 18.9349C50.3403 18.9783 50.394 18.9984 50.4595 18.9984H51.9998C52.0653 18.9984 52.119 18.9783 52.1627 18.9383C52.2064 18.8982 52.2282 18.8464 52.2282 18.7846C52.2282 18.7278 52.2064 18.6794 52.1627 18.636C52.119 18.5925 52.0653 18.5725 51.9998 18.5725H50.6997V17.6222H51.7982C51.8637 17.6222 51.9175 17.6021 51.9612 17.5637C52.0048 17.5253 52.0267 17.4752 52.0267 17.4134C52.0267 17.3482 52.0048 17.2948 51.9612 17.253C51.9175 17.2113 51.8637 17.1912 51.7982 17.1912H50.6997V16.3161H51.9998V16.3177Z" fill="#EB741E"/>
<path d="M57.7023 16.0653C57.7023 16.0152 57.6821 15.9684 57.6418 15.925C57.6015 15.8815 57.5511 15.8615 57.4923 15.8615C57.4235 15.8615 57.3647 15.8966 57.3143 15.9684L56.4795 17.0757L55.6396 15.955C55.5893 15.8899 55.5288 15.8582 55.4566 15.8582C55.3995 15.8582 55.3474 15.8799 55.3004 15.9216C55.2533 15.965 55.2281 16.0185 55.2281 16.0836C55.2281 16.1337 55.2449 16.1788 55.2768 16.2172L56.1855 17.4281L55.2768 18.6507C55.2416 18.7008 55.2231 18.7509 55.2231 18.801C55.2231 18.8511 55.2432 18.8979 55.2819 18.938C55.3205 18.9797 55.3692 18.9998 55.4246 18.9998C55.4986 18.9998 55.559 18.9647 55.6077 18.8929L56.4425 17.7688L57.2908 18.8996C57.3412 18.9647 57.4016 18.9964 57.4739 18.9964C57.5243 18.9964 57.5746 18.9764 57.625 18.9363C57.6754 18.8962 57.7006 18.8411 57.7006 18.7693C57.7006 18.7192 57.6838 18.6741 57.6519 18.6357L56.7365 17.4148L57.6519 16.1972C57.6838 16.1538 57.7006 16.107 57.7006 16.0602L57.7023 16.0653Z" fill="#EB741E"/>
<path d="M61.7017 15.8918C61.6294 15.8918 61.5723 15.9136 61.527 15.9553C61.4816 15.9987 61.4598 16.0522 61.4598 16.1173V18.7729C61.4598 18.838 61.4799 18.8932 61.5219 18.9349C61.5639 18.9783 61.6193 18.9984 61.6916 18.9984C61.7537 18.9984 61.8092 18.9767 61.8545 18.9349C61.9015 18.8915 61.9251 18.838 61.9284 18.7729V16.1173C61.9284 16.0522 61.9049 15.9971 61.8595 15.9553C61.8125 15.9119 61.7604 15.8918 61.7 15.8918H61.7017Z" fill="#EB741E"/>
<path d="M67.9971 18.3851C67.9468 18.3767 67.8947 18.3867 67.8409 18.4135C67.7553 18.4602 67.6629 18.497 67.5655 18.5203C67.468 18.5437 67.3706 18.5554 67.2682 18.5554C67.1103 18.5554 66.9625 18.5304 66.8281 18.4819C66.692 18.4335 66.5744 18.36 66.4753 18.2598C66.3762 18.1613 66.2973 18.0393 66.2419 17.8957C66.1864 17.7521 66.1579 17.5867 66.1579 17.4013C66.1579 17.2326 66.1848 17.079 66.2368 16.9404C66.2889 16.8017 66.3645 16.6815 66.4619 16.5813C66.561 16.4811 66.6769 16.4026 66.813 16.3458C66.949 16.289 67.1019 16.2623 67.2715 16.2623C67.3757 16.2623 67.4764 16.2756 67.5739 16.3023C67.6713 16.3291 67.7603 16.3641 67.8443 16.4092C67.898 16.436 67.9501 16.4476 68.0005 16.4426C68.0509 16.4376 68.0929 16.4126 68.1265 16.3641C68.1735 16.3074 68.1937 16.2456 68.1819 16.1771C68.1718 16.1086 68.1332 16.0585 68.0677 16.0268C67.9518 15.9616 67.8258 15.9115 67.6881 15.8764C67.552 15.8414 67.4143 15.823 67.2698 15.823C67.0414 15.823 66.8298 15.8614 66.6366 15.9399C66.4434 16.0184 66.2738 16.1286 66.1293 16.2706C65.9849 16.4126 65.8723 16.5796 65.7917 16.7717C65.7111 16.9637 65.6708 17.1742 65.6708 17.4013C65.6708 17.6552 65.7144 17.8823 65.8001 18.0811C65.8875 18.2798 66.0034 18.4469 66.1512 18.5821C66.299 18.7191 66.4686 18.8226 66.6601 18.8928C66.8516 18.9629 67.0548 18.9997 67.2698 18.9997C67.3656 18.9997 67.4596 18.9913 67.552 18.9763C67.6444 18.9596 67.7351 18.9362 67.8241 18.9045C67.9132 18.8728 67.9955 18.8377 68.0694 18.7959C68.1315 18.7659 68.1685 18.7191 68.1819 18.654C68.1937 18.5888 68.1769 18.5254 68.1282 18.4636C68.0929 18.4185 68.0492 18.3934 67.9988 18.3851H67.9971Z" fill="#EB741E"/>
<path d="M73.5603 16.7741C73.4864 16.5804 73.3806 16.41 73.2462 16.2664C73.1101 16.1211 72.9506 16.0092 72.7658 15.9273C72.581 15.8455 72.3795 15.8054 72.1577 15.8054C71.936 15.8054 71.7361 15.8455 71.5531 15.9273C71.37 16.0092 71.2104 16.1228 71.076 16.2664C70.94 16.4117 70.8358 16.5804 70.7602 16.7741C70.6863 16.9679 70.6477 17.1783 70.6477 17.4021C70.6477 17.6259 70.6847 17.8364 70.7602 18.0301C70.8341 18.2238 70.94 18.3942 71.076 18.5378C71.2121 18.6831 71.37 18.795 71.5531 18.8769C71.7361 18.9587 71.9377 18.9988 72.1577 18.9988C72.3778 18.9988 72.581 18.9587 72.7658 18.8769C72.9506 18.795 73.1101 18.6815 73.2462 18.5378C73.3822 18.3925 73.4864 18.2238 73.5603 18.0301C73.6359 17.8364 73.6728 17.6259 73.6728 17.4021C73.6728 17.1783 73.6359 16.9679 73.5603 16.7741ZM73.0564 17.9934C72.9674 18.1687 72.8447 18.3057 72.6919 18.4059C72.539 18.5061 72.361 18.5562 72.1577 18.5562C71.9545 18.5562 71.7815 18.5061 71.627 18.4059C71.4724 18.3057 71.3515 18.1671 71.2658 17.9934C71.1785 17.818 71.1365 17.6226 71.1365 17.4021C71.1365 17.1817 71.1802 16.9829 71.2658 16.8092C71.3515 16.6355 71.4724 16.4985 71.627 16.3983C71.7815 16.2981 71.9595 16.248 72.1577 16.248C72.3559 16.248 72.5374 16.2981 72.6919 16.3983C72.8447 16.4985 72.9657 16.6372 73.0564 16.8109C73.1454 16.9862 73.1908 17.1817 73.1908 17.4021C73.1908 17.6226 73.1454 17.818 73.0564 17.9934Z" fill="#EB741E"/>
</svg>
