<svg width="34" height="24" viewBox="0 0 34 24" fill="none" xmlns="http://www.w3.org/2000/svg">
<path d="M31.7647 2.80941V21.1906C31.7647 21.5294 31.6518 21.8259 31.3976 22.1082C31.1435 22.4047 30.7623 22.5882 30.3671 22.5882H22.2353V1.41176H30.3671C30.8188 1.41176 31.2282 1.63765 31.5106 2.03294C31.6659 2.25882 31.7647 2.52706 31.7647 2.80941Z" fill="#D6062F"/>
<path d="M10.9412 1.41176V22.5882H22.2353V1.41176H10.9412ZM16.5882 8.24471C17.4776 8.24471 18.2118 8.97882 18.2118 9.88235C18.2118 10.7859 17.4776 11.5059 16.5882 11.5059C15.6988 11.5059 14.9506 10.7718 14.9506 9.88235C14.9506 8.99294 15.6847 8.24471 16.5882 8.24471Z" fill="white"/>
<path d="M16.5741 8.24471C17.4635 8.24471 18.1976 8.97882 18.1976 9.88235C18.1976 10.7859 17.4635 11.5059 16.5741 11.5059C15.6847 11.5059 14.9365 10.7718 14.9365 9.88235C14.9365 8.99294 15.6706 8.24471 16.5741 8.24471Z" fill="#BF862B"/>
<path d="M10.9412 1.41176V22.5882H2.80941C2.4 22.5882 2.01882 22.4047 1.73647 22.0659C1.51059 21.8259 1.41176 21.5294 1.41176 21.1906V2.80941C1.41176 2.52706 1.49647 2.25882 1.68 2.00471C1.93412 1.63765 2.34353 1.41176 2.80941 1.41176H10.9412Z" fill="#39A839"/>
<path d="M32.6541 1.22824C32.1459 0.465882 31.2847 0 30.3671 0H2.80941C1.87764 0 1.01647 0.451765 0.536467 1.18588C0.183526 1.65176 0 2.21647 0 2.80941V21.1906C0 21.8965 0.239999 22.5318 0.677646 22.9976C1.18588 23.6188 1.97647 24 2.80941 24H30.3671C31.1859 24 31.9765 23.6188 32.4565 23.0259C32.9224 22.5318 33.1765 21.8965 33.1765 21.1906V2.80941C33.1765 2.21647 32.9788 1.65176 32.6541 1.22824ZM31.7647 21.1906C31.7647 21.5294 31.6518 21.8259 31.3976 22.1082C31.1435 22.4047 30.7623 22.5882 30.3671 22.5882H2.80941C2.4 22.5882 2.01882 22.4047 1.73647 22.0659C1.51059 21.8259 1.41176 21.5294 1.41176 21.1906V2.80941C1.41176 2.52706 1.49647 2.25882 1.68 2.00471C1.93412 1.63765 2.34353 1.41176 2.80941 1.41176H30.3671C30.8188 1.41176 31.2282 1.63765 31.5106 2.03294C31.6659 2.25882 31.7647 2.52706 31.7647 2.80941V21.1906Z" fill="#666666"/>
<path d="M16.5741 14.2165C15.2188 14.2165 13.9765 13.5388 13.2423 12.4094C13.0306 12.0847 13.1294 11.6471 13.4541 11.4353C13.7788 11.2235 14.2165 11.3224 14.4282 11.6471C14.8941 12.3671 15.6988 12.8047 16.5741 12.8047C17.4494 12.8047 18.24 12.3671 18.72 11.6329C18.9318 11.3082 19.3694 11.2235 19.6941 11.4353C20.0188 11.6471 20.1035 12.0847 19.8918 12.4094C19.1435 13.5388 17.9012 14.2024 16.56 14.2024L16.5741 14.2165Z" fill="#49624A"/>
</svg>
