<svg width="24" height="17" viewBox="0 0 24 17" fill="none" xmlns="http://www.w3.org/2000/svg">
<path d="M22.7446 1.99V15.01C22.7446 15.25 22.6646 15.46 22.4846 15.66C22.3046 15.87 22.0346 16 21.7546 16H15.9946V1H21.7546C22.0746 1 22.3646 1.16 22.5646 1.44C22.6746 1.6 22.7446 1.79 22.7446 1.99Z" fill="#D6062F"/>
<path d="M7.99463 1V16H15.9946V1H7.99463ZM11.9946 5.84C12.6246 5.84 13.1446 6.36 13.1446 7C13.1446 7.64 12.6246 8.15 11.9946 8.15C11.3646 8.15 10.8346 7.63 10.8346 7C10.8346 6.37 11.3546 5.84 11.9946 5.84Z" fill="white"/>
<path d="M11.9846 5.84C12.6146 5.84 13.1346 6.36 13.1346 7C13.1346 7.64 12.6146 8.15 11.9846 8.15C11.3546 8.15 10.8246 7.63 10.8246 7C10.8246 6.37 11.3446 5.84 11.9846 5.84Z" fill="#BF862B"/>
<path d="M7.99463 1V16H2.23463C1.94463 16 1.67463 15.87 1.47463 15.63C1.31463 15.46 1.24463 15.25 1.24463 15.01V1.99C1.24463 1.79 1.30463 1.6 1.43463 1.42C1.61463 1.16 1.90463 1 2.23463 1H7.99463Z" fill="#39A839"/>
<path d="M23.3746 0.87C23.0146 0.33 22.4046 0 21.7546 0H2.23463C1.57463 0 0.964626 0.32 0.624626 0.84C0.374626 1.17 0.244629 1.57 0.244629 1.99V15.01C0.244629 15.51 0.414628 15.96 0.724628 16.29C1.08463 16.73 1.64463 17 2.23463 17H21.7546C22.3346 17 22.8946 16.73 23.2346 16.31C23.5646 15.96 23.7446 15.51 23.7446 15.01V1.99C23.7446 1.57 23.6046 1.17 23.3746 0.87ZM22.7446 15.01C22.7446 15.25 22.6646 15.46 22.4846 15.66C22.3046 15.87 22.0346 16 21.7546 16H2.23463C1.94463 16 1.67463 15.87 1.47463 15.63C1.31463 15.46 1.24463 15.25 1.24463 15.01V1.99C1.24463 1.79 1.30463 1.6 1.43463 1.42C1.61463 1.16 1.90463 1 2.23463 1H21.7546C22.0746 1 22.3646 1.16 22.5646 1.44C22.6746 1.6 22.7446 1.79 22.7446 1.99V15.01Z" fill="#666666"/>
<path d="M11.9846 10.07C11.0246 10.07 10.1446 9.59 9.62463 8.79C9.47463 8.56 9.54463 8.25 9.77463 8.1C10.0046 7.95 10.3146 8.02 10.4646 8.25C10.7946 8.76 11.3646 9.07 11.9846 9.07C12.6046 9.07 13.1646 8.76 13.5046 8.24C13.6546 8.01 13.9646 7.95 14.1946 8.1C14.4246 8.25 14.4846 8.56 14.3346 8.79C13.8046 9.59 12.9246 10.06 11.9746 10.06L11.9846 10.07Z" fill="#49624A"/>
</svg>
