<svg width="26" height="24" viewBox="0 0 26 24" fill="none" xmlns="http://www.w3.org/2000/svg">
<path d="M21.8208 15.5433V14.0439H19.3819C19.3819 14.0439 19.3119 14.0539 19.2819 14.0539C19.2519 14.0539 19.2319 14.0439 19.2019 14.0439H6.59718C6.59718 14.0439 6.5472 14.0539 6.51721 14.0539C6.47723 14.0539 6.44724 14.0439 6.41726 14.0439H3.97827V15.5433H5.8375L6.25732 17.1227H3.97827V18.622H21.8208V17.1227H19.5418L19.9616 15.5433H21.8208ZM17.9924 17.1227H7.80668L7.38685 15.5433H18.4123L17.9924 17.1227Z" fill="#EB741E"/>
<path d="M21.8208 12.7444H3.97827V11.245H7.67673L6.34728 8.82601C6.14737 8.45616 6.27731 8.00635 6.63716 7.80643C7.00701 7.60652 7.45682 7.73646 7.65674 8.10631L9.38602 11.245H17.5326L16.2032 8.82601C16.0033 8.45616 16.1332 8.00635 16.4931 7.80643C16.8629 7.60652 17.3127 7.73646 17.5126 8.10631L19.2419 11.245H21.8208V12.7444Z" fill="#EB741E"/>
<path d="M24.2499 9.74594H23.2703C23.1903 8.04665 22.9604 6.35735 22.5806 4.70804L22.3807 3.8484L21.8009 1.34944C21.621 0.549771 20.9213 0 20.1116 0H5.68763C4.87797 0 4.17826 0.549771 3.99833 1.34944L3.41858 3.8484L3.21866 4.70804C2.83882 6.35735 2.60891 8.04665 2.52895 9.74594H1.54935C0.689713 9.74594 0 10.4456 0 11.3053V12.6947C0 13.5444 0.689713 14.2441 1.54935 14.2441H2.47897V19.162C2.47897 20.4015 3.43857 21.4011 4.64806 21.491V22.4406C4.64806 23.3003 5.34777 24 6.20741 24H7.59683C8.45648 24 9.14619 23.3003 9.14619 22.4406V21.511H16.6431V22.4406C16.6431 23.3003 17.3428 24 18.2024 24H19.5918C20.4515 24 21.1412 23.3003 21.1412 22.4406V21.491C22.3607 21.4011 23.3203 20.4015 23.3203 19.162V14.2441H24.2499C25.1095 14.2441 25.7992 13.5444 25.7992 12.6947V11.3053C25.7992 10.4456 25.1095 9.74594 24.2499 9.74594ZM2.47897 12.7247L1.49938 12.6947V11.3053L1.54935 11.2453H2.47897V12.7247ZM5.45773 1.6893C5.47772 1.57934 5.57768 1.49938 5.68763 1.49938H20.1116C20.2216 1.49938 20.3215 1.57934 20.3415 1.6893L20.7014 3.24865H5.09788L5.45773 1.6893ZM7.64681 22.4406C7.64681 22.4406 7.62682 22.5006 7.59683 22.5006L6.14744 22.4406V21.511H7.64681V22.4406ZM19.6418 22.4406C19.6418 22.4406 19.6218 22.5006 19.5918 22.5006L18.1424 22.4406V21.511H19.6418V22.4406ZM21.8209 19.162C21.8209 19.6318 21.4411 20.0117 20.9713 20.0117H4.82799C4.35818 20.0117 3.97834 19.6318 3.97834 19.162V11.2053C3.97834 9.13619 4.21824 7.05706 4.67805 5.0379L4.74802 4.74802H21.0512L21.1112 5.0379C21.581 7.05706 21.8209 9.13619 21.8209 11.2053V19.162ZM24.2499 12.7447H23.3203V11.2453H24.2499C24.2499 11.2453 24.2999 11.2753 24.2999 11.3053L24.2499 12.7447Z" fill="#EB741E"/>
</svg>
