<svg width="21" height="25" viewBox="0 0 21 25" fill="none" xmlns="http://www.w3.org/2000/svg">
<g clip-path="url(#clip0_718_4)">
<path d="M13.259 14.5185C13.3988 14.4286 13.5487 14.3487 13.6786 14.2388C14.2581 13.8191 14.7277 13.2996 15.0974 12.72H13.159C13.0391 12.8399 12.8993 12.9598 12.7594 13.0598C12.01 13.6692 11.0708 13.989 10.0516 13.989C7.58368 13.989 5.57535 11.9807 5.57535 9.51271C5.57535 9.00313 5.66528 8.51354 5.82515 8.05393C5.84513 7.98398 5.8751 7.90405 5.90508 7.83411C6.57452 6.18548 8.18318 5.03644 10.0516 5.03644C12.5196 5.03644 14.5279 7.04477 14.5279 9.51271C14.5279 10.1122 14.418 10.6917 14.1882 11.2213H15.7769C15.9467 10.6717 16.0266 10.1022 16.0266 9.51271C16.0266 9.14302 15.9967 8.78332 15.9267 8.43361C15.8368 7.90405 15.6669 7.40447 15.4371 6.93486C14.4779 4.92653 12.4296 3.53769 10.0516 3.53769C7.67361 3.53769 5.62531 4.92653 4.66611 6.93486C4.4363 7.40447 4.26644 7.90405 4.17652 8.43361C4.10658 8.78332 4.0766 9.14302 4.0766 9.51271C4.0766 10.1022 4.16653 10.6817 4.33639 11.2213C4.48626 11.7608 4.72606 12.2604 5.0358 12.72C5.48543 13.4394 6.09492 14.0689 6.82431 14.5285C2.86761 15.8774 0 19.6243 0 24.0306C0 24.2304 0.0799334 24.4203 0.219817 24.5602C0.3597 24.71 0.549542 24.78 0.749376 24.78H10.0516L19.3539 24.79C19.7735 24.79 20.1032 24.4503 20.1032 24.0406C20.1032 19.6143 17.2356 15.8574 13.259 14.5185ZM10.0516 23.2912H1.53872C1.9184 18.9149 5.59534 15.4877 10.0516 15.4877C14.5079 15.4877 18.1948 18.9149 18.5745 23.2912H10.0516Z" fill="#666666"/>
<path d="M18.7544 9.35284V10.3021C18.7544 11.6309 17.6653 12.72 16.3364 12.72H10.811C10.4013 12.72 10.0616 12.3803 10.0616 11.9707C10.0616 11.561 10.4013 11.2213 10.811 11.2213H16.3364C16.8459 11.2213 17.2556 10.8116 17.2556 10.3021V9.35284C17.2556 9.35284 17.2456 9.31288 17.2456 9.29289C17.2356 9.2829 17.2356 9.26292 17.2356 9.25293C17.1857 8.78332 16.796 8.43361 16.3364 8.43361H15.9267C15.8368 7.90405 15.6669 7.40447 15.4371 6.93486H16.3364C16.4862 6.93486 16.6361 6.94485 16.786 6.97482C15.7668 4.23711 13.129 2.28873 10.0416 2.28873C6.95419 2.28873 4.31639 4.2471 3.28724 6.97482C3.43712 6.95484 3.58699 6.93486 3.74686 6.93486H4.66609C4.43629 7.40447 4.26643 7.90405 4.1765 8.43361H3.74686C3.27725 8.43361 2.88758 8.78332 2.83762 9.25293V9.30288C2.83762 9.36283 2.83762 9.43278 2.83762 9.50272V10.3021C2.83762 10.8116 3.24728 11.2213 3.75685 11.2213H4.34636C4.49624 11.7608 4.73604 12.2604 5.04578 12.72H3.75685C2.41797 12.72 1.33887 11.6309 1.33887 10.3021V9.51271V9.35284C1.33887 9.35284 1.33887 9.27291 1.33887 9.21296V9.17299C1.51872 4.52686 5.34553 0.789978 10.0416 0.789978C14.7377 0.789978 18.5945 4.54685 18.7444 9.21296C18.7544 9.26292 18.7544 9.31287 18.7544 9.35284Z" fill="#EB741E"/>
</g>
<defs>
<clipPath id="clip0_718_4">
<rect width="20.1032" height="24" fill="white" transform="translate(0 0.789978)"/>
</clipPath>
</defs>
</svg>
