<svg width="21" height="24" viewBox="0 0 21 24" fill="none" xmlns="http://www.w3.org/2000/svg">
<path d="M13.259 13.7269C13.3988 13.637 13.5487 13.5571 13.6786 13.4472C14.2581 13.0275 14.7277 12.508 15.0974 11.9284H13.159C13.0391 12.0483 12.8993 12.1682 12.7594 12.2682C12.01 12.8777 11.0708 13.1974 10.0516 13.1974C7.58368 13.1974 5.57535 11.1891 5.57535 8.72111C5.57535 8.21154 5.66528 7.72195 5.82515 7.26233C5.84513 7.19239 5.8751 7.11246 5.90508 7.04251C6.57452 5.39389 8.18318 4.24484 10.0516 4.24484C12.5196 4.24484 14.5279 6.25317 14.5279 8.72111C14.5279 9.32061 14.418 9.90013 14.1882 10.4297H15.7769C15.9467 9.88015 16.0266 9.31062 16.0266 8.72111C16.0266 8.35142 15.9967 7.99172 15.9267 7.64201C15.8368 7.11246 15.6669 6.61287 15.4371 6.14326C14.4779 4.13494 12.4296 2.74609 10.0516 2.74609C7.67361 2.74609 5.62531 4.13494 4.66611 6.14326C4.4363 6.61287 4.26644 7.11246 4.17652 7.64201C4.10658 7.99172 4.0766 8.35142 4.0766 8.72111C4.0766 9.31062 4.16653 9.89014 4.33639 10.4297C4.48626 10.9692 4.72606 11.4688 5.0358 11.9284C5.48543 12.6478 6.09492 13.2773 6.82431 13.7369C2.86761 15.0858 0 18.8327 0 23.239C0 23.4389 0.0799334 23.6287 0.219817 23.7686C0.3597 23.9185 0.549542 23.9884 0.749376 23.9884H10.0516L19.3539 23.9984C19.7735 23.9984 20.1032 23.6587 20.1032 23.249C20.1032 18.8227 17.2356 15.0658 13.259 13.7269ZM10.0516 22.4996H1.53872C1.9184 18.1233 5.59534 14.6961 10.0516 14.6961C14.5079 14.6961 18.1948 18.1233 18.5745 22.4996H10.0516Z" fill="#FAFAFA"/>
<path d="M18.7553 8.56286V9.51207C18.7553 10.841 17.6662 11.9301 16.3373 11.9301H10.8119C10.4023 11.9301 10.0626 11.5903 10.0626 11.1807C10.0626 10.771 10.4023 10.4313 10.8119 10.4313H16.3373C16.8469 10.4313 17.2566 10.0216 17.2566 9.51207V8.56286C17.2566 8.56286 17.2466 8.5229 17.2466 8.50291C17.2366 8.49292 17.2366 8.47294 17.2366 8.46295C17.1866 7.99334 16.797 7.64363 16.3373 7.64363H15.9277C15.8378 7.11407 15.6679 6.61449 15.4381 6.14488H16.3373C16.4872 6.14488 16.6371 6.15487 16.787 6.18485C15.7678 3.44713 13.13 1.49875 10.0426 1.49875C6.95516 1.49875 4.31736 3.45712 3.28822 6.18485C3.4381 6.16486 3.58797 6.14488 3.74784 6.14488H4.66707C4.43726 6.61449 4.2674 7.11407 4.17748 7.64363H3.74784C3.27823 7.64363 2.88855 7.99334 2.83859 8.46295V8.51291C2.83859 8.57286 2.83859 8.6428 2.83859 8.71274V9.51207C2.83859 10.0216 3.24825 10.4313 3.75783 10.4313H4.34734C4.49721 10.9709 4.73701 11.4704 5.04675 11.9301H3.75783C2.41894 11.9301 1.33984 10.841 1.33984 9.51207V8.72273V8.56286C1.33984 8.56286 1.33984 8.48293 1.33984 8.42298V8.38301C1.51969 3.73689 5.34651 0 10.0426 0C14.7387 0 18.5955 3.75687 18.7453 8.42298C18.7553 8.47294 18.7553 8.5229 18.7553 8.56286Z" fill="#FAFAFA"/>
</svg>
