<svg width="21" height="24" viewBox="0 0 21 24" fill="none" xmlns="http://www.w3.org/2000/svg">
<path d="M13.259 13.7286C13.3988 13.6386 13.5487 13.5587 13.6786 13.4488C14.2581 13.0291 14.7277 12.5096 15.0974 11.9301H13.159C13.0391 12.05 12.8993 12.1699 12.7594 12.2698C12.01 12.8793 11.0708 13.199 10.0516 13.199C7.58368 13.199 5.57535 11.1907 5.57535 8.72273C5.57535 8.21316 5.66528 7.72356 5.82515 7.26395C5.84513 7.19401 5.8751 7.11407 5.90508 7.04413C6.57452 5.3955 8.18318 4.24646 10.0516 4.24646C12.5196 4.24646 14.5279 6.25479 14.5279 8.72273C14.5279 9.32223 14.418 9.90175 14.1882 10.4313H15.7769C15.9467 9.88177 16.0266 9.31224 16.0266 8.72273C16.0266 8.35304 15.9967 7.99334 15.9267 7.64363C15.8368 7.11407 15.6669 6.61449 15.4371 6.14488C14.4779 4.13655 12.4296 2.74771 10.0516 2.74771C7.67361 2.74771 5.62531 4.13655 4.66611 6.14488C4.4363 6.61449 4.26644 7.11407 4.17652 7.64363C4.10658 7.99334 4.0766 8.35304 4.0766 8.72273C4.0766 9.31224 4.16653 9.89176 4.33639 10.4313C4.48626 10.9709 4.72606 11.4704 5.0358 11.9301C5.48543 12.6495 6.09492 13.2789 6.82431 13.7386C2.86761 15.0874 0 18.8343 0 23.2406C0 23.4405 0.0799334 23.6303 0.219817 23.7702C0.3597 23.9201 0.549542 23.99 0.749376 23.99H10.0516L19.3539 24C19.7735 24 20.1032 23.6603 20.1032 23.2506C20.1032 18.8243 17.2356 15.0674 13.259 13.7286ZM10.0516 22.5013H1.53872C1.9184 18.1249 5.59534 14.6978 10.0516 14.6978C14.5079 14.6978 18.1948 18.1249 18.5745 22.5013H10.0516Z" fill="#FAFAFA"/>
<path d="M18.7544 8.56286V9.51207C18.7544 10.841 17.6653 11.9301 16.3364 11.9301H10.811C10.4013 11.9301 10.0616 11.5903 10.0616 11.1807C10.0616 10.771 10.4013 10.4313 10.811 10.4313H16.3364C16.8459 10.4313 17.2556 10.0216 17.2556 9.51207V8.56286C17.2556 8.56286 17.2456 8.5229 17.2456 8.50291C17.2356 8.49292 17.2356 8.47294 17.2356 8.46295C17.1857 7.99334 16.796 7.64363 16.3364 7.64363H15.9267C15.8368 7.11407 15.6669 6.61449 15.4371 6.14488H16.3364C16.4862 6.14488 16.6361 6.15487 16.786 6.18485C15.7668 3.44713 13.129 1.49875 10.0416 1.49875C6.95419 1.49875 4.31639 3.45712 3.28724 6.18485C3.43712 6.16486 3.58699 6.14488 3.74686 6.14488H4.66609C4.43629 6.61449 4.26643 7.11407 4.1765 7.64363H3.74686C3.27725 7.64363 2.88758 7.99334 2.83762 8.46295V8.51291C2.83762 8.57286 2.83762 8.6428 2.83762 8.71274V9.51207C2.83762 10.0216 3.24728 10.4313 3.75685 10.4313H4.34636C4.49624 10.9709 4.73604 11.4704 5.04578 11.9301H3.75685C2.41797 11.9301 1.33887 10.841 1.33887 9.51207V8.72273V8.56286C1.33887 8.56286 1.33887 8.48293 1.33887 8.42298V8.38301C1.51872 3.73689 5.34553 0 10.0416 0C14.7377 0 18.5945 3.75687 18.7444 8.42298C18.7544 8.47294 18.7544 8.5229 18.7544 8.56286Z" fill="#FAFAFA"/>
</svg>
