<svg width="21" height="25" viewBox="0 0 21 25" fill="none" xmlns="http://www.w3.org/2000/svg">
<g clip-path="url(#clip0_718_9)">
<path d="M13.2645 14.5243C13.4044 14.4343 13.5444 14.3543 13.6743 14.2444C14.2441 13.8245 14.7239 13.3048 15.1037 12.725H16.3332C17.6726 12.725 18.7522 11.6355 18.7522 10.306V9.53633V9.51634C18.7522 9.48635 18.7522 9.45637 18.7522 9.41638V9.35641C18.7522 9.30643 18.7522 9.23646 18.7422 9.15649C18.5523 4.50843 14.7339 0.789978 10.0458 0.789978C5.35777 0.789978 1.51937 4.51842 1.33944 9.16649C1.33944 9.17648 1.33944 9.19648 1.33944 9.21647C1.33944 9.26645 1.32945 9.32642 1.32945 9.35641V9.49635V10.286C1.32945 11.6255 2.41899 12.705 3.74844 12.705H5.0279C5.48771 13.4247 6.10745 14.0445 6.82716 14.5143C2.85881 15.8837 0 19.6321 0 24.0403C0 24.2402 0.0799667 24.4301 0.219908 24.5701C0.35985 24.71 0.549771 24.79 0.749688 24.79H10.0558H19.3619C19.7718 24.79 20.1116 24.4501 20.1116 24.0403C20.1116 19.6221 17.2428 15.8637 13.2645 14.5243ZM12.7547 13.0649C12.005 13.6746 11.0754 13.9945 10.0558 13.9945C7.58684 13.9945 5.57768 11.9853 5.57768 9.51634C5.57768 7.04737 7.58684 5.03821 10.0558 5.03821C12.5248 5.03821 14.5339 7.04737 14.5339 9.51634C14.5339 10.1161 14.414 10.6959 14.1941 11.2256H10.8155C10.4057 11.2256 10.0658 11.5655 10.0658 11.9753C10.0658 12.3851 10.4057 12.725 10.8155 12.725H13.1645C13.0346 12.845 12.9046 12.9549 12.7547 13.0649ZM16.3332 11.2256H15.7734C15.9334 10.6759 16.0233 10.1061 16.0233 9.51634C16.0233 9.1465 15.9833 8.78665 15.9234 8.44679H16.3232C16.793 8.44679 17.1828 8.79664 17.2228 9.26645C17.2228 9.29643 17.2228 9.31643 17.2328 9.34641C17.2328 9.3764 17.2328 9.40639 17.2328 9.43637V10.326C17.2328 10.8458 16.833 11.2456 16.3132 11.2456L16.3332 11.2256ZM10.0458 2.28935C13.1345 2.28935 15.7734 4.24854 16.803 6.9774C16.6531 6.94741 16.5031 6.92742 16.3432 6.92742H15.4536C14.494 4.91826 12.4448 3.52884 10.0658 3.52884C7.6868 3.52884 5.64765 4.91826 4.67805 6.92742H3.74844C3.5885 6.92742 3.43857 6.94741 3.28863 6.9674C4.3182 4.22854 6.9571 2.27936 10.0458 2.27936V2.28935ZM3.74844 11.2256C3.23865 11.2256 2.82882 10.8158 2.82882 10.306V9.50635C2.82882 9.43638 2.82882 9.3764 2.83882 9.30643C2.83882 9.28644 2.83882 9.27644 2.83882 9.25645C2.8888 8.78665 3.27863 8.43679 3.73844 8.43679H4.17826C4.11828 8.78665 4.0783 9.1465 4.0783 9.50635C4.0783 10.1061 4.16826 10.6759 4.3282 11.2156H3.73844L3.74844 11.2256ZM10.0558 23.3006H1.52936C1.9092 18.9324 5.58767 15.4939 10.0558 15.4939C14.5239 15.4939 18.2024 18.9324 18.5823 23.3006H10.0558Z" fill="#666666"/>
</g>
<defs>
<clipPath id="clip0_718_9">
<rect width="20.1116" height="24" fill="white" transform="translate(0 0.789978)"/>
</clipPath>
</defs>
</svg>
