<svg width="24" height="17" viewBox="0 0 24 17" fill="none" xmlns="http://www.w3.org/2000/svg">
<path d="M22.5 1.99V15.01C22.5 15.25 22.42 15.46 22.24 15.66C22.06 15.87 21.79 16 21.51 16H15.75V1H21.51C21.83 1 22.13 1.16 22.32 1.44C22.44 1.6 22.5 1.79 22.5 1.99Z" fill="#D6062F"/>
<path d="M15.75 1H7.75V16H15.75V1Z" fill="white"/>
<path d="M7.75 1V16H1.99C1.7 16 1.43 15.87 1.23 15.63C1.08 15.46 1 15.25 1 15.01V1.99C1 1.79 1.06 1.6 1.19 1.42C1.37 1.16 1.66 1 1.99 1H7.75Z" fill="#2956B0"/>
<path d="M23.13 0.87C22.77 0.32 22.16 0 21.51 0H1.99C1.33 0 0.72 0.32 0.38 0.84C0.13 1.17 0 1.57 0 1.99V15.01C0 15.51 0.17 15.96 0.48 16.29C0.84 16.73 1.4 17 1.99 17H21.51C22.09 17 22.65 16.73 22.99 16.31C23.32 15.96 23.5 15.51 23.5 15.01V1.99C23.5 1.57 23.36 1.17 23.13 0.87ZM22.5 15.01C22.5 15.25 22.42 15.46 22.24 15.66C22.06 15.87 21.79 16 21.51 16H1.99C1.7 16 1.43 15.87 1.23 15.63C1.08 15.46 1 15.25 1 15.01V1.99C1 1.79 1.06 1.6 1.19 1.42C1.37 1.16 1.66 1 1.99 1H21.51C21.83 1 22.13 1.16 22.32 1.44C22.44 1.6 22.5 1.79 22.5 1.99V15.01Z" fill="#666666"/>
</svg>
