<svg width="28" height="24" viewBox="0 0 28 24" fill="none" xmlns="http://www.w3.org/2000/svg">
<g clip-path="url(#clip0_429_262)">
<path d="M15.3999 17.61H18.4799C18.8899 17.61 19.2299 17.27 19.2299 16.86V12.86C19.2299 12.45 18.8899 12.11 18.4799 12.11H15.3999C14.9899 12.11 14.6499 12.45 14.6499 12.86V16.86C14.6499 17.27 14.9899 17.61 15.3999 17.61ZM16.1499 13.61H17.7299V16.11H16.1499V13.61Z" fill="#666666"/>
<path d="M15.3999 11.46H18.4799C18.8899 11.46 19.2299 11.12 19.2299 10.71V6.70999C19.2299 6.29999 18.8899 5.95999 18.4799 5.95999H15.3999C14.9899 5.95999 14.6499 6.29999 14.6499 6.70999V10.71C14.6499 11.12 14.9899 11.46 15.3999 11.46ZM16.1499 7.45999H17.7299V9.95999H16.1499V7.45999Z" fill="#666666"/>
<path d="M12.59 17.61C13 17.61 13.34 17.27 13.34 16.86V12.86C13.34 12.45 13 12.11 12.59 12.11H9.51001C9.10001 12.11 8.76001 12.45 8.76001 12.86V16.86C8.76001 17.27 9.10001 17.61 9.51001 17.61H12.59ZM10.26 13.61H11.84V16.11H10.26V13.61Z" fill="#666666"/>
<path d="M9.51001 11.46H12.59C13 11.46 13.34 11.12 13.34 10.71V6.70999C13.34 6.29999 13 5.95999 12.59 5.95999H9.51001C9.10001 5.95999 8.76001 6.29999 8.76001 6.70999V10.71C8.76001 11.12 9.10001 11.46 9.51001 11.46ZM10.26 7.45999H11.84V9.95999H10.26V7.45999Z" fill="#666666"/>
<path d="M27.1 7.23H22.18V1.5H23.43C23.84 1.5 24.18 1.16 24.18 0.75C24.18 0.34 23.84 0 23.43 0H4.42C4.01 0 3.67 0.34 3.67 0.75C3.67 1.16 4.01 1.5 4.42 1.5H5.67V7.23H0.75C0.34 7.23 0 7.57 0 7.98C0 8.39 0.34 8.73 0.75 8.73H1.67V23.23C1.67 23.64 2.01 23.98 2.42 23.98H25.42C25.83 23.98 26.17 23.64 26.17 23.23V8.73H27.09C27.5 8.73 27.84 8.39 27.84 7.98C27.84 7.57 27.5 7.23 27.09 7.23H27.1ZM14.72 1.5V4H13.14V1.5H14.72ZM3.17 8.73H5.67V22.48H3.17V8.73ZM7.17 7.98V1.5H11.63V4.75C11.63 5.16 11.97 5.5 12.38 5.5H15.46C15.87 5.5 16.21 5.16 16.21 4.75V1.5H20.67V22.48H17.68V18.95C17.68 18.54 17.34 18.2 16.93 18.2H10.91C10.5 18.2 10.16 18.54 10.16 18.95V22.48H7.16V7.98H7.17ZM11.67 19.7H13.1V22.48H11.67V19.7ZM14.6 22.48V19.7H16.18V22.48H14.6ZM24.67 22.48H22.17V8.73H24.67V22.48Z" fill="#666666"/>
</g>
<defs>
<clipPath id="clip0_429_262">
<rect width="27.85" height="23.98" fill="white"/>
</clipPath>
</defs>
</svg>
