<svg width="28" height="24" viewBox="0 0 28 24" fill="none" xmlns="http://www.w3.org/2000/svg">
<g clip-path="url(#clip0_429_263)">
<path d="M18.4799 17.61H15.3999C14.9899 17.61 14.6499 17.27 14.6499 16.86V12.86C14.6499 12.45 14.9899 12.11 15.3999 12.11H18.4799C18.8899 12.11 19.2299 12.45 19.2299 12.86V16.86C19.2299 17.27 18.8899 17.61 18.4799 17.61ZM16.1499 16.11H17.7299V13.61H16.1499V16.11Z" fill="#666666"/>
<path d="M18.4799 11.46H15.3999C14.9899 11.46 14.6499 11.12 14.6499 10.71V6.70999C14.6499 6.29999 14.9899 5.95999 15.3999 5.95999H18.4799C18.8899 5.95999 19.2299 6.29999 19.2299 6.70999V10.71C19.2299 11.12 18.8899 11.46 18.4799 11.46ZM16.1499 9.95999H17.7299V7.45999H16.1499V9.95999Z" fill="#666666"/>
<path d="M14.7199 1.5V4H13.1399V1.5H11.6399V4.75C11.6399 5.16 11.9799 5.5 12.3899 5.5H15.4699C15.8899 5.5 16.2199 5.16 16.2199 4.75V1.5H14.7199Z" fill="#666666"/>
<path d="M12.59 17.61H9.51001C9.10001 17.61 8.76001 17.27 8.76001 16.86V12.86C8.76001 12.45 9.10001 12.11 9.51001 12.11H12.59C13 12.11 13.34 12.45 13.34 12.86V16.86C13.34 17.27 13 17.61 12.59 17.61ZM10.26 16.11H11.84V13.61H10.26V16.11Z" fill="#666666"/>
<path d="M12.59 11.46H9.51001C9.10001 11.46 8.76001 11.12 8.76001 10.71V6.70999C8.76001 6.29999 9.10001 5.95999 9.51001 5.95999H12.59C13 5.95999 13.34 6.29999 13.34 6.70999V10.71C13.34 11.12 13 11.46 12.59 11.46ZM10.26 9.95999H11.84V7.45999H10.26V9.95999Z" fill="#666666"/>
<path d="M27.8499 7.98001C27.8499 8.40001 27.5199 8.73001 27.0999 8.73001H26.1799V23.23C26.1799 23.65 25.8399 23.98 25.4299 23.98H21.4299C21.8399 23.98 22.1799 23.65 22.1799 23.23V22.48H24.6799V8.73001H22.1799V7.23001H27.0999C27.5199 7.23001 27.8499 7.57001 27.8499 7.98001Z" fill="#666666"/>
<path d="M6.43 23.98H2.43C2.01 23.98 1.68 23.65 1.68 23.23V8.73001H0.75C0.34 8.73001 0 8.40001 0 7.98001C0 7.56001 0.34 7.23001 0.75 7.23001H5.68V8.73001H3.18V22.48H5.68V23.23C5.68 23.65 6.01 23.98 6.43 23.98Z" fill="#666666"/>
<path d="M23.4299 0H4.42993C4.00993 0 3.67993 0.33 3.67993 0.75C3.67993 1.17 4.00993 1.5 4.42993 1.5H5.67993V23.23C5.67993 23.65 6.00993 23.98 6.42993 23.98H21.4299C21.8399 23.98 22.1799 23.65 22.1799 23.23V1.5H23.4299C23.8399 1.5 24.1799 1.16 24.1799 0.75C24.1799 0.34 23.8399 0 23.4299 0ZM20.6799 22.48H7.17993V1.5H20.6799V22.48Z" fill="#EB741E"/>
<path d="M17.6899 18.95V22.48H16.1899V19.7H14.6099V22.48H13.1099V19.7H11.6699V22.48H10.1699V18.95C10.1699 18.54 10.5099 18.2 10.9199 18.2H16.9399C17.3499 18.2 17.6899 18.54 17.6899 18.95Z" fill="#666666"/>
</g>
<defs>
<clipPath id="clip0_429_263">
<rect width="27.85" height="23.98" fill="white"/>
</clipPath>
</defs>
</svg>
