<svg width="7" height="14" viewBox="0 0 7 14" fill="none" xmlns="http://www.w3.org/2000/svg">
<path d="M6.24073 0.27039C5.5875 -0.196206 4.6718 -0.0445624 4.2052 0.614506L0.268293 6.15534C0.268293 6.15534 0.256628 6.17867 0.244963 6.19617C0.215801 6.24283 0.192471 6.28949 0.163309 6.33615C0.139979 6.37698 0.122482 6.41197 0.104984 6.4528C0.0874869 6.49946 0.075822 6.54028 0.0583246 6.58694C0.0466597 6.6336 0.0291623 6.68026 0.0233298 6.72692C0.0174974 6.77358 0.0116649 6.81441 0.00583246 6.86107C0 6.90773 0 6.95439 0 7.00105C0 7.04771 0 7.09437 0.0116649 7.14103C0.0116649 7.18769 0.0174974 7.23435 0.0291623 7.27517C0.0408272 7.32183 0.0524921 7.36849 0.0641571 7.41515C0.075822 7.46181 0.0933194 7.50847 0.110817 7.5493C0.128314 7.59013 0.145811 7.63095 0.169141 7.66595C0.192471 7.71261 0.215801 7.75927 0.250796 7.80593C0.256628 7.81759 0.262461 7.82926 0.274126 7.84676L4.21687 13.3876C4.50266 13.79 4.95176 14 5.40669 14C5.69831 14 5.99577 13.9125 6.2524 13.7317C6.91147 13.2651 7.06311 12.3552 6.59651 11.6962L3.25451 7.00105L6.58485 2.30592C7.05144 1.65268 6.8998 0.736987 6.24073 0.27039Z" fill="#666666"/>
</svg>
