<svg width="24" height="25" viewBox="0 0 24 25" fill="none" xmlns="http://www.w3.org/2000/svg">
<g clip-path="url(#clip0_955_926)">
<path d="M12 0.789978C5.38 0.789978 0 6.16998 0 12.79C0 19.41 5.38 24.79 12 24.79C18.62 24.79 24 19.41 24 12.79C24 6.16998 18.62 0.789978 12 0.789978ZM12 23.29C6.21 23.29 1.5 18.58 1.5 12.79C1.5 6.99998 6.21 2.28998 12 2.28998C17.79 2.28998 22.5 6.99998 22.5 12.79C22.5 18.58 17.79 23.29 12 23.29Z" fill="#666666"/>
<path d="M12.8333 10.72C12.2033 10.58 11.2433 10.38 11.1033 10.24C11.1033 10.08 11.5233 9.90997 12.2933 9.90997C13.2333 9.90997 14.2333 10.19 15.2733 10.74C15.4633 10.84 15.6733 10.85 15.8833 10.79C16.0833 10.72 16.2433 10.57 16.3233 10.37L17.3733 7.85997C17.5133 7.50997 17.3833 7.10997 17.0633 6.91997C15.8733 6.21997 14.3533 5.92997 13.2833 5.80997C13.1633 5.79997 13.0433 5.78997 12.9233 5.77997V4.37997C12.9233 3.96997 12.5833 3.62997 12.1733 3.62997C11.7633 3.62997 11.4233 3.96997 11.4233 4.37997V5.79997C11.2033 5.81997 11.0633 5.83997 11.0533 5.83997C7.51333 6.27997 6.25333 8.47997 6.25333 10.4C6.25333 13.69 9.30333 14.37 11.3133 14.81C11.9633 14.95 12.9433 15.17 13.0933 15.35C13.0933 15.35 12.8933 15.57 11.8833 15.57C10.6833 15.57 9.32333 15.17 8.33333 14.51C8.15333 14.39 7.92333 14.35 7.71333 14.42C7.50333 14.48 7.33333 14.63 7.24333 14.83L6.12333 17.32C5.97333 17.65 6.08333 18.04 6.38333 18.24C7.59333 19.07 10.0633 19.56 11.0733 19.67C11.2033 19.68 11.3133 19.68 11.4333 19.69V21.1C11.4333 21.51 11.7733 21.85 12.1833 21.85C12.5933 21.85 12.9333 21.51 12.9333 21.1V19.66C13.1333 19.64 13.2833 19.61 13.3433 19.6C16.7333 19.1 17.9433 16.94 17.9433 15.08C17.9433 11.79 14.8833 11.13 12.8533 10.69L12.8333 10.72ZM13.0833 18.14C13.0833 18.14 13.0533 18.14 13.0433 18.14C13.0433 18.14 12.2133 18.3 11.2133 18.2C10.3033 18.1 8.74333 17.76 7.76333 17.32L8.26333 16.21C9.37333 16.76 10.6933 17.08 11.8833 17.08C14.2333 17.08 14.5933 16 14.5933 15.36C14.5933 14.01 13.0933 13.68 11.6533 13.35C9.37333 12.84 7.76333 12.34 7.76333 10.4C7.76333 8.74997 9.06333 7.59997 11.2633 7.32997C11.2633 7.32997 12.2133 7.19997 13.1333 7.29997C14.1333 7.40997 15.0333 7.62997 15.7433 7.91997L15.2733 9.04997C14.2733 8.61997 13.2833 8.39997 12.3333 8.39997C9.90333 8.39997 9.64333 9.67997 9.64333 10.23C9.64333 11.55 11.1233 11.87 12.5533 12.18C14.8433 12.67 16.4533 13.17 16.4533 15.1C16.4533 16.69 15.2033 17.83 13.1133 18.13L13.0833 18.14Z" fill="#666666"/>
</g>
<defs>
<clipPath id="clip0_955_926">
<rect width="24" height="24" fill="white" transform="translate(0 0.789978)"/>
</clipPath>
</defs>
</svg>
