<svg width="29" height="25" viewBox="0 0 29 24" fill="none" xmlns="http://www.w3.org/2000/svg">
    <g clip-path="url(#clip0_422_305)">
        <path
            d="M16.69 5.23C16.69 5.23 16.6 5.23 16.55 5.23H12.01C12.01 5.23 12.06 5.22 12.08 5.22H16.53C16.53 5.22 16.62 5.22 16.66 5.23C16.66 5.23 16.68 5.23 16.69 5.23Z"
            fill="#666666" />
        <path
            d="M28.5899 23.03L27.2999 18.73C27.1999 18.42 26.9099 18.2 26.5799 18.2H25.7599L24.8799 14.47C24.7999 14.13 24.4999 13.89 24.1499 13.89H23.2999L22.6099 10.13C22.5399 9.78 22.2299 9.52 21.8699 9.52H21.1899L20.6999 5.87C20.6399 5.5 20.3299 5.22 19.9499 5.22H18.4899V1.5H19.8499C20.2699 1.5 20.5999 1.16 20.5999 0.75C20.5999 0.34 20.2699 0 19.8499 0H8.76993C8.34993 0 8.01993 0.34 8.01993 0.75C8.01993 1.16 8.34993 1.5 8.76993 1.5H10.1299V5.22H8.65993C8.28993 5.22 7.96993 5.5 7.91993 5.87L7.41993 9.52H6.73993C6.37993 9.52 6.06993 9.78 5.99993 10.13L5.30993 13.89H4.46993C4.11993 13.89 3.81993 14.13 3.73993 14.47L2.84993 18.2H2.02993C1.69993 18.2 1.40993 18.42 1.30993 18.74L0.0299297 23.04C-0.0300703 23.26 0.00992969 23.51 0.14993 23.7C0.28993 23.89 0.51993 24 0.74993 24H10.2399C10.2399 24 10.2099 23.99 10.1899 23.98C10.1799 23.99 10.1699 23.99 10.1599 23.98C10.0999 23.98 10.0599 23.96 10.0099 23.93C9.98993 23.93 9.96993 23.92 9.95993 23.91C9.87993 23.87 9.81993 23.81 9.75993 23.75C9.72993 23.71 9.69993 23.68 9.66993 23.64C9.64993 23.6 9.62993 23.56 9.60993 23.52C9.57993 23.44 9.55993 23.36 9.55993 23.27C9.55993 23.23 9.56993 23.2 9.56993 23.17V23.11L9.91993 19.7L9.62993 22.5H1.75993L2.58993 19.7H9.91993L10.0699 18.2H4.38993L5.05993 15.39H10.3499V15.32L10.4399 14.56C10.4399 14.55 10.4499 14.48 10.4499 14.47L10.5099 13.89L10.7999 11.02L10.9499 9.52H8.92993L9.31993 6.72H11.2399L11.3099 5.98V5.89C11.3099 5.89 11.3199 5.88 11.3199 5.87C11.3199 5.86 11.3199 5.84 11.3299 5.83C11.3299 5.8 11.3399 5.77 11.3499 5.74C11.3499 5.7 11.3799 5.67 11.3999 5.63C11.4199 5.58 11.4399 5.55 11.4699 5.51C11.5099 5.46 11.5499 5.42 11.5999 5.38C11.5999 5.38 11.6199 5.36 11.6299 5.36C11.6799 5.32 11.7299 5.29 11.7799 5.27C11.8499 5.24 11.9199 5.23 11.9999 5.22H11.6199V1.5H16.9799V5.22H16.6499C16.6499 5.22 16.6699 5.22 16.6799 5.22C16.7199 5.23 16.7499 5.24 16.7899 5.25C17.0599 5.34 17.2599 5.58 17.2899 5.88L17.3699 6.71H19.2899L19.6699 9.51H17.6599L17.8099 11.01H21.2399L21.7499 13.81H18.0999V13.88L18.1699 14.48V14.63L18.2399 15.31V15.38H23.5499L24.2099 18.19H18.5399L18.6899 19.69H26.0099L26.8499 22.49H18.9799L19.0499 23.16V23.27C19.0499 23.27 19.0399 23.36 19.0299 23.4C19.0299 23.43 19.0299 23.47 18.9999 23.5C18.9799 23.55 18.9599 23.59 18.9399 23.63C18.9199 23.67 18.8999 23.71 18.8599 23.74C18.8299 23.78 18.7899 23.82 18.7399 23.85C18.6399 23.93 18.5199 23.98 18.3799 23.99H27.8599C28.0999 23.99 28.3199 23.88 28.4599 23.69C28.5999 23.5 28.6499 23.25 28.5799 23.02L28.5899 23.03ZM10.7899 11.02L10.5099 13.82H6.84993L7.36993 11.02H10.7899Z"
            fill="#666666" />
        <path
            d="M15.8798 6.72H15.8698L16.2398 10.25L15.8798 6.72ZM15.8798 6.72H15.8698L16.2398 10.25L15.8798 6.72ZM9.81977 23.79C9.81977 23.79 9.77977 23.77 9.75977 23.75C9.81977 23.81 9.87977 23.87 9.95977 23.91C9.90977 23.87 9.86977 23.84 9.81977 23.79ZM10.1198 23.96C10.1198 23.96 10.0498 23.94 10.0098 23.93C10.0598 23.96 10.0998 23.97 10.1598 23.98C10.1498 23.98 10.1298 23.96 10.1198 23.96ZM15.8798 6.72H15.8698L16.2398 10.25L15.8798 6.72Z"
            fill="#EB741E" />
        <path
            d="M18.9898 22.5L18.6998 19.7L18.5498 18.2L18.2598 15.39V15.32L18.1798 14.64V14.49L18.1198 13.89V13.82L17.8198 11.02L17.6698 9.52001L17.3798 6.72001L17.2998 5.89001C17.2698 5.59001 17.0698 5.35001 16.7998 5.26001C16.7598 5.25001 16.7298 5.24001 16.6898 5.23001C16.6498 5.23001 16.5998 5.23001 16.5498 5.23001H12.0098C11.9298 5.23001 11.8598 5.25001 11.7898 5.28001C11.7398 5.30001 11.6898 5.33001 11.6398 5.37001C11.6298 5.37001 11.6198 5.38001 11.6098 5.39001C11.5598 5.43001 11.5198 5.47001 11.4798 5.52001C11.4498 5.56001 11.4298 5.59001 11.4098 5.64001C11.3898 5.68001 11.3698 5.71001 11.3598 5.75001C11.3498 5.78001 11.3398 5.81001 11.3398 5.84001C11.3298 5.85001 11.3298 5.87001 11.3298 5.88001V5.99001L11.2498 6.73001L10.9598 9.53001L10.8098 11.03L10.5198 13.9L10.4598 14.48C10.4598 14.48 10.4498 14.56 10.4498 14.57L10.3698 15.33V15.4L10.0798 18.21L9.92982 19.71L9.58982 23.12V23.18C9.58982 23.18 9.56982 23.24 9.56982 23.28C9.56982 23.37 9.58982 23.45 9.61982 23.53C9.63982 23.57 9.65982 23.61 9.67982 23.65C9.70982 23.69 9.73982 23.72 9.76982 23.76C9.78982 23.78 9.80982 23.79 9.82982 23.8C9.87982 23.85 9.91982 23.88 9.96982 23.92C9.97982 23.92 9.99982 23.94 10.0198 23.94C10.0598 23.95 10.0898 23.96 10.1298 23.97C10.1398 23.97 10.1598 23.98 10.1698 23.99C10.1698 24 10.1898 24 10.1998 23.99C10.2398 24.01 10.2798 24.01 10.3198 24.01H18.3198C18.4798 24.01 18.6298 23.96 18.7598 23.87C18.8098 23.84 18.8498 23.8 18.8798 23.76C18.9098 23.72 18.9398 23.69 18.9598 23.65C18.9798 23.61 18.9998 23.57 19.0198 23.52C19.0398 23.49 19.0498 23.45 19.0498 23.42C19.0598 23.38 19.0698 23.33 19.0698 23.29V23.18L18.9998 22.51L18.9898 22.5ZM11.1398 22.5L11.4898 19.07L11.4998 19.03V18.96L11.7798 16.21L11.9298 14.74V14.69C11.9298 14.69 11.9398 14.65 11.9398 14.64L12.3698 10.36V10.34L12.7398 6.72001H15.8798L16.2398 10.25V10.35L16.6798 14.57V14.62C16.6798 14.62 16.6798 14.64 16.6898 14.65V14.72L17.1198 18.93V19.03L17.4798 22.5H11.1398Z"
            fill="#EB741E" />
    </g>
    <defs>
        <clipPath id="clip0_422_305">
            <rect width="28.62" height="24" fill="white" />
        </clipPath>
    </defs>
</svg>