<svg width="26" height="25" viewBox="0 0 26 25" fill="none" xmlns="http://www.w3.org/2000/svg">
<g clip-path="url(#clip0_422_304)">
<path d="M21.83 15.55V14.05H19.39C19.39 14.05 19.32 14.06 19.29 14.06C19.26 14.06 19.24 14.05 19.21 14.05H6.59998C6.59998 14.05 6.54998 14.06 6.51998 14.06C6.47998 14.06 6.44998 14.05 6.41998 14.05H3.97998V15.55H5.83998L6.25998 17.13H3.97998V18.63H21.83V17.13H19.55L19.97 15.55H21.83ZM18 17.13H7.80998L7.38998 15.55H18.42L18 17.13Z" fill="#EB741E"/>
<path d="M21.83 12.75H3.97998V11.25H7.67998L6.34998 8.83001C6.14998 8.46001 6.27998 8.01001 6.63998 7.81001C7.00998 7.61001 7.45998 7.74001 7.65998 8.11001L9.38998 11.25H17.54L16.21 8.83001C16.01 8.46001 16.14 8.01001 16.5 7.81001C16.87 7.61001 17.32 7.74001 17.52 8.11001L19.25 11.25H21.83V12.75Z" fill="#EB741E"/>
<path d="M24.26 9.75H23.28C23.2 8.05 22.97 6.36 22.59 4.71L22.39 3.85L21.81 1.35C21.63 0.55 20.93 0 20.12 0H5.69C4.88 0 4.18 0.55 4 1.35L3.42 3.85L3.22 4.71C2.84 6.36 2.61 8.05 2.53 9.75H1.55C0.69 9.75 0 10.45 0 11.31V12.7C0 13.55 0.69 14.25 1.55 14.25H2.48V19.17C2.48 20.41 3.44 21.41 4.65 21.5V22.45C4.65 23.31 5.35 24.01 6.21 24.01H7.6C8.46 24.01 9.15 23.31 9.15 22.45V21.52H16.65V22.45C16.65 23.31 17.35 24.01 18.21 24.01H19.6C20.46 24.01 21.15 23.31 21.15 22.45V21.5C22.37 21.41 23.33 20.41 23.33 19.17V14.25H24.26C25.12 14.25 25.81 13.55 25.81 12.7V11.31C25.81 10.45 25.12 9.75 24.26 9.75ZM2.48 12.73L1.5 12.7V11.31L1.55 11.25H2.48V12.73ZM5.46 1.69C5.48 1.58 5.58 1.5 5.69 1.5H20.12C20.23 1.5 20.33 1.58 20.35 1.69L20.71 3.25H5.1L5.46 1.69ZM7.65 22.45C7.65 22.45 7.63 22.51 7.6 22.51L6.15 22.45V21.52H7.65V22.45ZM19.65 22.45C19.65 22.45 19.63 22.51 19.6 22.51L18.15 22.45V21.52H19.65V22.45ZM21.83 19.17C21.83 19.64 21.45 20.02 20.98 20.02H4.83C4.36 20.02 3.98 19.64 3.98 19.17V11.21C3.98 9.14 4.22 7.06 4.68 5.04L4.75 4.75H21.06L21.12 5.04C21.59 7.06 21.83 9.14 21.83 11.21V19.17ZM24.26 12.75H23.33V11.25H24.26C24.26 11.25 24.31 11.28 24.31 11.31L24.26 12.75Z" fill="#666666"/>
</g>
<defs>
<clipPath id="clip0_422_304">
<rect width="25.81" height="24.01" fill="white"/>
</clipPath>
</defs>
</svg>
