<svg width="26" height="24" viewBox="0 0 26 24" fill="none" xmlns="http://www.w3.org/2000/svg">
<g clip-path="url(#clip0_422_303)">
<path d="M24.27 9.74999H23.29C23.2 8.04999 22.97 6.35999 22.59 4.69999L21.82 1.33999C21.64 0.54999 20.94 -0.0100098 20.12 -0.0100098H5.7C4.88 -0.0100098 4.19 0.54999 4 1.33999L3.23 4.69999C2.85 6.35999 2.62 8.04999 2.53 9.74999H1.55C0.69 9.74999 0 10.45 0 11.3V12.69C0 13.55 0.7 14.24 1.55 14.24H2.49V19.16C2.49 20.39 3.45 21.4 4.66 21.49V22.44C4.66 23.3 5.36 23.99 6.21 23.99H7.6C8.46 23.99 9.15 23.29 9.15 22.44V21.5H16.65V22.44C16.65 23.3 17.35 23.99 18.2 23.99H19.59C20.45 23.99 21.14 23.29 21.14 22.44V21.49C22.35 21.4 23.31 20.4 23.31 19.16V14.24H24.25C25.11 14.24 25.8 13.54 25.8 12.69V11.3C25.8 10.44 25.1 9.74999 24.25 9.74999H24.27ZM21.83 17.12H19.55L19.97 15.54H21.83V17.12ZM7.81 17.12L7.39 15.54H18.42L18 17.12H7.82H7.81ZM3.98 11.21C3.98 9.13999 4.22 7.05999 4.68 5.03999L4.75 4.74999H21.06L21.13 5.03999C21.59 7.05999 21.83 9.13999 21.83 11.21V11.3C21.75 11.27 21.67 11.25 21.59 11.25H19.26L17.53 8.09999C17.33 7.73999 16.88 7.59999 16.51 7.79999C16.15 7.99999 16.01 8.45999 16.21 8.81999L17.54 11.24H9.39L7.66 8.08999C7.46 7.72999 7.01 7.58999 6.64 7.78999C6.28 7.98999 6.14 8.44999 6.34 8.80999L7.67 11.23H3.97V11.19L3.98 11.21ZM3.98 15.54H5.84L6.26 17.12H3.98V15.54ZM19.39 14.04C19.39 14.04 19.32 14.05 19.29 14.06C19.26 14.06 19.24 14.04 19.21 14.04H6.61C6.61 14.04 6.56 14.05 6.53 14.06C6.5 14.06 6.46 14.04 6.43 14.04H4V12.75H21.6C21.69 12.75 21.77 12.73 21.84 12.7V14.04H19.41H19.39ZM5.7 1.49999H20.12C20.23 1.49999 20.33 1.57999 20.35 1.68999L20.71 3.24999H5.1L5.46 1.68999C5.49 1.57999 5.58 1.49999 5.7 1.49999ZM1.5 12.7V11.31L1.55 11.26H2.49V12.74L1.5 12.71V12.7ZM7.66 22.45C7.66 22.45 7.64 22.5 7.61 22.5L6.16 22.45V21.51H7.66V22.45ZM19.66 22.45C19.66 22.45 19.64 22.5 19.61 22.5L18.16 22.45V21.51H19.66V22.45ZM20.99 20.01H4.83C4.37 20.01 3.99 19.63 3.99 19.17V18.62H21.83V19.17C21.83 19.63 21.45 20.01 20.99 20.01ZM24.27 12.74H23.33V11.24H24.27C24.27 11.24 24.32 11.26 24.32 11.29L24.27 12.74Z" fill="#666666"/>
</g>
<defs>
<clipPath id="clip0_422_303">
<rect width="25.82" height="24" fill="white"/>
</clipPath>
</defs>
</svg>
