<svg width="24" height="26" viewBox="0 0 24 26" fill="none" xmlns="http://www.w3.org/2000/svg">
<path d="M16.02 13.1C14.9 13.9 13.53 14.32 12.05 14.32C17.28 14.35 21.58 18.35 22.06 23.45H1.97001C2.45001 18.34 6.78001 14.32 12.02 14.32C10.54 14.31 9.18001 13.86 8.04001 13.09C3.37001 14.74 0.0100098 19.19 0.0100098 24.41C0.0100098 24.66 0.11001 24.91 0.29001 25.08C0.47001 25.26 0.72001 25.36 0.96001 25.36H23.05C23.58 25.36 24 24.94 24 24.41C24 19.2 20.67 14.76 16.01 13.1H16.02Z" fill="#666666"/>
<path d="M12.0499 0C8.08989 0 4.88989 3.22 4.88989 7.16C4.88989 9.61 6.13989 11.79 8.02989 13.09C9.16989 13.87 10.5399 14.31 12.0099 14.32H12.0499C13.5299 14.32 14.8999 13.9 16.0199 13.1C16.1499 13.01 16.2599 12.92 16.3799 12.83C18.1699 11.51 19.1999 9.43 19.1999 7.16C19.1999 3.22 15.9899 0 12.0499 0ZM15.2199 11.32C14.3399 12.03 13.2499 12.41 12.0499 12.41H12.0099C9.11989 12.38 6.79989 10.04 6.79989 7.16C6.79989 4.28 9.14989 1.91 12.0499 1.91C14.9499 1.91 17.2899 4.26 17.2899 7.16C17.2899 8.83 16.5499 10.34 15.2199 11.32Z" fill="#EB741E"/>
</svg>
