<svg width="25" height="27" viewBox="0 0 25 27" fill="none" xmlns="http://www.w3.org/2000/svg">
<path d="M22.13 8.57001H0.0200195V24.48C0.0200195 25.77 1.07002 26.83 2.37002 26.83H21.68C22.97 26.83 24.03 25.78 24.03 24.48V8.57001H22.14H22.13ZM22.13 24.48C22.13 24.73 21.93 24.93 21.68 24.93H2.37002C2.12002 24.93 1.92002 24.73 1.92002 24.48V10.46H22.13V24.48Z" fill="#EB741E"/>
<path d="M4.85991 18.17H19.1799C19.6999 18.17 20.1299 17.75 20.1299 17.22C20.1299 16.69 19.7099 16.27 19.1799 16.27H4.85991C4.33991 16.27 3.90991 16.69 3.90991 17.22C3.90991 17.75 4.32991 18.17 4.85991 18.17Z" fill="#EB741E"/>
<path d="M21.67 2.84H20.26C19.84 1.21 18.37 0 16.61 0C14.85 0 13.38 1.21 12.96 2.84H11.34C10.92 1.21 9.45 0 7.69 0C5.93 0 4.46 1.21 4.04 2.84H2.35C1.06 2.84 0 3.89 0 5.19V8.57H1.89V5.19C1.89 4.94 2.09 4.74 2.34 4.74H9.3C8.97 5.3 8.37 5.68 7.67 5.68C7.15 5.68 6.72 6.1 6.72 6.63C6.72 7.16 7.14 7.58 7.67 7.58C9.43 7.58 10.9 6.37 11.32 4.74H18.21C17.88 5.3 17.28 5.68 16.58 5.68C16.06 5.68 15.63 6.1 15.63 6.63C15.63 7.16 16.05 7.58 16.58 7.58C18.34 7.58 19.81 6.37 20.23 4.74H21.64C21.89 4.74 22.09 4.94 22.09 5.19V8.57H23.98V5.19C23.98 3.9 22.93 2.84 21.63 2.84H21.67ZM16.61 1.9C17.31 1.9 17.91 2.28 18.24 2.84H14.99C15.32 2.28 15.92 1.9 16.62 1.9H16.61ZM7.7 1.9C8.4 1.9 9 2.28 9.33 2.84H6.08C6.41 2.28 7.01 1.9 7.71 1.9H7.7Z" fill="#666666"/>
</svg>
