<svg width="25" height="27" viewBox="0 0 25 27" fill="none" xmlns="http://www.w3.org/2000/svg">
<path d="M21.67 2.84H20.26C19.84 1.21 18.37 0 16.61 0C14.85 0 13.38 1.21 12.96 2.84H11.34C10.92 1.21 9.45 0 7.69 0C5.93 0 4.46 1.21 4.04 2.84H2.35C1.06 2.84 0 3.89 0 5.19V24.49C0 25.78 1.05 26.84 2.35 26.84H21.66C22.95 26.84 24.01 25.79 24.01 24.49V5.18C24.01 3.89 22.96 2.83 21.66 2.83L21.67 2.84ZM16.61 1.9C17.31 1.9 17.91 2.28 18.24 2.84H14.99C15.32 2.28 15.92 1.9 16.62 1.9H16.61ZM7.7 1.9C8.4 1.9 9 2.28 9.33 2.84H6.08C6.41 2.28 7.01 1.9 7.71 1.9H7.7ZM2.37 4.74H9.33C9 5.3 8.4 5.68 7.7 5.68C7.18 5.68 6.75 6.1 6.75 6.63C6.75 7.16 7.17 7.58 7.7 7.58C9.46 7.58 10.93 6.37 11.35 4.74H18.24C17.91 5.3 17.31 5.68 16.61 5.68C16.09 5.68 15.66 6.1 15.66 6.63C15.66 7.16 16.08 7.58 16.61 7.58C18.37 7.58 19.84 6.37 20.26 4.74H21.67C21.92 4.74 22.12 4.94 22.12 5.19V8.57H1.91V5.19C1.91 4.94 2.11 4.74 2.36 4.74H2.37ZM21.68 24.94H2.37C2.12 24.94 1.92 24.74 1.92 24.49V10.47H22.13V24.49C22.13 24.74 21.93 24.94 21.68 24.94Z" fill="#666666"/>
<path d="M19.1799 16.28H4.85991C4.33991 16.28 3.90991 16.7 3.90991 17.23C3.90991 17.76 4.32991 18.18 4.85991 18.18H19.1799C19.6999 18.18 20.1299 17.76 20.1299 17.23C20.1299 16.7 19.7099 16.28 19.1799 16.28Z" fill="#666666"/>
</svg>
