<svg width="24" height="25" viewBox="0 0 24 25" fill="none" xmlns="http://www.w3.org/2000/svg">
<g clip-path="url(#clip0_1172_1058)">
<path d="M23.4 9.53C22.86 8.82 22.03 8.39 21.12 8.35C20.95 8.35 20.78 8.35 20.61 8.37C20.58 8.05 20.54 7.74 20.48 7.47C19.72 3.38 16.14 0.419998 11.98 0.419998C7.82002 0.419998 4.26002 3.38 3.48002 7.46C3.42002 7.77 3.38002 8.08 3.35002 8.4C3.23002 8.38 3.11002 8.35 2.99002 8.35H2.86002C1.97002 8.39 1.15002 8.82 0.620017 9.53C0.0700175 10.25 -0.119983 11.18 0.0900174 12.07C0.760017 14.87 2.59002 17.53 5.01002 19.3C4.43002 21.55 4.80002 23.7 4.82002 23.81C4.89002 24.17 5.20002 24.42 5.56002 24.42H18.43C18.79 24.42 19.1 24.17 19.17 23.82C19.19 23.71 19.62 21.47 19 19.17C19.17 19.06 19.33 18.96 19.42 18.89C21.7 17.2 23.3 14.73 23.94 11.93C24.13 11.1 23.94 10.23 23.41 9.54L23.4 9.53ZM16.33 14.76C16.05 14.99 15.78 15.17 15.49 15.33C15.17 15.53 14.84 15.69 14.45 15.82C12.97 16.39 11.12 16.42 9.49002 15.82C9.16002 15.7 8.82002 15.55 8.47002 15.35C8.15002 15.17 7.85002 14.96 7.57002 14.74C5.91002 13.45 4.90002 11.5 4.82002 9.32C4.82002 9.24 4.82002 9.17 4.82002 9.09C4.82002 8.87 4.83002 8.65 4.85002 8.44C7.97002 8.2 10.87 6.34 11.99 5.52C13.1 6.34 15.98 8.2 19.12 8.44C19.14 8.65 19.15 8.86 19.15 9.09C19.15 9.17 19.15 9.25 19.15 9.37C19.07 11.54 18.06 13.5 16.34 14.76H16.33ZM11.99 1.92C15.13 1.92 17.86 3.96 18.8 6.91C15.52 6.48 12.51 4.02 12.47 4C12.19 3.77 11.79 3.77 11.52 4C11.49 4.03 8.45002 6.48 5.18002 6.92C6.12002 3.98 8.86002 1.93 11.99 1.93V1.92ZM1.54002 11.72C1.43002 11.27 1.53002 10.8 1.80002 10.43C2.07002 10.07 2.46002 9.87 2.88002 9.85H2.98002C3.11002 9.85 3.23002 9.87 3.35002 9.9C3.36002 10.03 3.39002 10.16 3.41002 10.3C3.43002 10.42 3.44002 10.54 3.46002 10.66C3.51002 10.92 3.57002 11.17 3.64002 11.43C3.66002 11.51 3.68002 11.58 3.70002 11.66C3.80002 11.98 3.92002 12.3 4.05002 12.61C4.08002 12.69 4.13002 12.76 4.16002 12.84C4.27002 13.07 4.38002 13.29 4.51002 13.51C4.57002 13.61 4.63002 13.71 4.70002 13.8C4.82002 13.99 4.95002 14.17 5.09002 14.35C5.16002 14.45 5.24002 14.54 5.31002 14.63C5.46002 14.81 5.62002 14.98 5.78002 15.15C5.86002 15.23 5.93002 15.31 6.01002 15.38C6.23002 15.59 6.47002 15.79 6.72002 15.98C6.75002 16 6.77002 16.02 6.80002 16.05C6.80002 16.05 6.80002 16.05 6.81002 16.06C6.76002 16.11 6.72002 16.17 6.66002 16.23C6.50002 16.39 6.36002 16.56 6.22002 16.74C6.15002 16.83 6.08002 16.93 6.01002 17.03C5.88002 17.22 5.76002 17.43 5.64002 17.64C5.60002 17.71 5.56002 17.77 5.52002 17.84C3.58002 16.29 2.08002 14.02 1.53002 11.73L1.54002 11.72ZM17.77 22.92H6.22002C6.14002 22 6.11002 20.2 6.81002 18.64C6.96002 18.31 7.14002 18.02 7.34002 17.75C7.38002 17.7 7.41002 17.65 7.44002 17.61C7.64002 17.36 7.86002 17.13 8.11002 16.94C8.13002 16.92 8.15002 16.91 8.18002 16.89C8.20002 16.9 8.23002 16.91 8.25002 16.92C8.50002 17.04 8.75002 17.15 8.99002 17.23C9.95002 17.59 10.96 17.77 11.99 17.77C12.8 17.77 13.57 17.67 14.29 17.47C14.52 17.4 14.75 17.33 14.97 17.24C14.97 17.24 14.98 17.24 14.99 17.24C15.26 17.15 15.52 17.03 15.76 16.91C15.78 16.9 15.81 16.89 15.83 16.88C15.87 16.91 15.91 16.94 15.95 16.97C16.01 17.02 16.07 17.07 16.12 17.12C16.22 17.21 16.32 17.31 16.41 17.41C16.46 17.47 16.51 17.52 16.56 17.58C16.65 17.69 16.74 17.81 16.82 17.94C16.86 18 16.9 18.05 16.93 18.11C17.04 18.3 17.15 18.49 17.24 18.71C17.91 20.26 17.86 22.03 17.76 22.94L17.77 22.92ZM22.46 11.6C21.91 14.05 20.51 16.21 18.47 17.72C18.47 17.72 18.45 17.73 18.44 17.74C18.41 17.67 18.36 17.62 18.32 17.55C18.21 17.36 18.1 17.17 17.98 17C17.91 16.9 17.84 16.79 17.76 16.69C17.62 16.52 17.47 16.36 17.32 16.2C17.26 16.14 17.21 16.07 17.15 16.02C17.17 16 17.2 15.98 17.22 15.96C17.47 15.78 17.71 15.58 17.93 15.37C18.01 15.3 18.07 15.22 18.15 15.15C18.29 15.01 18.44 14.87 18.57 14.71C18.66 14.61 18.73 14.5 18.82 14.4C18.92 14.27 19.03 14.14 19.13 14C19.22 13.87 19.29 13.74 19.37 13.61C19.45 13.48 19.53 13.36 19.6 13.23C19.68 13.08 19.75 12.93 19.82 12.77C19.87 12.65 19.93 12.54 19.98 12.42C20.05 12.25 20.11 12.08 20.17 11.91C20.21 11.8 20.25 11.68 20.28 11.57C20.33 11.39 20.37 11.22 20.41 11.04C20.44 10.92 20.46 10.79 20.49 10.67C20.52 10.5 20.54 10.34 20.56 10.17C20.56 10.09 20.59 10.01 20.6 9.92C20.74 9.88 20.9 9.86 21.06 9.87C21.51 9.89 21.93 10.11 22.2 10.47C22.46 10.81 22.55 11.22 22.46 11.62V11.6Z" fill="#666666"/>
</g>
<defs>
<clipPath id="clip0_1172_1058">
<rect width="24" height="24" fill="white" transform="translate(0 0.419998)"/>
</clipPath>
</defs>
</svg>
