<svg width="16" height="22" viewBox="0 0 24 31" fill="none" xmlns="http://www.w3.org/2000/svg">
<path d="M12 0C5.38 0 0 5.38 0 12C0 18.62 10.86 29.54 11.32 30.02C11.5 30.2 11.74 30.3 12 30.3C12.26 30.3 12.5 30.2 12.68 30.02C13.14 29.55 24 18.42 24 12C24 5.58 18.62 0 12 0ZM12 27.99C8.65 24.44 1.89 16.37 1.89 12C1.89 6.43 6.43 1.89 12 1.89C17.57 1.89 22.11 6.42 22.11 12C22.11 16.37 15.35 24.44 12 27.99Z" fill="#666666"/>
<path d="M11.98 6.5C8.93997 6.5 6.46997 8.97 6.46997 12.01C6.46997 15.05 8.93997 17.52 11.98 17.52C15.02 17.52 17.49 15.05 17.49 12.01C17.49 8.97 15.02 6.5 11.98 6.5ZM11.98 15.62C9.98997 15.62 8.36997 14 8.36997 12.01C8.36997 10.02 9.98997 8.4 11.98 8.4C13.97 8.4 15.59 10.02 15.59 12.01C15.59 14 13.97 15.62 11.98 15.62Z" fill="#666666"/>
</svg>
