<svg width="20" height="26" viewBox="0 0 24 26" fill="none" xmlns="http://www.w3.org/2000/svg">
<path d="M15.97 13.1C16.1 13.01 16.24 12.93 16.37 12.83C18.16 11.5 19.19 9.44 19.19 7.16C19.19 3.21 15.98 0 12.03 0C8.08 0 4.87 3.21 4.87 7.16C4.87 9.63 6.13 11.81 8.03 13.1C3.37 14.74 0 19.18 0 24.41C0 24.66 0.1 24.91 0.28 25.08C0.46 25.25 0.7 25.36 0.95 25.36H12H23.05C23.58 25.36 24 24.93 24 24.41C24 19.19 20.64 14.74 15.97 13.1ZM6.78 7.16C6.78 4.26 9.14 1.91 12.03 1.91C14.92 1.91 17.28 4.27 17.28 7.16C17.28 8.83 16.53 10.34 15.2 11.33C14.33 12.04 13.23 12.42 12.03 12.42C9.13 12.42 6.78 10.06 6.78 7.17V7.16ZM12 23.46H1.95C2.43 18.34 6.75 14.32 12 14.32C17.25 14.32 21.57 18.34 22.05 23.46H12Z" fill="#666666"/>
</svg>
