<svg width="25" height="26" viewBox="0 0 25 26" fill="none" xmlns="http://www.w3.org/2000/svg">
    <path
        d="M24.5049 14.43C24.5049 13.24 24.1249 12.17 23.5149 11.33V3.79C23.5149 1.38 22.1649 0 19.8049 0H5.20488C2.84488 0 1.48488 1.38 1.48488 3.79V11.35C0.884883 12.18 0.504883 13.25 0.504883 14.43V20.26C0.504883 20.26 0.504883 20.27 0.504883 20.28V24.21C0.504883 24.73 0.924883 25.16 1.45488 25.16C1.98488 25.16 2.40488 24.74 2.40488 24.21V21.23H22.6149V24.21C22.6149 24.73 23.0349 25.16 23.5649 25.16C24.0949 25.16 24.5149 24.74 24.5149 24.21V20.3C24.5149 20.3 24.5149 20.3 24.5149 20.28V14.43H24.5049ZM2.40488 14.43C2.40488 12.83 3.37488 11.53 4.57488 11.53H20.4349C20.9949 11.53 21.5049 11.82 21.8949 12.29C22.3349 12.82 22.6049 13.58 22.6049 14.42V15.39H2.40488V14.42V14.43ZM17.5449 9.64H7.47488V7.97C7.47488 7.32 7.99488 6.8 8.64488 6.8H16.3749C17.0249 6.8 17.5449 7.32 17.5449 7.97V9.64ZM5.20488 1.89H19.8049C21.1249 1.89 21.6249 2.4 21.6249 3.78V9.86C21.2449 9.72 20.8549 9.63 20.4449 9.63H19.4449V7.96C19.4449 6.27 18.0749 4.9 16.3849 4.9H8.65488C6.96488 4.9 5.59488 6.28 5.59488 7.96V9.63H4.58488C4.16488 9.63 3.77488 9.73 3.39488 9.87V3.79C3.39488 2.41 3.88488 1.9 5.21488 1.9L5.20488 1.89ZM2.40488 17.29H22.6149V19.32H2.40488V17.29Z"
        fill="#666666" />
</svg>