<svg width="25" height="26" viewBox="0 0 25 26" fill="none" xmlns="http://www.w3.org/2000/svg">
<path d="M16.3649 4.89999H8.63494C6.94494 4.89999 5.56494 6.27999 5.56494 7.96999V9.63999H7.45494V7.96999C7.45494 7.30999 7.98494 6.79999 8.62494 6.79999H16.3549C16.9949 6.79999 17.5149 7.31999 17.5149 7.96999V9.63999H19.4049V7.96999C19.4049 6.27999 18.0449 4.89999 16.3449 4.89999H16.3649Z" fill="#EB741E"/>
<path d="M23.4949 3.79V11.31C23.0049 10.63 22.3449 10.11 21.6049 9.84V3.79C21.6049 2.4 21.1149 1.9 19.7949 1.9H5.19491C3.85491 1.9 3.36491 2.41 3.36491 3.79V9.85C2.61491 10.12 1.96491 10.63 1.47491 11.32V3.79C1.46491 1.38 2.83491 0 5.19491 0H19.7949C22.1449 0 23.4949 1.38 23.4949 3.79Z" fill="#EB741E"/>
<path d="M23.4949 11.31C23.0049 10.63 22.3449 10.11 21.6049 9.84C21.2249 9.71 20.8349 9.64 20.4349 9.64H4.56488C4.14488 9.64 3.74488 9.72 3.36488 9.85C2.61488 10.12 1.96488 10.63 1.47488 11.32C0.864883 12.15 0.504883 13.25 0.504883 14.43V24.22C0.504883 24.74 0.924883 25.17 1.45488 25.17C1.98488 25.17 2.40488 24.74 2.40488 24.22V21.23H22.6149V24.22C22.6149 24.74 23.0349 25.17 23.5649 25.17C24.0949 25.17 24.5149 24.74 24.5149 24.22V14.43C24.5149 13.24 24.1449 12.16 23.5149 11.31H23.4949ZM22.5949 19.33H2.38488V17.3H22.5949V19.33ZM22.5949 15.4H2.38488V14.43C2.38488 13.6 2.65488 12.84 3.06488 12.31C3.11488 12.26 3.15488 12.22 3.19488 12.17C3.57488 11.78 4.05488 11.54 4.55488 11.54H20.4249C20.9149 11.54 21.3849 11.77 21.7549 12.15H21.7649C21.8249 12.21 21.8749 12.28 21.9249 12.34C22.3249 12.87 22.5949 13.62 22.5949 14.44V15.41V15.4Z" fill="#666666"/>
</svg>
