<svg width="20" height="20" viewBox="0 0 25 26" fill="none" xmlns="http://www.w3.org/2000/svg">
<path d="M24 14.43C24 13.24 23.62 12.17 23.01 11.33V3.79C23.01 1.38 21.66 0 19.3 0H4.7C2.34 0 0.98 1.38 0.98 3.79V11.35C0.38 12.18 0 13.25 0 14.43V20.26C0 20.26 0 20.27 0 20.28V24.21C0 24.73 0.42 25.16 0.95 25.16C1.48 25.16 1.9 24.74 1.9 24.21V21.23H22.11V24.21C22.11 24.73 22.53 25.16 23.06 25.16C23.59 25.16 24.01 24.74 24.01 24.21V20.3C24.01 20.3 24.01 20.3 24.01 20.28V14.43H24ZM1.9 14.43C1.9 12.83 2.87 11.53 4.07 11.53H19.93C20.49 11.53 21 11.82 21.39 12.29C21.83 12.82 22.1 13.58 22.1 14.42V15.39H1.9V14.42V14.43ZM17.04 9.64H6.97V7.97C6.97 7.32 7.49 6.8 8.14 6.8H15.87C16.52 6.8 17.04 7.32 17.04 7.97V9.64ZM4.7 1.89H19.3C20.62 1.89 21.12 2.4 21.12 3.78V9.86C20.74 9.72 20.35 9.63 19.94 9.63H18.94V7.96C18.94 6.27 17.57 4.9 15.88 4.9H8.15C6.46 4.9 5.09 6.28 5.09 7.96V9.63H4.08C3.66 9.63 3.27 9.73 2.89 9.87V3.79C2.89 2.41 3.38 1.9 4.71 1.9L4.7 1.89ZM1.9 17.29H22.11V19.32H1.9V17.29Z" fill="#666666"/>
</svg>
