<svg width="17" height="18" viewBox="0 0 17 18" fill="none" xmlns="http://www.w3.org/2000/svg">
    <path
        d="M11.0281 8.80286C10.2755 9.34046 9.35487 9.62269 8.36032 9.62269C11.8748 9.64285 14.7644 12.3308 15.087 15.758H1.58664C1.90919 12.3241 4.81892 9.62269 8.34016 9.62269C7.34561 9.61597 6.4317 9.31358 5.66563 8.79614C2.52743 9.90493 0.269531 12.8953 0.269531 16.4031C0.269531 16.5711 0.33673 16.7391 0.457689 16.8533C0.578648 16.9743 0.746646 17.0415 0.907924 17.0415H15.7522C16.1084 17.0415 16.3906 16.7593 16.3906 16.4031C16.3906 12.902 14.1529 9.91837 11.0214 8.80286H11.0281Z"
        fill="#B5B5B5" />
    <path
        d="M8.35956 0C5.69847 0 3.5481 2.16381 3.5481 4.81146C3.5481 6.45785 4.38809 7.92279 5.65815 8.79638C6.42422 9.32053 7.34485 9.61621 8.33268 9.62293H8.35956C9.35411 9.62293 10.2747 9.34069 11.0274 8.8031C11.1147 8.74262 11.1886 8.68214 11.2693 8.62166C12.4722 7.73463 13.1643 6.33689 13.1643 4.81146C13.1643 2.16381 11.0072 0 8.35956 0ZM10.4898 7.60695C9.89842 8.08407 9.16595 8.33942 8.35956 8.33942H8.33268C6.39062 8.31926 4.8316 6.7468 4.8316 4.81146C4.8316 2.87613 6.41078 1.28351 8.35956 1.28351C10.3083 1.28351 11.8808 2.86269 11.8808 4.81146C11.8808 5.93369 11.3835 6.9484 10.4898 7.60695Z"
        fill="#B5B5B5" />
</svg>