<svg width="17" height="18" viewBox="0 0 17 18" fill="none" xmlns="http://www.w3.org/2000/svg">
<path fill-rule="evenodd" clip-rule="evenodd" d="M0 5.75H14.8334H14.8401H16.1081V16.4239C16.1081 17.296 15.397 18.0005 14.5315 18.0005H1.5766C0.704436 18.0005 0 17.2893 0 16.4239V5.75ZM14.5315 16.7258C14.6992 16.7258 14.8334 16.5916 14.8334 16.4239V7.01799H1.27469V16.4239C1.27469 16.5916 1.40887 16.7258 1.5766 16.7258H14.5315ZM12.8534 12.1905H3.24624C2.89066 12.1905 2.60889 11.9087 2.60889 11.5531C2.60889 11.1976 2.89737 10.9158 3.24624 10.9158H12.8534C13.209 10.9158 13.4908 11.1976 13.4908 11.5531C13.4908 11.9087 13.2023 12.1905 12.8534 12.1905Z" fill="#B5B5B5"/>
<path d="M14.4587 1.98833H13.5179C13.2377 0.847141 12.2569 0 11.0826 0C9.90826 0 8.92744 0.847141 8.64721 1.98833H7.56631C7.28607 0.847141 6.30525 0 5.13094 0C3.95663 0 2.97581 0.847141 2.69558 1.98833H1.56797C0.707256 1.98833 0 2.72345 0 3.63361V6H1.26105V3.63361C1.26105 3.45858 1.3945 3.31855 1.5613 3.31855H6.20517C5.98499 3.71062 5.58465 3.97666 5.1176 3.97666C4.77064 3.97666 4.48374 4.27071 4.48374 4.64177C4.48374 5.01284 4.76397 5.30688 5.1176 5.30688C6.29191 5.30688 7.27273 4.45974 7.55296 3.31855H12.1501C11.9299 3.71062 11.5296 3.97666 11.0626 3.97666C10.7156 3.97666 10.4287 4.27071 10.4287 4.64177C10.4287 5.01284 10.7089 5.30688 11.0626 5.30688C12.2369 5.30688 13.2177 4.45974 13.4979 3.31855H14.4387C14.6055 3.31855 14.7389 3.45858 14.7389 3.63361V6H16V3.63361C16 2.73046 15.2994 1.98833 14.432 1.98833H14.4587ZM11.0826 1.33022C11.5496 1.33022 11.95 1.59627 12.1701 1.98833H10.0017C10.2219 1.59627 10.6222 1.33022 11.0892 1.33022H11.0826ZM5.13761 1.33022C5.60467 1.33022 6.005 1.59627 6.22519 1.98833H4.05671C4.2769 1.59627 4.67723 1.33022 5.14429 1.33022H5.13761Z" fill="#B5B5B5"/>
</svg>
