<svg width="16" height="16" viewBox="0 0 16 16" fill="none" xmlns="http://www.w3.org/2000/svg">
<path d="M10.359 8.00167L15.5102 2.84941C16.1633 2.19621 16.1633 1.1431 15.5102 0.489898C14.8571 -0.163299 13.8043 -0.163299 13.1512 0.489898L8.00001 5.64216L2.84881 0.489898C2.19575 -0.163299 1.14286 -0.163299 0.489796 0.489898C-0.163265 1.1431 -0.163265 2.19621 0.489796 2.84941L5.64098 8.00167L0.489796 13.1539C-0.163265 13.8071 -0.163265 14.8602 0.489796 15.5134C0.816327 15.84 1.24282 16 1.66931 16C2.0958 16 2.52228 15.84 2.84881 15.5134L8.00001 10.3612L13.1512 15.5134C13.4777 15.84 13.9042 16 14.3307 16C14.7572 16 15.1837 15.84 15.5102 15.5134C16.1633 14.8602 16.1633 13.8071 15.5102 13.1539L10.359 8.00167Z" fill="#EFEFEF"/>
</svg>
