<svg width="24" height="24" viewBox="0 0 24 24" fill="none" xmlns="http://www.w3.org/2000/svg">
<g clip-path="url(#clip0_532_27895)">
<path d="M2.24 0H21.76C23 0 24 1 24 2.24V21.76C24 23 23 24 21.76 24H11.8008H2.24C1 24 0 23 0 21.76V2.24C0 1 1 0 2.24 0Z" fill="#B5B5B5"/>
<path d="M18.11 9.08999C18.41 9.08999 18.77 9.18999 19.08 9.35999C19.32 9.47999 19.59 9.46999 19.82 9.33999C20.05 9.19999 20.18 8.95999 20.18 8.68999V4.95999C20.18 4.61999 19.95 4.31999 19.62 4.23999C19 4.07999 18.29 3.98999 17.56 3.98999C13.67 3.98999 11.25 6.30999 11.25 10.04V10.51H9.03003C8.61003 10.51 8.28003 10.85 8.28003 11.26V14.76C8.28003 15.18 8.61003 15.51 9.03003 15.51H11.25V23.24C11.25 23.66 11.59 23.99 12 23.99H16.13C16.55 23.99 16.88 23.66 16.88 23.24V15.5H19.18C19.38 15.51 19.57 15.43 19.71 15.29C19.86 15.15 19.93 14.96 19.93 14.76V11.26C19.93 10.85 19.6 10.51 19.18 10.51H16.75V10.09C16.75 9.29999 17.64 9.08999 18.11 9.08999ZM16 12.01H18.43V14.01L16.14 13.99C15.93 14 15.75 14.07 15.61 14.21C15.46 14.35 15.38 14.55 15.38 14.74V22.49H12.75V14.76C12.75 14.35 12.42 14.01 12 14.01H9.78003V12.01H12C12.42 12.01 12.75 11.68 12.75 11.26V10.04C12.75 7.14999 14.51 5.48999 17.56 5.48999C17.94 5.48999 18.33 5.51999 18.68 5.57999V7.64999C18.49 7.60999 18.3 7.58999 18.11 7.58999C16.73 7.58999 15.25 8.46999 15.25 10.09V11.26C15.25 11.68 15.59 12.01 16 12.01Z" fill="#EFEFEF"/>
</g>
<defs>
<clipPath id="clip0_532_27895">
<rect width="24" height="24" fill="white"/>
</clipPath>
</defs>
</svg>
