<svg width="24" height="24" viewBox="0 0 24 24" fill="none" xmlns="http://www.w3.org/2000/svg">
<g clip-path="url(#clip0_532_27893)">
<path d="M19.65 24H4.35C1.95 24 0 22.05 0 19.65V4.35C0 1.95 1.95 0 4.35 0H19.65C22.05 0 24 1.95 24 4.35V19.65C24 22.05 22.05 24 19.65 24Z" fill="#B5B5B5"/>
<path d="M12 7.25C8.85003 7.25 6.28003 9.82 6.28003 12.97C6.28003 16.12 8.85003 18.69 12 18.69C15.15 18.69 17.72 16.12 17.72 12.97C17.72 9.82 15.15 7.25 12 7.25ZM12 17.19C9.67003 17.19 7.78003 15.3 7.78003 12.97C7.78003 10.64 9.67003 8.75 12 8.75C14.33 8.75 16.22 10.64 16.22 12.97C16.22 15.3 14.33 17.19 12 17.19Z" fill="#F4F4F4"/>
<path d="M18.3501 3.25C17.0301 3.25 15.9501 4.33 15.9501 5.65C15.9501 6.97 17.0301 8.05 18.3501 8.05C19.6701 8.05 20.7501 6.97 20.7501 5.65C20.7501 4.33 19.6701 3.25 18.3501 3.25ZM18.3501 6.55C17.8501 6.55 17.4501 6.15 17.4501 5.65C17.4501 5.15 17.8501 4.75 18.3501 4.75C18.8501 4.75 19.2501 5.15 19.2501 5.65C19.2501 6.15 18.8501 6.55 18.3501 6.55Z" fill="#F4F4F4"/>
</g>
<defs>
<clipPath id="clip0_532_27893">
<rect width="24" height="24" fill="white"/>
</clipPath>
</defs>
</svg>
