<svg width="24" height="24" viewBox="0 0 24 24" fill="none" xmlns="http://www.w3.org/2000/svg">
<g clip-path="url(#clip0_532_27894)">
<path d="M2.24093 24H21.7691L21.7591 23.99C22.9896 23.99 24 22.99 24 21.75V2.24C24 1.01 22.9996 0 21.7591 0H2.24093C1.01042 0 0 1.01 0 2.24V21.76C0 22.99 1.00042 24 2.24093 24Z" fill="#B5B5B5"/>
<path d="M6.64293 21.11H3.52162C3.11145 21.11 2.77131 20.77 2.77131 20.36V9.59999C2.77131 9.18999 3.11145 8.84999 3.52162 8.84999H6.64293C7.0531 8.84999 7.39324 9.18999 7.39324 9.59999V20.36C7.39324 20.77 7.0531 21.11 6.64293 21.11ZM4.27194 19.61H5.89261V10.35H4.27194V19.61ZM5.08227 7.47999C3.7117 7.47999 2.68127 6.44999 2.68127 5.07999C2.68127 3.70999 3.7117 2.67999 5.08227 2.67999C6.45285 2.67999 7.48328 3.68999 7.48328 5.02999C7.48328 6.45999 6.47285 7.48999 5.08227 7.48999V7.47999ZM5.08227 4.16999C4.53205 4.16999 4.1819 4.51999 4.1819 5.06999C4.1819 5.61999 4.53205 5.96999 5.08227 5.96999C5.6325 5.96999 5.98265 5.59999 5.98265 5.00999C5.98265 4.48999 5.6325 4.15999 5.08227 4.15999V4.16999Z" fill="#F4F4F4"/>
<path d="M20.5487 21.11H17.4274C17.0173 21.11 16.6771 20.77 16.6771 20.36V14.68C16.6771 13.11 15.9868 12.89 15.2465 12.89C14.026 12.89 13.4157 13.61 13.4157 15.04V20.36C13.4157 20.77 13.0756 21.11 12.6654 21.11H9.54414C9.13396 21.11 8.79382 20.77 8.79382 20.36V9.6C8.79382 9.19 9.13396 8.85 9.54414 8.85H12.5254C12.8555 8.85 13.1456 9.07 13.2357 9.37C14.056 8.93 15.0264 8.69 16.0869 8.69C19.3082 8.69 21.299 10.8 21.299 14.2V20.36C21.299 20.77 20.9589 21.11 20.5487 21.11ZM18.1777 19.61H19.7984V14.2C19.7984 11.61 18.4779 10.19 16.0869 10.19C14.8363 10.19 13.7759 10.61 13.0756 11.37C12.8655 11.6 12.5354 11.67 12.2453 11.56C11.9551 11.45 11.7651 11.17 11.7651 10.86V10.35H10.2844V19.61H11.9051V15.04C11.9051 12.79 13.1857 11.39 15.2365 11.39C17.0973 11.39 18.1677 12.59 18.1677 14.68V19.61H18.1777Z" fill="#F4F4F4"/>
</g>
<defs>
<clipPath id="clip0_532_27894">
<rect width="24" height="24" fill="white"/>
</clipPath>
</defs>
</svg>
