<svg width="326" height="229" viewBox="0 0 326 229" fill="none" xmlns="http://www.w3.org/2000/svg">
<g clip-path="url(#clip0_532_27915)">
<path d="M271.38 31.2807C271.364 31.0854 271.356 30.7241 271.338 30.2566L258.129 32.2137L253.979 39.4014C252.263 42.4239 254.491 46.1955 257.995 46.1617L270.062 46.0587L272.287 41.8304L271.38 31.2807Z" fill="#2743A6"/>
<path d="M275.594 30.2434C275.59 30.7983 275.588 31.2257 275.574 31.4746L274.85 41.4825L277.398 45.9961L289.309 45.8888C292.813 45.855 294.925 42.047 293.093 39.061L288.724 31.9398L275.594 30.2434Z" fill="#2743A6"/>
<path d="M271.219 15.4766C271.346 13.5361 271.603 11.8425 272.058 10.8054C270.933 11.084 269.923 11.7862 269.273 12.911L261.204 26.9622L271.22 23.4042C271.199 20.7216 271.175 16.1511 271.219 15.4766Z" fill="#EB741E"/>
<path d="M275.501 23.4205L285.512 26.7293L276.995 12.8283C276.357 11.7887 275.391 11.117 274.348 10.8289C274.779 11.7778 275.057 13.2665 275.233 15.0818C275.311 15.8695 275.427 20.6067 275.478 23.4357L275.501 23.4205Z" fill="#EB741E"/>
</g>
<path d="M35.7323 226.511C176.13 226.511 208.798 164.151 208.72 145.29C208.643 126.429 180.808 127.375 176.13 142.68C171.452 157.985 194.256 168.399 218.232 171.011C270.652 176.72 273.825 49.7251 273.825 49.7251" stroke="#EB741E" stroke-width="2" stroke-dasharray="8 8"/>
<defs>
<clipPath id="clip0_532_27915">
<rect width="39.5809" height="36.0469" fill="white" transform="translate(251.734 43.2891) rotate(-60)"/>
</clipPath>
</defs>
</svg>
