<svg width="138" height="34" viewBox="0 0 138 34" fill="none" xmlns="http://www.w3.org/2000/svg">
<path fill-rule="evenodd" clip-rule="evenodd" d="M54.8586 22.2662C49.6233 20.8373 34.4182 21.7193 30.6565 22.4338C33.3928 17.2358 35.4846 11.4145 35.4846 11.2822C35.4846 10.7618 34.5471 9.94153 33.7502 9.94153C33.4719 9.94153 33.1115 10.5207 32.675 11.4615C30.6623 14.3428 26.5549 20.1641 26.5549 18.5029C26.5549 18.0825 29.9445 12.5817 30.9201 11.2616C31.3772 10.6207 29.883 9.94153 28.966 9.94153C28.6496 9.94153 27.3957 11.9966 26.3264 14.1223C25.9777 14.3781 24.8703 15.36 23.2854 15.3424C23.8244 14.3016 24.0647 13.5431 24.0647 12.6405C24.0647 10.4796 22.6291 9.95917 21.8322 9.95917C19.9572 9.95917 19.1223 11.3792 19.1399 12.8992C18.8615 12.4376 18.3811 11.8173 17.7629 11.8379C16.008 11.879 11.382 20.5404 16.966 20.5404C19.1399 20.5404 21.3518 18.6588 22.7287 16.4978C23.9504 16.6625 25.0256 16.0421 25.717 15.3865C25.1193 16.6889 24.6828 17.8649 24.6828 18.4206C24.6828 19.7201 25.6994 20.5227 25.9983 20.5227C27.3752 20.5227 29.8918 17.4798 31.5676 14.8602C30.6828 17.1123 29.3498 20.361 27.9641 23.2188C25.3039 24.089 22.2834 25.3297 21.7092 26.6204C20.6399 29.0136 22.4563 30.1426 22.4563 30.1426C22.4563 30.1426 22.5002 30.1249 22.5705 30.0926C22.8137 30.3131 23.1154 30.466 23.4817 30.466C25.6731 30.466 28.175 27.0261 30.3254 23.0629C32.6692 22.8807 38.6926 22.5279 47.4289 22.866C51.0002 23.0041 54.1145 23.3422 54.1145 23.3422C54.1145 23.3422 56.5227 22.719 54.8645 22.2662H54.8586ZM16.8811 19.3644C16.2834 19.3644 16.2043 18.8234 16.2043 18.5235C16.2043 16.5008 18.4983 14.2222 19.1955 13.5813C19.3567 14.5221 19.8342 15.4424 20.593 15.9833C19.5149 17.7826 18.0002 19.3644 16.884 19.3644H16.8811ZM21.2668 14.6015C20.3293 14.1811 19.7111 11.1999 20.9475 10.8794C21.2873 10.8 21.9436 11.0411 21.9436 12.1995C21.9436 12.961 21.7238 13.6195 21.2668 14.6015ZM23.9475 29.2841C23.9035 29.29 23.8567 29.2958 23.7922 29.3105C21.4953 29.7751 21.9963 26.0236 27.7649 23.6157C26.4084 26.3617 25.0168 28.6755 23.9475 29.2841Z" fill="#2743A6"/>
<path fill-rule="evenodd" clip-rule="evenodd" d="M15.4922 22.0512C14.9941 22.0512 15.6328 22.7715 14.6953 22.7715C12.7822 22.7715 10.2305 18.7289 8.05664 15.7301C12.7822 14.9509 17.707 11.6669 17.707 8.40641C17.707 6.6659 17.209 4.32563 11.8652 4.32563C6.24023 4.32269 0 6.80408 0 10.5673C0 12.6077 3.07031 12.5283 3.07031 11.7287C3.07031 11.3288 2.47266 12.0491 2.47266 10.9672C2.47266 9.30606 5.16504 7.44501 8.49316 6.48656C7.51758 7.82722 6.12012 10.1675 4.8457 12.5695H4.80469C3.9082 12.5695 3.50977 13.2487 4.22754 13.2487C4.32715 13.2487 4.40625 13.2692 4.46777 13.3075C4.36816 13.5074 4.26855 13.7485 4.14844 13.969C3.65039 13.6897 3.94922 13.328 3.69141 13.328C3.29297 13.328 2.91211 14.3688 3.5918 15.1273C2.61328 17.2471 1.91602 19.1493 1.91602 20.1107C1.91602 21.7307 2.63379 22.5304 3.72949 22.5304C4.62598 22.5304 5.18555 21.7895 5.04492 21.6689C4.80469 21.4102 3.70898 22.5304 3.70898 21.1691C3.70898 19.949 4.50586 17.988 5.64258 15.9065C5.7627 15.9065 5.90332 15.927 6.04102 15.927C6.17871 15.927 6.32227 15.9065 6.45996 15.9065C8.53418 19.4081 11.3467 25.15 14.1562 25.15C16.0107 25.15 15.9697 22.0482 15.4922 22.0482V22.0512ZM6.7207 14.0072C8.71582 10.6849 11.0273 7.54497 11.625 6.96579C11.7861 6.78644 11.4844 6.32486 11.0273 5.94559C11.7041 5.88679 12.3838 5.82505 13.0605 5.82505C13.998 5.82505 16.1514 5.98675 16.1514 7.46559C16.1514 10.1851 10.3506 14.0689 6.98145 14.2894C6.88184 14.2101 6.80273 14.1101 6.72363 14.0101L6.7207 14.0072Z" fill="#2743A6"/>
<path fill-rule="evenodd" clip-rule="evenodd" d="M35.959 20.5428C36.876 20.5428 39.2285 17.1206 39.2285 17.1206C39.2285 17.1206 38.332 20.5428 40.4443 20.5428C41.5605 20.5428 43.0312 19.2315 44.25 17.7821C44.1855 18.079 44.1416 18.3554 44.1416 18.5789C44.1416 20.0195 45.0381 20.5193 45.5772 20.5193H45.7178C48.2109 20.5193 52.4561 14.0159 51.7383 14.0159C51.3984 14.0159 47.3906 19.3374 46.4941 19.3374C45.5977 19.3374 47.6309 15.4154 48.1289 14.5157C48.8057 13.4544 49.5439 12.3342 50.2822 11.2728C53.0332 9.87338 55.4854 7.3714 55.4854 6.43059C55.4854 5.83082 55.0283 5.03113 53.8916 5.03113C52.6553 5.03113 51.0205 6.39237 49.4648 8.29164C48.7676 9.13249 48.0879 10.0909 47.4697 11.0523C47.1504 11.0935 46.8311 11.1111 46.4912 11.1111C45.2344 11.1111 46.3125 12.2313 46.6904 12.2725C46.0225 13.4103 45.4453 14.5422 45.0059 15.5653C43.6582 17.1353 41.7979 19.3374 41.2207 19.3374C40.3242 19.3374 42.9141 14.9744 42.9141 14.4746C42.9141 13.6337 41.1797 13.1339 41.1797 13.1339C41.1797 13.1339 37.2334 18.8964 36.1758 18.8964C35.2178 18.8964 38.0508 12.1549 40.8018 12.1549C41.2412 12.1549 41.1416 13.1163 41.4785 12.7752C41.8184 12.4342 41.2383 9.95276 39.7646 9.95276C37.4121 9.95276 34.002 14.5539 34.002 17.8762C34.002 20.0577 35.3789 20.5369 35.9561 20.5369L35.959 20.5428ZM54.4893 6.43647C54.5273 6.43647 53.5313 8.13582 51.5772 9.47648C52.9131 7.71539 54.0498 6.43647 54.4893 6.43647Z" fill="#2743A6"/>
<path fill-rule="evenodd" clip-rule="evenodd" d="M77.0508 7.17802C77.6484 6.75759 77.291 7.57787 77.6074 7.57787C77.8652 7.57787 78.126 7.27798 78.126 6.77817C78.126 5.81678 76.8486 4.89655 76.2715 4.89655C72.2256 4.89655 62.3145 24.1244 59.2236 24.1244C58.8662 24.1244 58.7051 23.8451 58.7051 23.6452C58.7051 20.4641 62.4346 14.7398 64.8867 11.5205C65.6631 10.5003 65.4639 7.06042 62.373 7.06042C55.3564 7.06042 53.3027 10.4826 53.3027 11.4234C53.3027 13.0228 55.2773 13.9048 56.2148 12.9434C56.6719 12.5024 55.6172 13.1022 55.6172 12.2643C55.6172 9.52418 59.8828 8.24232 62.3965 8.24232C63.4541 8.24232 62.9941 9.24193 62.7744 9.50359C60.4805 12.6641 57.0322 19.0676 57.0322 23.0484C57.0322 24.2273 57.6709 24.9682 59.0449 24.9682C64.3682 24.9682 71.127 11.2235 77.0478 7.18096L77.0508 7.17802Z" fill="#2743A6"/>
<path fill-rule="evenodd" clip-rule="evenodd" d="M108.548 11.1729C108.548 12.3343 110.124 12.9134 110.124 12.3725C110.124 11.1318 112.954 10.2703 112.099 9.43243C111.521 8.83266 110.643 8.41223 110.285 8.41223C109.447 8.41223 108.551 9.85285 108.551 11.1729H108.548Z" fill="#2743A6"/>
<path fill-rule="evenodd" clip-rule="evenodd" d="M137.704 16.1893C137.186 16.1893 134.953 17.4505 132.401 19.0499C132.123 18.0679 131.862 17.1095 131.862 16.2275C131.862 14.6281 134.394 13.9284 134.713 13.9284C135.032 13.9284 135.032 15.0897 135.032 15.0897C135.032 15.0897 135.788 14.9309 135.788 13.6079C135.788 12.967 134.672 12.0467 133.714 12.0467C132.756 12.0467 130.146 13.2257 130.184 15.6071C130.189 16.0893 130.269 16.6097 130.377 17.133C128.514 18.7559 125.484 21.6577 125.484 21.1903C125.484 20.47 128.596 15.7277 128.596 14.2282C128.596 12.8876 127.799 12.0262 127.14 12.0262C126.384 12.0262 124.787 13.6079 123.252 15.366C123.791 14.5046 124.269 13.7872 124.588 13.3462C125.048 12.6847 123.791 12.0056 122.874 12.0056C122.549 12.0056 121.099 14.4311 119.941 16.7773C119.394 17.1242 118.594 17.4976 117.609 17.4888C118.148 16.448 118.389 15.6894 118.389 14.7869C118.389 12.6259 116.953 12.1055 116.156 12.1055C114.281 12.1055 113.446 13.5256 113.464 15.0456C113.186 14.584 112.705 13.9636 112.087 13.9842C111.354 14.0019 110.124 15.5219 109.342 17.2859C108.015 18.8265 105.829 21.5078 105.188 21.5078C104.271 21.5078 109.154 13.7843 109.154 13.5432C109.154 13.0434 108.117 11.8409 107.461 12.2231C107.221 12.3525 106.011 14.0548 104.921 16.054C104.903 16.0364 104.88 16.0276 104.848 16.0276C104.47 16.0276 100.5 21.4696 99.5449 21.4696C98.8945 21.4696 102.876 14.2694 107.631 7.61902C116.095 5.7962 125.019 4.22033 128.906 6.55473C129.12 6.68409 130.23 4.39968 125.537 3.74111C121.043 3.11194 115.201 3.98807 109.444 5.16409C110.396 3.91751 111.36 2.72973 112.307 1.65661C112.623 1.29499 110.619 0.548218 109.641 0.548218C109.283 0.548218 107.206 4.32323 106.163 5.86088C97.2832 7.81895 89.294 9.95636 87.7119 7.66019C87.4043 7.2133 87.1553 10.7943 91.919 10.5826C94.8809 10.4503 99.5391 9.39775 104.616 8.27465C103.207 10.5267 101.051 13.9695 99.5186 16.7096C98.294 18.065 95.5752 21.4872 94.8545 21.4872C93.958 21.4872 96.5479 17.1242 96.5479 16.6244C96.5479 15.7835 94.8135 15.2837 94.8135 15.2837C94.8135 15.2837 90.8672 21.0462 89.8096 21.0462C88.8516 21.0462 91.6846 14.3047 94.4356 14.3047C94.875 14.3047 94.7725 15.2661 95.1123 14.925C95.4522 14.584 94.875 12.1026 93.3984 12.1026C91.9219 12.1026 89.9063 14.043 88.708 16.3127C87.7178 17.1683 84.5654 21.5284 82.1924 21.5284C80.0596 21.5284 83.6484 14.3047 86.3789 14.3047C87.2754 14.3047 85.6201 17.2477 84.8232 16.4656C84.3838 16.0246 84.3047 17.3859 85.6816 17.3859C87.0586 17.3859 87.9141 15.366 87.9141 14.6457C87.9141 13.846 86.8359 12.1055 85.3623 12.1055C83.3818 12.1055 80.6602 15.369 79.8457 18.3825C78.5889 19.8437 77.127 21.4902 76.6289 21.4902C75.7324 21.4902 78.3223 17.1271 78.3223 16.6273C78.3223 15.7865 76.5879 15.2867 76.5879 15.2867C76.5879 15.2867 72.6416 21.0491 71.584 21.0491C70.626 21.0491 73.459 14.3076 76.21 14.3076C76.6494 14.3076 76.5498 15.269 76.8867 14.928C77.2266 14.5869 76.6465 12.1055 75.1729 12.1055C72.8203 12.1055 69.4102 16.7067 69.4102 20.0289C69.4102 22.2105 70.7871 22.6897 71.3643 22.6897C72.2812 22.6897 74.6338 19.2675 74.6338 19.2675C74.6338 19.2675 73.7373 22.6897 75.8496 22.6897C76.9512 22.6897 78.3926 21.4167 79.5996 19.9966C79.5996 20.0084 79.5996 20.0201 79.5996 20.0289C79.5996 22.2105 80.9766 22.6897 81.5537 22.6897C83.4756 22.6897 86.3584 20.0672 87.9434 18.1473C87.75 18.7941 87.6357 19.4321 87.6357 20.0289C87.6357 22.2105 89.0127 22.6897 89.5898 22.6897C90.5068 22.6897 92.8594 19.2675 92.8594 19.2675C92.8594 19.2675 91.9629 22.6897 94.0752 22.6897C95.2119 22.6897 96.7119 21.3343 97.9395 19.8584C97.7871 20.2465 97.7051 20.5493 97.7051 20.7493C97.7051 22.1899 98.6016 22.6897 99.1406 22.6897C100.38 22.6897 102.46 20.3524 103.767 18.4472C102.853 20.7052 102.615 22.7103 104.563 22.7103C105.806 22.7103 107.44 21.0785 108.674 19.4527C108.41 21.1991 108.967 22.6897 111.281 22.6897C113.455 22.6897 115.667 20.8081 117.044 18.6471C117.899 18.7618 118.682 18.4884 119.312 18.0915C118.787 19.2675 118.418 20.2877 118.418 20.7875C118.418 22.087 119.355 22.6074 119.675 22.6074C119.733 22.6074 119.754 22.5662 119.774 22.5074C122.467 15.7659 126.773 13.6226 126.773 13.6226C126.773 13.6226 123.305 18.8647 123.305 20.6846C123.305 21.8047 124.48 22.6044 124.84 22.6044C125.962 22.6044 128.862 19.8114 130.544 17.8798C130.729 18.5942 130.948 19.2851 131.109 19.8643C128.936 21.3255 127.081 22.8455 127.081 23.6864C127.081 24.0862 127.778 25.3681 129.674 25.3681C131.947 25.3681 133.143 23.7687 133.143 22.628C133.143 21.8283 132.923 20.9462 132.686 20.0672C135.557 18.1062 138.267 16.1863 137.689 16.1863L137.704 16.1893ZM111.214 21.5137C110.616 21.5137 110.537 20.9727 110.537 20.6728C110.537 18.653 112.831 16.3715 113.528 15.7306C113.689 16.6714 114.167 17.5917 114.926 18.1326C113.851 19.9319 112.333 21.5137 111.217 21.5137H111.214ZM115.6 16.7508C114.662 16.3304 114.044 13.3492 115.28 13.0287C115.62 12.9493 116.276 13.1904 116.276 14.3488C116.276 15.1103 116.057 15.7688 115.6 16.7508ZM128.291 23.6922C128.013 23.4129 129.507 22.2722 131.402 20.9315C131.461 21.2108 131.502 21.4519 131.502 21.6519C131.502 23.0543 129.091 24.4919 128.291 23.6922Z" fill="#2743A6"/>
<path d="M82.3975 28.5198C82.2686 28.5198 82.1631 28.5786 82.0781 28.6991L80.2266 31.4628L78.4189 28.6991C78.3809 28.6462 78.3311 28.605 78.2637 28.5698C78.1963 28.5374 78.1318 28.5198 78.0674 28.5198C77.959 28.5198 77.8623 28.5609 77.7832 28.6403C77.7012 28.7226 77.6631 28.8138 77.6631 28.9167V33.6002C77.6631 33.7148 77.6982 33.8119 77.7686 33.8854C77.8389 33.9618 77.9297 33.9971 78.0381 33.9971C78.1523 33.9971 78.2432 33.9589 78.3135 33.8854C78.3838 33.8089 78.4189 33.7148 78.4189 33.6002V30.0221L79.8838 32.3095C79.9189 32.3565 79.9688 32.3977 80.0273 32.43C80.0859 32.4624 80.1445 32.48 80.2031 32.48C80.2617 32.48 80.3174 32.4624 80.3789 32.43C80.4375 32.3977 80.4873 32.3565 80.5225 32.3095L81.9873 30.0721V33.6002C81.9873 33.7148 82.0254 33.8089 82.0986 33.8854C82.1748 33.9618 82.2715 33.9971 82.3916 33.9971C82.5117 33.9971 82.6084 33.9589 82.6846 33.8854C82.7607 33.8089 82.7959 33.7148 82.7959 33.6002V28.9167C82.7959 28.802 82.7549 28.705 82.6758 28.6315C82.5938 28.5551 82.5029 28.5198 82.4004 28.5198H82.3975Z" fill="#EB741E"/>
<path d="M89.4141 28.2081C89.4404 28.2081 89.4697 28.2081 89.499 28.2023C89.5312 28.1964 89.5576 28.1846 89.584 28.164L90.3633 27.7642C90.4424 27.723 90.501 27.6701 90.542 27.6025C90.583 27.5378 90.6035 27.4702 90.6035 27.4026C90.6035 27.2997 90.5654 27.2173 90.4863 27.1556C90.4072 27.0968 90.3281 27.0645 90.2461 27.0645C90.1904 27.0645 90.1318 27.0792 90.0762 27.1056C90.0176 27.135 89.9678 27.1703 89.9209 27.2115L89.2441 27.7818C89.2119 27.8142 89.1885 27.8436 89.1709 27.8759C89.1533 27.9082 89.1445 27.9376 89.1445 27.97C89.1445 28.0376 89.168 28.0935 89.2178 28.1376C89.2676 28.1817 89.332 28.2052 89.417 28.2052L89.4141 28.2081Z" fill="#EB741E"/>
<path d="M90.6973 29.2783C90.8115 29.2783 90.9053 29.2459 90.9814 29.1754C91.0576 29.1078 91.0928 29.0196 91.0928 28.9108C91.0928 28.802 91.0547 28.7108 90.9814 28.6373C90.9053 28.5638 90.8115 28.5286 90.6973 28.5286H88.0107C87.8965 28.5286 87.8027 28.5668 87.7266 28.6403C87.6504 28.7167 87.6123 28.8108 87.6123 28.9255V33.6001C87.6123 33.7148 87.6504 33.8089 87.7266 33.8853C87.8027 33.9618 87.8965 33.997 88.0107 33.997H90.6973C90.8115 33.997 90.9053 33.9618 90.9814 33.8912C91.0576 33.8206 91.0957 33.7295 91.0957 33.6207C91.0957 33.5208 91.0576 33.4355 90.9814 33.3591C90.9053 33.2826 90.8115 33.2473 90.6973 33.2473H88.4297V31.5745H90.3457C90.46 31.5745 90.5537 31.5392 90.6299 31.4716C90.7061 31.4039 90.7441 31.3157 90.7441 31.2069C90.7441 31.0923 90.7061 30.9982 90.6299 30.9247C90.5537 30.8512 90.46 30.8159 90.3457 30.8159H88.4297V29.2753H90.6973V29.2783Z" fill="#EB741E"/>
<path d="M100.644 28.8341C100.644 28.7459 100.608 28.6636 100.538 28.5871C100.468 28.5107 100.38 28.4754 100.277 28.4754C100.157 28.4754 100.055 28.5372 99.9668 28.6636L98.5107 30.6128L97.0459 28.6401C96.958 28.5254 96.8525 28.4695 96.7266 28.4695C96.627 28.4695 96.5361 28.5078 96.4541 28.5813C96.3721 28.6577 96.3281 28.7518 96.3281 28.8665C96.3281 28.9547 96.3574 29.034 96.4131 29.1017L97.998 31.2332L96.4131 33.3853C96.3516 33.4735 96.3193 33.5617 96.3193 33.6499C96.3193 33.7381 96.3545 33.8204 96.4219 33.891C96.4893 33.9645 96.5742 33.9998 96.6709 33.9998C96.7998 33.9998 96.9053 33.938 96.9902 33.8116L98.4463 31.833L99.9258 33.8234C100.014 33.938 100.119 33.9939 100.245 33.9939C100.333 33.9939 100.421 33.9586 100.509 33.888C100.597 33.8175 100.641 33.7205 100.641 33.594C100.641 33.5058 100.611 33.4265 100.556 33.3588L98.959 31.2097L100.556 29.0664C100.611 28.9899 100.641 28.9076 100.641 28.8253L100.644 28.8341Z" fill="#EB741E"/>
<path d="M107.619 28.5286C107.493 28.5286 107.394 28.5668 107.314 28.6403C107.235 28.7167 107.197 28.8108 107.197 28.9255V33.6001C107.197 33.7148 107.232 33.8118 107.306 33.8853C107.379 33.9618 107.476 33.997 107.602 33.997C107.71 33.997 107.807 33.9588 107.886 33.8853C107.968 33.8089 108.009 33.7148 108.015 33.6001V28.9255C108.015 28.8108 107.974 28.7138 107.895 28.6403C107.812 28.5638 107.722 28.5286 107.616 28.5286H107.619Z" fill="#EB741E"/>
<path d="M118.6 32.9174C118.512 32.9027 118.421 32.9204 118.327 32.9674C118.178 33.0497 118.017 33.1144 117.847 33.1556C117.677 33.1967 117.507 33.2173 117.328 33.2173C117.053 33.2173 116.795 33.1732 116.561 33.088C116.323 33.0027 116.118 32.8733 115.945 32.6969C115.772 32.5235 115.635 32.3089 115.538 32.056C115.441 31.8032 115.392 31.5121 115.392 31.1858C115.392 30.8888 115.438 30.6183 115.529 30.3743C115.62 30.1303 115.752 29.9186 115.922 29.7422C116.095 29.5658 116.297 29.4276 116.534 29.3276C116.771 29.2277 117.038 29.1806 117.334 29.1806C117.516 29.1806 117.691 29.2042 117.861 29.2512C118.031 29.2982 118.187 29.36 118.333 29.4394C118.427 29.4864 118.518 29.507 118.605 29.4982C118.693 29.4893 118.767 29.4452 118.825 29.36C118.907 29.26 118.942 29.1512 118.922 29.0307C118.904 28.9102 118.837 28.822 118.723 28.7661C118.521 28.6514 118.301 28.5632 118.061 28.5015C117.823 28.4398 117.583 28.4074 117.331 28.4074C116.933 28.4074 116.563 28.475 116.227 28.6132C115.89 28.7514 115.594 28.9454 115.342 29.1953C115.09 29.4452 114.894 29.7393 114.753 30.0774C114.612 30.4155 114.542 30.7859 114.542 31.1858C114.542 31.6326 114.618 32.0325 114.768 32.3824C114.92 32.7322 115.122 33.0262 115.38 33.2644C115.638 33.5054 115.934 33.6877 116.268 33.8112C116.602 33.9347 116.956 33.9994 117.331 33.9994C117.498 33.9994 117.662 33.9847 117.823 33.9582C117.984 33.9288 118.143 33.8877 118.298 33.8318C118.453 33.7759 118.597 33.7142 118.726 33.6407C118.834 33.5878 118.898 33.5054 118.922 33.3908C118.942 33.2761 118.913 33.1644 118.828 33.0556C118.767 32.9762 118.69 32.9321 118.603 32.9174H118.6Z" fill="#EB741E"/>
<path d="M128.303 30.0816C128.174 29.7405 127.989 29.4406 127.755 29.1878C127.518 28.932 127.239 28.735 126.917 28.591C126.595 28.4469 126.243 28.3763 125.856 28.3763C125.47 28.3763 125.121 28.4469 124.802 28.591C124.482 28.735 124.204 28.935 123.97 29.1878C123.732 29.4436 123.551 29.7405 123.419 30.0816C123.29 30.4226 123.223 30.7931 123.223 31.187C123.223 31.581 123.287 31.9514 123.419 32.2925C123.548 32.6335 123.732 32.9334 123.97 33.1863C124.207 33.442 124.482 33.639 124.802 33.7831C125.121 33.9271 125.473 33.9977 125.856 33.9977C126.24 33.9977 126.595 33.9271 126.917 33.7831C127.239 33.639 127.518 33.4391 127.755 33.1863C127.992 32.9305 128.174 32.6335 128.303 32.2925C128.435 31.9514 128.499 31.581 128.499 31.187C128.499 30.7931 128.435 30.4226 128.303 30.0816ZM127.424 32.2278C127.269 32.5365 127.055 32.7776 126.788 32.954C126.521 33.1304 126.211 33.2186 125.856 33.2186C125.502 33.2186 125.2 33.1304 124.931 32.954C124.661 32.7776 124.45 32.5336 124.301 32.2278C124.148 31.9191 124.075 31.5751 124.075 31.187C124.075 30.7989 124.151 30.4491 124.301 30.1433C124.45 29.8375 124.661 29.5965 124.931 29.4201C125.2 29.2437 125.511 29.1555 125.856 29.1555C126.202 29.1555 126.519 29.2437 126.788 29.4201C127.055 29.5965 127.266 29.8405 127.424 30.1463C127.579 30.455 127.658 30.7989 127.658 31.187C127.658 31.5751 127.579 31.9191 127.424 32.2278Z" fill="#EB741E"/>
</svg>
