<svg width="28" height="28" viewBox="0 0 28 28" fill="none" xmlns="http://www.w3.org/2000/svg">
<path d="M6.23 0.0116618C4.87413 0.0116618 3.51826 1.01458 2.58317 1.87755C-2.71174 6.75219 1.20392 14.4606 4.94426 19.0554C8.78979 23.7901 14.6107 27.7668 20.8757 28C21.0277 27.9883 21.3199 28 21.6121 27.9417C24.3005 27.4286 27.959 24.793 28.0057 21.7376C28.0291 19.9883 26.2992 19.1953 25.0135 18.414C23.7277 17.6327 22.0212 16.1516 20.4199 16.1516C20.4082 16.1516 20.3965 16.1516 20.3731 16.1516C18.4445 16.1866 18.1757 18.2157 16.8081 19.0204C16.6445 19.1137 16.4692 19.1604 16.2938 19.1604C15.4172 19.1604 14.3652 18.1808 13.7457 17.7026C12.4249 16.6764 11.221 15.4519 10.1924 14.1341C9.43266 13.1778 8.22874 11.93 9.23395 10.9038C10.3561 9.76093 12.121 8.95627 11.747 7.04373C11.4431 5.49271 10.0989 3.91837 9.2924 2.58892C8.59108 1.44606 7.91315 0.116618 6.4287 0C6.35857 0 6.30013 0 6.23 0V0.0116618Z" fill="#F4F4F4"/>
</svg>
