<svg width="16" height="16" viewBox="0 0 16 16" fill="none" xmlns="http://www.w3.org/2000/svg">
<g clip-path="url(#clip0_532_27945)">
<path d="M3.56024 0.999583H3.60032C3.84077 1.01958 4.02778 1.27947 4.35506 1.83923L4.44857 1.99917C4.58216 2.21241 4.73578 2.43898 4.8894 2.67222C5.23671 3.18534 5.63078 3.7651 5.72429 4.21824C5.76437 4.42482 5.69758 4.53811 5.11649 5.02457C4.92947 5.17784 4.74246 5.33778 4.55544 5.52436C3.40662 6.69055 4.49533 8.02999 4.90276 8.53644L5.02966 8.68971C5.69758 9.53603 6.43896 10.2824 7.23378 10.8955C7.28054 10.9354 7.33397 10.9754 7.39408 11.0221C7.84159 11.3886 8.52286 11.9417 9.311 11.9417C9.59821 11.9417 9.87206 11.8684 10.1125 11.7284C10.5934 11.4419 10.894 11.0354 11.1344 10.7089C11.4483 10.2757 11.5151 10.2291 11.6687 10.2291C12.0695 10.2291 12.7241 10.6756 13.205 11.0021C13.4053 11.1354 13.599 11.2686 13.7727 11.3753C13.8595 11.4286 13.953 11.4819 14.0465 11.5419C14.7078 11.9284 15.0017 12.1483 15.0017 12.4082C14.9816 13.5077 13.4254 14.7405 12.1563 14.9871C12.1163 14.9938 12.0361 15.0004 11.976 15.0004C11.956 15.0004 11.9359 15.0004 11.9159 15.0004C9.0238 14.8805 5.91799 13.1079 3.60032 10.2624C2.83889 9.32945 -0.801253 4.52478 2.15094 1.80591C2.93908 1.08621 3.39994 1.00625 3.56024 1.00625M3.56024 0.00666389C2.78546 0.00666389 2.01068 0.579758 1.47634 1.07289C-1.54932 3.85839 0.688201 8.26322 2.82553 10.8888C5.02298 13.5943 8.3492 15.8667 11.9292 16C12.0161 15.9933 12.183 16 12.35 15.9667C13.8862 15.6735 15.9768 14.1674 16.0035 12.4215C16.0169 11.4219 15.0284 10.9688 14.2937 10.5223C13.559 10.0758 12.5838 9.22949 11.6687 9.22949C11.6621 9.22949 11.6554 9.22949 11.642 9.22949C10.54 9.24948 10.3864 10.409 9.60489 10.8688C9.51138 10.9221 9.41119 10.9488 9.311 10.9488C8.81007 10.9488 8.20894 10.389 7.85495 10.1158C7.1002 9.52936 6.41225 8.82965 5.82448 8.07663C5.39033 7.5302 4.70238 6.81716 5.27679 6.23074C5.91799 5.57768 6.92654 5.11787 6.71281 4.02499C6.53915 3.13869 5.77105 2.23907 5.31018 1.47938C4.90943 0.826322 4.52204 0.0666389 3.67379 0C3.63371 0 3.60032 0 3.56024 0V0.00666389Z" fill="#B5B5B5"/>
</g>
<defs>
<clipPath id="clip0_532_27945">
<rect width="16" height="16" fill="white"/>
</clipPath>
</defs>
</svg>
