<svg width="24" height="24" viewBox="0 0 24 24" fill="none" xmlns="http://www.w3.org/2000/svg">
<path d="M2.24093 24H21.7591C22.9896 24 24 22.9996 24 21.7591V2.24093C24 1.01042 22.9996 0 21.7591 0H2.24093C1.01042 0 0 1.00041 0 2.24093V21.7591C0 22.9896 1.00042 24 2.24093 24Z" fill="#B5B5B5"/>
<path d="M9.86417 21.2489C6.52277 21.2489 3.81165 18.5277 3.81165 15.1863C3.81165 11.8449 6.52277 9.13382 9.86417 9.13382C10.1943 9.13382 10.4944 9.15382 10.7846 9.21385C11.1447 9.27387 11.4048 9.59401 11.4048 9.95416V12.8254C11.4048 13.0655 11.2948 13.2855 11.1047 13.4256C10.9146 13.5657 10.6645 13.6157 10.4344 13.5356C9.2339 13.1655 8.11344 14.0659 8.11344 15.2163C8.11344 16.3668 9.24391 17.2672 10.4344 16.8971C11.1547 16.657 11.6449 15.9867 11.6449 15.2163V3.49146C11.6449 3.08129 11.9851 2.74115 12.3952 2.74115H15.1664C15.5765 2.74115 15.9167 3.08129 15.9167 3.49146C15.9167 5.44228 17.5074 7.03294 19.4582 7.03294C19.8683 7.03294 20.2085 7.37308 20.2085 7.78325V10.5244C20.2085 10.9346 19.8683 11.2747 19.4582 11.2747C18.2076 11.2747 17.0071 10.9846 15.9167 10.4344V15.1963C15.9167 17.3472 14.7662 19.3481 12.9254 20.4185C12.2452 20.8187 11.5149 21.0888 10.7445 21.1888C10.4944 21.2389 10.1943 21.2589 9.86417 21.2589V21.2489ZM9.86417 10.6344C7.35312 10.6344 5.31227 12.6753 5.31227 15.1863C5.31227 17.6974 7.35312 19.7482 9.86417 19.7482C10.1043 19.7482 10.3144 19.7282 10.5144 19.6982C11.1047 19.6182 11.6549 19.4181 12.1651 19.118C13.5557 18.3076 14.4161 16.807 14.4161 15.1863V9.06379C14.4161 8.77367 14.5761 8.51356 14.8362 8.39351C15.0963 8.26345 15.3965 8.29347 15.6266 8.47354C16.5269 9.17383 17.5774 9.59401 18.7079 9.73407V8.48354C16.5269 8.15341 14.8062 6.43269 14.4761 4.25178H13.1455V15.2264C13.1455 16.6469 12.2352 17.8975 10.8846 18.3376C8.67367 19.0179 6.61281 17.3572 6.61281 15.2264C6.61281 13.4156 8.11344 11.975 9.90418 11.955V10.6444H9.87417L9.86417 10.6344Z" fill="#F4F4F4"/>
</svg>
