<svg width="24" height="24" viewBox="0 0 24 24" fill="none" xmlns="http://www.w3.org/2000/svg">
<g clip-path="url(#clip0_532_27896)">
<path d="M6.43595 22.0347L6.25302 21.9313L6.05117 21.9897L0.929193 23.47H0.863707L0.788706 23.5H0.74C0.732774 23.5 0.722629 23.4993 0.710663 23.4972C0.686215 23.4811 0.657846 23.4652 0.625597 23.4515C0.576161 23.4188 0.540547 23.3737 0.52 23.3202V23.2884L0.51308 23.2608C0.521406 23.226 0.53 23.1774 0.53 23.12V23.1008L2.03035 17.9088L2.08797 17.7094L1.98743 17.5278C1.04694 15.8292 0.54 13.9322 0.54 12C0.54 5.65533 5.68696 0.5 12.02 0.5C18.3514 0.5 23.49 5.6737 23.49 12.02C23.49 18.3647 18.343 23.52 12.01 23.52C10.0497 23.52 8.13407 22.9941 6.43595 22.0347ZM0.840571 23.616C0.840471 23.6159 0.840353 23.6157 0.840227 23.6156L0.84097 23.6165L0.840571 23.616Z" fill="#B5B5B5" stroke="#F4F4F4"/>
<path d="M15.0309 18.929C12.3509 18.829 9.52087 17.249 7.45087 14.709C5.32087 12.079 3.94087 8.43903 6.48087 6.09903C7.27087 5.36903 8.02087 5.02903 8.74087 5.07903C9.74087 5.14903 10.2109 5.93903 10.5209 6.45903L10.5909 6.56903C10.6809 6.71903 10.7809 6.86903 10.8909 7.01903C11.2409 7.53903 11.6409 8.11903 11.7709 8.76903C11.9809 9.84903 11.2609 10.459 10.7809 10.859C10.7009 10.929 10.6209 10.999 10.5409 11.069C10.6109 11.189 10.7409 11.349 10.8209 11.449L10.9309 11.589C11.3709 12.149 11.8609 12.639 12.3709 13.039L12.5209 13.159C12.6209 13.239 12.8309 13.419 12.9809 13.489C13.0509 13.409 13.1309 13.309 13.2109 13.199C13.5009 12.809 13.9309 12.219 14.8209 12.199C15.6109 12.199 16.3209 12.669 16.9009 13.059C17.0309 13.149 17.1609 13.239 17.2709 13.309L17.4609 13.419C18.0609 13.769 18.9709 14.299 18.9509 15.419C18.9209 17.249 16.9409 18.609 15.5209 18.879C15.3909 18.909 15.2509 18.909 15.1509 18.919C15.1309 18.919 15.0609 18.919 15.0309 18.919V18.929ZM8.60087 6.57903C8.45087 6.57903 8.10087 6.64903 7.50087 7.19903C5.20087 9.30903 8.03087 13.029 8.62087 13.759C10.4109 15.969 12.8209 17.329 15.0609 17.429C15.0809 17.429 15.1009 17.429 15.1009 17.429C15.1409 17.429 15.1909 17.429 15.2409 17.419C16.2209 17.229 17.4409 16.269 17.4509 15.409C17.4509 15.199 17.2209 15.029 16.7009 14.719L16.4909 14.589C16.3509 14.509 16.2109 14.409 16.0509 14.299C15.6709 14.039 15.1409 13.689 14.8409 13.699C14.7209 13.699 14.6709 13.739 14.4209 14.079C14.2409 14.329 14.0109 14.639 13.6409 14.859C12.8209 15.339 12.0109 14.679 11.5709 14.319L11.4509 14.219C10.8409 13.739 10.2709 13.169 9.75087 12.519L9.65087 12.399C9.34087 12.009 8.51087 10.989 9.38087 10.099C9.51087 9.96903 9.66087 9.83903 9.81087 9.71903C10.2709 9.33903 10.3209 9.23903 10.2909 9.06903C10.2209 8.71903 9.91087 8.26903 9.64087 7.86903C9.52087 7.68903 9.40087 7.51903 9.30087 7.34903L9.23087 7.22903C8.97087 6.78903 8.82087 6.58903 8.63087 6.56903C8.63087 6.56903 8.61087 6.56903 8.60087 6.56903V6.57903Z" fill="#F4F4F4"/>
</g>
<defs>
<clipPath id="clip0_532_27896">
<rect width="24" height="24" fill="white"/>
</clipPath>
</defs>
</svg>
