<svg width="48" height="29" viewBox="0 0 48 29" fill="none" xmlns="http://www.w3.org/2000/svg">
    <path
        d="M44.7267 0H3.3401C1.6271 0 0.238434 1.34315 0.238434 3V26C0.238434 27.6569 1.6271 29 3.3401 29H44.7267C46.4397 29 47.8284 27.6569 47.8284 26V3C47.8284 1.34315 46.4397 0 44.7267 0Z"
        fill="#016FD0" />
    <path fill-rule="evenodd" clip-rule="evenodd"
        d="M9.48141 22.85V15.62H17.3907L18.2385 16.69L19.1173 15.62H47.8387V22.35C47.8387 22.35 47.084 22.84 46.2155 22.85H30.3143L29.3528 21.71V22.85H26.2201V20.91C26.2201 20.91 25.7962 21.18 24.8657 21.18H23.8008V22.85H19.0552L18.2074 21.76L17.3493 22.85H9.48141Z"
        fill="white" />
    <path fill-rule="evenodd" clip-rule="evenodd"
        d="M0.238434 10.17L2.02708 6.15H5.10806L6.12127 8.4V6.15H9.95701L10.5567 7.78L11.146 6.15H28.3602V6.97C28.3602 6.97 29.2701 6.15 30.7485 6.15L36.3315 6.17L37.3241 8.39V6.15H40.5291L41.4079 7.43V6.15H44.644V13.38H41.4079L40.5601 12.1V13.38H35.8456L35.37 12.24H34.0983L33.6331 13.38H30.4384C29.1563 13.38 28.3396 12.58 28.3396 12.58V13.38H23.5216L22.5601 12.24V13.38H4.63247L4.15688 12.24H2.89554L2.41995 13.38H0.217773V10.18L0.238434 10.17Z"
        fill="white" />
    <path fill-rule="evenodd" clip-rule="evenodd"
        d="M2.65775 7.04L0.248787 12.45H1.82029L2.26487 11.37H4.84959L5.29415 12.45H6.89669L4.48772 7.04H2.65775ZM3.5469 8.3L4.33264 10.19H2.76113L3.5469 8.3Z"
        fill="#016FD0" />
    <path fill-rule="evenodd" clip-rule="evenodd"
        d="M7.05178 12.45V7.04L9.27464 7.05L10.5773 10.54L11.8387 7.04H14.0512V12.45H12.6451V8.47L11.1667 12.45H9.93633L8.44752 8.47V12.45H7.05178Z"
        fill="#016FD0" />
    <path fill-rule="evenodd" clip-rule="evenodd"
        d="M15.0024 12.45V7.04H19.5722V8.25H16.4188V9.18H19.4895V10.32H16.4188V11.28H19.5722V12.45H15.0024Z"
        fill="#016FD0" />
    <path fill-rule="evenodd" clip-rule="evenodd"
        d="M20.3786 7.04V12.45H21.7744V10.53H22.3637L24.0386 12.45H25.7445L23.9042 10.46C24.6589 10.4 25.4343 9.77 25.4343 8.8C25.4343 7.66 24.5142 7.04 23.4803 7.04H20.3683H20.3786ZM21.7744 8.25H23.3769C23.7594 8.25 24.0386 8.54 24.0386 8.82C24.0386 9.18 23.6767 9.39 23.3976 9.39H21.7744V8.25Z"
        fill="#016FD0" />
    <path fill-rule="evenodd" clip-rule="evenodd" d="M27.4401 12.45H26.0133V7.04H27.4401V12.45Z"
        fill="#016FD0" />
    <path fill-rule="evenodd" clip-rule="evenodd"
        d="M30.5211 12.45C29.0323 12.45 28.1224 11.31 28.1224 9.77C28.1224 8.23 29.0219 7.04 30.9036 7.04H32.4544V8.32H30.8519C30.0868 8.32 29.5492 8.9 29.5492 9.78C29.5492 10.83 30.1696 11.27 31.0587 11.27H31.4309L30.8416 12.45H30.5211Z"
        fill="#016FD0" />
    <path fill-rule="evenodd" clip-rule="evenodd"
        d="M33.8709 7.04L31.4619 12.45H33.0334L33.478 11.37H36.0627L36.5073 12.45H38.1098L35.7008 7.04H33.8709ZM34.76 8.3L35.5458 10.19H33.9743L34.76 8.3Z"
        fill="#016FD0" />
    <path fill-rule="evenodd" clip-rule="evenodd"
        d="M38.2649 12.45V7.04H40.0432L42.3177 10.44V7.04H43.7135V12.45H41.9972L39.6607 8.96V12.45H38.2649Z"
        fill="#016FD0" />
    <path fill-rule="evenodd" clip-rule="evenodd"
        d="M10.4429 21.92V16.51H15.0024V17.72H11.849V18.65H14.93V19.79H11.849V20.75H15.0024V21.92H10.4429Z"
        fill="#016FD0" />
    <path fill-rule="evenodd" clip-rule="evenodd"
        d="M32.806 21.92V16.51H37.3654V17.72H34.2224V18.65H37.2827V19.79H34.2224V20.75H37.3654V21.92H32.806Z"
        fill="#016FD0" />
    <path fill-rule="evenodd" clip-rule="evenodd"
        d="M15.1782 21.92L17.401 19.25L15.1265 16.51H16.8944L18.2488 18.2L19.6032 16.51H21.2988L19.0552 19.22L21.2781 21.92H19.5205L18.1971 20.26L16.9151 21.92H15.1782Z"
        fill="#016FD0" />
    <path fill-rule="evenodd" clip-rule="evenodd"
        d="M21.4435 16.51V21.92H22.8806V20.21H24.3488C25.5894 20.21 26.5406 19.57 26.5406 18.33C26.5406 17.3 25.7962 16.51 24.5348 16.51H21.4435ZM22.8806 17.73H24.4315C24.8347 17.73 25.1242 17.97 25.1242 18.35C25.1242 18.71 24.8347 18.97 24.4315 18.97H22.8806V17.72V17.73Z"
        fill="#016FD0" />
    <path fill-rule="evenodd" clip-rule="evenodd"
        d="M27.1506 16.51V21.92H28.5463V20H29.1357L30.8106 21.92H32.5165L30.6761 19.93C31.4309 19.87 32.2063 19.24 32.2063 18.27C32.2063 17.13 31.2861 16.51 30.2523 16.51H27.1402H27.1506ZM28.5463 17.72H30.1489C30.5314 17.72 30.8106 18.01 30.8106 18.29C30.8106 18.65 30.4487 18.86 30.1696 18.86H28.5463V17.72Z"
        fill="#016FD0" />
    <path fill-rule="evenodd" clip-rule="evenodd"
        d="M38.0168 20.75H40.8186C41.2322 20.75 41.4079 20.53 41.4079 20.3C41.4079 20.07 41.2322 19.84 40.8186 19.84H39.5572C38.4613 19.84 37.841 19.19 37.841 18.22C37.841 17.35 38.3993 16.52 40.0328 16.52H42.752L42.1627 17.74H39.8054C39.3505 17.74 39.2161 17.97 39.2161 18.19C39.2161 18.41 39.3918 18.66 39.733 18.66H41.0564C42.2867 18.66 42.814 19.33 42.814 20.21C42.814 21.16 42.2247 21.93 40.9944 21.93H38.0168V20.75Z"
        fill="#016FD0" />
    <path fill-rule="evenodd" clip-rule="evenodd"
        d="M43.1552 21.92V20.75H45.833C46.2465 20.75 46.4223 20.53 46.4223 20.3C46.4223 20.07 46.2465 19.84 45.833 19.84H44.6853C43.5894 19.84 42.9691 19.19 42.9691 18.22C42.9691 17.35 43.5274 16.52 45.1609 16.52H47.8284L47.2391 17.74H44.9335C44.4786 17.74 44.3442 17.97 44.3442 18.19C44.3442 18.41 44.5199 18.66 44.8611 18.66H46.0708C47.3011 18.66 47.8284 19.33 47.8284 20.21C47.8284 21.16 47.2391 21.93 46.0087 21.93H43.1448L43.1552 21.92Z"
        fill="#016FD0" />
</svg>