<svg width="117" height="183" viewBox="0 0 117 183" fill="none" xmlns="http://www.w3.org/2000/svg">
<path d="M105.141 74.14H97.6611C97.0067 61.24 95.2349 48.38 92.3154 35.77L86.396 10.26C84.9966 4.22001 79.6611 0 73.4195 0H0V11.4H73.4195C74.2752 11.4 75.0201 11.98 75.2114 12.82L77.9698 24.72H0V36.12H80.6175L81.1309 38.33C84.6846 53.7 86.4966 69.48 86.4966 85.23V85.91C85.9027 85.7 85.2886 85.54 84.6242 85.54H66.7651L53.5369 61.62C52.0168 58.87 48.5436 57.85 45.745 59.37C42.9765 60.88 41.9597 64.35 43.4799 67.11L53.6678 85.54H0V96.94H84.6342C85.2987 96.94 85.9128 96.77 86.5067 96.57V106.79H67.8826C67.6107 106.79 67.3691 106.88 67.1074 106.92C66.8859 106.89 66.6946 106.79 66.4631 106.79H0V118.19H60.4128L57.2114 130.2H0V141.6H86.4966V145.77C86.4966 149.3 83.6074 152.18 80.0436 152.18H0V163.58H46.9228V170.69C46.9228 177.2 52.2483 182.5 58.802 182.5H69.4732C76.0269 182.5 81.3523 177.2 81.3523 170.69V163.45C90.6141 162.77 97.9631 155.15 97.9631 145.77V108.35H105.121C111.674 108.35 117 103.05 117 96.55V85.95C117 79.44 111.674 74.14 105.121 74.14H105.141ZM69.8859 170.69C69.8859 170.91 69.7047 171.09 69.4832 171.09L58.4094 170.69V163.58H69.8859V170.69ZM86.4966 130.2H69.0805L72.2919 118.19H86.4966V130.2ZM105.141 96.95H97.9832V85.55H105.141C105.362 85.55 105.544 85.73 105.544 85.95L105.141 96.95Z" fill="#F9D5BB"/>
</svg>
