<svg width="20" height="280" viewBox="0 0 20 280" fill="none" xmlns="http://www.w3.org/2000/svg">
<path fill-rule="evenodd" clip-rule="evenodd" d="M0.00989142 10.1451C0.00989142 4.55578 4.4906 0 10 0H10.0099C15.5292 0 20 4.55578 20 10.1451C20 14.2393 14.184 21.5547 10.7122 25.408C10.3264 25.8295 9.67359 25.8295 9.28784 25.408C5.81603 21.5547 0 14.2293 0 10.1451H0.00989142ZM9.99011 6.5226C8.02176 6.5226 6.41939 8.14823 6.41939 10.1451C6.41939 12.1421 8.02176 13.7677 9.99011 13.7677C11.9585 13.7677 13.5608 12.1421 13.5608 10.1451C13.5608 8.14823 11.9585 6.5226 9.99011 6.5226Z" fill="#EB741E"/>
<path d="M10.999 280H9.02077V271.972H10.999V280ZM10.999 263.944H9.02077V255.917H10.999V263.944ZM10.999 247.889H9.02077V239.861H10.999V247.889ZM10.999 231.833H9.02077V223.805H10.999V231.833ZM10.999 215.778H9.02077V207.75H10.999V215.778ZM10.999 199.722H9.02077V191.694H10.999V199.722ZM10.999 183.666H9.02077V175.638H10.999V183.666ZM10.999 167.611H9.02077V159.583H10.999V167.611ZM10.999 151.555H9.02077V143.527H10.999V151.555ZM10.999 135.499H9.02077V127.472H10.999V135.499ZM10.999 119.444H9.02077V111.416H10.999V119.444ZM10.999 103.388H9.02077V95.3604H10.999V103.388ZM10.999 87.3326H9.02077V79.3047H10.999V87.3326ZM10.999 71.2769H9.02077V63.2491H10.999V71.2769ZM10.999 55.2213H9.02077V47.1935H10.999V55.2213ZM10.999 39.1657H9.02077V31.1379H10.999V39.1657Z" fill="#666666"/>
</svg>
