<svg width="117" height="212" viewBox="0 0 117 212" fill="none" xmlns="http://www.w3.org/2000/svg">
<path d="M116.714 202.92L105.459 165.04C104.626 162.24 102.07 160.33 99.187 160.33H92.0534L84.3451 127.45C83.6417 124.47 81.0161 122.37 77.9744 122.37H70.5337L64.5097 89.29C63.9351 86.15 61.2401 83.88 58.0795 83.88H52.1844L47.8151 51.71C47.3692 48.44 44.6049 46 41.3254 46H28.5543V13.22H40.4536C44.0699 13.22 47.0026 10.26 47.0026 6.61C47.0026 2.96 44.0699 0 40.4536 0H0V13.21H15.4661V45.98H11.8299C11.711 45.98 11.602 45.92 11.4732 45.92H0V59.2H5.73662L8.97647 91.14L12.791 128.72C12.791 129.06 12.8009 129.47 12.8207 129.63L16.655 167.6L18.914 189.9L19.7562 198.2H0V211.5H27.0186C27.1771 211.5 27.3059 211.42 27.4644 211.41H110.452C112.523 211.41 114.465 210.42 115.703 208.75C116.942 207.07 117.318 204.91 116.724 202.91L116.714 202.92ZM20.093 70.98L18.9041 59.2H35.6186L38.9674 83.86H21.4009L20.093 70.97V70.98ZM24.0363 109.82L22.7483 97.08H52.6302L57.1185 121.75H25.2451L24.0363 109.83V109.82ZM26.5826 135.57H72.8025L78.6085 160.32H29.0893L26.5826 135.57ZM32.9236 198.2L32.5075 194.08L30.4269 173.54H94.3223L101.654 198.2H32.9236Z" fill="#F9D5BB"/>
</svg>
