<svg width="117" height="212" viewBox="0 0 117 212" fill="none" xmlns="http://www.w3.org/2000/svg">
<path d="M16.1777 150.486H36.0015C38.6661 150.486 40.8298 148.326 40.8298 145.666V119.969C40.8298 117.309 38.6661 115.149 36.0015 115.149H16.1777C13.5131 115.149 11.3494 117.309 11.3494 119.969V145.666C11.3494 148.326 13.5131 150.486 16.1777 150.486ZM21.0059 124.788H31.1733V140.847H21.0059V124.788Z" fill="#F9D5BB"/>
<path d="M16.1777 93.2712H36.0015C38.6661 93.2712 40.8298 91.1114 40.8298 88.4516V62.7541C40.8298 60.0943 38.6661 57.9345 36.0015 57.9345H16.1777C13.5131 57.9345 11.3494 60.0943 11.3494 62.7541V88.4516C11.3494 91.1114 13.5131 93.2712 16.1777 93.2712ZM21.0059 67.5736H31.1733V83.6321H21.0059V67.5736Z" fill="#F9D5BB"/>
<path d="M110.379 63.784H66.8743V13.2188H77.9132C81.5694 13.2188 84.5345 10.259 84.5345 6.60939C84.5345 2.95974 81.5694 0 77.9132 0H0V13.2288H1.01173V35.2767H0V48.5054H7.63305C11.2893 48.5054 14.2544 45.5457 14.2544 41.896V13.2387H53.6217V198.261H27.2265V167.144C27.2265 163.495 24.2615 160.535 20.6052 160.535H0V173.764H13.9739V198.271H0V211.5H95.5834C99.2396 211.5 102.205 208.54 102.205 204.891V77.0427H110.379C114.035 77.0427 117 74.083 117 70.4333C117 66.7837 114.035 63.824 110.379 63.824V63.784ZM88.9621 198.241H66.8743V77.0127H88.9621V198.241Z" fill="#F9D5BB"/>
</svg>
