<svg width="20" height="250" viewBox="0 0 20 250" fill="none" xmlns="http://www.w3.org/2000/svg">
<path fill-rule="evenodd" clip-rule="evenodd" d="M0 10.2316C0 4.59458 4.49283 0 9.99505 0H10.0049C15.527 0 20 4.59458 20 10.2316C20 14.3606 14.1811 21.7383 10.7076 25.6244C10.3216 26.0495 9.66848 26.0495 9.28253 25.6244C5.8189 21.7383 0 14.3606 0 10.2316ZM9.98516 6.57815C8.01583 6.57815 6.41267 8.21763 6.41267 10.2316C6.41267 12.2455 8.01583 13.885 9.98516 13.885C11.9545 13.885 13.5576 12.2455 13.5576 10.2316C13.5576 8.21763 11.9545 6.57815 9.98516 6.57815Z" fill="#EB741E"/>
<path d="M10.9946 250H9.01534V241.904H10.9946V250ZM10.9946 233.808H9.01534V225.711H10.9946V233.808ZM10.9946 217.615H9.01534V209.519H10.9946V217.615ZM10.9946 201.423H9.01534V193.327H10.9946V201.423ZM10.9946 185.231H9.01534V177.134H10.9946V185.231ZM10.9946 169.038H9.01534V160.942H10.9946V169.038ZM10.9946 152.846H9.01534V144.75H10.9946V152.846ZM10.9946 136.653H9.01534V128.557H10.9946V136.653ZM10.9946 120.461H9.01534V112.365H10.9946V120.461ZM10.9946 104.269H9.01534V96.1725H10.9946V104.269ZM10.9946 88.0763H9.01534V79.9802H10.9946V88.0763ZM10.9946 71.884H9.01534V63.7878H10.9946V71.884ZM10.9946 55.6916H9.01534V47.5954H10.9946V55.6916ZM10.9946 39.4993H9.01534V31.4031H10.9946V39.4993Z" fill="#666666"/>
</svg>
