<svg width="49" height="29" viewBox="0 0 49 29" fill="none" xmlns="http://www.w3.org/2000/svg">
    <path
        d="M45.2607 0H3.87413C2.16112 0 0.772461 1.34315 0.772461 3V26C0.772461 27.6569 2.16112 29 3.87413 29H45.2607C46.9737 29 48.3624 27.6569 48.3624 26V3C48.3624 1.34315 46.9737 0 45.2607 0Z"
        fill="white" />
    <path
        d="M17.0045 23.36C17.0045 22.99 17.2527 22.68 17.6662 22.68C18.0798 22.68 18.3279 22.97 18.3279 23.36C18.3279 23.75 18.0591 24.04 17.6662 24.04C17.2733 24.04 17.0045 23.73 17.0045 23.36ZM18.7725 22.3H18.2969V22.56C18.1418 22.37 17.9143 22.25 17.6042 22.25C16.9942 22.25 16.5083 22.72 16.5083 23.36C16.5083 24 16.9942 24.47 17.6042 24.47C17.9143 24.47 18.1418 24.35 18.2969 24.16V24.42H18.7725V22.3ZM34.8391 23.36C34.8391 22.99 35.0872 22.68 35.5008 22.68C35.9144 22.68 36.1625 22.97 36.1625 23.36C36.1625 23.75 35.8937 24.04 35.5008 24.04C35.1079 24.04 34.8391 23.73 34.8391 23.36ZM36.6071 21.45H36.1315V22.56C35.9764 22.37 35.7489 22.25 35.4388 22.25C34.8288 22.25 34.3429 22.72 34.3429 23.36C34.3429 24 34.8288 24.47 35.4388 24.47C35.7489 24.47 35.9764 24.35 36.1315 24.16V24.42H36.6071V21.45ZM24.6656 22.66C24.9758 22.66 25.1722 22.85 25.2239 23.17H24.0867C24.1384 22.86 24.3245 22.66 24.6656 22.66ZM24.6656 22.25C24.0246 22.25 23.5801 22.7 23.5801 23.36C23.5801 24.02 24.0453 24.47 24.6967 24.47C25.0275 24.47 25.3273 24.39 25.5961 24.17L25.3583 23.83C25.1722 23.97 24.9448 24.05 24.7173 24.05C24.4072 24.05 24.128 23.91 24.066 23.53H25.6892C25.6892 23.47 25.6892 23.42 25.6892 23.35C25.6892 22.69 25.2653 22.24 24.6553 22.24M30.3934 23.35C30.3934 22.98 30.6415 22.67 31.0551 22.67C31.4686 22.67 31.7168 22.96 31.7168 23.35C31.7168 23.74 31.448 24.03 31.0551 24.03C30.6622 24.03 30.3934 23.72 30.3934 23.35ZM32.1613 22.29H31.6857V22.55C31.5307 22.36 31.3032 22.24 30.993 22.24C30.3831 22.24 29.8971 22.71 29.8971 23.35C29.8971 23.99 30.3831 24.46 30.993 24.46C31.3032 24.46 31.5307 24.34 31.6857 24.15V24.41H32.1613V22.29ZM27.7053 23.35C27.7053 23.99 28.1705 24.46 28.8736 24.46C29.2044 24.46 29.4215 24.39 29.6593 24.21L29.4319 23.84C29.2561 23.96 29.07 24.03 28.8632 24.03C28.4807 24.03 28.2015 23.76 28.2015 23.35C28.2015 22.94 28.4807 22.68 28.8632 22.67C29.07 22.67 29.2561 22.74 29.4319 22.86L29.6593 22.49C29.4215 22.31 29.2044 22.24 28.8736 22.24C28.1705 22.24 27.7053 22.71 27.7053 23.35ZM33.8362 22.24C33.5571 22.24 33.3813 22.36 33.2573 22.55V22.29H32.7817V24.41H33.2573V23.22C33.2573 22.87 33.4123 22.68 33.7225 22.68C33.8259 22.68 33.9293 22.7 34.0224 22.73L34.1671 22.3C34.0637 22.26 33.9293 22.24 33.8259 22.24M21.0781 22.46C20.8506 22.31 20.5301 22.24 20.1889 22.24C19.6306 22.24 19.2791 22.5 19.2791 22.92C19.2791 23.26 19.5479 23.48 20.0338 23.54L20.2613 23.57C20.5198 23.61 20.6438 23.67 20.6438 23.79C20.6438 23.95 20.4681 24.05 20.1476 24.05C19.827 24.05 19.5789 23.95 19.4238 23.83L19.1964 24.19C19.4548 24.38 19.7857 24.46 20.1476 24.46C20.7782 24.46 21.1504 24.17 21.1504 23.77C21.1504 23.4 20.8609 23.2 20.3853 23.14L20.1579 23.11C19.9511 23.08 19.7857 23.04 19.7857 22.9C19.7857 22.75 19.9408 22.65 20.1992 22.65C20.4784 22.65 20.7472 22.75 20.8816 22.83L21.0884 22.46H21.0781ZM27.2194 22.24C26.9402 22.24 26.7644 22.36 26.6404 22.55V22.29H26.1648V24.41H26.6404V23.22C26.6404 22.87 26.7955 22.68 27.1056 22.68C27.209 22.68 27.3124 22.7 27.4054 22.73L27.5502 22.3C27.4468 22.26 27.3124 22.24 27.209 22.24M23.1458 22.29H22.3704V21.65H21.8845V22.29H21.4399V22.71H21.8845V23.68C21.8845 24.17 22.0809 24.46 22.6392 24.46C22.846 24.46 23.0838 24.4 23.2389 24.3L23.1045 23.91C22.9597 23.99 22.8046 24.03 22.6806 24.03C22.4428 24.03 22.3704 23.89 22.3704 23.68V22.72H23.1458V22.29ZM16.0327 24.41V23.08C16.0327 22.58 15.7018 22.24 15.1745 22.24C14.8954 22.24 14.6059 22.32 14.4095 22.62C14.2544 22.39 14.0166 22.24 13.6857 22.24C13.448 22.24 13.2205 22.31 13.0447 22.55V22.29H12.5691V24.41H13.0447V23.24C13.0447 22.87 13.2515 22.68 13.5824 22.68C13.9132 22.68 14.0579 22.88 14.0579 23.24V24.42H14.5439V23.25C14.5439 22.88 14.761 22.69 15.0815 22.69C15.402 22.69 15.5571 22.89 15.5571 23.25V24.43H16.043L16.0327 24.41Z"
        fill="#231F20" />
    <path d="M28.1705 18.7H20.9643V6.17H28.1705V18.7Z" fill="#FF5F00" />
    <path
        d="M21.4192 12.44C21.4192 9.9 22.6496 7.63 24.5623 6.18C23.1148 5.07 21.3158 4.47 19.4755 4.48C14.9264 4.48 11.2354 8.05 11.2354 12.45C11.2354 16.85 14.9264 20.42 19.4755 20.42C21.3262 20.42 23.1148 19.82 24.5623 18.72C22.6496 17.26 21.4192 15 21.4192 12.46"
        fill="#EB001B" />
    <path
        d="M37.8994 12.44C37.8994 16.84 34.2085 20.41 29.6593 20.41C27.8087 20.41 26.02 19.81 24.5726 18.71C26.4853 17.25 27.7156 14.99 27.7156 12.45C27.7156 9.91 26.4853 7.64 24.5726 6.19C26.02 5.08 27.819 4.48 29.6593 4.49C34.2085 4.49 37.8994 8.06 37.8994 12.46"
        fill="#F79E1B" />
</svg>