<svg width="48" height="29" viewBox="0 0 48 29" fill="none" xmlns="http://www.w3.org/2000/svg">
    <path
        d="M44.7939 0H3.40733C1.69433 0 0.305664 1.34315 0.305664 3V26C0.305664 27.6569 1.69433 29 3.40733 29H44.7939C46.5069 29 47.8956 27.6569 47.8956 26V3C47.8956 1.34315 46.5069 0 44.7939 0Z"
        fill="#1B1464" />
    <path
        d="M31.7359 20.63C32.1184 19.75 32.47 18.93 32.8215 18.12C34.0622 15.27 35.2925 12.41 36.5332 9.56C36.9364 8.62 37.3189 8.38 38.3735 8.38C39.0869 8.38 39.8002 8.38 40.5136 8.38C40.7411 8.38 40.8858 8.41 40.9375 8.67C41.7646 12.56 42.6124 16.46 43.4499 20.35C43.4706 20.42 43.4602 20.5 43.4809 20.63C42.5297 20.63 41.5889 20.63 40.648 20.62C40.555 20.62 40.4206 20.45 40.3896 20.33C40.2655 19.85 40.1724 19.37 40.0587 18.82C39.8313 18.82 39.6038 18.82 39.3764 18.82C38.3838 18.82 37.3913 18.84 36.3987 18.82C36.0162 18.82 35.7991 18.9 35.706 19.28C35.613 19.66 35.4579 20.02 35.2925 20.37C35.2408 20.49 35.065 20.62 34.941 20.63C33.9071 20.65 32.8732 20.64 31.7359 20.64V20.63ZM39.4901 16.26C39.1696 14.77 38.8594 13.35 38.5492 11.93C38.5182 11.93 38.4872 11.93 38.4562 11.93C37.9186 13.36 37.3809 14.79 36.8433 16.26H39.4901Z"
        fill="white" />
    <path
        d="M18.3987 8.38C18.3264 8.57 18.2747 8.71 18.223 8.84C16.5791 12.63 14.9352 16.42 13.3017 20.22C13.1672 20.53 13.0225 20.65 12.6606 20.64C11.6578 20.61 10.6549 20.64 9.63135 20.64C9.17644 18.94 8.73186 17.28 8.28729 15.62C7.87373 14.09 7.44984 12.56 7.0673 11.01C6.89154 10.3 6.49866 9.83 5.79562 9.6C4.99952 9.35 4.20343 9.11 3.41767 8.86C3.30394 8.82 3.19022 8.79 3.00412 8.63C3.12818 8.55 3.25225 8.39 3.37632 8.39C5.17528 8.38 6.96391 8.37 8.76288 8.39C9.47626 8.39 10.0139 8.86 10.169 9.6C10.5205 11.3 10.8513 13.01 11.1822 14.71C11.2959 15.3 11.4096 15.88 11.5544 16.61C11.6784 16.34 11.7508 16.19 11.8129 16.04C12.8054 13.62 13.7979 11.2 14.7698 8.78C14.8835 8.49 15.0179 8.36 15.3591 8.37C16.3516 8.4 17.3338 8.37 18.3884 8.37L18.3987 8.38Z"
        fill="white" />
    <path
        d="M23.1856 17.45C24.1989 17.94 25.1914 18.24 26.246 18.22C26.7732 18.21 27.3315 18.14 27.8175 17.95C28.6342 17.63 28.7169 16.79 28.0242 16.27C27.652 15.99 27.2075 15.79 26.7939 15.55C26.339 15.29 25.8738 15.06 25.4395 14.77C23.0926 13.18 23.8163 10.65 25.2741 9.47C26.5354 8.45 28.0242 8.15 29.6061 8.16C30.5986 8.16 31.5705 8.33 32.5423 8.72C32.3562 9.58 32.1701 10.42 31.984 11.24C31.2603 11.08 30.5779 10.86 29.8852 10.8C29.3166 10.75 28.7169 10.83 28.1483 10.94C27.7451 11.02 27.3626 11.31 27.3936 11.74C27.4142 12.03 27.6624 12.37 27.9209 12.56C28.3241 12.87 28.8203 13.08 29.2752 13.34C29.5958 13.52 29.9163 13.7 30.2368 13.89C32.8835 15.45 32.0978 18.53 30.3195 19.74C29.3786 20.38 28.3241 20.69 27.1971 20.8C25.7807 20.93 24.385 20.78 23.0202 20.37C22.6894 20.27 22.5446 20.15 22.6584 19.77C22.8651 19.04 22.9995 18.28 23.1753 17.48L23.1856 17.45Z"
        fill="white" />
    <path
        d="M23.0823 8.38C22.1724 12.5 21.2729 16.55 20.3735 20.61H17.0754C17.2098 19.97 17.3442 19.35 17.4786 18.73C18.2126 15.41 18.957 12.1 19.6808 8.78C19.7531 8.47 19.8565 8.36 20.1874 8.37C21.1282 8.39 22.069 8.37 23.0719 8.37L23.0823 8.38Z"
        fill="white" />
</svg>