<svg width="19" height="24" viewBox="0 0 19 24" fill="none" xmlns="http://www.w3.org/2000/svg">
<g clip-path="url(#clip0_745_86)">
<path d="M18.8514 11.2087C18.8514 8.93489 17.7496 6.92153 15.9867 5.97996C15.8965 5.92988 15.7963 5.88981 15.6962 5.84974C16.3473 5.21869 16.7479 4.35726 16.7479 3.4257C16.7479 1.54256 15.2154 0.0100098 13.3322 0.0100098C11.4491 0.0100098 9.91654 1.54256 9.91654 3.4257C9.91654 4.39732 10.3272 5.26877 10.9783 5.88981C10.8781 5.93989 10.768 5.97996 10.6778 6.04006C10.207 6.30049 9.80636 6.63105 9.44576 7.0217C9.06512 6.61101 8.63441 6.26043 8.14359 5.98998C8.05344 5.93989 7.95327 5.89983 7.8531 5.85976C8.50419 5.22871 8.90486 4.36727 8.90486 3.43572C8.90486 1.55258 7.3723 0.0200265 5.48916 0.0200265C3.60602 0.0200265 2.07347 1.55258 2.07347 3.43572C2.07347 4.40734 2.48415 5.27879 3.13524 5.89983C3.03507 5.94991 2.92489 5.98998 2.83474 6.05008C1.04175 7.05175 -0.0200195 8.99498 -0.0200195 11.2487V13.9633C-0.0200195 14.424 0.140248 14.8748 0.420715 15.1953C0.741249 15.606 1.22205 15.8564 1.7329 15.9165L1.9132 23.2788C1.9132 23.6895 2.25377 24.01 2.66445 24.01H8.5142C8.71454 24.01 8.90486 23.9299 9.04509 23.7896C9.18532 23.6494 9.26546 23.4591 9.26546 23.2588V15.9065C9.36562 15.8965 9.46579 15.8865 9.55594 15.8564L9.75628 23.2788C9.76629 23.6895 10.0968 24.01 10.5075 24.01H16.3573C16.5576 24.01 16.7479 23.9299 16.8882 23.7896C17.0284 23.6494 17.1085 23.4591 17.1085 23.2588V15.9065C17.6795 15.8364 18.1903 15.5359 18.5209 15.0551C18.7413 14.7145 18.8514 14.3439 18.8514 13.9532V11.2187V11.2087ZM13.3423 1.5025C14.394 1.5025 15.2554 2.35392 15.2554 3.41569C15.2554 4.01669 14.985 4.56761 14.4842 4.93822C14.1736 5.18864 13.773 5.32888 13.3423 5.32888C12.2905 5.32888 11.4291 4.47746 11.4291 3.41569C11.4291 2.35392 12.2805 1.5025 13.3423 1.5025ZM5.5092 1.5025C6.56095 1.5025 7.42238 2.35392 7.42238 3.41569C7.42238 4.01669 7.15193 4.56761 6.6511 4.93822C6.34058 5.18864 5.93991 5.32888 5.5092 5.32888C4.45744 5.32888 3.59601 4.47746 3.59601 3.41569C3.59601 2.35392 4.44743 1.5025 5.5092 1.5025ZM9.51587 13.9432C9.51587 14.0434 9.48582 14.1335 9.43574 14.2137C9.34559 14.3439 9.19534 14.424 9.02506 14.424C8.76462 14.424 8.54426 14.2037 8.54426 13.9432V9.97662C8.54426 9.56594 8.20369 9.22537 7.793 9.22537C7.38232 9.22537 7.04175 9.56594 7.04175 9.97662V13.9432C7.04175 14.5643 7.33223 15.1052 7.77297 15.4658V22.4975H6.26045V15.5659C6.26045 15.1553 5.91988 14.8147 5.5092 14.8147C5.09851 14.8147 4.75794 15.1553 4.75794 15.5659V22.4975H3.41571L3.24542 15.4658C3.68616 15.1052 3.97664 14.5543 3.97664 13.9432V10.0167C3.97664 9.606 3.63607 9.26544 3.22539 9.26544C2.81471 9.26544 2.47414 9.606 2.47414 10.0167V13.9432C2.47414 14.2037 2.25377 14.424 1.98332 14.424C1.78299 14.424 1.6728 14.3139 1.60269 14.2237C1.54258 14.1436 1.50252 14.0534 1.50252 13.9432V11.2287C1.50252 9.52587 2.28382 8.06343 3.60602 7.33221C4.70786 6.69115 6.28048 6.6611 7.44242 7.29215C8.72456 7.9833 9.52589 9.4858 9.52589 11.2087V13.9432H9.51587ZM17.2688 14.2137C17.1786 14.3439 17.0284 14.424 16.8581 14.424C16.5977 14.424 16.3773 14.2037 16.3773 13.9432V9.97662C16.3773 9.56594 16.0367 9.22537 15.6261 9.22537C15.2154 9.22537 14.8748 9.56594 14.8748 9.97662V13.9432C14.8748 14.5643 15.1653 15.1052 15.606 15.4658V22.4975H14.0935V15.5659C14.0935 15.1553 13.7529 14.8147 13.3423 14.8147C12.9316 14.8147 12.591 15.1553 12.591 15.5659V22.4975H11.2488L11.0184 13.8431V11.2087C11.0184 10.1569 10.778 9.16527 10.3473 8.30383C10.6478 7.91318 10.9983 7.57261 11.4391 7.33221C12.5409 6.69115 14.1135 6.6611 15.2755 7.29215C16.5576 7.9833 17.3589 9.4858 17.3589 11.2087V13.9432C17.3589 14.0434 17.3289 14.1335 17.2788 14.2137H17.2688Z" fill="#666666"/>
</g>
<defs>
<clipPath id="clip0_745_86">
<rect width="18.8514" height="24" fill="white"/>
</clipPath>
</defs>
</svg>
