<svg width="19" height="24" viewBox="0 0 19 24" fill="none" xmlns="http://www.w3.org/2000/svg">
<g clip-path="url(#clip0_745_75)">
<path d="M15.1953 5.96995C15.0951 5.91987 14.9949 5.88982 14.8948 5.83973C15.5559 5.2187 15.9566 4.34725 15.9566 3.40568C15.9566 1.53255 14.424 0 12.5409 0C10.6577 0 9.12516 1.53255 9.12516 3.40568C9.12516 4.38731 9.54587 5.25876 10.197 5.8798C10.0968 5.92988 9.99662 5.96995 9.89645 6.03005C9.60597 6.19032 9.3255 6.38063 9.07508 6.61102C9.4457 6.94157 9.76623 7.3222 10.0367 7.75292C10.227 7.59265 10.4273 7.45242 10.6377 7.33222C11.7495 6.69115 13.3222 6.6611 14.4741 7.29215C15.7562 7.98331 16.5475 9.47579 16.5576 11.1987C16.5576 11.1987 16.5576 11.1987 16.5576 11.2087V13.9432C16.5576 14.0434 16.5375 14.1336 16.4774 14.2137C16.3873 14.3439 16.237 14.424 16.0667 14.424C15.8063 14.424 15.5859 14.2037 15.5859 13.9432V9.96661C15.5859 9.55593 15.2554 9.21536 14.8347 9.21536C14.414 9.21536 14.0834 9.55593 14.0834 9.96661V13.9432C14.0834 14.7746 14.6043 15.4858 15.3255 15.7763V16.9983H9.28543V18.5008H10.6377V22.4975H9.28543V23.2487C9.28543 23.4491 9.2053 23.6394 9.06506 23.7796C8.92483 23.9199 8.73451 24 8.53418 24H14.0734C14.4841 24 14.8247 23.6695 14.8247 23.2487V18.5008H16.0767C16.4874 18.5008 16.828 18.1703 16.828 17.7496V15.7663C17.1886 15.616 17.5091 15.3756 17.7295 15.0451C17.9499 14.7045 18.0601 14.3339 18.0601 13.9432V11.2287C18.0601 11.2287 18.0601 11.2287 18.0601 11.2087C18.0601 8.93489 16.9582 6.92154 15.1953 5.96995ZM13.6828 4.92821C13.3722 5.18865 12.9716 5.31887 12.5409 5.31887C11.4891 5.31887 10.6277 4.46745 10.6277 3.40568C10.6277 2.34391 11.4891 1.5025 12.5409 1.5025C13.5926 1.5025 14.454 2.35392 14.454 3.40568C14.454 4.0167 14.1836 4.5576 13.6828 4.92821ZM13.3121 22.4975H12.1302V18.5008H13.3121V22.4975Z" fill="#666666"/>
<path d="M10.0367 7.75292C9.76628 7.3222 9.44574 6.94157 9.07513 6.61102H9.06511C8.78464 6.3606 8.48414 6.15025 8.15359 5.96995C8.05342 5.91987 7.95326 5.8798 7.86311 5.83973C8.51419 5.20868 8.91486 4.33723 8.91486 3.40568C8.91486 1.53255 7.3823 0 5.49917 0C3.61603 0 2.09349 1.53255 2.09349 3.40568C2.09349 4.3773 2.50417 5.25876 3.15526 5.8798C3.05509 5.92988 2.95493 5.96995 2.85476 6.02003C1.06177 7.0217 0 8.96494 0 11.2287V13.9432C0 14.404 0.160267 14.8548 0.440735 15.1753C0.761269 15.596 1.23205 15.8364 1.75292 15.8965L1.92321 23.2688C1.93322 23.6695 2.27379 24 2.67446 24H8.52421C8.72454 24 8.91486 23.9199 9.05509 23.7796C9.19533 23.6394 9.27546 23.4491 9.27546 23.2487V15.8965C9.84641 15.8264 10.3573 15.5259 10.6878 15.0451C10.9082 14.7045 11.0184 14.3339 11.0184 13.9432V11.2087C11.0184 9.91653 10.6678 8.72454 10.0367 7.75292ZM5.49917 1.5025C6.56094 1.5025 7.41235 2.35392 7.41235 3.40568C7.41235 4.0167 7.1419 4.5576 6.64107 4.92821C6.33055 5.18865 5.9399 5.31887 5.49917 5.31887C4.44741 5.31887 3.59599 4.46745 3.59599 3.40568C3.59599 2.34391 4.44741 1.5025 5.49917 1.5025ZM9.51586 13.9432C9.51586 14.0434 9.48581 14.1336 9.42571 14.2137C9.34558 14.3439 9.18531 14.424 9.02504 14.424C8.75459 14.424 8.54424 14.2037 8.54424 13.9432V9.96661C8.54424 9.55593 8.20367 9.21536 7.79299 9.21536C7.3823 9.21536 7.04174 9.55593 7.04174 9.96661V13.9432C7.04174 14.5543 7.3222 15.1052 7.77296 15.4658V22.4975H6.25042V15.5659C6.25042 15.1452 5.91987 14.8147 5.49917 14.8147C5.07846 14.8147 4.74791 15.1452 4.74791 15.5659V22.4975H3.40568L3.24541 15.4658C3.68614 15.0952 3.97663 14.5543 3.97663 13.9432V10.0167C3.97663 9.60601 3.63606 9.26544 3.22538 9.26544C2.81469 9.26544 2.47412 9.60601 2.47412 10.0167V13.9432C2.47412 14.2037 2.25376 14.424 1.98331 14.424C1.78297 14.424 1.67279 14.3139 1.60267 14.2237C1.53255 14.1436 1.5025 14.0534 1.5025 13.9432V11.2287C1.5025 9.52588 2.28381 8.06344 3.59599 7.33222C4.70785 6.68114 6.28047 6.6611 7.43239 7.29215C8.71453 7.98331 9.51586 9.48581 9.51586 11.2087V13.9432Z" fill="#EB741E"/>
</g>
<defs>
<clipPath id="clip0_745_75">
<rect width="18.0601" height="24" fill="white"/>
</clipPath>
</defs>
</svg>
