<svg width="24" height="24" viewBox="0 0 24 24" fill="none" xmlns="http://www.w3.org/2000/svg">
<g clip-path="url(#clip0_614_735)">
<path d="M23.5296 23.5387C23.4094 23.8195 23.1291 24 22.8387 24C22.7386 24 22.6385 23.9799 22.5484 23.9398C18.283 22.1446 13.0565 22.1245 8.77114 23.8796C8.39067 24.0401 7.95012 23.8596 7.78992 23.4684C7.62972 23.0873 7.81995 22.6461 8.20043 22.4956C10.0628 21.7234 12.0853 21.2821 14.1379 21.1417L10.8838 9.65817C11.094 9.52779 11.3243 9.43753 11.5646 9.37735C11.8149 9.31718 12.0753 9.27706 12.3256 9.26703L15.6798 21.0715C18.243 21.0815 20.8162 21.5829 23.1291 22.5458C23.5096 22.7062 23.6898 23.1475 23.5296 23.5387Z" fill="#666666"/>
<path d="M23.95 7.98328C21.7172 2.11616 15.2191 -1.20352 9.17154 0.411192C3.10396 2.04596 -0.850984 8.18386 0.16028 14.392C0.220355 14.753 0.52073 15.0138 0.881181 15.0238H0.901206C1.25164 15.0238 1.56203 14.7731 1.63212 14.4221C1.75227 13.8303 2.27292 11.8646 4.08519 11.3832C5.32674 11.0422 6.66842 11.5336 7.41935 12.5867C7.67968 12.9377 8.10021 13.0982 8.51072 12.9879C8.92123 12.8776 9.22161 12.5265 9.26166 12.0953C9.37179 11.0522 9.99257 10.1396 10.8837 9.65816C11.0939 9.52778 11.3242 9.43752 11.5645 9.37734C11.8148 9.31717 12.0752 9.27705 12.3255 9.26702C13.3468 9.24696 14.308 9.71834 14.9187 10.5809C15.169 10.9319 15.5996 11.0823 16.0101 10.972C16.4206 10.8617 16.711 10.5106 16.751 10.0794C16.8812 8.79565 17.8023 7.70246 19.0539 7.37149C20.706 6.92018 21.7272 7.86293 22.7385 8.80568C22.9988 9.03635 23.3793 9.06644 23.6697 8.87588C23.96 8.6753 24.0802 8.30421 23.95 7.98328ZM19.8749 5.74675C19.5045 5.74675 19.0939 5.7969 18.6634 5.91725C17.1415 6.31842 15.95 7.49184 15.4694 8.94608C14.328 7.9231 12.706 7.5119 11.1941 7.9231H11.174C11.174 7.9231 11.154 7.93313 11.144 7.93313C9.63212 8.35436 8.46066 9.50772 7.98005 10.962C6.82862 9.93898 5.2166 9.52778 3.6947 9.92895C2.77355 10.1797 2.08268 10.6611 1.57204 11.2328C2.06266 6.88006 5.18656 3.03886 9.56203 1.86543C10.4732 1.62473 11.3943 1.50438 12.3055 1.50438C15.7598 1.50438 19.0739 3.17927 21.1365 5.94734C20.746 5.81696 20.3355 5.74675 19.8749 5.74675Z" fill="#EB741E"/>
<path d="M0.901206 15.0238H0.891193C0.530743 15.0238 0.220355 14.753 0.16028 14.392C-0.850984 8.17385 3.10396 2.03594 9.17154 0.411205C15.2291 -1.21353 21.7172 2.10615 23.95 7.97326C24.0702 8.30423 23.95 8.66528 23.6697 8.86586C23.3793 9.05642 22.9988 9.03636 22.7385 8.79566C21.7272 7.86294 20.706 6.92019 19.0439 7.36148C17.7923 7.69244 16.8712 8.78563 16.751 10.0794C16.711 10.5107 16.4206 10.8617 16.0101 10.972C15.5996 11.0823 15.169 10.9319 14.9187 10.5708C14.1578 9.49771 12.8361 9.02633 11.5645 9.36733C10.313 9.69829 9.39182 10.7915 9.26166 12.0853C9.22161 12.5165 8.93124 12.8675 8.51072 12.9779C8.10021 13.0882 7.66967 12.9277 7.41935 12.5767C6.66842 11.5236 5.32674 11.0422 4.07517 11.3732C2.27292 11.8546 1.74226 13.8203 1.63212 14.412C1.56203 14.7631 1.25164 15.0138 0.891193 15.0138L0.901206 15.0238ZM12.3055 1.50439C11.3943 1.50439 10.4732 1.62474 9.56203 1.86545C5.18656 3.03887 2.06266 6.87004 1.57204 11.2227C2.08268 10.6611 2.77355 10.1697 3.6947 9.92896C5.2166 9.51777 6.82862 9.92897 7.98005 10.962C8.46066 9.49771 9.66216 8.33431 11.1841 7.92311C12.706 7.51192 14.328 7.92312 15.4794 8.9461C15.96 7.48183 17.1515 6.31843 18.6734 5.90724C19.6246 5.6565 20.4456 5.71668 21.1465 5.93732C19.0839 3.16925 15.7698 1.49436 12.3155 1.49436L12.3055 1.50439Z" fill="#EB741E"/>
</g>
<defs>
<clipPath id="clip0_614_735">
<rect width="24" height="24" fill="white"/>
</clipPath>
</defs>
</svg>
