<svg width="24" height="24" viewBox="0 0 24 24" fill="none" xmlns="http://www.w3.org/2000/svg">
<g clip-path="url(#clip0_614_741)">
<path d="M9.17154 0.411373C3.10396 2.03679 -0.850984 8.17726 0.16028 14.398C0.220355 14.7592 0.52073 15.0201 0.891193 15.0301H0.901206C1.26166 15.0301 1.57204 14.7793 1.64213 14.4281C1.76228 13.8361 2.28293 11.8796 4.08519 11.388C5.33675 11.0468 6.67843 11.5385 7.42937 12.592C7.67968 12.9431 8.11022 13.1037 8.52073 12.9933C8.93124 12.8829 9.22161 12.5318 9.27167 12.1003C9.37179 11.0669 10.0026 10.1639 10.8937 9.67224L14.1478 21.1505C12.0952 21.301 10.0727 21.7324 8.21034 22.505C7.82987 22.6656 7.63963 23.107 7.79983 23.4883C7.96003 23.8696 8.40058 24.0602 8.78106 23.8997C13.0664 22.1338 18.2929 22.1639 22.5583 23.9498C22.6584 23.99 22.7485 24.01 22.8486 24.01C23.139 24.01 23.4194 23.8395 23.5395 23.5485C23.6997 23.1672 23.5195 22.7258 23.139 22.5652C20.8261 21.592 18.2629 21.1003 15.6897 21.0903L12.3455 9.28094C13.3568 9.26087 14.328 9.72241 14.9388 10.5853C15.1891 10.9365 15.6196 11.087 16.0301 10.9866C16.4406 10.8763 16.731 10.5251 16.771 10.0936C16.8912 8.79933 17.8224 7.71572 19.0639 7.37458C20.726 6.93311 21.7473 7.87626 22.7585 8.80937C23.0189 9.05017 23.3993 9.07024 23.6897 8.8796C23.9801 8.67893 24.0902 8.31773 23.97 7.98662C21.7172 2.10702 15.2191 -1.21405 9.17154 0.411373ZM18.6634 5.9097C17.1415 6.32107 15.95 7.48495 15.4694 8.94983C14.318 7.92642 12.6959 7.51505 11.174 7.92642C9.66216 8.33779 8.47067 9.50167 7.99007 10.9565C6.83863 9.93311 5.22661 9.52174 3.70471 9.92308C2.78356 10.1739 2.0927 10.6555 1.58206 11.2174C2.08268 6.86288 5.20659 3.0301 9.57205 1.85619C10.4832 1.61539 11.4043 1.49498 12.3155 1.49498C15.7698 1.49498 19.0839 3.17057 21.1465 5.9398C20.4356 5.70903 19.6146 5.64883 18.6734 5.9097H18.6634Z" fill="#666666"/>
</g>
<defs>
<clipPath id="clip0_614_741">
<rect width="24" height="24" fill="white"/>
</clipPath>
</defs>
</svg>
