<svg width="24" height="24" viewBox="0 0 24 24" fill="none" xmlns="http://www.w3.org/2000/svg">
<g clip-path="url(#clip0_735_54)">
<path d="M12.0651 10.7841C11.6546 10.7841 11.3142 11.133 11.3142 11.5536V13.3903C11.3142 13.811 11.6546 14.1599 12.0651 14.1599C12.4757 14.1599 12.8161 13.811 12.8161 13.3903V11.5536C12.8161 11.133 12.4757 10.7841 12.0651 10.7841Z" fill="#666666"/>
<path d="M22.6283 4.25823H18.8135V2.88328C18.8135 1.29286 17.5519 0 16 0H7.98999C6.43805 0 5.17647 1.29286 5.17647 2.88328V4.25823H1.37171C0.610763 4.25823 0 4.88414 0 5.66396V10.3224C0 11.2356 0.380476 12.0564 0.991239 12.6413C0.991239 12.6721 0.971214 12.7131 0.971214 12.7439V21.599C0.971214 22.9226 2.02253 24 3.31414 24H20.6859C21.9775 24 23.0288 22.9226 23.0288 21.599V12.7439C23.0288 12.7439 23.0088 12.6721 23.0088 12.6413C23.6195 12.0564 24 11.2458 24 10.3224V5.66396C24 4.88414 23.3892 4.25823 22.6283 4.25823ZM6.67835 2.88328C6.67835 2.14451 7.26909 1.53912 7.98999 1.53912H16C16.7209 1.53912 17.3116 2.14451 17.3116 2.88328V4.25823H6.67835V2.88328ZM1.50188 5.79735H3.30413H20.6758H22.4781V10.3224C22.4781 11.2253 21.7572 11.9641 20.8661 11.9641H15.2891V9.18341C15.2891 8.76272 14.9487 8.41385 14.5382 8.41385H9.41176C9.00125 8.41385 8.66083 8.76272 8.66083 9.18341V11.9641H3.10388C2.22278 11.9641 1.50188 11.2253 1.50188 10.3224V5.79735ZM10.1927 12.7542V12.7336V12.7131V9.95297H13.8173V12.7234C13.8173 12.7234 13.8173 12.7234 13.8173 12.7336C13.8173 12.7439 13.8173 12.7336 13.8173 12.7439V14.991H10.1927V12.7542ZM21.5269 21.599C21.5269 22.071 21.1464 22.4609 20.6859 22.4609H3.31414C2.85357 22.4609 2.47309 22.071 2.47309 21.599V13.4416C2.67334 13.4827 2.8836 13.5135 3.10388 13.5135H8.69086V15.7708C8.69086 16.1915 9.03129 16.5404 9.4418 16.5404H14.5682C14.9787 16.5404 15.3191 16.1915 15.3191 15.7708V13.5135H20.8961C21.1164 13.5135 21.3267 13.4929 21.5369 13.4416V21.6092L21.5269 21.599Z" fill="#666666"/>
</g>
<defs>
<clipPath id="clip0_735_54">
<rect width="24" height="24" fill="white"/>
</clipPath>
</defs>
</svg>
