<svg width="24" height="24" viewBox="0 0 24 24" fill="none" xmlns="http://www.w3.org/2000/svg">
<g clip-path="url(#clip0_735_59)">
<path d="M23.0288 12.7439V21.599C23.0288 22.9226 21.9774 24 20.6858 24H3.31412C2.02251 24 0.971191 22.9226 0.971191 21.599V12.7439C0.971191 12.7439 0.971191 12.6721 0.981204 12.6413C1.39172 13.0312 1.90236 13.3185 2.47307 13.4416V21.599C2.47307 22.0812 2.85354 22.4609 3.31412 22.4609H20.6858C21.1564 22.4609 21.5269 22.0812 21.5269 21.599V13.4416C22.0976 13.3185 22.6082 13.0312 23.0188 12.631C23.0288 12.6721 23.0288 12.7029 23.0288 12.7439Z" fill="#666666"/>
<path d="M16.0101 0H7.99003C6.43809 0 5.17651 1.29286 5.17651 2.88328V4.25823H6.67839V2.88328C6.67839 2.14451 7.26913 1.53912 7.99003 1.53912H16.0101C16.731 1.53912 17.3217 2.14451 17.3217 2.88328V4.25823H18.8236V2.88328C18.8236 1.29286 17.562 0 16.0101 0Z" fill="#666666"/>
<path d="M12.0651 10.7841C11.6546 10.7841 11.3142 11.133 11.3142 11.5537V13.3904C11.3142 13.8111 11.6546 14.1599 12.0651 14.1599C12.4757 14.1599 12.8161 13.8111 12.8161 13.3904V11.5537C12.8161 11.133 12.4757 10.7841 12.0651 10.7841Z" fill="#EB741E"/>
<path d="M22.6283 4.25824H17.3217L6.67835 4.2685L1.37171 4.25824C0.620776 4.25824 0 4.89441 0 5.66397V10.3224C0 11.2356 0.380476 12.0564 0.981227 12.6413C1.39174 13.0312 1.90238 13.3185 2.47309 13.4417C2.67334 13.4827 2.8836 13.5032 3.10388 13.5032H8.69086V15.7606C8.69086 16.1915 9.02128 16.5302 9.4418 16.5302H14.5682C14.9787 16.5302 15.3191 16.1915 15.3191 15.7606V13.5032H20.8861C21.1064 13.5032 21.3166 13.4827 21.5269 13.4417C22.0976 13.3185 22.6083 13.0312 23.0188 12.631C23.6195 12.0564 24 11.2356 24 10.3224V5.66397C24 4.89441 23.3892 4.25824 22.6283 4.25824ZM13.8173 12.7234L13.8073 12.7337C13.8073 12.7439 13.8173 12.7439 13.8173 12.7542V14.991H10.1927V9.95298H13.8173V12.7234ZM20.8861 11.9641H15.3191V9.18342C15.3191 8.76273 14.9787 8.41386 14.5682 8.41386H9.4418C9.02128 8.41386 8.69086 8.76273 8.69086 9.18342V11.9641H3.10388C2.22278 11.9641 1.50188 11.2356 1.50188 10.3224V5.79736H22.4981V10.3224C22.4981 11.2356 21.7772 11.9641 20.8861 11.9641Z" fill="#EB741E"/>
</g>
<defs>
<clipPath id="clip0_735_59">
<rect width="24" height="24" fill="white"/>
</clipPath>
</defs>
</svg>
