<svg width="21" height="24" viewBox="0 0 21 24" fill="none" xmlns="http://www.w3.org/2000/svg">
<g clip-path="url(#clip0_650_15)">
<path d="M17.3682 5.89001C18.0185 5.27001 18.4287 4.39001 18.4287 3.42001C18.4287 1.53001 16.8879 -0.00999451 14.997 -0.00999451C13.1061 -0.00999451 11.5654 1.53001 11.5654 3.42001C11.5654 4.39001 11.9756 5.27001 12.6259 5.89001C11.8755 6.21001 11.1952 6.68001 10.625 7.29001C10.5849 7.29001 10.5349 7.28001 10.4949 7.28001C10.4549 7.28001 10.4048 7.29001 10.3648 7.29001C9.79456 6.68001 9.11423 6.21001 8.36387 5.89001C9.01418 5.27001 9.42438 4.39001 9.42438 3.42001C9.42438 1.53001 7.88365 -0.00999451 5.99275 -0.00999451C4.10185 -0.00999451 2.56111 1.53001 2.56111 3.42001C2.56111 4.39001 2.97131 5.26001 3.62162 5.89001C2.81123 6.24001 2.07088 6.76001 1.4806 7.44001C0.360065 8.73001 -0.170188 10.45 0.0499169 12.16L1.46059 23.34C1.51061 23.72 1.83076 24 2.20094 24H9.80456H9.82457H11.1652H11.1852H18.7888C19.169 24 19.4892 23.72 19.5292 23.34L20.9399 12.16C20.9699 11.9 20.9899 11.65 20.9899 11.39C20.9899 8.93001 19.4892 6.81001 17.3582 5.89001H17.3682ZM14.997 1.50001C16.0575 1.50001 16.928 2.36001 16.928 3.43001C16.928 4.50001 16.0675 5.36001 14.997 5.36001C13.9265 5.36001 13.0661 4.50001 13.0661 3.43001C13.0661 2.36001 13.9265 1.50001 14.997 1.50001ZM13.0661 16.05L12.2557 22.49H8.75406L7.94368 16.05C7.85363 15.31 8.07374 14.57 8.57397 14.02C9.55444 12.91 11.4754 12.91 12.4558 14.02C12.9461 14.58 13.1762 15.32 13.0861 16.05H13.0661ZM10.5049 11.64C9.71452 11.64 9.07421 11 9.07421 10.21C9.07421 9.42001 9.71452 8.78001 10.5049 8.78001C11.2953 8.78001 11.9356 9.42001 11.9356 10.21C11.9356 11 11.2953 11.64 10.5049 11.64ZM6.00275 1.50001C7.06326 1.50001 7.93367 2.36001 7.93367 3.43001C7.93367 4.50001 7.07326 5.36001 6.00275 5.36001C4.93224 5.36001 4.07183 4.50001 4.07183 3.43001C4.07183 2.36001 4.93224 1.50001 6.00275 1.50001ZM1.54063 11.97C1.38055 10.69 1.77074 9.40001 2.63115 8.43001C3.48155 7.46001 4.72214 6.90001 6.01276 6.90001C7.03324 6.90001 8.0037 7.24001 8.78407 7.85001C8.05373 8.38001 7.5735 9.24001 7.5735 10.21C7.5735 11 7.89365 11.72 8.40389 12.25C8.05373 12.46 7.71357 12.71 7.43343 13.03C6.66307 13.91 6.29289 15.08 6.44296 16.24L7.23334 22.49H2.86126L1.53062 11.97H1.54063ZM19.4692 11.97L18.1385 22.49H13.7664L14.5568 16.24C14.7069 15.08 14.3467 13.91 13.5664 13.03C13.2862 12.71 12.9561 12.47 12.5959 12.25C13.1061 11.72 13.4263 11.01 13.4263 10.21C13.4263 9.24001 12.9461 8.39001 12.2157 7.85001C12.9961 7.24001 13.9665 6.90001 14.987 6.90001C17.4682 6.90001 19.4892 8.91001 19.4892 11.39C19.4892 11.58 19.4892 11.77 19.4592 11.97H19.4692Z" fill="#666666"/>
</g>
<defs>
<clipPath id="clip0_650_15">
<rect width="21" height="24" fill="white"/>
</clipPath>
</defs>
</svg>
