<svg width="21" height="24" viewBox="0 0 21 24" fill="none" xmlns="http://www.w3.org/2000/svg">
<g clip-path="url(#clip0_650_10)">
<path d="M6.00257 6.90288C7.023 6.90288 7.9934 7.24302 8.77373 7.85327C9.22392 7.52313 9.76414 7.31305 10.3544 7.29304C9.79415 6.68278 9.12387 6.21259 8.37356 5.89246C9.02383 5.2722 9.434 4.40183 9.434 3.42143C9.434 1.54064 7.89336 0 6.00257 0C4.11178 0 2.58115 1.54064 2.58115 3.42143C2.58115 4.40183 2.99132 5.2722 3.64159 5.89246C2.83125 6.2426 2.09094 6.76282 1.5007 7.4431C0.360221 8.73364 -0.17 10.4544 0.0500921 12.1651L1.46068 23.3497C1.5007 23.7199 1.82083 24 2.20099 24H8.09344C7.71329 24 7.39315 23.7199 7.34313 23.3397L7.23309 22.4994H2.86126L1.54071 11.975C1.37064 10.6945 1.77081 9.40392 2.62116 8.43351C3.48152 7.46311 4.71203 6.90288 6.00257 6.90288ZM6.00257 1.50063C7.07302 1.50063 7.93338 2.36098 7.93338 3.42143C7.93338 4.48187 7.07302 5.35223 6.00257 5.35223C4.93213 5.35223 4.08177 4.49187 4.08177 3.42143C4.08177 2.35098 4.94213 1.50063 6.00257 1.50063ZM17.3673 5.89246C18.0176 5.2722 18.4278 4.39183 18.4278 3.42143C18.4278 1.54064 16.8871 0 14.9963 0C13.1055 0 11.5649 1.54064 11.5649 3.42143C11.5649 4.40183 11.9851 5.2722 12.6353 5.89246C11.885 6.21259 11.2047 6.68278 10.6545 7.29304C11.2448 7.31305 11.785 7.52313 12.2352 7.85327C13.0155 7.24302 13.9859 6.90288 14.9963 6.90288C17.4774 6.90288 19.4982 8.92372 19.4982 11.3947C19.4982 11.5848 19.4882 11.7749 19.4682 11.975L18.1376 22.4994H13.7658L13.6558 23.3397C13.6157 23.7199 13.2956 24 12.9155 24H18.7979C19.1781 24 19.4982 23.7199 19.5482 23.3497L20.9588 12.1651C20.9888 11.905 20.9988 11.6549 20.9988 11.3947C20.9988 8.93372 19.4982 6.81284 17.3673 5.89246ZM14.9963 5.35223C13.9359 5.35223 13.0655 4.49187 13.0655 3.42143C13.0655 2.35098 13.9359 1.50063 14.9963 1.50063C16.0568 1.50063 16.9271 2.36098 16.9271 3.42143C16.9271 4.48187 16.0568 5.35223 14.9963 5.35223Z" fill="#666666"/>
<path d="M13.5657 13.0254C13.2856 12.7153 12.9555 12.4652 12.6053 12.2551C13.1155 11.7249 13.4357 11.0046 13.4357 10.2143C13.4357 9.24385 12.9655 8.38349 12.2352 7.85327C11.785 7.52314 11.2448 7.31305 10.6545 7.29304C10.6045 7.28304 10.5545 7.28304 10.5044 7.28304C10.4544 7.28304 10.4044 7.28304 10.3544 7.29304C9.76413 7.31305 9.22391 7.52314 8.77372 7.85327C8.04342 8.38349 7.57322 9.24385 7.57322 10.2143C7.57322 11.0046 7.89335 11.7249 8.40357 12.2551C8.05342 12.4652 7.71328 12.7153 7.43316 13.0254C6.66284 13.9058 6.30269 15.0863 6.44275 16.2468L7.23308 22.4994L7.34313 23.3397C7.39315 23.7199 7.71328 24 8.09344 24H12.9154C13.2956 24 13.6157 23.7199 13.6558 23.3397L13.7658 22.4994L14.5561 16.2468C14.7062 15.0863 14.346 13.9058 13.5657 13.0254ZM10.5044 8.78366C11.2948 8.78366 11.935 9.42393 11.935 10.2143C11.935 11.0046 11.2948 11.6449 10.5044 11.6449C9.71411 11.6449 9.07385 11.0046 9.07385 10.2143C9.07385 9.42393 9.71411 8.78366 10.5044 8.78366ZM13.0655 16.0567L12.2552 22.4994H8.75371L7.93337 16.0567C7.84333 15.3164 8.07343 14.5761 8.56363 14.0258C9.54404 12.9054 11.4648 12.9054 12.4453 14.0258C12.9355 14.5761 13.1656 15.3164 13.0655 16.0567Z" fill="#EB741E"/>
</g>
<defs>
<clipPath id="clip0_650_10">
<rect width="20.9987" height="24" fill="white"/>
</clipPath>
</defs>
</svg>
