<svg width="24" height="24" viewBox="0 0 24 24" fill="none" xmlns="http://www.w3.org/2000/svg">
<g clip-path="url(#clip0_735_46)">
<path d="M20.5301 20.0067L19.9401 18.5355C18.9801 16.1334 17.5901 13.9616 15.8101 12.0901C14.8301 11.0592 13.4501 10.4787 12.0101 10.4887C10.5801 10.5088 9.21009 11.1193 8.25009 12.1802L7.77009 12.7106C6.36009 14.2719 5.21009 16.0334 4.34009 17.945L3.40009 20.0167C3.40009 20.0167 3.36009 20.1168 3.35009 20.1668C3.11009 21.2877 3.47009 22.4087 4.31009 23.1793C4.90009 23.7098 5.63009 24 6.41009 24C6.75009 24 7.10009 23.95 7.45009 23.8299C10.4201 22.8791 13.5501 22.8791 16.5201 23.8299C17.6101 24.1802 18.7701 23.9299 19.6201 23.1493C20.4701 22.3686 20.8201 21.2377 20.5601 20.1168C20.5601 20.0767 20.5401 20.0367 20.5301 20.0067ZM18.6101 22.0484C18.1701 22.4587 17.5601 22.5888 16.9901 22.4087C13.7201 21.3578 10.2701 21.3578 6.95009 22.4287C6.38009 22.6088 5.78009 22.4787 5.33009 22.0784C4.91009 21.6881 4.71009 21.1276 4.81009 20.5671L5.71009 18.5755C6.51009 16.804 7.58009 15.1726 8.89009 13.7314L9.37009 13.201C10.0601 12.4404 11.0101 12.01 12.0301 12C12.0501 12 12.0601 12 12.0801 12C13.0901 12 14.0301 12.4003 14.7201 13.1309C16.3701 14.8624 17.6601 16.8741 18.5501 19.0959L19.1201 20.5071C19.2301 21.0776 19.0501 21.648 18.6201 22.0484H18.6101Z" fill="#666666"/>
<path d="M15.4099 8.07673H15.4299C17.1899 8.07673 18.6399 6.32527 18.7399 4.09341C18.7999 2.83236 18.3999 1.66139 17.6699 0.890744C17.1299 0.330277 16.4399 0.0100098 15.7199 0.0100098H15.6999C13.9399 0.0100098 12.4899 1.76147 12.3899 3.99333C12.3299 5.25438 12.7299 6.42536 13.4599 7.196C13.9999 7.75647 14.6899 8.07673 15.4099 8.07673ZM15.6999 1.50125C16.0999 1.50125 16.3899 1.73144 16.5699 1.9216C17.0199 2.402 17.2699 3.18265 17.2299 4.03336C17.1699 5.42452 16.3399 6.58549 15.4199 6.58549C15.0199 6.58549 14.7299 6.3553 14.5499 6.16514C14.0999 5.68474 13.8499 4.90409 13.8899 4.05338C13.9499 2.66222 14.7799 1.50125 15.6999 1.50125Z" fill="#666666"/>
<path d="M8.56994 8.07673H8.58994C9.30994 8.07673 9.99994 7.75647 10.5399 7.196C11.2799 6.41535 11.6699 5.24437 11.6099 3.99333C11.5099 1.75146 10.0599 0.0100098 8.29994 0.0100098H8.27994C7.55994 0.0100098 6.86994 0.330277 6.32994 0.890744C5.58994 1.67139 5.19994 2.84237 5.25994 4.09341C5.35994 6.33528 6.80994 8.07673 8.56994 8.07673ZM7.42994 1.91159C7.60994 1.72144 7.90994 1.50125 8.29994 1.49124C9.21994 1.49124 10.0499 2.66222 10.1099 4.04337C10.1499 4.88407 9.89994 5.67473 9.44994 6.15513C9.26994 6.34529 8.97994 6.56547 8.57994 6.57548C7.65994 6.57548 6.82994 5.40451 6.76994 4.02335C6.72994 3.18265 6.97994 2.39199 7.42994 1.91159Z" fill="#666666"/>
<path d="M22.79 6.79568C22.16 6.28525 21.36 6.06507 20.54 6.20519C19.54 6.36532 18.62 7.00585 17.99 7.96665C16.83 9.74814 17.03 12.0501 18.44 13.201C18.95 13.6114 19.57 13.8315 20.22 13.8315C20.37 13.8315 20.53 13.8215 20.69 13.7915C21.69 13.6314 22.61 12.9908 23.24 12.03C24.4 10.2486 24.2 7.94664 22.79 6.79568ZM21.98 11.2094C21.59 11.8199 21.03 12.2102 20.46 12.3103C20.18 12.3503 19.77 12.3403 19.4 12.03C18.6 11.3795 18.54 9.88826 19.26 8.77733C19.65 8.16682 20.21 7.7765 20.78 7.67641C21.06 7.63638 21.47 7.64639 21.84 7.95665C22.64 8.60719 22.7 10.0984 21.98 11.2094Z" fill="#666666"/>
<path d="M3.76997 13.8315C4.41997 13.8315 5.03997 13.6113 5.54997 13.201C6.95997 12.05 7.15997 9.74812 5.99997 7.96664C5.37997 7.00583 4.44997 6.3653 3.44997 6.20517C2.62997 6.07506 1.82997 6.28523 1.19997 6.79566C-0.210026 7.94662 -0.410026 10.2485 0.749974 12.03C1.36997 12.9908 2.29997 13.6314 3.29997 13.7915C3.45997 13.8115 3.60997 13.8315 3.76997 13.8315ZM2.00997 11.2193C1.28997 10.1084 1.34997 8.61718 2.14997 7.96664C2.42997 7.73644 2.72997 7.67639 2.97997 7.67639C3.05997 7.67639 3.13997 7.67639 3.20997 7.69641C3.78997 7.78648 4.33997 8.18682 4.72997 8.79733C5.44997 9.90825 5.38997 11.3995 4.58997 12.05C4.20997 12.3603 3.79997 12.3703 3.52997 12.3303C2.94997 12.2402 2.39997 11.8399 2.00997 11.2294V11.2193Z" fill="#666666"/>
</g>
<defs>
<clipPath id="clip0_735_46">
<rect width="24" height="24" fill="white"/>
</clipPath>
</defs>
</svg>
