<svg width="24" height="24" viewBox="0 0 24 24" fill="none" xmlns="http://www.w3.org/2000/svg">
<g clip-path="url(#clip0_735_38)">
<path d="M6.41986 24C5.63986 24 4.90986 23.7198 4.31986 23.1793C3.47986 22.4087 3.11986 21.2877 3.35986 20.1668C3.36986 20.1168 3.38986 20.0667 3.40986 20.0167L4.34986 17.945C5.21986 16.0334 6.36986 14.2719 7.77986 12.7106L8.25986 12.1801C9.21986 11.1193 10.5899 10.4987 12.0199 10.4887C13.4499 10.4887 14.8299 11.0592 15.8199 12.0901C17.5999 13.9616 18.9899 16.1334 19.9499 18.5354L20.5399 20.0067C20.5399 20.0067 20.5699 20.0767 20.5699 20.1168C20.8299 21.2377 20.4799 22.3686 19.6299 23.1493C18.7799 23.9299 17.6199 24.1801 16.5299 23.8299C13.5599 22.8791 10.4299 22.8791 7.45986 23.8299C7.10986 23.9399 6.75986 24 6.41986 24ZM4.80986 20.5671C4.70986 21.1276 4.89986 21.6881 5.32986 22.0784C5.76986 22.4787 6.37986 22.6088 6.94986 22.4287C10.2699 21.3578 13.7199 21.3578 16.9899 22.4087C17.5599 22.5888 18.1699 22.4587 18.6099 22.0484C19.0399 21.648 19.2299 21.0776 19.1099 20.5071L18.5399 19.0959C17.6499 16.8741 16.3599 14.8624 14.7099 13.1309C14.0099 12.4003 13.0799 12 12.0699 12C12.0499 12 12.0399 12 12.0199 12C10.9899 12.01 10.0499 12.4404 9.35986 13.201L8.87986 13.7314C7.56986 15.1726 6.50986 16.804 5.69986 18.5755L4.79986 20.5671H4.80986Z" fill="#666666"/>
<path d="M15.4301 8.07673H15.4101C14.6901 8.07673 14.0001 7.75647 13.4601 7.196C12.7201 6.41535 12.3301 5.24437 12.3901 3.99333C12.4901 1.75146 13.9401 0.0100098 15.7001 0.0100098H15.7201C16.4401 0.0100098 17.1301 0.330277 17.6701 0.890744C18.4101 1.67139 18.8001 2.84237 18.7401 4.09341C18.6401 6.33528 17.1901 8.07673 15.4301 8.07673ZM13.8901 4.05338C13.8501 4.89408 14.1001 5.68474 14.5501 6.16514C14.7301 6.3553 15.0301 6.57548 15.4201 6.58549C16.3401 6.58549 17.1701 5.41451 17.2301 4.03336C17.2701 3.19266 17.0201 2.402 16.5701 1.9216C16.3901 1.73144 16.1001 1.51126 15.7001 1.50125C14.7801 1.50125 13.9501 2.67223 13.8901 4.05338Z" fill="#EB741E"/>
<path d="M8.57006 8.07673C6.81006 8.07673 5.36006 6.32527 5.26006 4.09341C5.20006 2.83236 5.60006 1.66139 6.33006 0.890744C6.87006 0.330277 7.56006 0.0100098 8.28006 0.0100098H8.30006C10.0601 0.0100098 11.5101 1.76147 11.6101 3.99333C11.6701 5.25438 11.2701 6.42536 10.5401 7.196C10.0001 7.75647 9.31006 8.07673 8.59006 8.07673H8.57006ZM8.30006 1.50125C7.90006 1.50125 7.61006 1.73144 7.43006 1.9216C6.98006 2.402 6.73006 3.18265 6.77006 4.03336C6.83006 5.42452 7.66006 6.58549 8.58006 6.58549C8.98006 6.58549 9.27006 6.3553 9.45006 6.16514C9.90006 5.68474 10.1501 4.90409 10.1101 4.05338C10.0501 2.66222 9.22006 1.50125 8.30006 1.50125Z" fill="#EB741E"/>
<path d="M20.23 13.8315C19.58 13.8315 18.96 13.6113 18.45 13.201C17.04 12.05 16.84 9.74812 18 7.96664C18.62 7.00583 19.55 6.3653 20.55 6.20517C21.37 6.07506 22.17 6.28523 22.8 6.79566C24.21 7.94662 24.41 10.2485 23.25 12.03C22.63 12.9908 21.7 13.6314 20.7 13.7915C20.54 13.8115 20.39 13.8315 20.23 13.8315ZM19.26 8.78732C18.54 9.89824 18.6 11.3895 19.4 12.04C19.78 12.3503 20.19 12.3603 20.46 12.3203C21.04 12.2302 21.59 11.8299 21.98 11.2193C22.7 10.1084 22.64 8.61718 21.84 7.96664C21.46 7.65638 21.05 7.64637 20.78 7.6864C20.2 7.77648 19.65 8.17681 19.26 8.78732Z" fill="#EB741E"/>
<path d="M3.76997 13.8315C3.61997 13.8315 3.45997 13.8215 3.29997 13.7915C2.29997 13.6314 1.36997 12.9908 0.749974 12.03C-0.410026 10.2485 -0.210026 7.94662 1.19997 6.79566C1.82997 6.28523 2.62997 6.07506 3.44997 6.20517C4.44997 6.3653 5.36997 7.00583 5.99997 7.96664C7.15997 9.74812 6.95997 12.05 5.54997 13.201C5.03997 13.6113 4.41997 13.8315 3.76997 13.8315ZM2.98997 7.66638C2.73997 7.66638 2.43997 7.73644 2.15997 7.95663C1.35997 8.60717 1.29997 10.0984 2.01997 11.2093C2.40997 11.8198 2.96997 12.2102 3.53997 12.3103C3.81997 12.3503 4.22997 12.3403 4.59997 12.03C5.39997 11.3795 5.45997 9.88824 4.73997 8.77731C4.34997 8.1668 3.78997 7.77648 3.21997 7.67639C3.14997 7.66638 3.06997 7.65638 2.98997 7.65638V7.66638Z" fill="#EB741E"/>
</g>
<defs>
<clipPath id="clip0_735_38">
<rect width="24" height="24" fill="white"/>
</clipPath>
</defs>
</svg>
