<svg width="24" height="24" viewBox="0 0 24 24" fill="none" xmlns="http://www.w3.org/2000/svg">
<g clip-path="url(#clip0_614_744)">
<path d="M10.3612 15.1182C10.252 15.1886 10.1526 15.2489 10.0632 15.2992C10.1427 15.2188 10.252 15.1484 10.3612 15.1182Z" fill="#666666"/>
<path d="M23.8213 17.663C23.5034 18.8902 22.5994 20.0771 21.1292 21.2037C21.0498 21.2741 20.8908 21.3948 20.7517 21.4853C18.8643 22.8332 16.1425 24 14.9902 24C14.8908 24 14.7915 23.9899 14.7219 23.9698C13.7683 23.7083 10.9074 20.1676 10.0332 16.9086C10.3809 16.808 10.8577 16.5566 11.3941 16.1945C11.9802 18.9606 14.4537 21.9983 15.1094 22.4912C15.6955 22.4208 17.9604 21.6362 19.9272 20.228C20.0266 20.1676 20.116 20.0972 20.1855 20.0369C21.4272 19.0813 22.1524 18.166 22.3809 17.2808C22.51 16.808 22.5398 16.3453 22.4802 15.9128C22.4604 15.8122 22.4405 15.6815 22.4008 15.5507C22.1822 14.7963 21.6458 14.223 20.9206 13.9514C19.9769 13.6094 18.8345 13.8206 17.7915 14.5348C17.6027 14.6655 17.3643 14.6957 17.1458 14.6253C16.9272 14.5549 16.7584 14.394 16.669 14.1727C16.4206 13.4987 16.0531 12.9656 15.5762 12.6136C15.9041 12.2716 16.212 11.9195 16.5001 11.5574C16.52 11.5272 16.5398 11.5071 16.5597 11.4769C17.0166 11.8391 17.4041 12.3018 17.7021 12.8449C18.9438 12.2313 20.265 12.1106 21.4173 12.5331C22.5994 12.9656 23.4736 13.9011 23.8312 15.1081C23.8809 15.2892 23.9206 15.4702 23.9504 15.6614C24.0498 16.3453 24.0001 16.9992 23.8213 17.663Z" fill="#666666"/>
<path d="M18.5266 3.08802C18.4173 2.83655 18.2981 2.6052 18.159 2.39397C17.3047 1.01593 15.8941 0.150884 14.2848 0.0402384C12.606 -0.100583 10.9173 0.603524 9.52656 1.94133C7.92722 0.211236 5.75172 -0.422461 3.67556 0.281647C1.41066 1.04611 -0.0396712 3.22884 6.38886e-05 5.83403C0.0596665 11.1651 8.05636 16.9891 9.64576 16.9891H9.65569C9.75503 16.9891 9.88417 16.969 10.0332 16.9086C10.3809 16.808 10.8577 16.5566 11.3941 16.1945C12.6358 15.3998 14.2252 14.0821 15.5762 12.6136C15.904 12.2716 16.212 11.9195 16.5001 11.5574C16.5199 11.5272 16.5398 11.5071 16.5597 11.477C16.6689 11.3361 16.7782 11.1853 16.8477 11.0847C18.308 9.1534 19.0431 7.32272 19.0431 5.6731V5.60269C19.0431 4.67729 18.8643 3.83236 18.5266 3.08802ZM15.6358 10.2096C15.5464 10.3403 15.4471 10.4711 15.3477 10.5918C15.1987 10.7728 15.0497 10.9539 14.8908 11.135C13.2517 13.026 11.3643 14.4744 10.361 15.1182C10.2517 15.1886 10.1524 15.249 10.063 15.2992C9.88417 15.3998 9.75503 15.4602 9.6855 15.4803C8.54311 15.2691 1.5398 10.0687 1.49013 5.81392C1.46033 3.87259 2.51331 2.26321 4.15238 1.70998C4.51 1.58927 4.90735 1.51886 5.32457 1.51886C6.48682 1.51886 7.80801 2.04191 8.89079 3.5306C9.02987 3.71165 9.23847 3.8223 9.46695 3.83236C9.68549 3.83236 9.91397 3.74183 10.053 3.57083C11.2252 2.17268 12.7252 1.42834 14.1756 1.53898C15.308 1.61945 16.3014 2.22297 16.9073 3.19866C17.0067 3.3596 17.0961 3.52054 17.1656 3.7016C17.414 4.25482 17.553 4.90864 17.553 5.61274C17.5729 6.93043 16.9173 8.49958 15.6358 10.2096Z" fill="#EB741E"/>
</g>
<defs>
<clipPath id="clip0_614_744">
<rect width="24" height="24" fill="white"/>
</clipPath>
</defs>
</svg>
