<svg width="24" height="24" viewBox="0 0 24 24" fill="none" xmlns="http://www.w3.org/2000/svg">
<g clip-path="url(#clip0_614_751)">
<path d="M23.8212 15.1119C23.4638 13.9053 22.59 12.9602 21.4183 12.5379C20.2565 12.1156 18.9458 12.2363 17.7046 12.8496C17.3967 12.3067 17.0095 11.8542 16.5527 11.4822C16.6719 11.3414 16.7811 11.1906 16.8506 11.08C18.3301 9.1194 19.0649 7.27943 19.0451 5.60033C19.0351 4.67532 18.8564 3.83075 18.5287 3.08672C18.4195 2.83536 18.3003 2.6041 18.1613 2.39296C17.3074 1.0155 15.8874 0.160869 14.2788 0.0402159C12.6007 -0.0904921 10.9127 0.603266 9.52251 1.95056C7.92384 0.221196 5.74924 -0.422289 3.68387 0.281523C1.40998 1.04566 -0.0298237 3.22748 -3.47443e-05 5.83159C0.0595432 11.1605 8.06285 16.982 9.6516 16.982C9.76083 16.982 9.88991 16.9518 10.0389 16.9015C10.9027 20.1592 13.7625 23.6984 14.7157 23.9598C14.7952 23.9799 14.8845 23.9899 14.9938 23.9899C16.1456 23.9899 18.8663 22.8136 20.753 21.4763C20.892 21.3858 21.0509 21.2652 21.1303 21.1948C22.5999 20.0788 23.5035 18.8823 23.8212 17.6657C24 17.0021 24.0496 16.3385 23.9503 15.6548C23.9205 15.4738 23.8808 15.2828 23.8212 15.1119ZM1.48941 5.81148C1.46956 3.87097 2.51217 2.26225 4.15057 1.70926C4.50803 1.5886 4.90522 1.51822 5.32227 1.51822C6.47411 1.51822 7.80468 2.04105 8.88702 3.52911C9.02603 3.71009 9.23455 3.83075 9.46294 3.83075C9.68139 3.83075 9.90977 3.74026 10.0587 3.56933C11.2304 2.17176 12.7298 1.43779 14.1795 1.53833C15.3115 1.61877 16.3045 2.22203 16.9102 3.19732C17.0095 3.35819 17.0889 3.51906 17.1684 3.70004C17.4166 4.25304 17.5457 4.90658 17.5556 5.61039C17.5755 6.92752 16.9201 8.49602 15.6293 10.2053C15.5498 10.336 15.4505 10.4566 15.3413 10.5873C13.5738 12.7893 11.3893 14.4583 10.307 15.142C10.2275 15.1722 10.158 15.2124 10.0984 15.2727C9.90977 15.3833 9.76083 15.4638 9.69132 15.4738C8.54941 15.2627 1.53906 10.0545 1.48941 5.81148ZM22.3814 17.2736C22.153 18.1684 21.4282 19.0733 20.177 20.0285C20.1075 20.0888 20.0182 20.1592 19.9189 20.2296C17.9528 21.6271 15.6988 22.4114 15.103 22.4918C14.4476 21.9891 11.9851 18.9627 11.3992 16.1977C12.6404 15.3934 14.2192 14.0762 15.5796 12.6083C16.0562 12.9703 16.4236 13.5031 16.6719 14.1667C16.7513 14.3779 16.9201 14.5488 17.1386 14.6192C17.357 14.6896 17.5953 14.6594 17.784 14.5287C18.8266 13.8148 19.9685 13.6037 20.9118 13.9455C21.6367 14.207 22.1729 14.7901 22.4013 15.5442C22.441 15.6749 22.4609 15.8056 22.4807 15.9062C22.5403 16.3385 22.5105 16.801 22.3814 17.2736Z" fill="#666666"/>
</g>
<defs>
<clipPath id="clip0_614_751">
<rect width="24" height="24" fill="white"/>
</clipPath>
</defs>
</svg>
