<svg width="12" height="25" viewBox="0 0 12 25" fill="none" xmlns="http://www.w3.org/2000/svg">
    <path
        d="M10.7 0.463596C9.58 -0.336404 8.01 -0.0764041 7.21 1.0536L0.46 10.5536C0.46 10.5536 0.44 10.5936 0.42 10.6236C0.37 10.7036 0.33 10.7836 0.28 10.8636C0.24 10.9336 0.21 10.9936 0.18 11.0636C0.15 11.1436 0.13 11.2136 0.1 11.2936C0.08 11.3736 0.05 11.4536 0.04 11.5336C0.03 11.6136 0.02 11.6836 0.01 11.7636C0 11.8436 0 11.9236 0 12.0036C0 12.0836 0 12.1636 0.02 12.2436C0.02 12.3236 0.03 12.4036 0.05 12.4736C0.07 12.5536 0.09 12.6336 0.11 12.7136C0.13 12.7936 0.16 12.8736 0.19 12.9436C0.22 13.0136 0.25 13.0836 0.29 13.1436C0.33 13.2236 0.37 13.3036 0.43 13.3836C0.44 13.4036 0.45 13.4236 0.47 13.4536L7.23 22.9536C7.72 23.6436 8.49 24.0036 9.27 24.0036C9.77 24.0036 10.28 23.8536 10.72 23.5436C11.85 22.7436 12.11 21.1836 11.31 20.0536L5.58 12.0036L11.29 3.9536C12.09 2.8336 11.83 1.2636 10.7 0.463596Z"
        fill="#2743A6" />
</svg>