<svg width="24" height="24" viewBox="0 0 24 24" fill="none" xmlns="http://www.w3.org/2000/svg">
<path d="M15.97 12.3975C16.1 12.3123 16.24 12.2366 16.37 12.142C18.16 10.8833 19.19 8.93375 19.19 6.77602C19.19 3.03785 15.98 0 12.03 0C8.08 0 4.87 3.03785 4.87 6.77602C4.87 9.11356 6.13 11.1767 8.03 12.3975C3.37 13.9495 0 18.1514 0 23.1009C0 23.3375 0.1 23.5741 0.28 23.735C0.46 23.8959 0.7 24 0.95 24H12H23.05C23.58 24 24 23.5931 24 23.1009C24 18.1609 20.64 13.9495 15.97 12.3975ZM6.78 6.77602C6.78 4.03155 9.14 1.80757 12.03 1.80757C14.92 1.80757 17.28 4.04101 17.28 6.77602C17.28 8.35647 16.53 9.78549 15.2 10.7224C14.33 11.3943 13.23 11.7539 12.03 11.7539C9.13 11.7539 6.78 9.5205 6.78 6.78549V6.77602ZM12 22.2019H1.95C2.43 17.3565 6.75 13.552 12 13.552C17.25 13.552 21.57 17.3565 22.05 22.2019H12Z" fill="#FAFAFA"/>
</svg>
