<svg width="24" height="26" viewBox="0 0 24 26" fill="none" xmlns="http://www.w3.org/2000/svg">
<path d="M20.9918 2.75112H19.6259C19.2191 1.17213 17.7951 0 16.0902 0C14.3852 0 12.9613 1.17213 12.5544 2.75112H10.9851C10.5782 1.17213 9.15425 0 7.44933 0C5.74441 0 4.32042 1.17213 3.91356 2.75112H2.27645C1.02683 2.75112 0 3.76826 0 5.02757V23.7235C0 24.9732 1.01714 26 2.27645 26H20.9821C22.2317 26 23.2586 24.9829 23.2586 23.7235V5.01788C23.2586 3.76826 22.2414 2.74143 20.9821 2.74143L20.9918 2.75112ZM16.0902 1.84054C16.7683 1.84054 17.3495 2.20864 17.6692 2.75112H14.5209C14.8405 2.20864 15.4218 1.84054 16.0999 1.84054H16.0902ZM7.45902 1.84054C8.13711 1.84054 8.71833 2.20864 9.038 2.75112H5.88972C6.20939 2.20864 6.79061 1.84054 7.4687 1.84054H7.45902ZM2.29583 4.59165H9.038C8.71833 5.13413 8.13711 5.50224 7.45902 5.50224C6.95529 5.50224 6.53875 5.90909 6.53875 6.4225C6.53875 6.93592 6.9456 7.34277 7.45902 7.34277C9.16393 7.34277 10.5879 6.17064 10.9948 4.59165H17.6692C17.3495 5.13413 16.7683 5.50224 16.0902 5.50224C15.5864 5.50224 15.1699 5.90909 15.1699 6.4225C15.1699 6.93592 15.5768 7.34277 16.0902 7.34277C17.7951 7.34277 19.2191 6.17064 19.6259 4.59165H20.9918C21.234 4.59165 21.4277 4.7854 21.4277 5.02757V8.30179H1.85022V5.02757C1.85022 4.7854 2.04396 4.59165 2.28614 4.59165H2.29583ZM21.0015 24.1595H2.29583C2.05365 24.1595 1.85991 23.9657 1.85991 23.7235V10.1423H21.4374V23.7235C21.4374 23.9657 21.2437 24.1595 21.0015 24.1595Z" fill="#FAFAFA"/>
<path d="M18.5797 15.7705H4.70787C4.20414 15.7705 3.7876 16.1773 3.7876 16.6908C3.7876 17.2042 4.19445 17.611 4.70787 17.611H18.5797C19.0834 17.611 19.5 17.2042 19.5 16.6908C19.5 16.1773 19.0931 15.7705 18.5797 15.7705Z" fill="#FAFAFA"/>
</svg>
