<svg width="25" height="25" viewBox="0 0 25 25" fill="none" xmlns="http://www.w3.org/2000/svg">
<path d="M15.545 12.005L23.275 4.275C24.255 3.295 24.255 1.715 23.275 0.735C22.295 -0.245 20.715 -0.245 19.735 0.735L12.005 8.465L4.27499 0.735C3.29499 -0.245 1.715 -0.245 0.735 0.735C-0.245 1.715 -0.245 3.295 0.735 4.275L8.465 12.005L0.735 19.735C-0.245 20.715 -0.245 22.295 0.735 23.275C1.225 23.765 1.865 24.005 2.505 24.005C3.145 24.005 3.78499 23.765 4.27499 23.275L12.005 15.545L19.735 23.275C20.225 23.765 20.865 24.005 21.505 24.005C22.145 24.005 22.785 23.765 23.275 23.275C24.255 22.295 24.255 20.715 23.275 19.735L15.545 12.005Z" fill="#B5B5B5"/>
</svg>
