<svg width="14" height="14" viewBox="0 0 14 14" fill="none" xmlns="http://www.w3.org/2000/svg">
<path d="M9.06414 7.00146L13.5714 2.49323C14.1429 1.92168 14.1429 1.00021 13.5714 0.428661C13 -0.142887 12.0787 -0.142887 11.5073 0.428661L7 4.93689L2.49271 0.428661C1.92128 -0.142887 1 -0.142887 0.428572 0.428661C-0.142857 1.00021 -0.142857 1.92168 0.428572 2.49323L4.93586 7.00146L0.428572 11.5097C-0.142857 12.0812 -0.142857 13.0027 0.428572 13.5743C0.714286 13.86 1.08747 14 1.46064 14C1.83382 14 2.20699 13.86 2.49271 13.5743L7 9.06603L11.5073 13.5743C11.793 13.86 12.1662 14 12.5394 14C12.9125 14 13.2857 13.86 13.5714 13.5743C14.1429 13.0027 14.1429 12.0812 13.5714 11.5097L9.06414 7.00146Z" fill="#666666"/>
</svg>
