<svg width="21" height="25" viewBox="0 0 21 25" fill="none" xmlns="http://www.w3.org/2000/svg">
<path d="M18.6717 9.60209L17.1417 8.06209C16.7617 7.70209 16.5317 7.17209 16.5317 6.62209V4.43209C16.5317 4.13209 16.2917 3.88209 15.9917 3.88209H13.8017C13.2517 3.88209 12.7217 3.66209 12.3417 3.27209L10.8117 1.74209C10.6117 1.53209 10.2417 1.54209 10.0417 1.74209L8.49172 3.28209C8.13172 3.66209 7.59172 3.88209 7.04172 3.88209H4.86172C4.56172 3.88209 4.32172 4.13209 4.32172 4.43209V6.62209C4.32172 7.15209 4.10172 7.68209 3.71172 8.06209L2.17172 9.60209C2.07172 9.71209 2.01172 9.85209 2.01172 10.0021C2.01172 10.1421 2.07172 10.2721 2.17172 10.3721L3.72172 11.9321C4.10172 12.3121 4.32172 12.8421 4.32172 13.3721V15.5621C4.32172 15.8621 4.55172 16.1021 4.86172 16.1021H7.04172C7.58172 16.1021 8.11172 16.3221 8.49172 16.7021L10.0417 18.2421C10.2517 18.4621 10.6017 18.4521 10.8117 18.2521L12.3517 16.7021C12.7417 16.3221 13.2617 16.1021 13.8017 16.1021H15.9917C16.2917 16.1021 16.5317 15.8621 16.5317 15.5621V13.3721C16.5317 12.8221 16.7617 12.2921 17.1517 11.9221L18.6817 10.3821C18.8917 10.1621 18.8917 9.82209 18.6817 9.60209H18.6717ZM15.1517 9.05209L13.7317 11.0221V13.4621C13.7217 13.7021 13.6117 13.9221 13.4217 14.0621C13.2917 14.1621 13.1317 14.2121 12.9717 14.2121C12.9017 14.2121 12.8217 14.1921 12.7517 14.1721L10.4317 13.4321L8.11172 14.1721C7.88172 14.2421 7.63172 14.2021 7.44172 14.0621C7.24172 13.9221 7.13172 13.7021 7.13172 13.4621V11.0221L5.70172 9.05209C5.56172 8.86209 5.52172 8.61209 5.59172 8.38209C5.67172 8.15209 5.84172 7.97209 6.07172 7.90209L8.38172 7.14209L9.82172 5.18209C10.1017 4.79209 10.7517 4.79209 11.0317 5.18209L12.4717 7.14209L14.7817 7.90209C15.0117 7.97209 15.1817 8.15209 15.2617 8.38209C15.3317 8.61209 15.2917 8.86209 15.1517 9.05209Z" fill="#FDD278"/>
<path d="M13.3417 9.00209L12.3817 10.3421C12.2817 10.4621 12.2317 10.6221 12.2317 10.7721V12.4321L10.6517 11.9321C10.5817 11.9021 10.5017 11.8921 10.4317 11.8921C10.3517 11.8921 10.2717 11.9021 10.2017 11.9321L8.62172 12.4321V10.7721C8.62172 10.6221 8.57172 10.4621 8.48172 10.3421L7.51172 9.00209L9.08172 8.49209C9.23172 8.44209 9.36172 8.34209 9.45172 8.22209L10.4317 6.89209L11.4017 8.22209C11.5017 8.35209 11.6217 8.44209 11.7717 8.49209L13.3417 9.00209Z" fill="#FCB41E"/>
<path d="M13.7019 17.6221V22.3621L10.6219 21.5121C10.4919 21.4821 10.3619 21.4821 10.2319 21.5121L7.15186 22.3621V17.6221C7.25186 17.6521 7.35186 17.7021 7.43186 17.7721L8.97186 19.3121C9.36186 19.7021 9.88186 19.9221 10.4319 19.9221C10.9819 19.9221 11.4919 19.7021 11.8719 19.3121L13.4119 17.7721C13.4919 17.7021 13.5919 17.6421 13.7019 17.6221Z" fill="#2A3186"/>
<path d="M19.7417 8.54208L18.1917 6.99208C18.0917 6.90208 18.0317 6.77208 18.0317 6.62208V4.43208C18.0317 3.30208 17.1217 2.38208 15.9917 2.38208H13.8017C13.6517 2.38208 13.5217 2.33208 13.4117 2.22208L11.8717 0.682084C11.1017 -0.0879163 9.75172 -0.0879163 8.98172 0.682084L7.42172 2.23208C7.32172 2.33208 7.19172 2.38208 7.04172 2.38208H4.86172C3.73172 2.38208 2.82172 3.30208 2.82172 4.43208V6.62208C2.82172 6.76208 2.76172 6.90208 2.65172 7.00208L1.11172 8.54208C0.721719 8.94208 0.511719 9.46208 0.511719 10.0021C0.511719 10.5421 0.731719 11.0621 1.11172 11.4421L2.65172 12.9921C2.76172 13.0921 2.82172 13.2321 2.82172 13.3721V15.5621C2.82172 16.6921 3.73172 17.6021 4.86172 17.6021H5.65172V23.3421C5.65172 23.5721 5.76172 23.7921 5.94172 23.9321C6.13172 24.0721 6.37172 24.1221 6.60172 24.0621L10.4317 23.0121L14.2617 24.0621C14.3217 24.0821 14.3917 24.0921 14.4517 24.0921C14.6217 24.0921 14.7817 24.0321 14.9117 23.9321C15.1017 23.7921 15.2017 23.5721 15.2017 23.3421V17.6021H15.9917C17.1217 17.6021 18.0317 16.6921 18.0317 15.5621V13.3721C18.0317 13.2321 18.0917 13.0921 18.2017 12.9921L19.7417 11.4421C20.5317 10.6521 20.5317 9.35208 19.7417 8.54208ZM13.7017 22.3621L10.6217 21.5121C10.4917 21.4821 10.3617 21.4821 10.2317 21.5121L7.15172 22.3621V17.6221C7.25172 17.6521 7.35172 17.7021 7.43172 17.7721L8.97172 19.3121C9.36172 19.7021 9.88172 19.9221 10.4317 19.9221C10.9817 19.9221 11.4917 19.7021 11.8717 19.3121L13.4117 17.7721C13.4917 17.7021 13.5917 17.6421 13.7017 17.6221V22.3621ZM18.6817 10.3821L17.1517 11.9221C16.7617 12.2921 16.5317 12.8221 16.5317 13.3721V15.5621C16.5317 15.8621 16.2917 16.1021 15.9917 16.1021H13.8017C13.2617 16.1021 12.7417 16.3221 12.3517 16.7021L10.8117 18.2521C10.6017 18.4521 10.2517 18.4621 10.0417 18.2421L8.49172 16.7021C8.11172 16.3221 7.58172 16.1021 7.04172 16.1021H4.86172C4.55172 16.1021 4.32172 15.8621 4.32172 15.5621V13.3721C4.32172 12.8421 4.10172 12.3121 3.72172 11.9321L2.17172 10.3721C2.07172 10.2721 2.01172 10.1421 2.01172 10.0021C2.01172 9.85208 2.07172 9.71208 2.17172 9.60208L3.71172 8.06208C4.10172 7.68208 4.32172 7.15208 4.32172 6.62208V4.43208C4.32172 4.13208 4.56172 3.88208 4.86172 3.88208H7.04172C7.59172 3.88208 8.13172 3.66208 8.49172 3.28208L10.0417 1.74208C10.2417 1.54208 10.6117 1.53208 10.8117 1.74208L12.3417 3.27208C12.7217 3.66208 13.2517 3.88208 13.8017 3.88208H15.9917C16.2917 3.88208 16.5317 4.13208 16.5317 4.43208V6.62208C16.5317 7.17208 16.7617 7.70208 17.1417 8.06208L18.6717 9.60208C18.8917 9.82208 18.8917 10.1621 18.6717 10.3821H18.6817Z" fill="#666666"/>
<path d="M15.2618 8.38209C15.1818 8.15209 15.0118 7.97209 14.7818 7.90209L12.4718 7.14209L11.0318 5.18209C10.7518 4.79209 10.1018 4.79209 9.82184 5.18209L8.38184 7.14209L6.07184 7.90209C5.84184 7.97209 5.67184 8.15209 5.59184 8.38209C5.52184 8.61209 5.56184 8.86209 5.70184 9.05209L7.12184 11.0221V13.4621C7.13184 13.7021 7.24184 13.9221 7.44184 14.0621C7.63184 14.2021 7.88184 14.2421 8.11184 14.1721L10.4318 13.4321L12.7518 14.1721C12.8218 14.1921 12.9018 14.2121 12.9718 14.2121C13.1318 14.2121 13.2918 14.1621 13.4218 14.0621C13.6118 13.9221 13.7218 13.7021 13.7218 13.4621V11.0221L15.1518 9.05209C15.2918 8.86209 15.3318 8.61209 15.2618 8.38209ZM12.3818 10.3421C12.2818 10.4621 12.2318 10.6221 12.2318 10.7721V12.4321L10.6518 11.9321C10.5818 11.9021 10.5018 11.8921 10.4318 11.8921C10.3518 11.8921 10.2718 11.9021 10.2018 11.9321L8.62184 12.4321V10.7721C8.62184 10.6221 8.57184 10.4621 8.48184 10.3421L7.51184 9.00209L9.08184 8.49209C9.23184 8.44209 9.36184 8.34209 9.45184 8.22209L10.4318 6.89209L11.4018 8.22209C11.5018 8.35209 11.6218 8.44209 11.7718 8.49209L13.3418 9.00209L12.3818 10.3421Z" fill="#666666"/>
</svg>
