<svg width="32" height="29" viewBox="0 0 32 29" fill="none" xmlns="http://www.w3.org/2000/svg">
<g clip-path="url(#clip0_412_151)">
<path d="M16.35 8.83C16.48 8.74 16.73 8.59 17.05 8.39L10.34 0H3.62999C0.819986 0.02 -0.920015 3.08 0.519985 5.5L5.46999 13.84L9.32999 13.69L16.35 8.83Z" fill="white"/>
<path d="M18.78 11.34C18.39 11.56 18.09 11.73 17.91 11.82L10.61 15.33L8.47998 18.91L13.37 27.14C14.81 29.56 18.33 29.5 19.68 27.03L22.9 21.14L18.78 11.34Z" fill="white"/>
<path d="M27.35 2.38C28.76 1.69 30.05 1.19 30.96 1.09C30.31 0.42 29.41 0 28.36 0L15.26 0.03L21.8 5.56C23.67 4.47 26.86 2.62 27.35 2.38Z" fill="white"/>
<path d="M23.52 8.54L25.25 16.82L31.54 5.33C32.01 4.47 32.09 3.53 31.87 2.69C31.38 3.37 30.45 4.16 29.25 5.01C28.73 5.38 25.46 7.36 23.5 8.53L23.52 8.54Z" fill="white"/>
</g>
<defs>
<clipPath id="clip0_412_151">
<rect width="32" height="28.91" fill="white"/>
</clipPath>
</defs>
</svg>
