<svg width="24" height="24" viewBox="0 0 24 24" fill="none" xmlns="http://www.w3.org/2000/svg">
    <g clip-path="url(#clip0_3189_395)">
        <path
            d="M12 2C14.82 2 17.15 2.95 19.1 4.9C21.05 6.85 22 9.17 22 12C22 14.83 21.05 17.14 19.08 19.09C17.11 21.04 14.8 22 12.01 22C9.22 22 6.9 21.04 4.93 19.07C2.96 17.1 2 14.77 2 11.97C2 9.17 2.96 6.91 4.93 4.93C6.9 2.96 9.22 2 12 2ZM12 0C8.69 0 5.86 1.17 3.52 3.52C1.18 5.87 0 8.68 0 11.97C0 15.26 1.17 18.14 3.52 20.48C5.87 22.82 8.7 24 12.01 24C15.32 24 18.15 22.84 20.49 20.51C22.83 18.19 24 15.35 24 12C24 8.65 22.84 5.81 20.51 3.49C18.19 1.16 15.35 0 12 0Z"
            fill="#ED2630" />
        <path
            d="M13.4744 12.001L16.6939 8.78088C17.102 8.37263 17.102 7.71443 16.6939 7.30619C16.2857 6.89794 15.6277 6.89794 15.2195 7.30619L12 10.5263L8.78051 7.30619C8.37234 6.89794 7.71429 6.89794 7.30612 7.30619C6.89796 7.71443 6.89796 8.37263 7.30612 8.78088L10.5256 12.001L7.30612 15.2212C6.89796 15.6295 6.89796 16.2876 7.30612 16.6959C7.5102 16.9 7.77676 17 8.04332 17C8.30987 17 8.57642 16.9 8.78051 16.6959L12 13.4757L15.2195 16.6959C15.4236 16.9 15.6901 17 15.9567 17C16.2232 17 16.4898 16.9 16.6939 16.6959C17.102 16.2876 17.102 15.6295 16.6939 15.2212L13.4744 12.001Z"
            fill="#ED2630" />
    </g>
    <defs>
        <clipPath id="clip0_3189_395">
            <rect width="24" height="24" fill="white" />
        </clipPath>
    </defs>
</svg>