<svg width="24" height="24" viewBox="0 0 24 24" fill="none" xmlns="http://www.w3.org/2000/svg">
<path d="M23.99 13.7647C23.99 12.6296 23.6102 11.6089 23.0004 10.8076V3.61526C23.0004 1.31638 21.651 0 19.292 0H4.69804C2.33903 0 0.979592 1.31638 0.979592 3.61526V10.8267C0.379842 11.6184 0 12.6391 0 13.7647V19.3259C0 19.3259 0 19.3355 0 19.345V23.0938C0 23.5898 0.419825 24 0.949604 24C1.47938 24 1.89921 23.5994 1.89921 23.0938V20.2512H22.1008V23.0938C22.1008 23.5898 22.5206 24 23.0504 24C23.5802 24 24 23.5994 24 23.0938V19.3641C24 19.3641 24 19.3641 24 19.345V13.7647H23.99ZM1.89921 13.7647C1.89921 12.2385 2.8688 10.9984 4.0683 10.9984H19.9217C20.4815 10.9984 20.9913 11.275 21.3811 11.7234C21.8209 12.2289 22.0908 12.9539 22.0908 13.7552V14.6804H1.89921V13.7552V13.7647ZM17.0329 9.19555H6.9671V7.60254C6.9671 6.98251 7.48688 6.48649 8.13661 6.48649H15.8634C16.5131 6.48649 17.0329 6.98251 17.0329 7.60254V9.19555ZM4.69804 1.80286H19.292C20.6114 1.80286 21.1112 2.28935 21.1112 3.60572V9.40541C20.7314 9.27186 20.3415 9.18601 19.9317 9.18601H18.9321V7.593C18.9321 5.98092 17.5627 4.67409 15.8734 4.67409H8.14661C6.45731 4.67409 5.08788 5.99046 5.08788 7.593V9.18601H4.0783C3.65848 9.18601 3.26864 9.2814 2.8888 9.41494V3.61526C2.8888 2.29889 3.37859 1.8124 4.70804 1.8124L4.69804 1.80286ZM1.89921 16.4928H22.1008V18.4293H1.89921V16.4928Z" fill="#FAFAFA"/>
</svg>
