<svg width="24" height="24" viewBox="0 0 24 24" fill="none" xmlns="http://www.w3.org/2000/svg">
<path d="M9.99117 4.70999C12.9112 4.70999 15.2812 7.07999 15.2812 9.99999C15.2812 12.92 12.9112 15.29 9.99117 15.29C7.07117 15.29 4.70117 12.92 4.70117 9.99999C4.70117 7.07999 7.07117 4.70999 9.99117 4.70999ZM9.99117 3.20999C6.24117 3.20999 3.20117 6.25999 3.20117 9.99999C3.20117 13.74 6.25117 16.79 9.99117 16.79C13.7312 16.79 16.7812 13.74 16.7812 9.99999C16.7812 6.25999 13.7312 3.20999 9.99117 3.20999Z" fill="#FAFAFA"/>
<path d="M23.7712 22.72L17.5712 16.52C19.0812 14.77 19.9912 12.5 19.9912 10C19.9912 4.48 15.5112 0 9.99121 0C4.47121 0 -0.00878906 4.48 -0.00878906 10C-0.00878906 15.52 4.47121 20 9.99121 20C12.4812 20 14.7512 19.08 16.5112 17.58L22.7112 23.78C22.8612 23.93 23.0512 24 23.2412 24C23.4312 24 23.6212 23.93 23.7712 23.78C24.0612 23.49 24.0612 23.01 23.7712 22.72ZM1.49121 10C1.49121 5.31 5.30121 1.5 9.99121 1.5C14.6812 1.5 18.4912 5.31 18.4912 10C18.4912 12.31 17.5612 14.4 16.0612 15.93C16.0312 15.95 16.0012 15.96 15.9712 15.99C15.9412 16.02 15.9312 16.05 15.9112 16.07C14.3812 17.57 12.2812 18.49 9.98121 18.49C5.29121 18.49 1.48121 14.68 1.48121 9.99L1.49121 10Z" fill="#FAFAFA"/>
</svg>
