<svg width="14" height="8" viewBox="0 0 14 8" fill="none" xmlns="http://www.w3.org/2000/svg">
<path d="M13.3856 4.79532L7.84558 0.774043C7.84558 0.774043 7.81642 0.762128 7.80476 0.750213C7.75811 0.720426 7.71729 0.696596 7.67063 0.672766C7.62981 0.648936 7.58899 0.631064 7.54817 0.613191C7.50735 0.595319 7.4607 0.583404 7.41404 0.565532C7.36739 0.553617 7.32074 0.535745 7.27408 0.529787C7.22743 0.52383 7.18661 0.517872 7.13996 0.511915C7.09331 0.511915 7.04665 0.5 7 0.5C6.95335 0.5 6.90669 0.5 6.86004 0.511915C6.81339 0.511915 6.77257 0.517872 6.72592 0.529787C6.67926 0.541702 6.63261 0.553617 6.58596 0.565532C6.5393 0.577447 6.49848 0.589362 6.45183 0.607234C6.41101 0.625106 6.37019 0.648936 6.32937 0.666809C6.28271 0.690638 6.23606 0.714468 6.19524 0.744255C6.18358 0.750213 6.16608 0.75617 6.15442 0.768085L0.614413 4.79532C-0.0445557 5.27191 -0.196177 6.20128 0.27035 6.87447C0.556098 7.28553 1.00513 7.5 1.45999 7.5C1.75157 7.5 2.04898 7.41064 2.30557 7.22596L7 3.81234L11.6944 7.22596C11.951 7.41064 12.2484 7.5 12.54 7.5C12.9949 7.5 13.4439 7.27957 13.7296 6.87447C14.1962 6.20723 14.0446 5.27191 13.3856 4.79532Z" fill="#B5B5B5"/>
</svg>
