<svg width="1083" height="8" viewBox="0 0 1083 8" fill="none" xmlns="http://www.w3.org/2000/svg">
<path d="M1615.67 0.0100098H-367.8V8.01001H1615.67V0.0100098Z" fill="#2743A6"/>
<path d="M114.69 0.0100098H110.289C107.428 2.64001 104.246 5.27001 100.816 8.01001H105.64C108.905 5.34001 111.952 2.71001 114.69 0.0100098Z" fill="#7B8CC9"/>
<path d="M35.6918 0.0100098C33.2848 2.42001 30.7951 5.08001 28.3364 8.01001H32.3757C34.9687 5.06001 37.5616 2.40001 40.0307 0.0100098H35.6918Z" fill="#7B8CC9"/>
<path d="M91.4044 6.70001V0.0100098H88.3052V6.70001C88.3052 7.27001 88.6358 7.75001 89.111 8.01001H90.5986C91.0738 7.76001 91.4044 7.27001 91.4044 6.70001Z" fill="#7B8CC9"/>
<path d="M69.4107 5.98001C71.7351 4.32001 74.5553 2.29001 77.4996 0.0100098H72.4789C70.6711 1.35001 68.9975 2.55001 67.5719 3.57001L65.888 4.77001C64.4211 5.81001 62.9128 6.89001 61.3735 8.01001H66.5698C66.9624 7.73001 67.3446 7.46001 67.7268 7.18001L69.4107 5.98001Z" fill="#7B8CC9"/>
<path d="M146.777 0.0100098C145.258 2.81001 143.615 5.47001 141.88 8.01001H145.599C147.252 5.47001 148.822 2.80001 150.268 0.0100098H146.766H146.777Z" fill="#7B8CC9"/>
<path d="M510.95 8.01001C511.869 5.28001 512.789 2.62001 513.698 0.0100098H510.433C509.524 2.62001 508.605 5.27001 507.696 8.01001H510.96H510.95Z" fill="#7B8CC9"/>
<path d="M719.576 8.01001C722.841 5.34001 725.888 2.71001 728.626 0.0100098H724.225C721.363 2.64001 718.182 5.27001 714.762 8.01001H719.587H719.576Z" fill="#7B8CC9"/>
<path d="M345.733 5.05001C345.392 6.17001 343.14 7.13001 339.834 8.01001H347.241C347.965 7.39001 348.461 6.70001 348.698 5.91001C349.38 3.69001 347.903 1.59001 346.353 0.0100098H341.084C342.004 0.38001 342.779 0.82001 343.337 1.33001C345.093 2.94001 345.971 4.30001 345.733 5.06001V5.05001Z" fill="#7B8CC9"/>
<path d="M281.126 2.52001C277.438 3.93001 273.543 5.82001 269.865 8.01001H276.146C278.243 6.96001 280.351 6.03001 282.417 5.25001C282.469 5.23001 282.52 5.21001 282.572 5.18001C287.768 3.24001 296.301 1.33001 305.382 0.0100098H289.483C286.219 0.81001 283.409 1.65001 281.291 2.45001C281.239 2.47001 281.188 2.49001 281.136 2.52001H281.126Z" fill="#7B8CC9"/>
<path d="M258.161 3.66997C258.171 3.26997 258.006 2.88997 257.717 2.60997C257.138 2.03997 256.116 2.02997 255.527 2.58997C253.74 4.29997 252.056 6.11997 250.475 7.99997H254.514C255.537 6.86997 256.601 5.77997 257.707 4.71997C257.996 4.43997 258.161 4.05997 258.161 3.65997V3.66997Z" fill="#7B8CC9"/>
<path d="M382.872 0.90001C384.153 3.18001 384.835 5.57001 384.907 8.01001H388.006C387.944 5.26001 387.221 2.58001 385.878 0.0100098H382.717C382.676 0.31001 382.717 0.62001 382.861 0.90001H382.872Z" fill="#7B8CC9"/>
<path d="M195.599 0.0100098L187.334 8.01001H192.407L200.682 0.0100098H195.599Z" fill="#7B8CC9"/>
<path d="M207.613 0.0100098L215.878 8.01001H220.971L212.706 0.0100098H207.613Z" fill="#7B8CC9"/>
<path d="M184.411 0.0100098L176.993 7.18001C176.725 7.44001 176.498 7.71001 176.291 8.01001H181.281L189.556 0.0100098H184.411Z" fill="#7B8CC9"/>
<path d="M224.204 0.0100098H219.06L227.334 8.01001H232.2C231.952 7.62001 231.683 7.25001 231.343 6.91001L224.204 0.0100098Z" fill="#7B8CC9"/>
<path d="M646.312 8.01001C648.905 5.06001 651.498 2.40001 653.967 0.0100098H649.628C647.221 2.42001 644.731 5.08001 642.272 8.01001H646.312Z" fill="#7B8CC9"/>
<path d="M556.085 8.01001C555.806 5.46001 555.61 2.77001 555.506 0.0100098H552.428C552.531 2.77001 552.717 5.45001 552.986 8.01001H556.085Z" fill="#7B8CC9"/>
<path d="M703.058 8.01001H704.545C705.021 7.76001 705.351 7.27001 705.351 6.70001V0.0100098H702.252V6.70001C702.252 7.27001 702.582 7.75001 703.058 8.01001Z" fill="#7B8CC9"/>
<path d="M531.012 8.01001C531.89 5.21001 533.254 2.59001 534.824 0.0100098H531.26C529.814 2.53001 528.564 5.16001 527.769 8.01001H531.002H531.012Z" fill="#7B8CC9"/>
<path d="M679.835 4.77001C678.368 5.81001 676.86 6.89001 675.32 8.01001H680.517C680.909 7.73001 681.291 7.45001 681.684 7.18001L683.368 5.98001C685.692 4.32001 688.512 2.29001 691.457 0.0100098H686.436C684.628 1.35001 682.955 2.55001 681.529 3.57001L679.855 4.77001H679.835Z" fill="#7B8CC9"/>
<path d="M478.585 8.01001C479.835 5.37001 480.909 2.71001 481.818 0.0100098H478.533C477.582 2.71001 476.467 5.38001 475.155 8.01001H478.585Z" fill="#7B8CC9"/>
<path d="M759.545 8.01001C761.198 5.47001 762.768 2.80001 764.215 0.0100098H760.713C759.194 2.81001 757.551 5.47001 755.816 8.01001H759.535H759.545Z" fill="#7B8CC9"/>
<path d="M447.799 4.34001C448.057 4.50001 448.347 4.58001 448.646 4.58001C449.173 4.58001 449.659 4.33001 449.948 3.90001C450.795 2.65001 451.621 1.34001 452.417 0.0100098H448.811C448.336 0.78001 447.851 1.53001 447.355 2.27001C446.89 2.96001 447.086 3.90001 447.799 4.35001V4.34001Z" fill="#7B8CC9"/>
<path d="M895.073 2.52001C891.385 3.93001 887.49 5.82001 883.812 8.01001H890.093C892.191 6.96001 894.298 6.03001 896.364 5.25001C896.416 5.23001 896.467 5.21001 896.519 5.18001C901.715 3.24001 910.238 1.33001 919.329 0.0100098H903.43C900.166 0.81001 897.356 1.65001 895.238 2.45001C895.186 2.47001 895.135 2.49001 895.083 2.52001H895.073Z" fill="#7B8CC9"/>
<path d="M959.679 5.05001C959.338 6.17001 957.086 7.13001 953.78 8.01001H961.187C961.91 7.39001 962.406 6.70001 962.644 5.91001C963.326 3.69001 961.848 1.59001 960.299 0.0100098H955.03C955.95 0.38001 956.724 0.82001 957.272 1.33001C959.028 2.94001 959.906 4.30001 959.669 5.06001L959.679 5.05001Z" fill="#7B8CC9"/>
<path d="M996.818 0.90001C998.099 3.18001 998.781 5.57001 998.853 8.01001H1001.95C1001.89 5.26001 1001.17 2.58001 999.824 0.0100098H996.642C996.611 0.31001 996.663 0.61001 996.818 0.90001Z" fill="#7B8CC9"/>
<path d="M872.097 3.67003C872.097 3.27003 871.942 2.89003 871.653 2.61003C871.074 2.04003 870.052 2.03003 869.463 2.61003C867.686 4.31003 865.992 6.12003 864.411 8.01003H868.45C869.473 6.88003 870.537 5.78003 871.643 4.73003C871.932 4.45003 872.097 4.07003 872.097 3.67003Z" fill="#7B8CC9"/>
<path d="M834.918 8.01001L826.653 0.0100098H821.55L829.814 8.01001H834.918Z" fill="#7B8CC9"/>
<path d="M790.227 8.01001H795.217L803.492 0.0100098H798.347L790.93 7.18001C790.661 7.44001 790.434 7.71001 790.227 8.01001Z" fill="#7B8CC9"/>
<path d="M846.137 8.01001C845.889 7.62001 845.62 7.25001 845.279 6.91001L838.141 0.0100098H832.996L841.271 8.01001H846.137Z" fill="#7B8CC9"/>
<path d="M806.353 8.01001L814.628 0.0100098H809.545L801.271 8.01001H806.353Z" fill="#7B8CC9"/>
<path d="M407.242 8.01001H412.366L410.093 5.81001L416.095 0.0100098H410.992L407.551 3.35001L404.101 0.0100098H398.977L406.239 7.03001L407.242 8.01001Z" fill="#7B8CC9"/>
<path d="M421.415 8.01001L429.68 0.0100098H424.617L416.353 8.01001H421.415Z" fill="#7B8CC9"/>
<path d="M570.299 3.23001C570.299 5.71001 572.376 7.73001 574.948 7.73001C577.52 7.73001 579.597 5.72001 579.597 3.23001C579.597 1.97001 579.06 0.83001 578.192 0.0100098H571.715C570.847 0.83001 570.31 1.96001 570.31 3.23001H570.299Z" fill="#7B8CC9"/>
<path d="M604.948 4.53003C603.233 4.53003 601.849 5.87003 601.849 7.53003C601.849 7.69003 601.87 7.85003 601.901 8.01003H607.996C608.027 7.85003 608.047 7.70003 608.047 7.53003C608.047 5.87003 606.663 4.53003 604.948 4.53003Z" fill="#7B8CC9"/>
<path d="M1061.06 3.40002C1061.15 3.79002 1061.38 4.13002 1061.74 4.35002C1061.98 4.51002 1062.27 4.59002 1062.57 4.59002C1063.1 4.59002 1063.58 4.34002 1063.87 3.91002C1064.72 2.65002 1065.55 1.35002 1066.35 0.0200195H1062.75C1062.27 0.79002 1061.79 1.54002 1061.29 2.28002C1061.06 2.62002 1060.98 3.02002 1061.07 3.41002L1061.06 3.40002Z" fill="#7B8CC9"/>
<path d="M1021.19 8.01001H1026.31L1024.04 5.81001L1030.03 0.0100098H1024.94L1021.49 3.35001L1018.05 0.0100098H1012.92L1020.18 7.03001L1021.19 8.01001Z" fill="#7B8CC9"/>
<path d="M1035.35 8.01001L1043.61 0.0100098H1038.56L1030.3 8.01001H1035.35Z" fill="#7B8CC9"/>
</svg>
