<svg width="265" height="29" viewBox="0 0 265 29" fill="none" xmlns="http://www.w3.org/2000/svg">
<path d="M44.7939 0H3.40733C1.69433 0 0.305664 1.34315 0.305664 3V26C0.305664 27.6569 1.69433 29 3.40733 29H44.7939C46.5069 29 47.8956 27.6569 47.8956 26V3C47.8956 1.34315 46.5069 0 44.7939 0Z" fill="#1B1464"/>
<path d="M31.7359 20.63C32.1184 19.75 32.47 18.93 32.8215 18.12C34.0622 15.27 35.2925 12.41 36.5332 9.56C36.9364 8.62 37.3189 8.38 38.3735 8.38C39.0869 8.38 39.8002 8.38 40.5136 8.38C40.7411 8.38 40.8858 8.41 40.9375 8.67C41.7646 12.56 42.6124 16.46 43.4499 20.35C43.4706 20.42 43.4602 20.5 43.4809 20.63C42.5297 20.63 41.5889 20.63 40.648 20.62C40.555 20.62 40.4206 20.45 40.3896 20.33C40.2655 19.85 40.1724 19.37 40.0587 18.82C39.8313 18.82 39.6038 18.82 39.3764 18.82C38.3838 18.82 37.3913 18.84 36.3987 18.82C36.0162 18.82 35.7991 18.9 35.706 19.28C35.613 19.66 35.4579 20.02 35.2925 20.37C35.2408 20.49 35.065 20.62 34.941 20.63C33.9071 20.65 32.8732 20.64 31.7359 20.64V20.63ZM39.4901 16.26C39.1696 14.77 38.8594 13.35 38.5492 11.93C38.5182 11.93 38.4872 11.93 38.4562 11.93C37.9186 13.36 37.3809 14.79 36.8433 16.26H39.4901Z" fill="white"/>
<path d="M18.3987 8.38C18.3264 8.57 18.2747 8.71 18.223 8.84C16.5791 12.63 14.9352 16.42 13.3017 20.22C13.1672 20.53 13.0225 20.65 12.6606 20.64C11.6578 20.61 10.6549 20.64 9.63135 20.64C9.17644 18.94 8.73186 17.28 8.28729 15.62C7.87373 14.09 7.44984 12.56 7.0673 11.01C6.89154 10.3 6.49866 9.83 5.79562 9.6C4.99952 9.35 4.20343 9.11 3.41767 8.86C3.30394 8.82 3.19022 8.79 3.00412 8.63C3.12818 8.55 3.25225 8.39 3.37632 8.39C5.17528 8.38 6.96391 8.37 8.76288 8.39C9.47626 8.39 10.0139 8.86 10.169 9.6C10.5205 11.3 10.8513 13.01 11.1822 14.71C11.2959 15.3 11.4096 15.88 11.5544 16.61C11.6784 16.34 11.7508 16.19 11.8129 16.04C12.8054 13.62 13.7979 11.2 14.7698 8.78C14.8835 8.49 15.0179 8.36 15.3591 8.37C16.3516 8.4 17.3338 8.37 18.3884 8.37L18.3987 8.38Z" fill="white"/>
<path d="M23.1856 17.45C24.1989 17.94 25.1914 18.24 26.246 18.22C26.7732 18.21 27.3315 18.14 27.8175 17.95C28.6342 17.63 28.7169 16.79 28.0242 16.27C27.652 15.99 27.2075 15.79 26.7939 15.55C26.339 15.29 25.8738 15.06 25.4395 14.77C23.0926 13.18 23.8163 10.65 25.2741 9.47C26.5354 8.45 28.0242 8.15 29.6061 8.16C30.5986 8.16 31.5705 8.33 32.5423 8.72C32.3562 9.58 32.1701 10.42 31.984 11.24C31.2603 11.08 30.5779 10.86 29.8852 10.8C29.3166 10.75 28.7169 10.83 28.1483 10.94C27.7451 11.02 27.3626 11.31 27.3936 11.74C27.4142 12.03 27.6624 12.37 27.9209 12.56C28.3241 12.87 28.8203 13.08 29.2752 13.34C29.5958 13.52 29.9163 13.7 30.2368 13.89C32.8835 15.45 32.0978 18.53 30.3195 19.74C29.3786 20.38 28.3241 20.69 27.1971 20.8C25.7807 20.93 24.385 20.78 23.0202 20.37C22.6894 20.27 22.5446 20.15 22.6584 19.77C22.8651 19.04 22.9995 18.28 23.1753 17.48L23.1856 17.45Z" fill="white"/>
<path d="M23.0823 8.38C22.1724 12.5 21.2729 16.55 20.3735 20.61H17.0754C17.2098 19.97 17.3442 19.35 17.4786 18.73C18.2126 15.41 18.957 12.1 19.6808 8.78C19.7531 8.47 19.8565 8.36 20.1874 8.37C21.1282 8.39 22.069 8.37 23.0719 8.37L23.0823 8.38Z" fill="white"/>
<path d="M103.261 0H61.8741C60.1611 0 58.7724 1.34315 58.7724 3V26C58.7724 27.6569 60.1611 29 61.8741 29H103.261C104.974 29 106.362 27.6569 106.362 26V3C106.362 1.34315 104.974 0 103.261 0Z" fill="white"/>
<path d="M75.0045 23.36C75.0045 22.99 75.2526 22.68 75.6662 22.68C76.0797 22.68 76.3279 22.97 76.3279 23.36C76.3279 23.75 76.059 24.04 75.6662 24.04C75.2733 24.04 75.0045 23.73 75.0045 23.36ZM76.7724 22.3H76.2968V22.56C76.1418 22.37 75.9143 22.25 75.6041 22.25C74.9941 22.25 74.5082 22.72 74.5082 23.36C74.5082 24 74.9941 24.47 75.6041 24.47C75.9143 24.47 76.1418 24.35 76.2968 24.16V24.42H76.7724V22.3ZM92.8391 23.36C92.8391 22.99 93.0872 22.68 93.5008 22.68C93.9143 22.68 94.1625 22.97 94.1625 23.36C94.1625 23.75 93.8936 24.04 93.5008 24.04C93.1079 24.04 92.8391 23.73 92.8391 23.36ZM94.607 21.45H94.1314V22.56C93.9764 22.37 93.7489 22.25 93.4387 22.25C92.8287 22.25 92.3428 22.72 92.3428 23.36C92.3428 24 92.8287 24.47 93.4387 24.47C93.7489 24.47 93.9764 24.35 94.1314 24.16V24.42H94.607V21.45ZM82.6656 22.66C82.9758 22.66 83.1722 22.85 83.2239 23.17H82.0866C82.1383 22.86 82.3244 22.66 82.6656 22.66ZM82.6656 22.25C82.0246 22.25 81.58 22.7 81.58 23.36C81.58 24.02 82.0453 24.47 82.6966 24.47C83.0275 24.47 83.3273 24.39 83.5961 24.17L83.3583 23.83C83.1722 23.97 82.9448 24.05 82.7173 24.05C82.4071 24.05 82.128 23.91 82.0659 23.53H83.6892C83.6892 23.47 83.6892 23.42 83.6892 23.35C83.6892 22.69 83.2653 22.24 82.6553 22.24M88.3933 23.35C88.3933 22.98 88.6415 22.67 89.055 22.67C89.4686 22.67 89.7167 22.96 89.7167 23.35C89.7167 23.74 89.4479 24.03 89.055 24.03C88.6622 24.03 88.3933 23.72 88.3933 23.35ZM90.1613 22.29H89.6857V22.55C89.5306 22.36 89.3032 22.24 88.993 22.24C88.383 22.24 87.8971 22.71 87.8971 23.35C87.8971 23.99 88.383 24.46 88.993 24.46C89.3032 24.46 89.5306 24.34 89.6857 24.15V24.41H90.1613V22.29ZM85.7052 23.35C85.7052 23.99 86.1705 24.46 86.8735 24.46C87.2044 24.46 87.4215 24.39 87.6593 24.21L87.4318 23.84C87.2561 23.96 87.07 24.03 86.8632 24.03C86.4807 24.03 86.2015 23.76 86.2015 23.35C86.2015 22.94 86.4807 22.68 86.8632 22.67C87.07 22.67 87.2561 22.74 87.4318 22.86L87.6593 22.49C87.4215 22.31 87.2044 22.24 86.8735 22.24C86.1705 22.24 85.7052 22.71 85.7052 23.35ZM91.8362 22.24C91.5571 22.24 91.3813 22.36 91.2572 22.55V22.29H90.7816V24.41H91.2572V23.22C91.2572 22.87 91.4123 22.68 91.7225 22.68C91.8259 22.68 91.9293 22.7 92.0223 22.73L92.1671 22.3C92.0637 22.26 91.9293 22.24 91.8259 22.24M79.078 22.46C78.8506 22.31 78.5301 22.24 78.1889 22.24C77.6306 22.24 77.279 22.5 77.279 22.92C77.279 23.26 77.5479 23.48 78.0338 23.54L78.2612 23.57C78.5197 23.61 78.6438 23.67 78.6438 23.79C78.6438 23.95 78.468 24.05 78.1475 24.05C77.827 24.05 77.5789 23.95 77.4238 23.83L77.1963 24.19C77.4548 24.38 77.7857 24.46 78.1475 24.46C78.7782 24.46 79.1504 24.17 79.1504 23.77C79.1504 23.4 78.8609 23.2 78.3853 23.14L78.1578 23.11C77.9511 23.08 77.7856 23.04 77.7856 22.9C77.7856 22.75 77.9407 22.65 78.1992 22.65C78.4783 22.65 78.7472 22.75 78.8816 22.83L79.0883 22.46H79.078ZM85.2193 22.24C84.9402 22.24 84.7644 22.36 84.6403 22.55V22.29H84.1647V24.41H84.6403V23.22C84.6403 22.87 84.7954 22.68 85.1056 22.68C85.209 22.68 85.3124 22.7 85.4054 22.73L85.5501 22.3C85.4468 22.26 85.3124 22.24 85.209 22.24M81.1458 22.29H80.3704V21.65H79.8844V22.29H79.4399V22.71H79.8844V23.68C79.8844 24.17 80.0809 24.46 80.6392 24.46C80.846 24.46 81.0837 24.4 81.2388 24.3L81.1044 23.91C80.9597 23.99 80.8046 24.03 80.6805 24.03C80.4427 24.03 80.3704 23.89 80.3704 23.68V22.72H81.1458V22.29ZM74.0326 24.41V23.08C74.0326 22.58 73.7018 22.24 73.1745 22.24C72.8954 22.24 72.6059 22.32 72.4094 22.62C72.2543 22.39 72.0166 22.24 71.6857 22.24C71.4479 22.24 71.2204 22.31 71.0447 22.55V22.29H70.5691V24.41H71.0447V23.24C71.0447 22.87 71.2515 22.68 71.5823 22.68C71.9132 22.68 72.0579 22.88 72.0579 23.24V24.42H72.5438V23.25C72.5438 22.88 72.7609 22.69 73.0814 22.69C73.4019 22.69 73.557 22.89 73.557 23.25V24.43H74.043L74.0326 24.41Z" fill="#231F20"/>
<path d="M86.1705 18.7H78.9643V6.17H86.1705V18.7Z" fill="#FF5F00"/>
<path d="M79.4192 12.44C79.4192 9.9 80.6495 7.63 82.5622 6.18C81.1148 5.07 79.3158 4.47 77.4755 4.48C72.9264 4.48 69.2354 8.05 69.2354 12.45C69.2354 16.85 72.9264 20.42 77.4755 20.42C79.3261 20.42 81.1148 19.82 82.5622 18.72C80.6495 17.26 79.4192 15 79.4192 12.46" fill="#EB001B"/>
<path d="M95.8994 12.44C95.8994 16.84 92.2084 20.41 87.6593 20.41C85.8086 20.41 84.02 19.81 82.5726 18.71C84.4853 17.25 85.7156 14.99 85.7156 12.45C85.7156 9.91 84.4853 7.64 82.5726 6.19C84.02 5.08 85.819 4.48 87.6593 4.49C92.2084 4.49 95.8994 8.06 95.8994 12.46" fill="#F79E1B"/>
<path d="M161.727 0H120.34C118.627 0 117.239 1.34315 117.239 3V26C117.239 27.6569 118.627 29 120.34 29H161.727C163.44 29 164.829 27.6569 164.829 26V3C164.829 1.34315 163.44 0 161.727 0Z" fill="#016FD0"/>
<path fill-rule="evenodd" clip-rule="evenodd" d="M126.482 22.85V15.62H134.391L135.239 16.69L136.118 15.62H164.839V22.35C164.839 22.35 164.084 22.84 163.216 22.85H147.315L146.353 21.71V22.85H143.22V20.91C143.22 20.91 142.796 21.18 141.866 21.18H140.801V22.85H136.055L135.208 21.76L134.35 22.85H126.482Z" fill="white"/>
<path fill-rule="evenodd" clip-rule="evenodd" d="M117.239 10.17L119.027 6.15H122.108L123.122 8.4V6.15H126.957L127.557 7.78L128.146 6.15H145.36V6.97C145.36 6.97 146.27 6.15 147.749 6.15L153.332 6.17L154.324 8.39V6.15H157.529L158.408 7.43V6.15H161.644V13.38H158.408L157.56 12.1V13.38H152.846L152.37 12.24H151.099L150.633 13.38H147.439C146.157 13.38 145.34 12.58 145.34 12.58V13.38H140.522L139.56 12.24V13.38H121.633L121.157 12.24H119.896L119.42 13.38H117.218V10.18L117.239 10.17Z" fill="white"/>
<path fill-rule="evenodd" clip-rule="evenodd" d="M119.658 7.04L117.249 12.45H118.821L119.265 11.37H121.85L122.294 12.45H123.897L121.488 7.04H119.658ZM120.547 8.3L121.333 10.19H119.761L120.547 8.3Z" fill="#016FD0"/>
<path fill-rule="evenodd" clip-rule="evenodd" d="M124.052 12.45V7.04L126.275 7.05L127.578 10.54L128.839 7.04H131.051V12.45H129.645V8.47L128.167 12.45H126.937L125.448 8.47V12.45H124.052Z" fill="#016FD0"/>
<path fill-rule="evenodd" clip-rule="evenodd" d="M132.003 12.45V7.04H136.572V8.25H133.419V9.18H136.49V10.32H133.419V11.28H136.572V12.45H132.003Z" fill="#016FD0"/>
<path fill-rule="evenodd" clip-rule="evenodd" d="M137.379 7.04V12.45H138.775V10.53H139.364L141.039 12.45H142.745L140.904 10.46C141.659 10.4 142.435 9.77 142.435 8.8C142.435 7.66 141.514 7.04 140.481 7.04H137.368H137.379ZM138.775 8.25H140.377C140.76 8.25 141.039 8.54 141.039 8.82C141.039 9.18 140.677 9.39 140.398 9.39H138.775V8.25Z" fill="#016FD0"/>
<path fill-rule="evenodd" clip-rule="evenodd" d="M144.44 12.45H143.014V7.04H144.44V12.45Z" fill="#016FD0"/>
<path fill-rule="evenodd" clip-rule="evenodd" d="M147.521 12.45C146.033 12.45 145.123 11.31 145.123 9.77C145.123 8.23 146.022 7.04 147.904 7.04H149.455V8.32H147.852C147.087 8.32 146.549 8.9 146.549 9.78C146.549 10.83 147.17 11.27 148.059 11.27H148.431L147.842 12.45H147.521Z" fill="#016FD0"/>
<path fill-rule="evenodd" clip-rule="evenodd" d="M150.871 7.04L148.462 12.45H150.034L150.478 11.37H153.063L153.508 12.45H155.11L152.701 7.04H150.871ZM151.76 8.3L152.546 10.19H150.974L151.76 8.3Z" fill="#016FD0"/>
<path fill-rule="evenodd" clip-rule="evenodd" d="M155.265 12.45V7.04H157.043L159.318 10.44V7.04H160.714V12.45H158.997L156.661 8.96V12.45H155.265Z" fill="#016FD0"/>
<path fill-rule="evenodd" clip-rule="evenodd" d="M127.443 21.92V16.51H132.003V17.72H128.849V18.65H131.93V19.79H128.849V20.75H132.003V21.92H127.443Z" fill="#016FD0"/>
<path fill-rule="evenodd" clip-rule="evenodd" d="M149.806 21.92V16.51H154.366V17.72H151.223V18.65H154.283V19.79H151.223V20.75H154.366V21.92H149.806Z" fill="#016FD0"/>
<path fill-rule="evenodd" clip-rule="evenodd" d="M132.178 21.92L134.401 19.25L132.127 16.51H133.895L135.249 18.2L136.603 16.51H138.299L136.055 19.22L138.278 21.92H136.521L135.197 20.26L133.915 21.92H132.178Z" fill="#016FD0"/>
<path fill-rule="evenodd" clip-rule="evenodd" d="M138.444 16.51V21.92H139.881V20.21H141.349C142.59 20.21 143.541 19.57 143.541 18.33C143.541 17.3 142.796 16.51 141.535 16.51H138.444ZM139.881 17.73H141.432C141.835 17.73 142.124 17.97 142.124 18.35C142.124 18.71 141.835 18.97 141.432 18.97H139.881V17.72V17.73Z" fill="#016FD0"/>
<path fill-rule="evenodd" clip-rule="evenodd" d="M144.151 16.51V21.92H145.547V20H146.136L147.811 21.92H149.517L147.676 19.93C148.431 19.87 149.207 19.24 149.207 18.27C149.207 17.13 148.286 16.51 147.252 16.51H144.14H144.151ZM145.547 17.72H147.149C147.532 17.72 147.811 18.01 147.811 18.29C147.811 18.65 147.449 18.86 147.17 18.86H145.547V17.72Z" fill="#016FD0"/>
<path fill-rule="evenodd" clip-rule="evenodd" d="M155.017 20.75H157.819C158.232 20.75 158.408 20.53 158.408 20.3C158.408 20.07 158.232 19.84 157.819 19.84H156.557C155.462 19.84 154.841 19.19 154.841 18.22C154.841 17.35 155.4 16.52 157.033 16.52H159.752L159.163 17.74H156.806C156.351 17.74 156.216 17.97 156.216 18.19C156.216 18.41 156.392 18.66 156.733 18.66H158.057C159.287 18.66 159.814 19.33 159.814 20.21C159.814 21.16 159.225 21.93 157.995 21.93H155.017V20.75Z" fill="#016FD0"/>
<path fill-rule="evenodd" clip-rule="evenodd" d="M160.155 21.92V20.75H162.833C163.247 20.75 163.423 20.53 163.423 20.3C163.423 20.07 163.247 19.84 162.833 19.84H161.686C160.59 19.84 159.969 19.19 159.969 18.22C159.969 17.35 160.528 16.52 162.161 16.52H164.829L164.239 17.74H161.934C161.479 17.74 161.344 17.97 161.344 18.19C161.344 18.41 161.52 18.66 161.861 18.66H163.071C164.301 18.66 164.829 19.33 164.829 20.21C164.829 21.16 164.239 21.93 163.009 21.93H160.145L160.155 21.92Z" fill="#016FD0"/>
<rect x="176" width="76" height="29" rx="3" fill="white"/>
<path fill-rule="evenodd" clip-rule="evenodd" d="M192.137 9.95678C194.268 9.85118 196.292 9.69275 198.39 9.60186C197.787 5.28664 195.646 3 189.171 3C182.813 3 180.053 6.1812 179.688 9.10399C179.278 12.3931 181.821 14.5 185.888 15.6509C189.401 16.6527 192.344 17.3489 192.436 19.028C192.535 20.8338 190.415 21.8486 189.366 21.8486C187.489 21.8486 185.448 19.8255 185.204 17.9713C183.162 18.129 181.042 18.1375 179 18.2953C179 23.3322 183.206 26 188.782 26C193.982 26 199.09 23.8714 199.09 18.428C199.09 11.8191 191.743 11.821 186.935 10.1934C185.253 9.28984 186.13 7.31288 187.713 7.13923C190.908 6.76174 191.456 8.53097 192.137 9.95678H192.137ZM212.155 3.53523C216.323 3.53523 219.273 5.77015 219.273 10.3007C219.273 14.4528 216.337 17.1034 212.076 17.1034H206.754V25.0542C206.754 25.6005 206.754 25.6005 206.258 25.6005H200.705C200.01 25.6005 200.01 25.6005 200.01 25.0922V4.47917C200.01 3.53523 200.01 3.53523 200.986 3.53523H212.155ZM207.289 12.902C206.895 12.902 206.754 12.7447 206.754 12.5068V8.23563C206.754 7.9224 207.016 7.74641 207.256 7.74641H209.589C211.597 8.03483 212.332 9.09387 212.332 10.4747C212.332 12.4504 210.523 12.902 208.951 12.902H207.289H207.289Z" fill="#343084"/>
<path fill-rule="evenodd" clip-rule="evenodd" d="M220.789 4.14547C220.789 3.86873 220.993 3.65694 221.218 3.65694H238.918C239.309 3.63973 239.351 3.79609 239.351 3.94406V7.88118C239.37 8.06392 239.215 8.14746 239.078 8.14746H227.87C227.636 8.14746 227.558 8.38113 227.558 8.63642V11.2948C227.558 11.5814 227.768 11.8436 228.122 11.8436H238.039L238.265 12.0638V15.7554C238.152 15.9138 238.038 16.072 237.925 16.2305H227.932C227.701 16.2305 227.558 16.3694 227.558 16.5943V20.1356C227.558 20.3309 227.797 20.5483 228.077 20.5483H239.125C239.271 20.5483 239.351 20.6836 239.351 20.7685V25.0695C239.351 25.1707 239.234 25.2812 239.134 25.2812H220.97C220.873 25.2812 220.789 25.1887 220.789 25.1053V4.14556V4.14547Z" fill="#FF9400"/>
<path fill-rule="evenodd" clip-rule="evenodd" d="M248.959 15.8542V25.281H242.656C242.56 25.281 242.476 25.1885 242.476 25.1051V16.6836C242.476 16.4581 242.636 16.3282 242.755 16.3282H244.565C244.746 16.3282 244.792 16.4792 244.792 16.6125V20.5481C244.792 21.0453 245.22 20.831 245.449 20.5481C246.619 18.9835 247.789 17.4189 248.959 15.8542H248.959Z" fill="#343084"/>
<path fill-rule="evenodd" clip-rule="evenodd" d="M242.199 4.14527C242.199 3.86853 242.404 3.65674 242.629 3.65674H248.414C248.815 3.65674 248.958 3.8956 248.958 4.08413V12.1336L245.416 7.30848C245.34 7.20409 245.165 7.21084 245.165 7.42696V10.9022C245.165 11.0957 245.066 11.4629 244.783 11.4629H242.475C242.349 11.4629 242.199 11.1866 242.199 11.0285V4.14527H242.199Z" fill="#FF9400"/>
</svg>
