<svg width="324" height="233" viewBox="0 0 324 233" fill="none" xmlns="http://www.w3.org/2000/svg">
<rect y="27" width="324" height="206" rx="5" fill="white"/>
<circle cx="162.5" cy="63.5" r="63.5" fill="white"/>
<g clip-path="url(#clip0_2793_261)">
<path d="M165.326 76.0617H172.992C174.012 76.0617 174.858 75.211 174.858 74.1852V64.1768C174.858 63.151 174.012 62.3002 172.992 62.3002H165.326C164.306 62.3002 163.46 63.151 163.46 64.1768V74.1852C163.46 75.211 164.306 76.0617 165.326 76.0617ZM167.193 66.0534H171.125V72.3086H167.193V66.0534Z" fill="#F3AC78"/>
<path d="M165.326 60.6739H172.992C174.012 60.6739 174.858 59.8232 174.858 58.7973V48.789C174.858 47.7631 174.012 46.9124 172.992 46.9124H165.326C164.306 46.9124 163.46 47.7631 163.46 48.789V58.7973C163.46 59.8232 164.306 60.6739 165.326 60.6739ZM167.193 50.6655H171.125V56.9208H167.193V50.6655Z" fill="#F3AC78"/>
<path d="M158.333 76.0617C159.353 76.0617 160.199 75.211 160.199 74.1852V64.1768C160.199 63.151 159.353 62.3002 158.333 62.3002H150.667C149.647 62.3002 148.801 63.151 148.801 64.1768V74.1852C148.801 75.211 149.647 76.0617 150.667 76.0617H158.333ZM152.534 66.0534H156.466V72.3086H152.534V66.0534Z" fill="#F3AC78"/>
<path d="M150.667 60.6739H158.333C159.353 60.6739 160.199 59.8232 160.199 58.7973V48.789C160.199 47.7631 159.353 46.9124 158.333 46.9124H150.667C149.647 46.9124 148.801 47.7631 148.801 48.789V58.7973C148.801 59.8232 149.647 60.6739 150.667 60.6739ZM152.534 50.6655H156.466V56.9208H152.534V50.6655Z" fill="#F3AC78"/>
<path d="M194.444 50.0901H182.199V35.7531H185.31C186.331 35.7531 187.177 34.9024 187.177 33.8766C187.177 32.8507 186.331 32 185.31 32H138C136.98 32 136.134 32.8507 136.134 33.8766C136.134 34.9024 136.98 35.7531 138 35.7531H141.111V50.0901H128.867C127.846 50.0901 127 50.9408 127 51.9666C127 52.9925 127.846 53.8432 128.867 53.8432H131.156V90.1234C131.156 91.1493 132.002 92 133.023 92H190.263C191.283 92 192.129 91.1493 192.129 90.1234V53.8432H194.419C195.439 53.8432 196.285 52.9925 196.285 51.9666C196.285 50.9408 195.439 50.0901 194.419 50.0901H194.444ZM163.634 35.7531V42.0083H159.702V35.7531H163.634ZM134.889 53.8432H141.111V88.2469H134.889V53.8432ZM144.844 51.9666V35.7531H155.944V43.8849C155.944 44.9108 156.79 45.7615 157.81 45.7615H165.475C166.496 45.7615 167.342 44.9108 167.342 43.8849V35.7531H178.441V88.2469H171V79.4145C171 78.3887 170.154 77.538 169.134 77.538H154.152C153.131 77.538 152.285 78.3887 152.285 79.4145V88.2469H144.819V51.9666H144.844ZM156.043 81.2911H159.602V88.2469H156.043V81.2911ZM163.335 88.2469V81.2911H167.267V88.2469H163.335ZM188.396 88.2469H182.175V53.8432H188.396V88.2469Z" fill="#F3AC78"/>
</g>
<defs>
<clipPath id="clip0_2793_261">
<rect width="69.3103" height="60" fill="white" transform="translate(127 32)"/>
</clipPath>
</defs>
</svg>
