<svg width="324" height="233" viewBox="0 0 324 233" fill="none" xmlns="http://www.w3.org/2000/svg">
<rect y="27" width="324" height="206" rx="5" fill="white"/>
<circle cx="162.5" cy="63.5" r="63.5" fill="white"/>
<g clip-path="url(#clip0_2793_271)">
<path d="M197.304 89.551L194.087 78.8055C193.837 78.0058 193.114 77.4811 192.291 77.4811H190.246L188.051 68.1599C187.852 67.3103 187.103 66.7105 186.231 66.7105H184.111L182.39 57.3145C182.215 56.4148 181.442 55.7901 180.544 55.7901H178.848L177.601 46.6689C177.477 45.7443 176.678 45.0446 175.756 45.0446H172.114V35.7484H175.506C176.529 35.7484 177.377 34.8988 177.377 33.8742C177.377 32.8496 176.529 32 175.506 32H147.847C146.825 32 145.977 32.8496 145.977 33.8742C145.977 34.8988 146.825 35.7484 147.847 35.7484H151.239V45.0446H147.573C146.625 45.0446 145.852 45.7443 145.727 46.6689L144.48 55.7901H142.784C141.887 55.7901 141.113 56.4398 140.939 57.3145L139.218 66.7105H137.123C136.25 66.7105 135.502 67.3103 135.302 68.1599L133.083 77.4811H131.038C130.215 77.4811 129.491 78.0308 129.242 78.8305L126.074 89.576C125.9 90.1508 126.025 90.7505 126.374 91.2253C126.723 91.7001 127.297 91.975 127.87 91.975H151.588C151.588 91.975 151.663 92 151.713 92H171.665C171.665 92 171.74 92 171.79 91.975H195.508C196.107 91.975 196.656 91.7001 197.005 91.2253C197.354 90.7505 197.454 90.1258 197.304 89.576V89.551ZM186.405 77.4811H172.264L171.541 70.459H184.759L186.43 77.4811H186.405ZM169.595 88.2266H153.783L154.681 79.5552L155.753 68.8596C155.753 68.8596 155.778 68.6347 155.778 68.6097L157.699 49.4677L157.774 48.818H165.605L166.528 57.8892L167.625 68.5598C167.625 68.5598 167.625 68.7847 167.625 68.8097L168.722 79.5802L169.371 85.9025L169.62 88.2516L169.595 88.2266ZM171.167 66.5356L170.817 63.162L170.443 59.5385H178.973L180.245 66.5356H171.142H171.167ZM175.082 55.7901H170.069L169.695 52.1416L169.346 48.793H174.135L175.082 55.7901ZM155.005 35.7484H168.373V45.0446H167.326C167.326 45.0446 167.251 45.0446 167.226 45.0446H156.128C156.128 45.0446 156.053 45.0446 156.028 45.0446H154.98V35.7484H155.005ZM149.244 48.793H154.033L153.309 55.7901H148.296L149.244 48.793ZM144.381 59.5385H152.935L152.237 66.5356H143.109L144.381 59.5385ZM138.644 70.459H151.838L151.139 77.4811H136.973L138.644 70.459ZM132.484 81.2295H150.765L150.067 88.2266H130.389L132.459 81.2295H132.484ZM173.386 88.2266L173.262 87.0521L172.663 81.2295H190.919L193.014 88.2266H173.386Z" fill="#F3AC78"/>
</g>
<defs>
<clipPath id="clip0_2793_271">
<rect width="71.3793" height="60" fill="white" transform="translate(126 32)"/>
</clipPath>
</defs>
</svg>
