<svg width="324" height="233" viewBox="0 0 324 233" fill="none" xmlns="http://www.w3.org/2000/svg">
<rect y="27" width="324" height="206" rx="5" fill="white"/>
<circle cx="162.5" cy="63.5" r="63.5" fill="white"/>
<path d="M189.323 56.4H186.968C186.752 52.15 186.199 47.925 185.286 43.775L183.436 35.375C183.003 33.4 181.321 32 179.35 32H144.698C142.727 32 141.069 33.4 140.612 35.375L138.762 43.775C137.849 47.925 137.296 52.15 137.08 56.4H134.725C132.658 56.4 131 58.15 131 60.275V63.75C131 65.9 132.682 67.625 134.725 67.625H136.984V79.925C136.984 83 139.291 85.525 142.198 85.75V88.125C142.198 90.275 143.881 92 145.923 92H149.264C151.33 92 152.988 90.25 152.988 88.125V85.775H171.012V88.125C171.012 90.275 172.694 92 174.736 92H178.077C180.143 92 181.802 90.25 181.802 88.125V85.75C184.709 85.525 187.016 83.025 187.016 79.925V67.625H189.275C191.342 67.625 193 65.875 193 63.75V60.275C193 58.125 191.318 56.4 189.275 56.4H189.323ZM183.46 74.825H177.981L178.99 70.875H183.46V74.825ZM149.768 74.825L148.759 70.875H175.265L174.256 74.825H149.792H149.768ZM140.564 60.05C140.564 54.875 141.141 49.675 142.247 44.625L142.415 43.9H181.609L181.778 44.625C182.883 49.675 183.46 54.875 183.46 60.05V60.275C183.267 60.2 183.075 60.15 182.883 60.15H177.284L173.126 52.275C172.646 51.375 171.564 51.025 170.675 51.525C169.81 52.025 169.474 53.175 169.954 54.075L173.15 60.125H153.565L149.408 52.25C148.927 51.35 147.846 51 146.957 51.5C146.091 52 145.755 53.15 146.236 54.05L149.432 60.1H140.54V60L140.564 60.05ZM140.564 70.875H145.034L146.043 74.825H140.564V70.875ZM177.596 67.125C177.596 67.125 177.428 67.15 177.356 67.175C177.284 67.175 177.236 67.125 177.164 67.125H146.884C146.884 67.125 146.764 67.15 146.692 67.175C146.62 67.175 146.524 67.125 146.452 67.125H140.612V63.9H182.907C183.123 63.9 183.316 63.85 183.484 63.775V67.125H177.644H177.596ZM144.698 35.775H179.35C179.615 35.775 179.855 35.975 179.903 36.25L180.768 40.15H143.256L144.121 36.25C144.193 35.975 144.409 35.775 144.698 35.775ZM134.605 63.775V60.3L134.725 60.175H136.984V63.875L134.605 63.8V63.775ZM149.408 88.15C149.408 88.15 149.36 88.275 149.288 88.275L145.803 88.15V85.8H149.408V88.15ZM178.245 88.15C178.245 88.15 178.197 88.275 178.125 88.275L174.64 88.15V85.8H178.245V88.15ZM181.441 82.05H142.607C141.502 82.05 140.588 81.1 140.588 79.95V78.575H183.46V79.95C183.46 81.1 182.547 82.05 181.441 82.05ZM189.323 63.875H187.064V60.125H189.323C189.323 60.125 189.443 60.175 189.443 60.25L189.323 63.875Z" fill="#F3AC78"/>
</svg>
