<svg width="24" height="25" viewBox="0 0 24 25" fill="none" xmlns="http://www.w3.org/2000/svg">
<path d="M14.3743 1.99038L12.5551 3.79962V1.57055C12.5551 1.15072 12.2152 0.820862 11.8054 0.820862C11.3955 0.820862 11.0557 1.15072 11.0557 1.57055V3.86959L9.23644 2.05035C8.94656 1.76047 8.46676 1.76047 8.17688 2.05035C7.887 2.34023 7.887 2.82003 8.17688 3.10991L11.0557 5.98871V7.89792L11.6055 7.57805C11.8354 7.4381 12.1252 7.4381 12.3551 7.57805L12.5551 7.698V5.91874L15.4339 3.03994C15.7237 2.75006 15.7237 2.27026 15.4339 1.98038C15.144 1.6905 14.6642 1.6905 14.3743 1.98038V1.99038Z" fill="#666666"/>
<path d="M12.5551 19.6431V17.9338L12.3551 18.0537C12.2452 18.1237 12.1152 18.1537 11.9853 18.1537C11.8553 18.1537 11.7254 18.1237 11.6055 18.0537L11.0557 17.7339V19.703L8.17688 22.5818C7.887 22.8717 7.887 23.3515 8.17688 23.6414C8.32682 23.7913 8.51674 23.8613 8.70666 23.8613C8.89658 23.8613 9.0865 23.7913 9.23644 23.6414L11.0557 21.8221V24.0712C11.0557 24.481 11.3855 24.8209 11.8054 24.8209C12.2252 24.8209 12.5551 24.481 12.5551 24.0712V21.7622L14.3743 23.5814C14.6642 23.8713 15.144 23.8713 15.4339 23.5814C15.7237 23.2915 15.7237 22.8117 15.4339 22.5219L12.5551 19.6431Z" fill="#666666"/>
<path d="M22.0817 14.2952L18.1534 15.3448L16.694 14.5051V15.1049C16.694 15.3748 16.554 15.6246 16.3241 15.7546L16.0942 15.8845L17.4537 16.6742L18.5032 20.6026C18.5932 20.9324 18.8931 21.1623 19.2229 21.1623C19.2829 21.1623 19.3529 21.1623 19.4129 21.1324C19.8127 21.0224 20.0526 20.6126 19.9426 20.2127L19.2729 17.7238L21.2121 18.8433C21.3221 18.9133 21.452 18.9433 21.5819 18.9433C21.8418 18.9433 22.0917 18.8133 22.2317 18.5734C22.4416 18.2136 22.3117 17.7538 21.9618 17.5438L19.9626 16.3943L22.4416 15.7246C22.8414 15.6147 23.0813 15.2048 22.9714 14.805C22.8614 14.4052 22.4516 14.1653 22.0518 14.2752L22.0817 14.2952Z" fill="#666666"/>
<path d="M1.46004 10.9066C1.52002 10.9066 1.58999 10.9066 1.64996 10.8766L5.57833 9.82705L7.24763 10.7867V10.5268C7.24763 10.2569 7.38757 10.007 7.62747 9.87703L8.14726 9.57715L6.27804 8.4976L5.22847 4.56924C5.11852 4.16941 4.70869 3.92951 4.30885 4.03946C3.90902 4.14942 3.66912 4.55924 3.77908 4.95908L4.4488 7.44804L2.5196 6.31851C2.15975 6.1186 1.69994 6.23854 1.49003 6.59839C1.29011 6.94825 1.41006 7.40806 1.76991 7.61797L3.76908 8.76749L1.28012 9.43721C0.880284 9.54717 0.640385 9.957 0.750339 10.3568C0.840302 10.6867 1.14017 10.9166 1.47004 10.9166L1.46004 10.9066Z" fill="#666666"/>
<path d="M7.9972 15.9746L7.63735 15.7647C7.39745 15.6347 7.25751 15.3848 7.25751 15.1149V14.6651L5.69816 15.5648L1.7598 14.5152C1.35996 14.4052 0.950137 14.6451 0.840183 15.045C0.730229 15.4448 0.970128 15.8546 1.36996 15.9646L3.85893 16.6343L1.90974 17.7538C1.54989 17.9538 1.42994 18.4136 1.63985 18.7734C1.77979 19.0133 2.02968 19.1533 2.28958 19.1533C2.41952 19.1533 2.53947 19.1133 2.65942 19.0533L4.64859 17.9038L3.98887 20.3728C3.87892 20.7726 4.11882 21.1824 4.51865 21.2924C4.58862 21.3124 4.6486 21.3224 4.70857 21.3224C5.03843 21.3224 5.33831 21.1025 5.42827 20.7626L6.47783 16.8342L7.97721 15.9746H7.9972Z" fill="#666666"/>
<path d="M22.6913 9.57723L20.2123 8.91751L22.1415 7.79798C22.5013 7.58806 22.6213 7.12826 22.4114 6.76841C22.2115 6.40856 21.7517 6.2886 21.3918 6.49852L19.3926 7.64804L20.0624 5.16907C20.1723 4.76924 19.9324 4.35941 19.5326 4.24945C19.1328 4.1395 18.7229 4.3794 18.613 4.77923L17.5634 8.7076L15.9341 9.64721L16.3239 9.87711C16.5538 10.0071 16.6938 10.257 16.6938 10.5268V10.9467L18.3631 9.97707L22.2914 11.0266C22.3614 11.0466 22.4214 11.0566 22.4814 11.0566C22.8112 11.0566 23.1111 10.8367 23.2011 10.4969C23.311 10.097 23.0711 9.68719 22.6713 9.57723H22.6913Z" fill="#666666"/>
<path d="M16.334 9.87713L15.9442 9.64722L12.5556 7.70803L12.3557 7.58808C12.1258 7.44814 11.8359 7.44814 11.606 7.58808L11.0562 7.90795L8.15744 9.57725L7.63766 9.87713C7.39776 10.0071 7.25781 10.257 7.25781 10.5269V15.1149C7.25781 15.3848 7.39776 15.6347 7.63766 15.7647L7.99751 15.9746L11.0562 17.7339L11.606 18.0537C11.726 18.1237 11.8559 18.1537 11.9858 18.1537C12.1158 18.1537 12.2457 18.1237 12.3557 18.0537L12.5556 17.9338L16.1041 15.8946L16.334 15.7647C16.5639 15.6347 16.7039 15.3848 16.7039 15.1149V10.5269C16.7039 10.257 16.5639 10.0071 16.334 9.87713ZM14.4448 10.5169L12.5556 11.6064V9.42731L14.4448 10.5169ZM11.0562 9.63723V11.2565L9.65681 10.4369L11.0562 9.63723ZM8.75719 11.6564L10.6064 12.7259L8.75719 13.7955V11.6564ZM9.48688 15.1049L11.0562 14.2053V16.0046L9.48688 15.1049ZM12.5556 16.2145V13.8455L14.6048 15.035L12.5556 16.2145ZM15.2045 13.6456L13.6152 12.7259L15.2045 11.8063V13.6456Z" fill="#EB741E"/>
</svg>
