<svg width="24" height="25" viewBox="0 0 24 25" fill="none" xmlns="http://www.w3.org/2000/svg">
<path d="M16.6955 11.005L18.3655 10.035L22.2955 11.085C22.3655 11.105 22.4255 11.115 22.4855 11.115C22.8155 11.115 23.1155 10.895 23.2055 10.555C23.3155 10.155 23.0755 9.74498 22.6755 9.63498L20.1955 8.97498L22.1355 7.85498C22.4955 7.64498 22.6155 7.18498 22.4055 6.83498C22.1955 6.48498 21.7355 6.35498 21.3855 6.56498L19.3955 7.71498L20.0655 5.23498C20.1755 4.83498 19.9355 4.42498 19.5355 4.31498C19.1355 4.20498 18.7255 4.44498 18.6155 4.84498L17.5655 8.77498L15.9355 9.71498L12.5555 7.76498V6.00498L15.4355 3.12498C15.7255 2.83498 15.7255 2.35498 15.4355 2.06498C15.1455 1.77498 14.6655 1.77498 14.3755 2.06498L12.5555 3.88498V1.63498C12.5555 1.22498 12.2155 0.884979 11.8055 0.884979C11.3955 0.884979 11.0555 1.22498 11.0555 1.63498V3.93498L9.23547 2.11498C8.94547 1.82498 8.46547 1.82498 8.17547 2.11498C7.88547 2.40498 7.88547 2.88498 8.17547 3.17498L11.0555 6.05498V7.96498L8.15547 9.64498L6.28547 8.56498L5.23547 4.63498C5.12547 4.23498 4.71547 3.99498 4.31547 4.10498C3.91547 4.21498 3.67547 4.62498 3.78547 5.02498L4.45547 7.50498L2.51547 6.38498C2.15547 6.17498 1.69547 6.30498 1.49547 6.65498C1.29547 7.00498 1.41547 7.47498 1.76547 7.67498L3.75547 8.82498L1.27547 9.48498C0.875466 9.59498 0.635468 10.005 0.745468 10.405C0.835468 10.735 1.13547 10.965 1.46547 10.965C1.52547 10.965 1.59547 10.965 1.65547 10.935L5.58547 9.88498L7.25547 10.845V14.715L5.69547 15.615L1.76547 14.565C1.36547 14.455 0.95547 14.695 0.84547 15.095C0.73547 15.495 0.975469 15.905 1.37547 16.015L3.85547 16.685L1.91547 17.805C1.55547 18.015 1.43547 18.475 1.64547 18.825C1.78547 19.065 2.03547 19.205 2.29547 19.205C2.42547 19.205 2.55547 19.175 2.66547 19.105L4.65547 17.955L3.98547 20.435C3.87547 20.835 4.11547 21.245 4.51547 21.355C4.58547 21.375 4.64547 21.385 4.70547 21.385C5.03547 21.385 5.33547 21.165 5.42547 20.825L6.47547 16.895L7.96547 16.035L11.0355 17.805V19.775L8.15547 22.655C7.86547 22.945 7.86547 23.425 8.15547 23.715C8.30547 23.865 8.49547 23.935 8.68547 23.935C8.87547 23.935 9.06547 23.865 9.21547 23.715L11.0355 21.895V24.135C11.0355 24.545 11.3755 24.885 11.7855 24.885C12.1955 24.885 12.5355 24.545 12.5355 24.135V21.835L14.3555 23.655C14.6455 23.945 15.1255 23.945 15.4155 23.655C15.7055 23.365 15.7055 22.885 15.4155 22.595L12.5355 19.715V18.015L16.0855 15.965L17.4455 16.755L18.4955 20.685C18.5855 21.015 18.8855 21.245 19.2155 21.245C19.2755 21.245 19.3455 21.245 19.4055 21.215C19.8055 21.105 20.0455 20.695 19.9355 20.295L19.2655 17.815L21.2055 18.935C21.3255 19.005 21.4555 19.035 21.5755 19.035C21.8355 19.035 22.0855 18.905 22.2255 18.655C22.4355 18.295 22.3055 17.835 21.9555 17.635L19.9655 16.485L22.4455 15.825C22.8455 15.715 23.0855 15.305 22.9755 14.905C22.8655 14.505 22.4555 14.265 22.0555 14.375L18.1255 15.425L16.6755 14.585V11.005H16.6955ZM15.1955 13.715L13.5955 12.795L15.1955 11.875V13.725V13.715ZM14.4255 10.575L12.5455 11.665V9.48498L14.4255 10.575ZM11.0455 9.69498V11.315L9.64547 10.505L11.0455 9.69498ZM8.74547 11.725L10.5955 12.795L8.74547 13.865V11.725ZM9.47547 15.175L11.0455 14.275V16.085L9.47547 15.185V15.175ZM12.5455 16.285V13.925L14.5955 15.105L12.5455 16.285Z" fill="#666666"/>
</svg>
