<svg width="15" height="25" viewBox="0 0 15 25" fill="none" xmlns="http://www.w3.org/2000/svg">
<path d="M11.1201 23.6109V24.0709C11.1201 24.4809 10.7901 24.8209 10.3701 24.8209C9.95012 24.8209 9.62012 24.4809 9.62012 24.0709V23.6109H11.1201Z" fill="#666666"/>
<path d="M6.11035 23.6109V24.0709C6.11035 24.4809 5.78035 24.8209 5.36035 24.8209C4.94035 24.8209 4.61035 24.4809 4.61035 24.0709V23.6109H6.11035Z" fill="#666666"/>
<path d="M12.2205 2.45086V7.18086H10.7205V2.45086C10.7205 2.37086 10.6705 2.32086 10.5905 2.32086H5.1305C5.0705 2.32086 5.0105 2.37086 5.0105 2.45086V7.18086H3.6605C3.6605 7.18086 3.5605 7.18087 3.5105 7.19087V2.45086C3.5105 1.55086 4.2405 0.820862 5.1305 0.820862H10.5905C11.4905 0.820862 12.2205 1.55086 12.2205 2.45086Z" fill="#666666"/>
<path d="M12.2203 7.18085H3.6603C3.6603 7.18085 3.5603 7.18085 3.5103 7.19085C2.0103 7.26085 0.810303 8.50085 0.810303 10.0208V20.7708C0.810303 22.3408 2.0903 23.6108 3.6603 23.6108H12.0803C13.6503 23.6108 14.9203 22.3408 14.9203 20.7708V10.0208C14.9203 8.50085 13.7303 7.26085 12.2203 7.18085ZM13.4203 20.7708C13.4203 21.5108 12.8203 22.1108 12.0803 22.1108H3.6603C2.9103 22.1108 2.3103 21.5108 2.3103 20.7708V10.0208C2.3103 9.28085 2.9103 8.68085 3.6603 8.68085H12.0803C12.8203 8.68085 13.4203 9.28085 13.4203 10.0208V20.7708Z" fill="#EB741E"/>
<path d="M11.1196 20.7109C10.7096 20.7109 10.3696 20.3709 10.3696 19.9609V11.5609C10.3696 11.1509 10.7096 10.8109 11.1196 10.8109C11.5296 10.8109 11.8696 11.1509 11.8696 11.5609V19.9609C11.8696 20.3709 11.5296 20.7109 11.1196 20.7109Z" fill="#EB741E"/>
<path d="M7.86987 20.7109C7.45987 20.7109 7.11987 20.3709 7.11987 19.9609V11.5609C7.11987 11.1509 7.45987 10.8109 7.86987 10.8109C8.27987 10.8109 8.61987 11.1509 8.61987 11.5609V19.9609C8.61987 20.3709 8.27987 20.7109 7.86987 20.7109Z" fill="#EB741E"/>
<path d="M4.61011 20.7109C4.20011 20.7109 3.86011 20.3709 3.86011 19.9609V11.5609C3.86011 11.1509 4.20011 10.8109 4.61011 10.8109C5.02011 10.8109 5.36011 11.1509 5.36011 11.5609V19.9609C5.36011 20.3709 5.02011 20.7109 4.61011 20.7109Z" fill="#EB741E"/>
</svg>
