<svg width="15" height="25" viewBox="0 0 15 25" fill="none" xmlns="http://www.w3.org/2000/svg">
<path d="M12.2105 7.26498V2.51498C12.2105 1.61498 11.4805 0.884979 10.5805 0.884979H5.12054C4.23054 0.884979 3.50054 1.61498 3.50054 2.51498V7.26498C2.00054 7.34498 0.800537 8.57498 0.800537 10.095V20.835C0.800537 22.405 2.08054 23.685 3.65054 23.685H4.61054V24.135C4.61054 24.545 4.95054 24.885 5.36054 24.885C5.77054 24.885 6.11054 24.545 6.11054 24.135V23.685H9.62054V24.135C9.62054 24.545 9.96054 24.885 10.3705 24.885C10.7805 24.885 11.1205 24.545 11.1205 24.135V23.685H12.0805C13.6505 23.685 14.9305 22.405 14.9305 20.845V10.105C14.9305 8.58498 13.7305 7.35498 12.2305 7.27498L12.2105 7.26498ZM5.12054 2.38498H10.5805C10.6505 2.38498 10.7105 2.44498 10.7105 2.51498V7.24498H5.00054V2.51498C5.00054 2.44498 5.05054 2.38498 5.12054 2.38498ZM13.4105 20.835C13.4105 21.575 12.8105 22.175 12.0605 22.175H3.65054C2.91054 22.175 2.31054 21.575 2.31054 20.835V10.095C2.31054 9.35498 2.91054 8.75498 3.65054 8.75498H12.0705C12.8105 8.75498 13.4205 9.35498 13.4205 10.095V20.835H13.4105Z" fill="#666666"/>
<path d="M11.1101 10.885C10.7001 10.885 10.3601 11.225 10.3601 11.635V20.035C10.3601 20.445 10.7001 20.785 11.1101 20.785C11.5201 20.785 11.8601 20.445 11.8601 20.035V11.635C11.8601 11.225 11.5201 10.885 11.1101 10.885Z" fill="#666666"/>
<path d="M7.86011 10.885C7.45011 10.885 7.11011 11.225 7.11011 11.635V20.035C7.11011 20.445 7.45011 20.785 7.86011 20.785C8.27011 20.785 8.61011 20.445 8.61011 20.035V11.635C8.61011 11.225 8.27011 10.885 7.86011 10.885Z" fill="#666666"/>
<path d="M4.60034 10.885C4.19034 10.885 3.85034 11.225 3.85034 11.635V20.035C3.85034 20.445 4.19034 20.785 4.60034 20.785C5.01034 20.785 5.35034 20.445 5.35034 20.035V11.635C5.35034 11.225 5.01034 10.885 4.60034 10.885Z" fill="#666666"/>
</svg>
