<svg width="12" height="25" viewBox="0 0 12 25" fill="none" xmlns="http://www.w3.org/2000/svg">
<path d="M9.16415 3.73574C9.2741 3.53582 9.34408 3.31591 9.34408 3.06602V1.85652C9.34408 1.10683 8.73433 0.487091 7.97464 0.487091H4.41613C3.66644 0.487091 3.0467 1.09684 3.0467 1.85652V3.06602C3.0467 3.31591 3.11667 3.55581 3.23662 3.75573C1.98714 4.96523 0.637695 7.15431 0.637695 7.79405V10.283C0.637695 10.7328 0.837614 11.1327 1.14749 11.4525C0.827618 11.8524 0.637695 12.3521 0.637695 12.8919C0.637695 13.5017 0.8776 14.0614 1.26744 14.4813C0.8776 14.9011 0.637695 15.4509 0.637695 16.0706C0.637695 16.7603 0.947573 17.3701 1.41738 17.7999C0.937577 18.3097 0.637695 18.9894 0.637695 19.7491V21.6483C0.637695 23.2176 1.91717 24.4871 3.47652 24.4871H8.89426C10.4636 24.4871 11.7431 23.2076 11.7431 21.6483V19.7491C11.7431 18.9894 11.4432 18.3097 10.9634 17.7999C11.4432 17.3701 11.7431 16.7603 11.7431 16.0706C11.7431 15.4609 11.5032 14.9011 11.1133 14.4813C11.5032 14.0614 11.7431 13.5117 11.7431 12.8919C11.7431 12.3422 11.5432 11.8424 11.2333 11.4525C11.5532 11.1427 11.7431 10.7428 11.7431 10.283V7.79405C11.7431 7.16431 10.3936 4.94523 9.15415 3.73574H9.16415ZM9.41405 13.7216H2.97672C2.51692 13.7216 2.13707 13.3417 2.13707 12.8819C2.13707 12.4521 2.46694 12.1122 2.87677 12.0623H9.504C9.91383 12.1122 10.2437 12.4521 10.2437 12.8819C10.2437 13.3417 9.86386 13.7216 9.40405 13.7216H9.41405ZM10.2537 16.0606C10.2537 16.5204 9.87385 16.9003 9.41405 16.9003H2.97672C2.51692 16.9003 2.13707 16.5204 2.13707 16.0606C2.13707 15.6008 2.51692 15.221 2.97672 15.221H9.41405C9.87385 15.221 10.2537 15.6008 10.2537 16.0606ZM4.54607 2.93607V1.98647H7.8447V2.93607H4.54607ZM4.70601 4.43545H7.73475C8.20455 4.70533 9.33408 6.2147 9.90384 7.14432H4.53607C4.12624 7.14432 3.78639 7.48418 3.78639 7.894C3.78639 8.30383 4.12624 8.64369 4.53607 8.64369H10.2437V10.273C10.2437 10.353 10.0238 10.5629 9.60396 10.5629C9.54399 10.5629 9.47402 10.5429 9.41405 10.5429H2.97672C2.90675 10.5429 2.84678 10.5529 2.7868 10.5629C2.36698 10.5629 2.14707 10.343 2.14707 10.273V7.88401C2.307 7.26427 4.09626 4.7853 4.70601 4.43545ZM10.2537 21.6383C10.2537 22.378 9.65394 22.9777 8.90426 22.9777H3.48651C2.74682 22.9777 2.14707 22.378 2.14707 21.6383V19.7391C2.14707 18.9994 2.74682 18.3996 3.48651 18.3996H8.90426C9.64395 18.3996 10.2537 18.9994 10.2537 19.7391V21.6383Z" fill="#666666"/>
</svg>
