<svg width="12" height="25" viewBox="0 0 12 25" fill="none" xmlns="http://www.w3.org/2000/svg">
<path d="M9.41424 10.8866H2.97692C2.88695 10.8866 2.79699 10.8966 2.70703 10.9066H9.68412C9.59416 10.8966 9.5042 10.8866 9.41424 10.8866Z" fill="#666666"/>
<path d="M11.7426 13.2257C11.7426 12.6859 11.5527 12.1761 11.2328 11.7763C10.863 11.2965 10.3132 10.9766 9.68344 10.9066H2.70635C2.06662 10.9766 1.51684 11.3065 1.147 11.7863C0.817134 12.1861 0.637207 12.6859 0.637207 13.2257C0.637207 13.8354 0.867116 14.3952 1.26695 14.805C0.877112 15.2148 0.637207 15.7746 0.637207 16.3944C0.637207 17.0841 0.937089 17.7038 1.41689 18.1236C1.82672 18.5035 2.37649 18.7334 2.97624 18.7334H9.41356C10.0133 18.7334 10.5631 18.5035 10.9729 18.1236C11.4427 17.7038 11.7426 17.0841 11.7426 16.3944C11.7426 15.7746 11.5027 15.2148 11.1228 14.805C11.5127 14.3952 11.7426 13.8354 11.7426 13.2257ZM10.2432 16.3944C10.2432 16.8542 9.87337 17.234 9.41356 17.234H2.97624C2.51643 17.234 2.13658 16.8542 2.13658 16.3944C2.13658 15.9346 2.51643 15.5647 2.97624 15.5647H9.41356C9.87337 15.5647 10.2432 15.9346 10.2432 16.3944ZM2.97624 14.0653C2.51643 14.0653 2.13658 13.6855 2.13658 13.2257C2.13658 12.8258 2.42647 12.486 2.80631 12.406C2.86628 12.396 2.91626 12.386 2.97624 12.386H9.41356C9.47353 12.386 9.52351 12.396 9.58348 12.406C9.96333 12.486 10.2432 12.8258 10.2432 13.2257C10.2432 13.6855 9.87337 14.0653 9.41356 14.0653H2.97624Z" fill="#EB741E"/>
<path d="M9.41356 18.7335H8.90377C9.64346 18.7335 10.2432 19.3332 10.2432 20.0729V21.9721C10.2432 22.7118 9.64346 23.3215 8.90377 23.3215H3.48603C2.74633 23.3215 2.13658 22.7118 2.13658 21.9721V20.0729C2.13658 19.3332 2.74633 18.7335 3.48603 18.7335H2.97624C2.37649 18.7335 1.82672 18.5036 1.41689 18.1237C0.937089 18.6335 0.637207 19.3132 0.637207 20.0729V21.9721C0.637207 23.5415 1.91668 24.8209 3.48603 24.8209H8.90377C10.4731 24.8209 11.7426 23.5415 11.7426 21.9721V20.0729C11.7426 19.3132 11.4427 18.6335 10.9729 18.1237C10.5631 18.5036 10.0133 18.7335 9.41356 18.7335Z" fill="#666666"/>
<path d="M11.7426 8.20778V8.11782C11.7426 8.11782 11.7426 8.08783 11.7326 8.07784C11.6926 7.39812 10.3732 5.24902 9.16366 4.06951C9.27362 3.86959 9.34359 3.63969 9.34359 3.39979V2.19029C9.34359 1.4406 8.73384 0.820862 7.97415 0.820862H4.41564C3.66595 0.820862 3.04621 1.43061 3.04621 2.19029V3.39979C3.04621 3.64968 3.11618 3.87959 3.23613 4.0795C1.98665 5.289 0.637207 7.48808 0.637207 8.11782V10.6068C0.637207 11.0566 0.837126 11.4664 1.147 11.7763C1.51684 11.2965 2.06662 10.9666 2.70635 10.8967C2.33651 10.8667 2.13658 10.6768 2.13658 10.6068V8.20778C2.29652 7.58804 4.07578 5.12907 4.69552 4.75922H7.73426C8.20406 5.0491 9.32359 6.53848 9.90335 7.46809H4.53558C4.12576 7.46809 3.7859 7.80795 3.7859 8.21778C3.7859 8.62761 4.12576 8.96747 4.53558 8.96747H10.2332V10.5968C10.2332 10.6668 10.0433 10.8567 9.67344 10.8867C10.3032 10.9566 10.853 11.2765 11.2228 11.7563C11.5427 11.4564 11.7326 11.0466 11.7326 10.5968V8.23777C11.7326 8.23777 11.7326 8.22778 11.7326 8.21778C11.7326 8.20779 11.7326 8.20779 11.7326 8.19779L11.7426 8.20778ZM7.84421 3.25984H4.54558V2.32024H7.84421V3.25984Z" fill="#666666"/>
</svg>
