<svg width="24" height="24" viewBox="0 0 24 24" fill="none" xmlns="http://www.w3.org/2000/svg">
<g clip-path="url(#clip0_3822_12153)">
<path d="M12 2C14.82 2 17.15 2.95 19.1 4.9C21.05 6.85 22 9.17 22 12C22 14.83 21.05 17.14 19.08 19.09C17.11 21.04 14.8 22 12.01 22C9.22 22 6.9 21.04 4.93 19.07C2.96 17.1 2 14.77 2 11.97C2 9.17 2.96 6.91 4.93 4.93C6.9 2.96 9.22 2 12 2ZM12 0C8.69 0 5.86 1.17 3.52 3.52C1.18 5.87 0 8.68 0 11.97C0 15.26 1.17 18.14 3.52 20.48C5.87 22.82 8.7 24 12.01 24C15.32 24 18.15 22.84 20.49 20.51C22.83 18.19 24 15.35 24 12C24 8.65 22.84 5.81 20.51 3.49C18.19 1.16 15.35 0 12 0Z" fill="#666666"/>
<path d="M11.0799 14.88H13.2099L13.4199 5.74C13.4199 5.04 12.8499 4.47 12.1499 4.47C11.4499 4.47 10.8799 5.04 10.8799 5.74L11.0899 14.88H11.0799Z" fill="#666666"/>
<path d="M12.1299 18.8C12.4999 18.8 12.8199 18.68 13.0699 18.45C13.3199 18.22 13.4499 17.9 13.4499 17.51C13.4499 17.12 13.3199 16.8 13.0599 16.57C12.7999 16.33 12.4999 16.22 12.1499 16.22C11.7199 16.26 11.3899 16.4 11.1799 16.63C10.9699 16.86 10.8599 17.17 10.8599 17.54C10.8599 17.91 10.9799 18.22 11.2099 18.45C11.4399 18.68 11.7499 18.8 12.1199 18.8H12.1299Z" fill="#666666"/>
</g>
<defs>
<clipPath id="clip0_3822_12153">
<rect width="24" height="24" fill="white"/>
</clipPath>
</defs>
</svg>
