<svg width="12" height="24" viewBox="0 0 12 24" fill="none" xmlns="http://www.w3.org/2000/svg">
    <path
        d="M11.7536 11.7636C11.7536 11.6836 11.7436 11.6036 11.7236 11.5336C11.7036 11.4536 11.6836 11.3736 11.6636 11.2936C11.6436 11.2136 11.6136 11.1336 11.5836 11.0636C11.5536 10.9936 11.5236 10.9236 11.4836 10.8636C11.4436 10.7836 11.4036 10.7036 11.3436 10.6236C11.3336 10.6036 11.3236 10.5836 11.3036 10.5536L4.54359 1.0536C3.74359 -0.0764041 2.18359 -0.336404 1.05359 0.463596C-0.0764065 1.2636 -0.336403 2.8236 0.463597 3.9536L6.19359 12.0036L0.463597 20.0536C-0.336403 21.1736 -0.0764065 22.7436 1.05359 23.5436C1.49359 23.8536 2.0036 24.0036 2.5036 24.0036C3.2836 24.0036 4.05359 23.6336 4.54359 22.9536L11.3036 13.4536C11.3036 13.4536 11.3236 13.4136 11.3436 13.3836C11.3936 13.3036 11.4336 13.2236 11.4836 13.1436C11.5236 13.0736 11.5536 13.0136 11.5836 12.9436C11.6136 12.8636 11.6336 12.7936 11.6636 12.7136C11.6836 12.6336 11.7136 12.5536 11.7236 12.4736C11.7336 12.3936 11.7436 12.3236 11.7536 12.2436C11.7536 12.1636 11.7736 12.0836 11.7736 12.0036C11.7736 11.9236 11.7736 11.8436 11.7536 11.7636Z"
        fill="#2743A6" />
</svg>
