<svg width="256" height="57" viewBox="0 0 256 57" fill="none" xmlns="http://www.w3.org/2000/svg">
<g clip-path="url(#clip0_412_147)">
<path fill-rule="evenodd" clip-rule="evenodd" d="M93.6249 36.925C84.6899 34.495 58.7399 35.995 52.3199 37.21C56.9899 28.37 60.5599 18.47 60.5599 18.245C60.5599 17.36 58.9599 15.965 57.5999 15.965C57.1249 15.965 56.5099 16.95 55.7649 18.55C52.3299 23.45 45.3199 33.35 45.3199 30.525C45.3199 29.81 51.1049 20.455 52.7699 18.21C53.5499 17.12 50.9999 15.965 49.4349 15.965C48.8949 15.965 46.7549 19.46 44.9299 23.075C44.3349 23.51 42.4449 25.18 39.7399 25.15C40.6599 23.38 41.0699 22.09 41.0699 20.555C41.0699 16.88 38.6199 15.995 37.2599 15.995C34.0599 15.995 32.6349 18.41 32.6649 20.995C32.1899 20.21 31.3699 19.155 30.3149 19.19C27.3199 19.26 19.4249 33.99 28.9549 33.99C32.6649 33.99 36.4399 30.79 38.7899 27.115C40.8749 27.395 42.7099 26.34 43.8899 25.225C42.8699 27.44 42.1249 29.44 42.1249 30.385C42.1249 32.595 43.8599 33.96 44.3699 33.96C46.7199 33.96 51.0149 28.785 53.8749 24.33C52.3649 28.16 50.0899 33.685 47.7249 38.545C43.1849 40.025 38.0299 42.135 37.0499 44.33C35.2249 48.4 38.3249 50.32 38.3249 50.32C38.3249 50.32 38.3999 50.29 38.5199 50.235C38.9349 50.61 39.4499 50.87 40.0749 50.87C43.8149 50.87 48.0849 45.02 51.7549 38.28C55.7549 37.97 66.0349 37.37 80.9449 37.945C87.0399 38.18 92.3549 38.755 92.3549 38.755C92.3549 38.755 96.4649 37.695 93.6349 36.925H93.6249ZM28.8099 31.99C27.7899 31.99 27.6549 31.07 27.6549 30.56C27.6549 27.12 31.5699 23.245 32.7599 22.155C33.0349 23.755 33.8499 25.32 35.1449 26.24C33.3049 29.3 30.7199 31.99 28.8149 31.99H28.8099ZM36.2949 23.89C34.6949 23.175 33.6399 18.105 35.7499 17.56C36.3299 17.425 37.4499 17.835 37.4499 19.805C37.4499 21.1 37.0749 22.22 36.2949 23.89ZM40.8699 48.86C40.7949 48.87 40.7149 48.88 40.6049 48.905C36.6849 49.695 37.5399 43.315 47.3849 39.22C45.0699 43.89 42.6949 47.825 40.8699 48.86Z" fill="white"/>
<path fill-rule="evenodd" clip-rule="evenodd" d="M26.44 36.56C25.59 36.56 26.68 37.785 25.08 37.785C21.815 37.785 17.46 30.91 13.75 25.81C21.815 24.485 30.22 18.9 30.22 13.355C30.22 10.395 29.37 6.41501 20.25 6.41501C10.65 6.41001 0 10.63 0 17.03C0 20.5 5.24 20.365 5.24 19.005C5.24 18.325 4.22 19.55 4.22 17.71C4.22 14.885 8.815 11.72 14.495 10.09C12.83 12.37 10.445 16.35 8.27 20.435H8.2C6.67 20.435 5.99 21.59 7.215 21.59C7.385 21.59 7.52 21.625 7.625 21.69C7.455 22.03 7.285 22.44 7.08 22.815C6.23 22.34 6.74 21.725 6.3 21.725C5.62 21.725 4.97 23.495 6.13 24.785C4.46 28.39 3.27 31.625 3.27 33.26C3.27 36.015 4.495 37.375 6.365 37.375C7.895 37.375 8.85 36.115 8.61 35.91C8.2 35.47 6.33 37.375 6.33 35.06C6.33 32.985 7.69 29.65 9.63 26.11C9.835 26.11 10.075 26.145 10.31 26.145C10.545 26.145 10.79 26.11 11.025 26.11C14.565 32.065 19.365 41.83 24.16 41.83C27.325 41.83 27.255 36.555 26.44 36.555V36.56ZM11.47 22.88C14.875 17.23 18.82 11.89 19.84 10.905C20.115 10.6 19.6 9.81501 18.82 9.17001C19.975 9.07001 21.135 8.96501 22.29 8.96501C23.89 8.96501 27.565 9.24001 27.565 11.755C27.565 16.38 17.665 22.985 11.915 23.36C11.745 23.225 11.61 23.055 11.475 22.885L11.47 22.88Z" fill="white"/>
<path fill-rule="evenodd" clip-rule="evenodd" d="M61.37 33.995C62.935 33.995 66.95 28.175 66.95 28.175C66.95 28.175 65.42 33.995 69.025 33.995C70.93 33.995 73.44 31.765 75.52 29.3C75.41 29.805 75.335 30.275 75.335 30.655C75.335 33.105 76.865 33.955 77.785 33.955H78.025C82.28 33.955 89.525 22.895 88.3 22.895C87.72 22.895 80.88 31.945 79.35 31.945C77.82 31.945 81.29 25.275 82.14 23.745C83.295 21.94 84.555 20.035 85.815 18.23C90.51 15.85 94.695 11.595 94.695 9.99501C94.695 8.97501 93.915 7.61501 91.975 7.61501C89.865 7.61501 87.075 9.93001 84.42 13.16C83.23 14.59 82.07 16.22 81.015 17.855C80.47 17.925 79.925 17.955 79.345 17.955C77.2 17.955 79.04 19.86 79.685 19.93C78.545 21.865 77.56 23.79 76.81 25.53C74.51 28.2 71.335 31.945 70.35 31.945C68.82 31.945 73.24 24.525 73.24 23.675C73.24 22.245 70.28 21.395 70.28 21.395C70.28 21.395 63.545 31.195 61.74 31.195C60.105 31.195 64.94 19.73 69.635 19.73C70.385 19.73 70.215 21.365 70.79 20.785C71.37 20.205 70.38 15.985 67.865 15.985C63.85 15.985 58.03 23.81 58.03 29.46C58.03 33.17 60.38 33.985 61.365 33.985L61.37 33.995ZM92.995 10.005C93.06 10.005 91.36 12.895 88.025 15.175C90.305 12.18 92.245 10.005 92.995 10.005Z" fill="white"/>
<path fill-rule="evenodd" clip-rule="evenodd" d="M131.5 11.265C132.52 10.55 131.91 11.945 132.45 11.945C132.89 11.945 133.335 11.435 133.335 10.585C133.335 8.95001 131.155 7.38501 130.17 7.38501C123.265 7.38501 106.35 40.085 101.075 40.085C100.465 40.085 100.19 39.61 100.19 39.27C100.19 33.86 106.555 24.125 110.74 18.65C112.065 16.915 111.725 11.065 106.45 11.065C94.475 11.065 90.97 16.885 90.97 18.485C90.97 21.205 94.34 22.705 95.94 21.07C96.72 20.32 94.92 21.34 94.92 19.915C94.92 15.255 102.2 13.075 106.49 13.075C108.295 13.075 107.51 14.775 107.135 15.22C103.22 20.595 97.335 31.485 97.335 38.255C97.335 40.26 98.425 41.52 100.77 41.52C109.855 41.52 121.39 18.145 131.495 11.27L131.5 11.265Z" fill="white"/>
<path fill-rule="evenodd" clip-rule="evenodd" d="M185.255 18.06C185.255 20.035 187.945 21.02 187.945 20.1C187.945 17.99 192.775 16.525 191.315 15.1C190.33 14.08 188.83 13.365 188.22 13.365C186.79 13.365 185.26 15.815 185.26 18.06H185.255Z" fill="white"/>
<path fill-rule="evenodd" clip-rule="evenodd" d="M235.015 26.59C234.13 26.59 230.32 28.735 225.965 31.455C225.49 29.785 225.045 28.155 225.045 26.655C225.045 23.935 229.365 22.745 229.91 22.745C230.455 22.745 230.455 24.72 230.455 24.72C230.455 24.72 231.745 24.45 231.745 22.2C231.745 21.11 229.84 19.545 228.205 19.545C226.57 19.545 222.115 21.55 222.18 25.6C222.19 26.42 222.325 27.305 222.51 28.195C219.33 30.955 214.16 35.89 214.16 35.095C214.16 33.87 219.47 25.805 219.47 23.255C219.47 20.975 218.11 19.51 216.985 19.51C215.695 19.51 212.97 22.2 210.35 25.19C211.27 23.725 212.085 22.505 212.63 21.755C213.415 20.63 211.27 19.475 209.705 19.475C209.15 19.475 206.675 23.6 204.7 27.59C203.765 28.18 202.4 28.815 200.72 28.8C201.64 27.03 202.05 25.74 202.05 24.205C202.05 20.53 199.6 19.645 198.24 19.645C195.04 19.645 193.615 22.06 193.645 24.645C193.17 23.86 192.35 22.805 191.295 22.84C190.045 22.87 187.945 25.455 186.61 28.455C184.345 31.075 180.615 35.635 179.52 35.635C177.955 35.635 186.29 22.5 186.29 22.09C186.29 21.24 184.52 19.195 183.4 19.845C182.99 20.065 180.925 22.96 179.065 26.36C179.035 26.33 178.995 26.315 178.94 26.315C178.295 26.315 171.52 35.57 169.89 35.57C168.78 35.57 175.575 23.325 183.69 12.015C198.135 8.91501 213.365 6.23501 220 10.205C220.365 10.425 222.26 6.54001 214.25 5.42001C206.58 4.35001 196.61 5.84001 186.785 7.84001C188.41 5.72001 190.055 3.70001 191.67 1.87501C192.21 1.26001 188.79 -0.00999451 187.12 -0.00999451C186.51 -0.00999451 182.965 6.41001 181.185 9.02501C166.03 12.355 152.395 15.99 149.695 12.085C149.17 11.325 148.745 17.415 156.875 17.055C161.93 16.83 169.88 15.04 178.545 13.13C176.14 16.96 172.46 22.815 169.845 27.475C167.755 29.78 163.115 35.6 161.885 35.6C160.355 35.6 164.775 28.18 164.775 27.33C164.775 25.9 161.815 25.05 161.815 25.05C161.815 25.05 155.08 34.85 153.275 34.85C151.64 34.85 156.475 23.385 161.17 23.385C161.92 23.385 161.745 25.02 162.325 24.44C162.905 23.86 161.92 19.64 159.4 19.64C156.88 19.64 153.44 22.94 151.395 26.8C149.705 28.255 144.325 35.67 140.275 35.67C136.635 35.67 142.76 23.385 147.42 23.385C148.95 23.385 146.125 28.39 144.765 27.06C144.015 26.31 143.88 28.625 146.23 28.625C148.58 28.625 150.04 25.19 150.04 23.965C150.04 22.605 148.2 19.645 145.685 19.645C142.305 19.645 137.66 25.195 136.27 30.32C134.125 32.805 131.63 35.605 130.78 35.605C129.25 35.605 133.67 28.185 133.67 27.335C133.67 25.905 130.71 25.055 130.71 25.055C130.71 25.055 123.975 34.855 122.17 34.855C120.535 34.855 125.37 23.39 130.065 23.39C130.815 23.39 130.645 25.025 131.22 24.445C131.8 23.865 130.81 19.645 128.295 19.645C124.28 19.645 118.46 27.47 118.46 33.12C118.46 36.83 120.81 37.645 121.795 37.645C123.36 37.645 127.375 31.825 127.375 31.825C127.375 31.825 125.845 37.645 129.45 37.645C131.33 37.645 133.79 35.48 135.85 33.065C135.85 33.085 135.85 33.105 135.85 33.12C135.85 36.83 138.2 37.645 139.185 37.645C142.465 37.645 147.385 33.185 150.09 29.92C149.76 31.02 149.565 32.105 149.565 33.12C149.565 36.83 151.915 37.645 152.9 37.645C154.465 37.645 158.48 31.825 158.48 31.825C158.48 31.825 156.95 37.645 160.555 37.645C162.495 37.645 165.055 35.34 167.15 32.83C166.89 33.49 166.75 34.005 166.75 34.345C166.75 36.795 168.28 37.645 169.2 37.645C171.315 37.645 174.865 33.67 177.095 30.43C175.535 34.27 175.13 37.68 178.455 37.68C180.575 37.68 183.365 34.905 185.47 32.14C185.02 35.11 185.97 37.645 189.92 37.645C193.63 37.645 197.405 34.445 199.755 30.77C201.215 30.965 202.55 30.5 203.625 29.825C202.73 31.825 202.1 33.56 202.1 34.41C202.1 36.62 203.7 37.505 204.245 37.505C204.345 37.505 204.38 37.435 204.415 37.335C209.01 25.87 216.36 22.225 216.36 22.225C216.36 22.225 210.44 31.14 210.44 34.235C210.44 36.14 212.445 37.5 213.06 37.5C214.975 37.5 219.925 32.75 222.795 29.465C223.11 30.68 223.485 31.855 223.76 32.84C220.05 35.325 216.885 37.91 216.885 39.34C216.885 40.02 218.075 42.2 221.31 42.2C225.19 42.2 227.23 39.48 227.23 37.54C227.23 36.18 226.855 34.68 226.45 33.185C231.35 29.85 235.975 26.585 234.99 26.585L235.015 26.59ZM189.805 35.645C188.785 35.645 188.65 34.725 188.65 34.215C188.65 30.78 192.565 26.9 193.755 25.81C194.03 27.41 194.845 28.975 196.14 29.895C194.305 32.955 191.715 35.645 189.81 35.645H189.805ZM197.29 27.545C195.69 26.83 194.635 21.76 196.745 21.215C197.325 21.08 198.445 21.49 198.445 23.46C198.445 24.755 198.07 25.875 197.29 27.545ZM218.95 39.35C218.475 38.875 221.025 36.935 224.26 34.655C224.36 35.13 224.43 35.54 224.43 35.88C224.43 38.265 220.315 40.71 218.95 39.35Z" fill="white"/>
<path d="M245.03 19.69C245.125 19.625 245.295 19.52 245.52 19.385L240.82 13.5L236.115 13.51C234.145 13.51 232.925 15.66 233.93 17.355L237.4 23.2L240.105 23.095L245.025 19.69H245.03Z" fill="white"/>
<path d="M246.73 21.445C246.455 21.6 246.245 21.72 246.12 21.78L241.005 24.24L239.51 26.745L242.935 32.515C243.94 34.21 246.41 34.17 247.355 32.44L249.615 28.315L246.73 21.445Z" fill="white"/>
<path d="M252.745 15.165C253.73 14.68 254.635 14.33 255.27 14.26C254.815 13.795 254.185 13.5 253.445 13.5L244.26 13.52L248.845 17.4C250.155 16.635 252.39 15.34 252.74 15.17L252.745 15.165Z" fill="white"/>
<path d="M250.06 19.485L251.275 25.29L255.685 17.235C256.015 16.63 256.075 15.975 255.92 15.385C255.575 15.86 254.92 16.415 254.085 17.015C253.72 17.275 251.43 18.66 250.06 19.485Z" fill="white"/>
<path d="M140.625 47.56C140.405 47.56 140.225 47.66 140.08 47.865L136.92 52.565L133.835 47.865C133.77 47.775 133.685 47.705 133.57 47.645C133.455 47.59 133.345 47.56 133.235 47.56C133.05 47.56 132.885 47.63 132.75 47.765C132.61 47.905 132.545 48.06 132.545 48.235V56.2C132.545 56.395 132.605 56.56 132.725 56.685C132.845 56.815 133 56.875 133.185 56.875C133.38 56.875 133.535 56.81 133.655 56.685C133.775 56.555 133.835 56.395 133.835 56.2V50.115L136.335 54.005C136.395 54.085 136.48 54.155 136.58 54.21C136.68 54.265 136.78 54.295 136.88 54.295C136.98 54.295 137.075 54.265 137.18 54.21C137.28 54.155 137.365 54.085 137.425 54.005L139.925 50.2V56.2C139.925 56.395 139.99 56.555 140.115 56.685C140.245 56.815 140.41 56.875 140.615 56.875C140.82 56.875 140.985 56.81 141.115 56.685C141.245 56.555 141.305 56.395 141.305 56.2V48.235C141.305 48.04 141.235 47.875 141.1 47.75C140.96 47.62 140.805 47.56 140.63 47.56H140.625Z" fill="white"/>
<path d="M152.6 47.03C152.645 47.03 152.695 47.03 152.745 47.02C152.8 47.01 152.845 46.99 152.89 46.955L154.22 46.275C154.355 46.205 154.455 46.115 154.525 46C154.595 45.89 154.63 45.775 154.63 45.66C154.63 45.485 154.565 45.345 154.43 45.24C154.295 45.14 154.16 45.085 154.02 45.085C153.925 45.085 153.825 45.11 153.73 45.155C153.63 45.205 153.545 45.265 153.465 45.335L152.31 46.305C152.255 46.36 152.215 46.41 152.185 46.465C152.155 46.52 152.14 46.57 152.14 46.625C152.14 46.74 152.18 46.835 152.265 46.91C152.35 46.985 152.46 47.025 152.605 47.025L152.6 47.03Z" fill="white"/>
<path d="M154.79 48.85C154.985 48.85 155.145 48.795 155.275 48.675C155.405 48.56 155.465 48.41 155.465 48.225C155.465 48.04 155.4 47.885 155.275 47.76C155.145 47.635 154.985 47.575 154.79 47.575H150.205C150.01 47.575 149.85 47.64 149.72 47.765C149.59 47.895 149.525 48.055 149.525 48.25V56.2C149.525 56.395 149.59 56.555 149.72 56.685C149.85 56.815 150.01 56.875 150.205 56.875H154.79C154.985 56.875 155.145 56.815 155.275 56.695C155.405 56.575 155.47 56.42 155.47 56.235C155.47 56.065 155.405 55.92 155.275 55.79C155.145 55.66 154.985 55.6 154.79 55.6H150.92V52.755H154.19C154.385 52.755 154.545 52.695 154.675 52.58C154.805 52.465 154.87 52.315 154.87 52.13C154.87 51.935 154.805 51.775 154.675 51.65C154.545 51.525 154.385 51.465 154.19 51.465H150.92V48.845H154.79V48.85Z" fill="white"/>
<path d="M171.765 48.095C171.765 47.945 171.705 47.805 171.585 47.675C171.465 47.545 171.315 47.485 171.14 47.485C170.935 47.485 170.76 47.59 170.61 47.805L168.125 51.12L165.625 47.765C165.475 47.57 165.295 47.475 165.08 47.475C164.91 47.475 164.755 47.54 164.615 47.665C164.475 47.795 164.4 47.955 164.4 48.15C164.4 48.3 164.45 48.435 164.545 48.55L167.25 52.175L164.545 55.835C164.44 55.985 164.385 56.135 164.385 56.285C164.385 56.435 164.445 56.575 164.56 56.695C164.675 56.82 164.82 56.88 164.985 56.88C165.205 56.88 165.385 56.775 165.53 56.56L168.015 53.195L170.54 56.58C170.69 56.775 170.87 56.87 171.085 56.87C171.235 56.87 171.385 56.81 171.535 56.69C171.685 56.57 171.76 56.405 171.76 56.19C171.76 56.04 171.71 55.905 171.615 55.79L168.89 52.135L171.615 48.49C171.71 48.36 171.76 48.22 171.76 48.08L171.765 48.095Z" fill="white"/>
<path d="M183.67 47.575C183.455 47.575 183.285 47.64 183.15 47.765C183.015 47.895 182.95 48.055 182.95 48.25V56.2C182.95 56.395 183.01 56.56 183.135 56.685C183.26 56.815 183.425 56.875 183.64 56.875C183.825 56.875 183.99 56.81 184.125 56.685C184.265 56.555 184.335 56.395 184.345 56.2V48.25C184.345 48.055 184.275 47.89 184.14 47.765C184 47.635 183.845 47.575 183.665 47.575H183.67Z" fill="white"/>
<path d="M202.41 55.04C202.26 55.015 202.105 55.045 201.945 55.125C201.69 55.265 201.415 55.375 201.125 55.445C200.835 55.515 200.545 55.55 200.24 55.55C199.77 55.55 199.33 55.475 198.93 55.33C198.525 55.185 198.175 54.965 197.88 54.665C197.585 54.37 197.35 54.005 197.185 53.575C197.02 53.145 196.935 52.65 196.935 52.095C196.935 51.59 197.015 51.13 197.17 50.715C197.325 50.3 197.55 49.94 197.84 49.64C198.135 49.34 198.48 49.105 198.885 48.935C199.29 48.765 199.745 48.685 200.25 48.685C200.56 48.685 200.86 48.725 201.15 48.805C201.44 48.885 201.705 48.99 201.955 49.125C202.115 49.205 202.27 49.24 202.42 49.225C202.57 49.21 202.695 49.135 202.795 48.99C202.935 48.82 202.995 48.635 202.96 48.43C202.93 48.225 202.815 48.075 202.62 47.98C202.275 47.785 201.9 47.635 201.49 47.53C201.085 47.425 200.675 47.37 200.245 47.37C199.565 47.37 198.935 47.485 198.36 47.72C197.785 47.955 197.28 48.285 196.85 48.71C196.42 49.135 196.085 49.635 195.845 50.21C195.605 50.785 195.485 51.415 195.485 52.095C195.485 52.855 195.615 53.535 195.87 54.13C196.13 54.725 196.475 55.225 196.915 55.63C197.355 56.04 197.86 56.35 198.43 56.56C199 56.77 199.605 56.88 200.245 56.88C200.53 56.88 200.81 56.855 201.085 56.81C201.36 56.76 201.63 56.69 201.895 56.595C202.16 56.5 202.405 56.395 202.625 56.27C202.81 56.18 202.92 56.04 202.96 55.845C202.995 55.65 202.945 55.46 202.8 55.275C202.695 55.14 202.565 55.065 202.415 55.04H202.41Z" fill="white"/>
<path d="M218.97 50.215C218.75 49.635 218.435 49.125 218.035 48.695C217.63 48.26 217.155 47.925 216.605 47.68C216.055 47.435 215.455 47.315 214.795 47.315C214.135 47.315 213.54 47.435 212.995 47.68C212.45 47.925 211.975 48.265 211.575 48.695C211.17 49.13 210.86 49.635 210.635 50.215C210.415 50.795 210.3 51.425 210.3 52.095C210.3 52.765 210.41 53.395 210.635 53.975C210.855 54.555 211.17 55.065 211.575 55.495C211.98 55.93 212.45 56.265 212.995 56.51C213.54 56.755 214.14 56.875 214.795 56.875C215.45 56.875 216.055 56.755 216.605 56.51C217.155 56.265 217.63 55.925 218.035 55.495C218.44 55.06 218.75 54.555 218.97 53.975C219.195 53.395 219.305 52.765 219.305 52.095C219.305 51.425 219.195 50.795 218.97 50.215ZM217.47 53.865C217.205 54.39 216.84 54.8 216.385 55.1C215.93 55.4 215.4 55.55 214.795 55.55C214.19 55.55 213.675 55.4 213.215 55.1C212.755 54.8 212.395 54.385 212.14 53.865C211.88 53.34 211.755 52.755 211.755 52.095C211.755 51.435 211.885 50.84 212.14 50.32C212.395 49.8 212.755 49.39 213.215 49.09C213.675 48.79 214.205 48.64 214.795 48.64C215.385 48.64 215.925 48.79 216.385 49.09C216.84 49.39 217.2 49.805 217.47 50.325C217.735 50.85 217.87 51.435 217.87 52.095C217.87 52.755 217.735 53.34 217.47 53.865Z" fill="white"/>
</g>
<defs>
<clipPath id="clip0_412_147">
<rect width="256" height="56.88" fill="white"/>
</clipPath>
</defs>
</svg>
