<svg width="24" height="24" viewBox="0 0 24 24" fill="none" xmlns="http://www.w3.org/2000/svg">
<path d="M23.68 4.12C23.66 4.06 23.63 4.01 23.59 3.96C23.57 3.92 23.54 3.89 23.51 3.86C23.11 3.31 22.46 3 21.77 3H2.22996C1.52996 3 0.889965 3.33 0.489965 3.86C0.449965 3.9 0.419965 3.94 0.399965 3.98C0.199965 4.26 0.239965 4.66 0.489965 4.92L10.41 14.83C10.85 15.26 11.43 15.48 12 15.48C12.57 15.48 13.15 15.26 13.59 14.83L15.51 12.92L16.57 11.85L23.51 4.92C23.72 4.7 23.78 4.38 23.68 4.12ZM14.97 11.32L12.52 13.77C12.24 14.05 11.76 14.06 11.48 13.77L9.02996 11.32L2.19996 4.5H21.8L14.97 11.32Z" fill="#EB741E"/>
<path d="M23.68 4.12001C23.78 4.38001 23.72 4.70001 23.51 4.92001L22.5 5.93001V17.78L16.58 11.85L15.52 12.92L21.61 19H2.39L8.49 12.91L7.43 11.85L1.5 17.77V5.93001L0.49 4.92001C0.24 4.66001 0.2 4.26001 0.4 3.98001C0.13 4.34001 0 4.78001 0 5.24001V18.26C0 18.77 0.17 19.24 0.47 19.6C0.5 19.65 0.54 19.7 0.58 19.75H0.59C1 20.22 1.61 20.5 2.23 20.5H21.77C22.41 20.5 23.03 20.2 23.41 19.75C23.45 19.71 23.49 19.67 23.52 19.62C23.84 19.24 24 18.77 24 18.26V5.24001C24 4.84001 23.88 4.46001 23.68 4.12001Z" fill="#FAFAFA"/>
</svg>
