<svg width="24" height="24" viewBox="0 0 24 24" fill="none" xmlns="http://www.w3.org/2000/svg">
<g clip-path="url(#clip0_3109_284)">
<path d="M5.34 1.49938H5.40011C5.76078 1.52936 6.04131 1.9192 6.53223 2.75885L6.67249 2.99875C6.87287 3.31862 7.1033 3.65848 7.33373 4.00833C7.8547 4.77801 8.44581 5.64765 8.58607 6.32736C8.64618 6.63723 8.546 6.80716 7.67437 7.53686C7.39384 7.76676 7.11332 8.00666 6.83279 8.28655C5.10957 10.0358 6.74262 12.045 7.35377 12.8047L7.54412 13.0346C8.546 14.304 9.65808 15.4236 10.8503 16.3432C10.9204 16.4032 11.0006 16.4631 11.0908 16.5331C11.762 17.0829 12.7839 17.9125 13.9661 17.9125C14.3969 17.9125 14.8077 17.8026 15.1684 17.5927C15.8897 17.1628 16.3406 16.5531 16.7013 16.0633C17.1721 15.4136 17.2723 15.3436 17.5028 15.3436C18.1039 15.3436 19.0857 16.0133 19.8071 16.5031C20.1076 16.703 20.3982 16.903 20.6587 17.0629C20.7889 17.1429 20.9292 17.2228 21.0694 17.3128C22.0613 17.8925 22.5021 18.2224 22.5021 18.6122C22.4721 20.2616 20.1377 22.1108 18.2341 22.4806C18.174 22.4906 18.0538 22.5006 17.9636 22.5006C17.9336 22.5006 17.9035 22.5006 17.8735 22.5006C13.5353 22.3207 8.87662 19.6618 5.40011 15.3936C4.25797 13.9942 -1.20225 6.78717 3.22604 2.70887C4.40825 1.62932 5.09955 1.50937 5.34 1.50937M5.34 0.00999583C4.17782 0.00999583 3.01565 0.869638 2.21415 1.60933C-2.32435 5.78759 1.03194 12.3948 4.23794 16.3332C7.5341 20.3915 12.5234 23.8001 17.8935 24C18.0237 23.99 18.2742 24 18.5247 23.95C20.829 23.5102 23.9648 21.2511 24.0049 18.6322C24.025 17.1329 22.5422 16.4531 21.4401 15.7834C20.3381 15.1137 18.8753 13.8442 17.5028 13.8442C17.4927 13.8442 17.4827 13.8442 17.4627 13.8442C15.8096 13.8742 15.5792 15.6135 14.407 16.3032C14.2667 16.3832 14.1164 16.4232 13.9661 16.4232C13.2147 16.4232 12.313 15.5835 11.7821 15.1737C10.6499 14.294 9.618 13.2445 8.73635 12.115C8.08513 11.2953 7.0532 10.2257 7.91482 9.34611C8.87662 8.36651 10.3894 7.6768 10.0688 6.03748C9.80836 4.70804 8.6562 3.3586 7.96491 2.21908C7.36378 1.23948 6.7827 0.0999584 5.51032 0C5.4502 0 5.40011 0 5.34 0V0.00999583Z" fill="#FAFAFA"/>
</g>
<defs>
<clipPath id="clip0_3109_284">
<rect width="24" height="24" fill="white"/>
</clipPath>
</defs>
</svg>
