<svg width="32" height="33" viewBox="0 0 25 25" fill="none" xmlns="http://www.w3.org/2000/svg">
    <path
        d="M22.489 24.9873H2.9609C1.72039 24.9873 0.719971 23.9773 0.719971 22.7473V3.22734C0.719971 1.99734 1.72039 0.987335 2.9609 0.987335H22.479C23.7196 0.987335 24.72 1.99734 24.72 3.22734V22.7373C24.72 23.9773 23.7096 24.9773 22.479 24.9773L22.489 24.9873ZM2.9609 2.48734C2.55073 2.48734 2.2206 2.81734 2.2206 3.22734V22.7373C2.2206 23.1473 2.55073 23.4773 2.9609 23.4773H22.479C22.8892 23.4773 23.2193 23.1473 23.2193 22.7373V3.22734C23.2193 2.81734 22.8892 2.48734 22.479 2.48734H2.9609Z"
        fill="#FAFAFA" />
    <path
        d="M10.57 22.2373C7.23002 22.2373 4.52002 19.5173 4.52002 16.1773C4.52002 12.8373 7.23002 10.1273 10.57 10.1273C10.9 10.1273 11.2 10.1473 11.49 10.2073C11.85 10.2673 12.11 10.5873 12.11 10.9473V13.8173C12.11 14.0573 12 14.2773 11.81 14.4173C11.62 14.5573 11.37 14.6073 11.14 14.5273C9.94002 14.1573 8.82002 15.0573 8.82002 16.2073C8.82002 17.3573 9.95002 18.2573 11.14 17.8873C11.86 17.6473 12.35 16.9773 12.35 16.2073V4.48734C12.35 4.07734 12.69 3.73734 13.1 3.73734H15.87C16.28 3.73734 16.62 4.07734 16.62 4.48734C16.62 6.43734 18.21 8.02734 20.16 8.02734C20.57 8.02734 20.91 8.36734 20.91 8.77734V11.5173C20.91 11.9273 20.57 12.2673 20.16 12.2673C18.91 12.2673 17.71 11.9773 16.62 11.4273V16.1873C16.62 18.3373 15.47 20.3373 13.63 21.4073C12.95 21.8073 12.22 22.0773 11.45 22.1773C11.2 22.2273 10.9 22.2473 10.57 22.2473V22.2373ZM10.57 11.6273C8.06002 11.6273 6.02002 13.6673 6.02002 16.1773C6.02002 18.6873 8.06002 20.7373 10.57 20.7373C10.81 20.7373 11.02 20.7173 11.22 20.6873C11.81 20.6073 12.36 20.4073 12.87 20.1073C14.26 19.2973 15.12 17.7973 15.12 16.1773V10.0573C15.12 9.76733 15.28 9.50733 15.54 9.38733C15.8 9.25733 16.1 9.28733 16.33 9.46733C17.23 10.1673 18.28 10.5873 19.41 10.7273V9.47733C17.23 9.14733 15.51 7.42734 15.18 5.24734H13.85V16.2173C13.85 17.6373 12.94 18.8873 11.59 19.3273C9.38002 20.0073 7.32002 18.3473 7.32002 16.2173C7.32002 14.4073 8.82002 12.9673 10.61 12.9473V11.6373H10.58L10.57 11.6273Z"
        fill="#FAFAFA" />
</svg>