<svg width="32" height="33" viewBox="0 0 24 25" fill="none" xmlns="http://www.w3.org/2000/svg">
<g clip-path="url(#clip0_704_18)">
<path d="M21.76 0.99733H2.24C1.01 0.99733 0 2.00733 0 3.23733V22.7473C0 23.9873 1.01 24.9873 2.24 24.9873H11.98C11.98 24.9873 11.98 24.9873 11.99 24.9873H16.12C16.12 24.9873 16.12 24.9873 16.13 24.9873H21.74C22.98 24.9873 23.98 23.9773 23.98 22.7473V3.23733C23.98 1.99733 22.97 0.99733 21.74 0.99733H21.76ZM12 15.0173H9.78V13.0173H12C12.41 13.0173 12.75 12.6773 12.75 12.2673V11.0473C12.75 8.15733 14.5 6.49733 17.56 6.49733C17.94 6.49733 18.33 6.52733 18.68 6.57733V8.64733C18.49 8.60733 18.3 8.59733 18.11 8.59733C16.72 8.59733 15.25 9.47733 15.25 11.0973V12.2673C15.25 12.6773 15.59 13.0173 16 13.0173H18.43V15.0173H16.13C15.92 15.0073 15.74 15.0773 15.6 15.2173C15.46 15.3573 15.38 15.5473 15.38 15.7473V23.4973H12.75V15.7673C12.75 15.3573 12.41 15.0173 12 15.0173ZM22.5 22.7573C22.5 23.1673 22.17 23.4973 21.76 23.4973H16.88V16.5073H19.18V16.5173C19.38 16.5173 19.57 16.4373 19.71 16.2973C19.85 16.1573 19.93 15.9673 19.93 15.7673V12.2673C19.93 11.8573 19.59 11.5173 19.18 11.5173H16.75V11.0973C16.75 10.3073 17.64 10.0973 18.11 10.0973C18.4 10.0973 18.77 10.1973 19.08 10.3573C19.31 10.4773 19.59 10.4773 19.82 10.3373C20.04 10.1973 20.18 9.95733 20.18 9.69733V5.96733C20.18 5.62733 19.95 5.32733 19.62 5.23733C19 5.07733 18.29 4.99733 17.56 4.99733C13.67 4.99733 11.25 7.31733 11.25 11.0473V11.5173H9.03C8.62 11.5173 8.28 11.8573 8.28 12.2673V15.7673C8.28 16.1773 8.62 16.5173 9.03 16.5173H11.25V23.4973H2.24C1.83 23.4973 1.5 23.1673 1.5 22.7573V3.23733C1.5 2.82733 1.83 2.49733 2.24 2.49733H21.75C22.16 2.49733 22.49 2.82733 22.49 3.23733V22.7473L22.5 22.7573Z" fill="#FAFAFA"/>
</g>
<defs>
<clipPath id="clip0_704_18">
<rect width="24" height="24" fill="white" transform="translate(0 0.99733)"/>
</clipPath>
</defs>
</svg>
