<svg width="32" height="33" viewBox="0 0 24 25" fill="none" xmlns="http://www.w3.org/2000/svg">
    <g clip-path="url(#clip0_704_41)">
        <path
            d="M21.76 0.99733H2.24C1.01 0.99733 0 2.00733 0 3.23733V22.7473C0 23.9873 1.01 24.9873 2.24 24.9873H21.75C22.99 24.9873 23.99 23.9773 23.99 22.7473V3.23733C23.99 1.99733 22.98 0.99733 21.75 0.99733H21.76ZM22.5 22.7573C22.5 23.1673 22.17 23.4973 21.76 23.4973H2.24C1.83 23.4973 1.5 23.1673 1.5 22.7573V3.23733C1.5 2.82733 1.83 2.49733 2.24 2.49733H21.75C22.16 2.49733 22.49 2.82733 22.49 3.23733V22.7473L22.5 22.7573Z"
            fill="#FAFAFA" />
        <path
            d="M6.64002 9.83733H3.52002C3.11002 9.83733 2.77002 10.1773 2.77002 10.5873V21.3473C2.77002 21.7573 3.11002 22.0973 3.52002 22.0973H6.64002C7.05002 22.0973 7.39002 21.7573 7.39002 21.3473V10.5873C7.39002 10.1773 7.05002 9.83733 6.64002 9.83733ZM5.89002 20.5973H4.27002V11.3373H5.89002V20.5973Z"
            fill="#FAFAFA" />
        <path
            d="M5.07993 3.66733C3.70993 3.66733 2.67993 4.69733 2.67993 6.06733C2.67993 7.43733 3.70993 8.46733 5.07993 8.46733C6.44993 8.46733 7.47993 7.43733 7.47993 6.00733C7.47993 4.66733 6.44993 3.65733 5.07993 3.65733V3.66733ZM5.07993 6.97733C4.52993 6.97733 4.17993 6.62733 4.17993 6.07733C4.17993 5.52733 4.52993 5.17733 5.07993 5.17733C5.62993 5.17733 5.97993 5.49733 5.97993 6.02733C5.97993 6.61733 5.62993 6.98733 5.07993 6.98733V6.97733Z"
            fill="#FAFAFA" />
        <path
            d="M16.08 9.67733C15.02 9.67733 14.05 9.91733 13.23 10.3573C13.13 10.0573 12.85 9.83733 12.52 9.83733H9.54004C9.13004 9.83733 8.79004 10.1773 8.79004 10.5873V21.3473C8.79004 21.7573 9.13004 22.0973 9.54004 22.0973H12.66C13.07 22.0973 13.41 21.7573 13.41 21.3473V16.0273C13.41 14.5973 14.03 13.8773 15.24 13.8773C15.98 13.8773 16.67 14.0973 16.67 15.6673V21.3473C16.67 21.7573 17.01 22.0973 17.42 22.0973H20.54C20.95 22.0973 21.29 21.7573 21.29 21.3473V15.1873C21.29 11.7873 19.29 9.67733 16.08 9.67733ZM19.79 20.5973H18.17V15.6673C18.17 13.5773 17.1 12.3773 15.24 12.3773C13.19 12.3773 11.91 13.7773 11.91 16.0273V20.5973H10.29V11.3373H11.77V11.8473C11.77 12.1573 11.96 12.4373 12.25 12.5473C12.54 12.6573 12.87 12.5873 13.08 12.3573C13.77 11.5973 14.84 11.1773 16.09 11.1773C18.48 11.1773 19.8 12.6073 19.8 15.1873V20.5973H19.79Z"
            fill="#FAFAFA" />
    </g>
    <defs>
        <clipPath id="clip0_704_41">
            <rect width="24" height="24" fill="white" transform="translate(0 0.99733)" />
        </clipPath>
    </defs>
</svg>