<svg width="32" height="33" viewBox="0 0 24 25" fill="none" xmlns="http://www.w3.org/2000/svg">
<g clip-path="url(#clip0_704_28)">
<path d="M19.65 0.99733H4.35C1.95 0.99733 0 2.94733 0 5.34733V20.6473C0 23.0473 1.95 24.9973 4.35 24.9973H19.65C22.05 24.9973 24 23.0473 24 20.6473V5.34733C24 2.94733 22.05 0.99733 19.65 0.99733ZM22.5 20.6473C22.5 22.2173 21.22 23.4973 19.65 23.4973H4.35C2.78 23.4973 1.5 22.2173 1.5 20.6473V5.34733C1.5 3.77733 2.78 2.49733 4.35 2.49733H19.65C21.22 2.49733 22.5 3.77733 22.5 5.34733V20.6473Z" fill="#FAFAFA"/>
<path d="M12 8.24733C8.85003 8.24733 6.28003 10.8173 6.28003 13.9673C6.28003 17.1173 8.85003 19.6873 12 19.6873C15.15 19.6873 17.72 17.1173 17.72 13.9673C17.72 10.8173 15.15 8.24733 12 8.24733ZM12 18.1873C9.67003 18.1873 7.78003 16.2973 7.78003 13.9673C7.78003 11.6373 9.67003 9.74733 12 9.74733C14.33 9.74733 16.22 11.6373 16.22 13.9673C16.22 16.2973 14.33 18.1873 12 18.1873Z" fill="#FAFAFA"/>
<path d="M18.35 4.24733C17.03 4.24733 15.95 5.32733 15.95 6.64733C15.95 7.96733 17.03 9.04733 18.35 9.04733C19.67 9.04733 20.75 7.96733 20.75 6.64733C20.75 5.32733 19.67 4.24733 18.35 4.24733ZM18.35 7.54733C17.85 7.54733 17.45 7.14733 17.45 6.64733C17.45 6.14733 17.85 5.74733 18.35 5.74733C18.85 5.74733 19.25 6.14733 19.25 6.64733C19.25 7.14733 18.85 7.54733 18.35 7.54733Z" fill="#FAFAFA"/>
</g>
<defs>
<clipPath id="clip0_704_28">
<rect width="24" height="24" fill="white" transform="translate(0 0.99733)"/>
</clipPath>
</defs>
</svg>
