<svg width="32" height="33" viewBox="0 0 24 24" fill="none" xmlns="http://www.w3.org/2000/svg">
<g clip-path="url(#clip0_704_21)">
<path d="M19.65 24H4.35C1.95 24 0 22.05 0 19.65V4.35C0 1.95 1.95 0 4.35 0H19.65C22.05 0 24 1.95 24 4.35V19.65C24 22.05 22.05 24 19.65 24ZM4.35 1.5C2.78 1.5 1.5 2.78 1.5 4.35V19.65C1.5 21.22 2.78 22.5 4.35 22.5H19.65C21.22 22.5 22.5 21.22 22.5 19.65V4.35C22.5 2.78 21.22 1.5 19.65 1.5H4.35Z" fill="#FAFAFA"/>
<path d="M12 7.25C8.85003 7.25 6.28003 9.82 6.28003 12.97C6.28003 16.12 8.85003 18.69 12 18.69C15.15 18.69 17.72 16.12 17.72 12.97C17.72 9.82 15.15 7.25 12 7.25ZM12 17.19C9.67003 17.19 7.78003 15.3 7.78003 12.97C7.78003 10.64 9.67003 8.75 12 8.75C14.33 8.75 16.22 10.64 16.22 12.97C16.22 15.3 14.33 17.19 12 17.19Z" fill="#EB741E"/>
<path d="M18.35 3.25C17.03 3.25 15.95 4.33 15.95 5.65C15.95 6.97 17.03 8.05 18.35 8.05C19.67 8.05 20.75 6.97 20.75 5.65C20.75 4.33 19.67 3.25 18.35 3.25ZM18.35 6.55C17.85 6.55 17.45 6.15 17.45 5.65C17.45 5.15 17.85 4.75 18.35 4.75C18.85 4.75 19.25 5.15 19.25 5.65C19.25 6.15 18.85 6.55 18.35 6.55Z" fill="#EB741E"/>
</g>
<defs>
<clipPath id="clip0_704_21">
<rect width="24" height="24" fill="white"/>
</clipPath>
</defs>
</svg>
