<svg width="32" height="33" viewBox="0 0 24 25" fill="none" xmlns="http://www.w3.org/2000/svg">
<g clip-path="url(#clip0_3109_269)">
<path d="M21.7691 24H2.24093C1.00042 24 0 22.99 0 21.76V2.24C0 1.01 1.01042 0 2.24093 0H21.7591C22.9996 0 24 1.01 24 2.24V21.75C24 22.99 22.9896 23.99 21.7591 23.99L21.7691 24ZM2.24093 1.5C1.83076 1.5 1.50063 1.83 1.50063 2.24V21.75C1.50063 22.16 1.83076 22.49 2.24093 22.49H21.7591C22.1692 22.49 22.4994 22.16 22.4994 21.75V2.24C22.4994 1.83 22.1692 1.5 21.7591 1.5H2.24093Z" fill="#FAFAFA"/>
<path d="M6.64305 21.11H3.52175C3.11158 21.11 2.77143 20.77 2.77143 20.36V9.59999C2.77143 9.18999 3.11158 8.84999 3.52175 8.84999H6.64305C7.05322 8.84999 7.39336 9.18999 7.39336 9.59999V20.36C7.39336 20.77 7.05322 21.11 6.64305 21.11ZM4.27206 19.61H5.89273V10.35H4.27206V19.61ZM5.0824 7.47999C3.71183 7.47999 2.6814 6.44999 2.6814 5.07999C2.6814 3.70999 3.71183 2.67999 5.0824 2.67999C6.45297 2.67999 7.4834 3.68999 7.4834 5.02999C7.4834 6.45999 6.47298 7.48999 5.0824 7.48999V7.47999ZM5.0824 4.16999C4.53217 4.16999 4.18202 4.51999 4.18202 5.06999C4.18202 5.61999 4.53217 5.96999 5.0824 5.96999C5.63263 5.96999 5.98277 5.59999 5.98277 5.00999C5.98277 4.48999 5.63263 4.15999 5.0824 4.15999V4.16999Z" fill="#EB741E"/>
<path d="M20.5488 21.11H17.4275C17.0174 21.11 16.6772 20.77 16.6772 20.36V14.68C16.6772 13.11 15.9869 12.89 15.2466 12.89C14.0261 12.89 13.4159 13.61 13.4159 15.04V20.36C13.4159 20.77 13.0757 21.11 12.6656 21.11H9.54426C9.13409 21.11 8.79395 20.77 8.79395 20.36V9.6C8.79395 9.19 9.13409 8.85 9.54426 8.85H12.5255C12.8556 8.85 13.1458 9.07 13.2358 9.37C14.0561 8.93 15.0265 8.69 16.087 8.69C19.3083 8.69 21.2992 10.8 21.2992 14.2V20.36C21.2992 20.77 20.959 21.11 20.5488 21.11ZM18.1779 19.61H19.7985V14.2C19.7985 11.61 18.478 10.19 16.087 10.19C14.8365 10.19 13.776 10.61 13.0757 11.37C12.8656 11.6 12.5355 11.67 12.2454 11.56C11.9553 11.45 11.7652 11.17 11.7652 10.86V10.35H10.2846V19.61H11.9052V15.04C11.9052 12.79 13.1858 11.39 15.2366 11.39C17.0974 11.39 18.1679 12.59 18.1679 14.68V19.61H18.1779Z" fill="#EB741E"/>
</g>
<defs>
<clipPath id="clip0_3109_269">
<rect width="24" height="24" fill="white"/>
</clipPath>
</defs>
</svg>
