<svg width="32" height="33" viewBox="0 0 24 24" fill="none" xmlns="http://www.w3.org/2000/svg">
<g clip-path="url(#clip0_704_13)">
<path d="M21.76 0H2.24C1 0 0 1 0 2.24V21.76C0 23 1 24 2.24 24H11.99C11.58 24 11.24 23.67 11.24 23.25V22.5H2.24C1.83 22.5 1.5 22.17 1.5 21.76V2.24C1.5 1.83 1.83 1.5 2.24 1.5H21.76C22.17 1.5 22.5 1.83 22.5 2.24V21.76C22.5 22.17 22.17 22.5 21.76 22.5H16.88V23.25C16.88 23.67 16.55 24 16.13 24H21.76C23 24 24 23 24 21.76V2.24C24 1 23 0 21.76 0Z" fill="#FAFAFA"/>
<path d="M18.11 9.09001C18.41 9.09001 18.77 9.19001 19.08 9.36001C19.32 9.48001 19.59 9.47001 19.82 9.34001C20.05 9.20001 20.18 8.96001 20.18 8.69001V4.96001C20.18 4.62001 19.95 4.32001 19.62 4.24001C19 4.08001 18.29 3.99001 17.56 3.99001C13.67 3.99001 11.25 6.31001 11.25 10.04V10.51H9.03003C8.61003 10.51 8.28003 10.85 8.28003 11.26V14.76C8.28003 15.18 8.61003 15.51 9.03003 15.51H11.25V23.24C11.25 23.66 11.59 23.99 12 23.99H16.13C16.55 23.99 16.88 23.66 16.88 23.24V15.5H19.18C19.38 15.51 19.57 15.43 19.71 15.29C19.86 15.15 19.93 14.96 19.93 14.76V11.26C19.93 10.85 19.6 10.51 19.18 10.51H16.75V10.09C16.75 9.30001 17.64 9.09001 18.11 9.09001ZM16 12.01H18.43V14.01L16.14 13.99C15.93 14 15.75 14.07 15.61 14.21C15.46 14.35 15.38 14.55 15.38 14.74V22.49H12.75V14.76C12.75 14.35 12.42 14.01 12 14.01H9.78003V12.01H12C12.42 12.01 12.75 11.68 12.75 11.26V10.04C12.75 7.15001 14.51 5.49001 17.56 5.49001C17.94 5.49001 18.33 5.52001 18.68 5.58001V7.65001C18.49 7.61001 18.3 7.59001 18.11 7.59001C16.73 7.59001 15.25 8.47001 15.25 10.09V11.26C15.25 11.68 15.59 12.01 16 12.01Z" fill="#EB741E"/>
</g>
<defs>
<clipPath id="clip0_704_13">
<rect width="24" height="24" fill="white"/>
</clipPath>
</defs>
</svg>
