<svg width="32" height="33" viewBox="0 0 25 25" fill="none" xmlns="http://www.w3.org/2000/svg">
    <path
        d="M21.8257 24.747H2.29757C1.05706 24.747 0.0566406 23.7366 0.0566406 22.5061V2.98794C0.0566406 1.74742 1.06706 0.747009 2.29757 0.747009H21.8157C23.0562 0.747009 24.0566 1.75743 24.0566 2.98794V22.5061C24.0566 23.7466 23.0462 24.747 21.8157 24.747H21.8257ZM2.29757 2.23763C1.8874 2.23763 1.55727 2.56777 1.55727 2.97794V22.4961C1.55727 22.9062 1.8874 23.2364 2.29757 23.2364H21.8157C22.2259 23.2364 22.556 22.9062 22.556 22.4961V2.97794C22.556 2.56777 22.2259 2.23763 21.8157 2.23763H2.29757Z"
        fill="#FAFAFA" />
    <path
        d="M9.92069 21.9959C6.57929 21.9959 3.86816 19.2747 3.86816 15.9333C3.86816 12.592 6.57929 9.88083 9.92069 9.88083C10.2508 9.88083 10.5509 9.90083 10.8411 9.96086C11.2012 10.0209 11.4613 10.341 11.4613 10.7012V13.5724C11.4613 13.8125 11.3513 14.0326 11.1612 14.1726C10.9711 14.3127 10.721 14.3627 10.4909 14.2827C9.29042 13.9125 8.16996 14.8129 8.16996 15.9634C8.16996 17.1138 9.30043 18.0142 10.4909 17.6441C11.2112 17.404 11.7014 16.7337 11.7014 15.9634V4.23847C11.7014 3.8283 12.0416 3.48816 12.4517 3.48816H15.2229C15.6331 3.48816 15.9732 3.8283 15.9732 4.23847C15.9732 6.18928 17.5639 7.77995 19.5147 7.77995C19.9249 7.77995 20.265 8.12009 20.265 8.53026V11.2714C20.265 11.6816 19.9249 12.0217 19.5147 12.0217C18.2642 12.0217 17.0637 11.7316 15.9732 11.1814V15.9433C15.9732 18.0942 14.8227 20.0951 12.982 21.1655C12.3017 21.5657 11.5714 21.8358 10.8011 21.9358C10.5509 21.9859 10.2508 22.0059 9.92069 22.0059V21.9959ZM9.92069 11.3815C7.40964 11.3815 5.36879 13.4223 5.36879 15.9333C5.36879 18.4444 7.40964 20.4952 9.92069 20.4952C10.1608 20.4952 10.3709 20.4752 10.571 20.4452C11.1612 20.3652 11.7114 20.1651 12.2216 19.865C13.6122 19.0546 14.4726 17.554 14.4726 15.9333V9.8108C14.4726 9.52068 14.6326 9.26057 14.8928 9.14052C15.1529 9.01046 15.453 9.04048 15.6831 9.22055C16.5835 9.92084 17.6339 10.341 18.7644 10.4811V9.23055C16.5835 8.90042 14.8627 7.1797 14.5326 4.99879H13.2021V15.9734C13.2021 17.394 12.2917 18.6445 10.9411 19.0847C8.73019 19.7649 6.66933 18.1043 6.66933 15.9734C6.66933 14.1626 8.16996 12.722 9.9607 12.702V11.3915H9.93069L9.92069 11.3815Z"
        fill="#EB741E" />
</svg>