<svg width="18" height="18" viewBox="0 0 24 24" fill="none" xmlns="http://www.w3.org/2000/svg">
    <path fill-rule="evenodd" clip-rule="evenodd"
        d="M1.01758 7.66602H20.7954H20.8044H22.495V21.8978C22.495 23.0607 21.5468 24 20.3929 24H3.1197C1.95683 24 1.01758 23.0518 1.01758 21.8978V7.66602ZM20.3929 22.3004C20.6165 22.3004 20.7954 22.1215 20.7954 21.8978V9.35666H2.71717V21.8978C2.71717 22.1215 2.89607 22.3004 3.1197 22.3004H20.3929ZM18.1564 16.2533H5.34687C4.87277 16.2533 4.49707 15.8776 4.49707 15.4035C4.49707 14.9294 4.88171 14.5537 5.34687 14.5537H18.1564C18.6305 14.5537 19.0062 14.9294 19.0062 15.4035C19.0062 15.8776 18.6216 16.2533 18.1564 16.2533Z"
        fill="#FAFAFA" />
    <path
        d="M20.3843 2.54044H19.123C18.7473 1.08237 17.4324 0 15.858 0C14.2836 0 12.9687 1.08237 12.593 2.54044H11.1439C10.7682 1.08237 9.45322 0 7.87887 0C6.30451 0 4.98956 1.08237 4.61387 2.54044H3.10212C1.94819 2.54044 1 3.47969 1 4.64256V7.66605H2.69064V4.64256C2.69064 4.41893 2.86955 4.24003 3.09318 4.24003H9.31905C9.02385 4.74096 8.48714 5.08088 7.86098 5.08088C7.39583 5.08088 7.01118 5.45658 7.01118 5.93067C7.01118 6.40477 7.38688 6.78047 7.86098 6.78047C9.43533 6.78047 10.7503 5.6981 11.126 4.24003H17.2892C16.994 4.74096 16.4573 5.08088 15.8312 5.08088C15.366 5.08088 14.9814 5.45658 14.9814 5.93067C14.9814 6.40477 15.3571 6.78047 15.8312 6.78047C17.4055 6.78047 18.7205 5.6981 19.0962 4.24003H20.3574C20.5811 4.24003 20.76 4.41893 20.76 4.64256V7.66605H22.4506V4.64256C22.4506 3.48863 21.5114 2.54044 20.3485 2.54044H20.3843ZM15.858 1.69959C16.4842 1.69959 17.0209 2.03951 17.3161 2.54044H14.4089C14.7041 2.03951 15.2408 1.69959 15.8669 1.69959H15.858ZM7.88781 1.69959C8.51398 1.69959 9.05069 2.03951 9.34588 2.54044H6.43869C6.73388 2.03951 7.27059 1.69959 7.89676 1.69959H7.88781Z"
        fill="#FAFAFA" />
</svg>