<svg width="24" height="24" viewBox="0 0 24 24" fill="none" xmlns="http://www.w3.org/2000/svg">
<g clip-path="url(#clip0_629_203)">
<path d="M16.0001 14.93C14.6801 14.93 13.6001 16.01 13.6001 17.33C13.6001 18.65 14.6801 19.73 16.0001 19.73C17.3201 19.73 18.4001 18.65 18.4001 17.33C18.4001 16.01 17.3201 14.93 16.0001 14.93ZM16.0001 18.23C15.5001 18.23 15.1001 17.83 15.1001 17.33C15.1001 16.83 15.5001 16.43 16.0001 16.43C16.5001 16.43 16.9001 16.83 16.9001 17.33C16.9001 17.83 16.5001 18.23 16.0001 18.23Z" fill="#666666"/>
<path d="M12 12.01C10.58 12.01 9.23 12.13 7.98 12.35V13.87C9.19 13.64 10.55 13.51 12 13.51C18.19 13.51 22.5 15.88 22.5 18C22.5 20.12 18.19 22.49 12 22.49C5.81 22.49 1.5 20.12 1.5 18C1.5 16.59 3.4 15.08 6.48 14.22V12.66C2.6 13.64 0 15.64 0 18C0 21.36 5.27 23.99 12 23.99C18.73 23.99 24 21.36 24 18C24 14.64 18.73 12.01 12 12.01Z" fill="#666666"/>
<path d="M14.81 3.70001L7.56998 0.080006C7.56998 0.080006 7.52998 0.060006 7.50998 0.060006C7.46998 0.040006 7.42998 0.020006 7.37998 0.020006C7.25998 -0.00999403 7.13998 5.9735e-06 7.02998 0.030006C6.96998 0.050006 6.89998 0.080006 6.84998 0.110006C6.78998 0.150006 6.72998 0.190006 6.68998 0.240006C6.63998 0.290006 6.59998 0.350006 6.56998 0.410006C6.55998 0.410006 6.55998 0.420006 6.55998 0.420006C6.50998 0.530006 6.47998 0.640006 6.47998 0.750006V18C6.47998 18.41 6.81998 18.75 7.22998 18.75C7.63998 18.75 7.97998 18.41 7.97998 18V8.47001L14.81 5.05001C15.07 4.92001 15.23 4.66001 15.23 4.38001C15.23 4.10001 15.07 3.83001 14.81 3.70001ZM7.97998 6.79001V1.96001L12.8 4.38001L7.97998 6.79001Z" fill="#EB741E"/>
</g>
<defs>
<clipPath id="clip0_629_203">
<rect width="24" height="23.99" fill="white"/>
</clipPath>
</defs>
</svg>
