<svg width="24" height="24" viewBox="0 0 24 24" fill="none" xmlns="http://www.w3.org/2000/svg">
<g clip-path="url(#clip0_629_210)">
<path d="M16.0001 14.93C14.6801 14.93 13.6001 16.01 13.6001 17.33C13.6001 18.65 14.6801 19.73 16.0001 19.73C17.3201 19.73 18.4001 18.65 18.4001 17.33C18.4001 16.01 17.3201 14.93 16.0001 14.93ZM16.0001 18.23C15.5001 18.23 15.1001 17.83 15.1001 17.33C15.1001 16.83 15.5001 16.43 16.0001 16.43C16.5001 16.43 16.9001 16.83 16.9001 17.33C16.9001 17.83 16.5001 18.23 16.0001 18.23Z" fill="#666666"/>
<path d="M12 12.01C10.58 12.01 9.24001 12.13 7.98001 12.35V8.46001L14.81 5.04001C15.06 4.91001 15.22 4.65001 15.22 4.37001C15.22 4.09001 15.06 3.83001 14.81 3.70001L7.57001 0.0800098H7.55001C7.50001 0.0600098 7.45001 0.0500098 7.41001 0.0400098C7.36001 0.0300098 7.31001 0.0100098 7.27001 0.0100098H7.25001C7.21001 0.0100098 7.18001 0.0300098 7.14001 0.0300098C7.09001 0.0300098 7.04001 0.0400098 6.99001 0.0600098C6.94001 0.0800098 6.90001 0.11001 6.86001 0.13001C6.82001 0.15001 6.78001 0.18001 6.74001 0.21001C6.70001 0.25001 6.67001 0.29001 6.64001 0.34001C6.62001 0.37001 6.59001 0.39001 6.57001 0.43001V0.45001C6.55001 0.49001 6.54001 0.54001 6.53001 0.59001C6.52001 0.64001 6.50001 0.69001 6.50001 0.74001C6.50001 0.74001 6.50001 0.75001 6.50001 0.76001V12.67C2.62001 13.65 0.0100098 15.65 0.0100098 18C0.0100098 21.36 5.28001 23.99 12.01 23.99C18.74 23.99 24.01 21.36 24.01 18C24.01 14.64 18.74 12.01 12.01 12.01H12ZM7.98001 6.78001V1.96001L12.8 4.37001L7.98001 6.78001ZM12 22.48C5.81001 22.48 1.50001 20.12 1.50001 17.99C1.50001 16.58 3.40001 15.07 6.49001 14.21V17.99C6.49001 18.4 6.83001 18.74 7.24001 18.74C7.65001 18.74 7.99001 18.4 7.99001 17.99V13.86C9.21001 13.63 10.55 13.5 12.01 13.5C18.2 13.5 22.51 15.86 22.51 17.99C22.51 20.12 18.2 22.48 12.01 22.48H12Z" fill="#666666"/>
</g>
<defs>
<clipPath id="clip0_629_210">
<rect width="24" height="23.99" fill="white"/>
</clipPath>
</defs>
</svg>
