<svg width="24" height="24" viewBox="0 0 24 24" fill="none" xmlns="http://www.w3.org/2000/svg">
<g clip-path="url(#clip0_641_47)">
<path d="M3.74079 21.3222L2.66767 22.3953C2.51723 22.5357 2.32667 22.616 2.13611 22.616C1.93553 22.616 1.74497 22.5357 1.60456 22.3953C1.30369 22.0944 1.30369 21.6231 1.60456 21.3322L2.67769 20.2591L3.74079 21.3222Z" fill="#666666"/>
<path d="M14.4527 8.47747L8.49561 14.4345L9.55937 15.4983L15.5164 9.54123L14.4527 8.47747Z" fill="#666666"/>
<path d="M22.3953 2.65775L21.3221 3.73088L20.259 2.66778L21.3322 1.59465C21.623 1.29377 22.0944 1.29377 22.3953 1.59465C22.6861 1.88549 22.6861 2.3669 22.3953 2.65775Z" fill="#666666"/>
<path d="M14.3317 20.2791L8.49471 14.4421L3.71076 9.66819C3.42994 9.38738 2.92848 9.38738 2.64766 9.66819L0.280753 12.0351C-0.0100951 12.336 -0.0100951 12.8074 0.280753 13.0982L2.07599 14.8934L0.220578 16.7388C-0.0702707 17.0397 -0.0702707 17.5111 0.220578 17.8019L6.18798 23.7693C6.33842 23.9198 6.52898 23.99 6.71953 23.99C6.91009 23.99 7.10064 23.9198 7.25108 23.7693L9.09647 21.9239L10.8917 23.7192C11.0421 23.8596 11.2327 23.9398 11.4233 23.9398C11.6138 23.9398 11.8144 23.8596 11.9548 23.7192L14.3317 21.3422C14.4721 21.2018 14.5524 21.0113 14.5524 20.8107C14.5524 20.6101 14.4721 20.4196 14.3317 20.2791ZM6.71953 22.1747L4.2724 19.7275L1.82526 17.2704L3.12906 15.9666L5.5762 18.4137L8.02334 20.8709L6.71953 22.1747ZM11.4233 22.1245L1.8754 12.5666L3.17921 11.2628L12.7271 20.8107L11.4233 22.1245Z" fill="#EB741E"/>
<path d="M21.9238 9.09653L23.7792 7.25114C23.9196 7.11073 23.9998 6.91015 23.9998 6.71959C23.9998 6.51901 23.9196 6.32845 23.7792 6.18804L21.322 3.73088L17.8118 0.220639C17.5209 -0.0702096 17.0395 -0.0702096 16.7487 0.220639L14.9033 2.06602L13.1081 0.270785C12.8172 -0.0200634 12.3358 -0.0200634 12.045 0.270785L9.67805 2.64772C9.37717 2.93857 9.37717 3.40994 9.67805 3.71082L20.289 14.3218C20.4394 14.4722 20.63 14.5424 20.8205 14.5424C21.0111 14.5424 21.2017 14.4722 21.3521 14.3218L23.719 11.9549C24.0199 11.654 24.0199 11.1826 23.719 10.8918L21.9238 9.09653ZM17.2802 1.81529L22.1845 6.71959L20.8707 8.0234L15.9764 3.11909L17.2802 1.81529ZM20.8205 12.7271L16.0466 7.95319L11.2727 3.17927L12.5765 1.86544L17.3304 6.6193L22.1244 11.4233L20.8205 12.7271Z" fill="#EB741E"/>
</g>
<defs>
<clipPath id="clip0_641_47">
<rect width="24" height="23.99" fill="white"/>
</clipPath>
</defs>
</svg>
