<svg width="24" height="24" viewBox="0 0 24 24" fill="none" xmlns="http://www.w3.org/2000/svg">
<g clip-path="url(#clip0_641_56)">
<path d="M21.933 9.10033L23.7792 7.25417C24.0702 6.9632 24.0702 6.4816 23.7792 6.19063L21.321 3.73244L22.3946 2.65886C22.6855 2.36789 22.6855 1.88628 22.3946 1.59531C22.1036 1.30434 21.622 1.30434 21.331 1.59531L20.2575 2.66889L17.8193 0.22073C17.5284 -0.07024 17.0468 -0.07024 16.7558 0.22073L14.9096 2.06688L13.1136 0.270897C12.8227 -0.0200728 12.3411 -0.0200728 12.0501 0.270897L9.68221 2.63879C9.39124 2.92976 9.39124 3.41137 9.68221 3.70233L14.4581 8.47825L8.49826 14.4381L3.72234 9.6622C3.4414 9.38126 2.93973 9.38126 2.6588 9.6622L0.270836 12.0401C-0.0201338 12.3311 -0.0201338 12.8127 0.270836 13.1037L2.06682 14.8997L0.220669 16.7458C-0.0703011 17.0368 -0.0703011 17.5184 0.220669 17.8094L2.66883 20.2575L1.59525 21.3311C1.30428 21.6221 1.30428 22.1037 1.59525 22.3946C1.74575 22.5451 1.93639 22.6154 2.12702 22.6154C2.31766 22.6154 2.50829 22.5451 2.6588 22.3946L3.73237 21.3211L6.18053 23.7692C6.33104 23.9197 6.52167 23.99 6.71231 23.99C6.90294 23.99 7.09358 23.9197 7.24408 23.7692L9.09023 21.9231L10.8862 23.7191C11.0267 23.8595 11.2173 23.9398 11.418 23.9398C11.6187 23.9398 11.8093 23.8595 11.9498 23.7191L14.3177 21.3512C14.6086 21.0602 14.6086 20.5786 14.3177 20.2876L9.54174 15.5117L15.5016 9.55183L20.2775 14.3278C20.428 14.4783 20.6187 14.5485 20.8093 14.5485C20.9999 14.5485 21.1906 14.4783 21.3411 14.3278L23.709 11.9599C23.9999 11.6689 23.9999 11.1873 23.709 10.8963L21.913 9.10033H21.933ZM6.72234 22.1839L1.81599 17.2776L3.12033 15.9732L8.02669 20.8796L6.72234 22.1839ZM11.428 22.1338L1.87619 12.5719L3.18053 11.2676L12.7324 20.8194L11.428 22.1237V22.1338ZM17.2876 1.81605L19.7257 4.25417L22.1738 6.70233L20.8695 8.00668L15.9631 3.10033L17.2675 1.79598L17.2876 1.81605ZM20.8294 12.7324L11.2675 3.1806L12.5718 1.87625L22.1237 11.4281L20.8193 12.7324H20.8294Z" fill="#666666"/>
</g>
<defs>
<clipPath id="clip0_641_56">
<rect width="24" height="24" fill="white"/>
</clipPath>
</defs>
</svg>
