<svg width="21" height="24" viewBox="0 0 21 24" fill="none" xmlns="http://www.w3.org/2000/svg">
<g clip-path="url(#clip0_672_2)">
<path d="M17.8699 7.69998H12.6799C12.2599 7.69998 11.9299 8.02998 11.9299 8.44998V12.88H13.4299V9.19998H17.1199V12.88H18.6199V8.44998C18.6199 8.02998 18.2799 7.69998 17.8699 7.69998Z" fill="#666666"/>
<path d="M12.59 5.88L6.93999 0.219995C6.63999 -0.0800049 6.16999 -0.0800049 5.87999 0.219995L0.219989 5.88C0.00998871 6.1 -0.0600113 6.41999 0.0599887 6.7C0.169989 6.98 0.449989 7.16 0.749989 7.16H2.03999V12.89H3.53999V7.16H9.26999V12.89H10.77V7.16H12.06C12.37 7.16 12.64 6.98 12.76 6.7C12.87 6.41999 12.81 6.1 12.59 5.88ZM2.55999 5.66L6.40999 1.82L10.25 5.66H2.55999Z" fill="#666666"/>
<path d="M19.75 12.88H17.12L13.43 12.89L9.27 12.88L3.54 12.89L0.75 12.88C0.34 12.88 0 13.22 0 13.63V23.22C0 23.64 0.34 23.97 0.75 23.97H4.86C5.08 23.97 5.29 23.88 5.44 23.7C5.58 23.53 5.64 23.31 5.6 23.09C5.57 22.91 5.56 22.74 5.56 22.55C5.56 19.97 7.66 17.86 10.25 17.86C12.84 17.86 14.93 19.97 14.93 22.55C14.93 22.74 14.92 22.91 14.89 23.09C14.85 23.31 14.91 23.53 15.05 23.7C15.2 23.88 15.41 23.97 15.63 23.97H19.75C20.16 23.97 20.5 23.64 20.5 23.22V13.63C20.5 13.22 20.16 12.88 19.75 12.88ZM19 22.47H16.43C16.39 19.1 13.63 16.36 10.25 16.36C6.87 16.36 4.1 19.1 4.06 22.47H1.5V14.38H19V22.47Z" fill="#EB741E"/>
</g>
<defs>
<clipPath id="clip0_672_2">
<rect width="20.5" height="23.97" fill="white"/>
</clipPath>
</defs>
</svg>
