<svg width="21" height="24" viewBox="0 0 21 24" fill="none" xmlns="http://www.w3.org/2000/svg">
<g clip-path="url(#clip0_672_11)">
<path d="M19.75 12.89H18.62V8.45C18.62 8.04 18.28 7.7 17.87 7.7H12.68C12.27 7.7 11.93 8.04 11.93 8.45V12.89H10.78V7.16H12.07C12.37 7.16 12.65 6.98 12.76 6.7C12.87 6.42 12.81 6.1 12.6 5.88L6.94 0.220002C6.65 -0.0699975 6.17 -0.0699975 5.88 0.220002L0.22 5.88C0.01 6.09 -0.06 6.42 0.06 6.7C0.18 6.98 0.45 7.16 0.75 7.16H2.04V12.89H0.75C0.34 12.89 0 13.23 0 13.64V23.23C0 23.64 0.34 23.98 0.75 23.98H4.86C5.08 23.98 5.29 23.88 5.44 23.71C5.58 23.54 5.64 23.31 5.6 23.1C5.57 22.92 5.56 22.75 5.56 22.56C5.56 19.97 7.66 17.87 10.25 17.87C12.84 17.87 14.93 19.97 14.93 22.56C14.93 22.74 14.93 22.92 14.89 23.1C14.85 23.32 14.91 23.54 15.05 23.71C15.19 23.88 15.4 23.98 15.63 23.98H19.75C20.16 23.98 20.5 23.64 20.5 23.23V13.64C20.5 13.23 20.16 12.89 19.75 12.89ZM13.43 9.2H17.12V12.89H13.43V9.2ZM6.41 1.81L10.26 5.66H2.56L6.41 1.81ZM3.54 7.16H9.28V12.89H3.54V7.16ZM19 22.48H16.43C16.39 19.1 13.63 16.37 10.25 16.37C6.87 16.37 4.1 19.1 4.06 22.48H1.5V14.39H2.77C2.77 14.39 2.77 14.39 2.78 14.39H10.02C10.02 14.39 10.02 14.39 10.03 14.39H12.65C12.65 14.39 12.65 14.39 12.66 14.39H17.85C17.85 14.39 17.85 14.39 17.86 14.39H18.98V22.48H19Z" fill="#666666"/>
</g>
<defs>
<clipPath id="clip0_672_11">
<rect width="20.5" height="23.98" fill="white"/>
</clipPath>
</defs>
</svg>
