<svg width="81" height="40" viewBox="0 0 61 20" fill="none" xmlns="http://www.w3.org/2000/svg">
    <g clip-path="url(#clip0_1084_858)">
        <path
            d="M0.0246582 17.3937V2.34375C0.0246582 1.23375 0.914658 0.34375 2.02466 0.34375H58.7547C59.8547 0.34375 60.7547 1.23375 60.7547 2.34375V14.7037C60.7547 15.8038 59.8647 16.7038 58.7547 16.7038H4.03466V19.6138L0.0246582 17.4037V17.3937Z"
            fill="#ED2630" />
        <path
            d="M6.36465 6.85376C6.36465 7.27376 6.03465 7.61376 5.57465 7.61376C5.11465 7.61376 4.76465 7.27376 4.76465 6.85376C4.76465 6.43376 5.10465 6.07376 5.57465 6.07376C6.04465 6.07376 6.36465 6.41376 6.36465 6.85376ZM6.31465 13.0138H4.83465L5.07465 8.45376H6.06465L6.31465 13.0138Z"
            fill="white" />
        <path
            d="M13.1445 10.3838V11.4738H7.89453V4.47375H13.0045V5.56375H9.19453V7.38375H12.5745V8.45375H9.19453V10.3838H13.1445Z"
            fill="white" />
        <path
            d="M19.7346 8.41376V11.4738H18.4846V8.57376C18.4846 7.62376 18.0146 7.16376 17.2146 7.16376C16.3246 7.16376 15.7246 7.70376 15.7246 8.77376V11.4738H14.4746V6.13376H15.6646V6.82376C16.0746 6.33376 16.7246 6.07376 17.5046 6.07376C18.7846 6.07376 19.7346 6.80376 19.7346 8.41376Z"
            fill="white" />
        <path
            d="M23.6445 8.80376C23.6445 7.20376 24.8445 6.07376 26.4845 6.07376C28.1245 6.07376 29.3345 7.20376 29.3345 8.80376C29.3345 10.4038 28.1445 11.5438 26.4845 11.5438C24.8245 11.5438 23.6445 10.4038 23.6445 8.80376ZM28.0745 8.80376C28.0745 7.78376 27.3945 7.13376 26.4845 7.13376C25.5745 7.13376 24.9045 7.78376 24.9045 8.80376C24.9045 9.82376 25.5845 10.4738 26.4845 10.4738C27.3845 10.4738 28.0745 9.82376 28.0745 8.80376Z"
            fill="white" />
        <path
            d="M31.9147 5.85376V6.17376H33.3847V7.17376H31.9547V11.4738H30.7047V7.17376H29.8247V6.17376H30.7047V5.83376C30.7047 4.71376 31.3747 3.98376 32.6147 3.98376C33.0447 3.98376 33.4647 4.07376 33.7447 4.27376L33.3947 5.21376C33.2047 5.08376 32.9647 4.99376 32.7047 4.99376C32.1847 4.99376 31.9147 5.28376 31.9147 5.85376Z"
            fill="white" />
        <path
            d="M39.1448 9.20376H34.9548C35.1048 9.98376 35.7548 10.4838 36.6848 10.4838C37.2848 10.4838 37.7548 10.2938 38.1348 9.90376L38.8048 10.6738C38.3248 11.2438 37.5748 11.5438 36.6548 11.5438C34.8948 11.5438 33.7448 10.4338 33.7048 8.88376C33.6648 7.33376 34.9448 6.07376 36.4648 6.07376C37.9848 6.07376 39.1648 7.16376 39.1648 8.83376C39.1648 8.93376 39.1548 9.08376 39.1448 9.20376ZM34.9448 8.37376H37.9748C37.8748 7.60376 37.2848 7.07376 36.4648 7.07376C35.6448 7.07376 35.0648 7.59376 34.9448 8.37376Z"
            fill="white" />
        <path
            d="M43.4547 6.07376V7.26376C43.3447 7.24376 43.2547 7.23376 43.1647 7.23376C42.2147 7.23376 41.6147 7.79376 41.6147 8.88376V11.4738H40.3647V6.13376H41.5547V6.91376C41.9147 6.35376 42.5647 6.07376 43.4547 6.07376Z"
            fill="white" />
        <path
            d="M47.9246 11.1838C47.6246 11.4238 47.1746 11.5438 46.7246 11.5438C45.5546 11.5438 44.8846 10.9238 44.8846 9.74377V7.17377H44.0046V6.17377H44.8846V4.95377H46.1346V6.17377H47.5646V7.17377H46.1346V9.71377C46.1346 10.2338 46.3946 10.5138 46.8746 10.5138C47.1346 10.5138 47.3846 10.4438 47.5746 10.2938L47.9246 11.1838Z"
            fill="white" />
        <path
            d="M53.4247 8.34375V11.4738H52.2447V10.8238C51.9447 11.2838 51.3647 11.5438 50.5647 11.5438C49.3447 11.5438 48.5747 10.8738 48.5747 9.94375C48.5747 9.01375 49.1747 8.35375 50.7947 8.35375H52.1747V8.27375C52.1747 7.54375 51.7347 7.11375 50.8447 7.11375C50.2447 7.11375 49.6247 7.31375 49.2247 7.64375L48.7347 6.73375C49.3647 6.24375 50.3147 6.02375 51.2747 6.08375C52.4747 6.15375 53.4147 7.14375 53.4147 8.34375H53.4247ZM52.1747 9.80375V9.18375H50.8847C50.0347 9.18375 49.8047 9.50375 49.8047 9.89375C49.8047 10.3438 50.1847 10.6338 50.8247 10.6338C51.4647 10.6338 51.9647 10.3538 52.1747 9.80375Z"
            fill="white" />
        <path
            d="M54.7944 10.7638C54.7944 10.3338 55.1344 9.99375 55.6044 9.99375C56.0744 9.99375 56.3944 10.3338 56.3944 10.7638C56.3944 11.1938 56.0644 11.5438 55.6044 11.5438C55.1444 11.5438 54.7944 11.1938 54.7944 10.7638ZM54.8644 4.47375H56.3444L56.0944 9.15376H55.1044L54.8644 4.47375Z"
            fill="white" />
    </g>
    <defs>
        <clipPath id="clip0_1084_858">
            <rect width="60.72" height="19.26" fill="white" transform="translate(0.0246582 0.34375)" />
        </clipPath>
    </defs>
</svg>