<svg width="18" height="18" viewBox="0 0 24 24" fill="none" xmlns="http://www.w3.org/2000/svg">
    <path fill-rule="evenodd" clip-rule="evenodd"
        d="M11.5358 0C6.2751 0 2 4.2751 2 9.53575C2 10.8663 2.54408 12.3968 3.34993 13.939C4.15746 15.4844 5.23618 17.057 6.32344 18.4756C8.35395 21.125 10.4236 23.2494 10.8349 23.6716C10.864 23.7014 10.885 23.7229 10.8968 23.7353L10.899 23.7376C11.0678 23.9063 11.2933 24 11.5358 24C11.7782 24 12.0037 23.9063 12.1725 23.7376L12.1736 23.7364C12.3551 23.551 14.5739 21.2773 16.7484 18.4195C17.8355 16.9908 18.9141 15.4128 19.7215 13.8744C20.527 12.3396 21.0715 10.8278 21.0715 9.53575C21.0715 4.43317 16.798 0 11.5358 0ZM3.77484 9.53575C3.77484 5.26016 7.26016 1.77484 11.5358 1.77484C15.8114 1.77484 19.2967 5.25243 19.2967 9.53575C19.2967 10.3571 18.9775 11.3685 18.444 12.4778C17.9121 13.5839 17.174 14.7731 16.3517 15.9458C14.752 18.2274 12.8418 20.4349 11.5358 21.8285C10.2297 20.4349 8.31955 18.2274 6.71976 15.9458C5.89753 14.7731 5.15944 13.5839 4.62746 12.4778C4.09396 11.3685 3.77484 10.3571 3.77484 9.53575Z"
        fill="#FAFAFA" />
    <path fill-rule="evenodd" clip-rule="evenodd"
        d="M11.5201 5.08496C9.06013 5.08496 7.06152 7.08357 7.06152 9.54358C7.06152 12.0036 9.06013 14.0022 11.5201 14.0022C13.9802 14.0022 15.9788 12.0036 15.9788 9.54358C15.9788 7.08357 13.9802 5.08496 11.5201 5.08496ZM8.84419 9.54358C8.84419 8.06863 10.0452 6.86763 11.5201 6.86763C12.9951 6.86763 14.1961 8.06863 14.1961 9.54358C14.1961 11.0185 12.9951 12.2195 11.5201 12.2195C10.0452 12.2195 8.84419 11.0185 8.84419 9.54358Z"
        fill="#FAFAFA" />
</svg>