<svg width="25" height="25" viewBox="0 0 25 25" fill="none" xmlns="http://www.w3.org/2000/svg">
<path d="M22.267 18.4321L19.967 19.1721C19.737 19.2421 19.557 19.4221 19.487 19.6521L18.737 21.9521L15.127 18.3521H17.437C18.037 18.3521 18.587 17.9521 18.757 17.3921L19.367 15.5321L22.267 18.4321Z" fill="#EB741E"/>
<path d="M19.647 9.81208L20.407 7.44208L18.397 5.98208C18.267 5.88208 18.177 5.75208 18.127 5.60208L17.357 3.24208H14.867C14.717 3.24208 14.557 3.19208 14.427 3.09208L12.417 1.63208L10.397 3.09208C10.267 3.19208 10.117 3.24208 9.95699 3.24208H7.46699L6.70699 5.60208C6.65699 5.75208 6.55699 5.88208 6.42699 5.98208L4.41699 7.44208L5.17699 9.81208C5.22699 9.96208 5.22699 10.1221 5.17699 10.2721L4.41699 12.6521L6.42699 14.1021C6.55699 14.2021 6.65699 14.3321 6.70699 14.4821L7.46699 16.8521H9.95699C10.117 16.8521 10.267 16.9021 10.397 16.9921L11.227 17.5921L11.337 17.6721L12.417 18.4621L14.437 16.9921C14.557 16.9021 14.717 16.8521 14.867 16.8521H17.357L18.127 14.4821C18.177 14.3321 18.267 14.2021 18.407 14.1021L18.737 13.8621H18.747L18.947 13.7121H18.957L18.997 13.6821L20.407 12.6521L19.647 10.2721C19.597 10.1221 19.597 9.96208 19.647 9.81208ZM16.747 9.28208L15.467 11.0521V13.2321C15.457 13.4621 15.347 13.6921 15.157 13.8321C14.957 13.9721 14.707 14.0121 14.487 13.9421L12.417 13.2821L10.337 13.9421C10.267 13.9621 10.187 13.9721 10.117 13.9721C9.95699 13.9721 9.80699 13.9221 9.67699 13.8321C9.47699 13.6921 9.36699 13.4621 9.36699 13.2321V11.0521L8.08699 9.28208C7.94699 9.09208 7.90699 8.84208 7.97699 8.61208C8.05699 8.39208 8.23699 8.21208 8.45699 8.13208L10.527 7.46208L11.817 5.70208C11.957 5.51208 12.177 5.39208 12.417 5.39208C12.657 5.39208 12.887 5.51208 13.027 5.70208L14.307 7.46208L16.367 8.13208C16.597 8.21208 16.767 8.39208 16.847 8.61208C16.917 8.84208 16.877 9.09208 16.747 9.28208Z" fill="#FDD278"/>
<path d="M14.927 9.24208L14.117 10.3721C14.017 10.5021 13.967 10.6521 13.967 10.8121V12.2021L12.647 11.7821C12.497 11.7321 12.337 11.7321 12.187 11.7821L10.857 12.2021V10.8121C10.857 10.6521 10.807 10.5021 10.717 10.3721L9.89697 9.24208L11.217 8.81208C11.367 8.76208 11.497 8.67208 11.587 8.54208L12.417 7.41208L13.237 8.54208C13.327 8.66208 13.457 8.76208 13.607 8.81208L14.927 9.24208Z" fill="#FCB41E"/>
<path d="M9.69713 18.3521L6.08713 21.9521L5.33713 19.6521C5.26713 19.4221 5.08713 19.2421 4.85713 19.1721L2.55713 18.4321L5.45713 15.5321L6.06713 17.4021C6.26713 17.9721 6.79713 18.3521 7.38713 18.3521H9.69713Z" fill="#EB741E"/>
<path d="M24.1971 18.2421L20.4371 14.4821L21.3571 13.8121C21.8471 13.4521 22.0571 12.8121 21.8671 12.2621L21.1471 10.0421L21.8571 7.84209C22.0571 7.27209 21.8571 6.63209 21.3571 6.28209L19.4771 4.91209L18.7671 2.71209C18.5871 2.14209 18.0371 1.74209 17.4371 1.74209H15.1171L13.2271 0.372089C12.7471 0.0220886 12.0771 0.0220886 11.5971 0.372089L9.70705 1.74209H7.38705C6.79705 1.74209 6.26705 2.12209 6.06705 2.70209L5.34705 4.91209L3.46705 6.28209C2.97705 6.63209 2.76705 7.27209 2.96705 7.83209L3.67705 10.0421L2.96705 12.2521C2.77705 12.8121 2.97705 13.4521 3.46705 13.8121L4.38705 14.4821L0.63705 18.2421C0.45705 18.4321 0.37705 18.6921 0.44705 18.9521C0.50705 19.2021 0.69705 19.4121 0.94705 19.4921L4.03705 20.4821L5.04705 23.5821C5.12705 23.8321 5.32705 24.0221 5.58705 24.0821C5.63705 24.0921 5.69705 24.1021 5.75705 24.1021C5.95705 24.1021 6.14705 24.0221 6.28705 23.8821L10.9371 19.2421L11.607 19.7221C11.847 19.8921 12.1371 19.9821 12.4271 19.9821C12.7171 19.9821 12.9971 19.8921 13.2371 19.7221L13.9071 19.2421L18.5571 23.8821C18.6971 24.0221 18.8871 24.1021 19.0871 24.1021C19.1471 24.1021 19.2071 24.0921 19.2671 24.0821C19.5171 24.0221 19.7171 23.8321 19.7971 23.5821L20.8071 20.4821L23.9071 19.4921C24.1471 19.4121 24.3371 19.2021 24.4071 18.9521C24.4671 18.6921 24.3871 18.4321 24.2071 18.2421H24.1971ZM6.08705 21.9521L5.33705 19.6521C5.26705 19.4221 5.08705 19.2421 4.85705 19.1721L2.55705 18.4321L5.45705 15.5321L6.06705 17.4021C6.26705 17.9721 6.79705 18.3521 7.38705 18.3521H9.69705L6.08705 21.9521ZM14.4371 16.9921L12.4171 18.4621L11.3371 17.6721L11.2271 17.5921L10.397 16.9921C10.267 16.9021 10.1171 16.8521 9.95705 16.8521H7.46705L6.70705 14.4821C6.65705 14.3321 6.55705 14.2021 6.42705 14.1021L4.41705 12.6521L5.17705 10.2721C5.22705 10.1221 5.22705 9.96209 5.17705 9.81209L4.41705 7.44209L6.42705 5.98209C6.55705 5.88209 6.65705 5.75209 6.70705 5.60209L7.46705 3.24209H9.95705C10.1171 3.24209 10.267 3.19209 10.397 3.09209L12.4171 1.63209L14.4271 3.09209C14.5571 3.19209 14.7171 3.24209 14.8671 3.24209H17.3571L18.1271 5.60209C18.177 5.75209 18.2671 5.88209 18.3971 5.98209L20.4071 7.44209L19.6471 9.81209C19.5971 9.96209 19.5971 10.1221 19.6471 10.2721L20.4071 12.6521L18.9971 13.6821L18.9571 13.7021H18.9471L18.7471 13.8521H18.7371L18.4071 14.1021C18.2671 14.2021 18.177 14.3321 18.1271 14.4821L17.3571 16.8521H14.8671C14.7171 16.8521 14.5571 16.9021 14.4371 16.9921ZM19.9671 19.1721C19.7371 19.2421 19.5571 19.4221 19.4871 19.6521L18.7371 21.9521L15.1271 18.3521H17.4371C18.0371 18.3521 18.5871 17.9521 18.7571 17.3921L19.3671 15.5321L22.2671 18.4321L19.9671 19.1721Z" fill="#333333"/>
<path d="M16.8471 8.61209C16.7671 8.39209 16.5971 8.21209 16.3671 8.13209L14.3071 7.46209L13.0271 5.70209C12.8871 5.51209 12.6571 5.39209 12.4171 5.39209C12.1771 5.39209 11.9571 5.51209 11.8171 5.70209L10.5271 7.46209L8.4571 8.13209C8.2371 8.21209 8.0571 8.39209 7.9771 8.61209C7.9071 8.84209 7.9471 9.09209 8.0871 9.28209L9.3571 11.0521V13.2321C9.3671 13.4621 9.4771 13.6921 9.6771 13.8321C9.8071 13.9221 9.9571 13.9721 10.1171 13.9721C10.1871 13.9721 10.2671 13.9621 10.3371 13.9421L12.4171 13.2821L14.4871 13.9421C14.7071 14.0121 14.9571 13.9721 15.1571 13.8321C15.3471 13.6921 15.4571 13.4621 15.4571 13.2321V11.0521L16.7471 9.28209C16.8771 9.09209 16.9171 8.84209 16.8471 8.61209ZM13.9671 10.8121V12.2021L12.6471 11.7821C12.4971 11.7321 12.3371 11.7321 12.1871 11.7821L10.8571 12.2021V10.8121C10.8571 10.6521 10.8071 10.5021 10.7171 10.3721L9.8971 9.24209L11.2171 8.81209C11.3671 8.76209 11.4971 8.67209 11.5871 8.54209L12.4171 7.41209L13.2371 8.54209C13.3271 8.66209 13.4571 8.76209 13.6071 8.81209L14.9271 9.24209L14.1171 10.3721C14.0171 10.5021 13.9671 10.6521 13.9671 10.8121Z" fill="#333333"/>
</svg>
