<svg width="18" height="18" viewBox="0 0 24 24" fill="none" xmlns="http://www.w3.org/2000/svg">
    <path
        d="M15.8011 12.3972C14.7411 13.1543 13.4446 13.5517 12.044 13.5517C16.9935 13.5801 21.0629 17.3656 21.5172 22.1921H2.50455C2.95881 17.3561 7.0566 13.5517 12.0156 13.5517C10.615 13.5423 9.32789 13.1164 8.24903 12.3877C3.82947 13.9492 0.649658 18.1606 0.649658 23.1006C0.649658 23.3372 0.744295 23.5738 0.914642 23.7347C1.08499 23.905 1.32158 23.9997 1.54871 23.9997H22.4541C22.9557 23.9997 23.3531 23.6022 23.3531 23.1006C23.3531 18.17 20.2017 13.9681 15.7916 12.3972H15.8011Z"
        fill="#FAFAFA" />
    <path
        d="M12.0438 0C8.29621 0 5.26782 3.04732 5.26782 6.77602C5.26782 9.09464 6.45079 11.1577 8.23943 12.388C9.3183 13.1262 10.6148 13.5426 12.006 13.552H12.0438C13.4445 13.552 14.741 13.1546 15.8009 12.3975C15.924 12.3123 16.0281 12.2271 16.1416 12.142C17.8356 10.8927 18.8104 8.92429 18.8104 6.77602C18.8104 3.04732 15.7726 0 12.0438 0ZM15.0438 10.7129C14.211 11.3849 13.1795 11.7445 12.0438 11.7445H12.006C9.27098 11.7161 7.07539 9.50158 7.07539 6.77602C7.07539 4.05047 9.29937 1.80757 12.0438 1.80757C14.7883 1.80757 17.0028 4.03155 17.0028 6.77602C17.0028 8.35647 16.3025 9.78549 15.0438 10.7129Z"
        fill="#FAFAFA" />
</svg>