<svg width="24" height="24" viewBox="0 0 24 24" fill="none" xmlns="http://www.w3.org/2000/svg">
<g clip-path="url(#clip0_629_215)">
<path d="M14.9801 0C12.8901 0 11.1901 1.7 11.1901 3.79V6.75H3.81006V3.79C3.81006 2.53 4.84006 1.5 6.10006 1.5C7.36006 1.5 8.39006 2.53 8.39006 3.79C8.39006 4.2 8.73006 4.54 9.14006 4.54C9.55006 4.54 9.89006 4.2 9.89006 3.79C9.89006 1.7 8.19006 0 6.10006 0C4.01006 0 2.31006 1.7 2.31006 3.79V16.29C2.70006 16.71 3.17006 17.04 3.81006 17.18V12.98H11.1901V17.12C11.4401 17.2 11.7001 17.23 11.9701 17.23H11.9801C12.2201 17.23 12.4601 17.2 12.6901 17.13V3.79C12.6901 2.53 13.7201 1.5 14.9801 1.5C16.2401 1.5 17.2701 2.53 17.2701 3.79C17.2701 4.2 17.6101 4.54 18.0201 4.54C18.4301 4.54 18.7701 4.2 18.7701 3.79C18.7701 1.7 17.0701 0 14.9801 0ZM11.1901 11.48H3.81006V8.25H11.1901V11.48Z" fill="#666666"/>
<path d="M4.44992 23.98C1.97992 23.98 0.859921 22.22 0.119921 21.06C-0.100079 20.71 -0.0100793 20.23 0.339921 20.01C0.689921 19.79 1.13992 19.88 1.36992 20.23L1.38992 20.26C2.08992 21.35 2.80992 22.49 4.44992 22.49C5.69992 22.49 6.82992 21.7 7.25992 20.53C7.40992 20.13 7.77992 19.87 8.19992 19.87C8.60992 19.9 8.98992 20.13 9.13992 20.53C9.58992 21.71 10.6899 22.48 11.9599 22.48C13.2099 22.48 14.3399 21.69 14.7799 20.52C14.9299 20.12 15.2999 19.86 15.7199 19.86C16.1399 19.86 16.5099 20.12 16.6599 20.52C17.0999 21.68 18.2299 22.46 19.4699 22.46C21.2699 22.46 22.2499 20.76 22.4999 20.24C22.6799 19.87 23.1299 19.72 23.4999 19.9C23.8699 20.08 24.0299 20.53 23.8399 20.9C23.4899 21.62 22.1299 23.96 19.4599 23.96H19.4499C17.9299 23.96 16.5199 23.18 15.6999 21.94C14.8799 23.18 13.4599 23.97 11.9399 23.97H11.9299C10.4099 23.97 8.99992 23.19 8.16992 21.96C7.34992 23.2 5.93992 23.99 4.41992 23.99H4.40992L4.44992 23.98Z" fill="#EB741E"/>
<path d="M23.8799 15.65C23.5299 16.36 22.1699 18.7 19.4999 18.71C17.9799 18.71 16.5699 17.93 15.7399 16.69C14.9199 17.94 13.5099 18.72 11.9799 18.73H11.9699C10.4499 18.73 9.03994 17.95 8.20994 16.71C7.38994 17.95 5.97994 18.74 4.45994 18.74H4.44994C1.96994 18.74 0.859941 16.98 0.119941 15.82C-0.110059 15.47 -0.0100587 14.99 0.339941 14.77C0.689941 14.55 1.13994 14.64 1.35994 14.99L1.37994 15.02C1.66994 15.47 1.94994 15.92 2.30994 16.29C2.69994 16.71 3.16994 17.04 3.80994 17.18C4.00994 17.22 4.21994 17.24 4.44994 17.24C5.69994 17.24 6.82994 16.45 7.25994 15.28C7.40994 14.88 7.77994 14.62 8.20994 14.62C8.63994 14.62 8.99994 14.88 9.14994 15.28C9.49994 16.21 10.2599 16.88 11.1899 17.12C11.4399 17.2 11.6999 17.23 11.9699 17.23H11.9799C12.2199 17.23 12.4599 17.2 12.6899 17.13C13.6399 16.9 14.4499 16.21 14.7999 15.27C14.9499 14.87 15.3199 14.61 15.7399 14.61C16.1599 14.61 16.5299 14.86 16.6799 15.26C17.1199 16.43 18.2499 17.21 19.4999 17.21C20.3999 17.21 21.0999 16.79 21.5999 16.29C22.0999 15.81 22.3999 15.25 22.5299 14.99C22.7199 14.61 23.1699 14.46 23.5399 14.64C23.9099 14.83 24.0599 15.28 23.8799 15.65Z" fill="#EB741E"/>
</g>
<defs>
<clipPath id="clip0_629_215">
<rect width="23.96" height="23.98" fill="white"/>
</clipPath>
</defs>
</svg>
