<svg width="24" height="24" viewBox="0 0 24 24" fill="none" xmlns="http://www.w3.org/2000/svg">
<g clip-path="url(#clip0_629_221)">
<path d="M23.54 19.88C23.17 19.7 22.72 19.85 22.54 20.22C22.28 20.74 21.31 22.44 19.51 22.44C18.27 22.44 17.14 21.66 16.7 20.5C16.55 20.1 16.18 19.84 15.76 19.84C15.34 19.84 14.97 20.1 14.82 20.5C14.38 21.67 13.25 22.46 12 22.46C10.73 22.46 9.62996 21.7 9.17996 20.51C9.02996 20.11 8.63996 19.88 8.23996 19.85C7.81996 19.85 7.44996 20.11 7.29996 20.51C6.86996 21.68 5.73996 22.47 4.48996 22.47C2.83996 22.47 2.11996 21.34 1.42996 20.24L1.40996 20.21C1.18996 19.86 0.72996 19.77 0.37996 19.99C0.0299598 20.21 -0.0600402 20.69 0.15996 21.04C0.89996 22.2 2.01996 23.96 4.48996 23.96H4.49996C6.01996 23.96 7.42996 23.17 8.24996 21.93C9.07996 23.17 10.49 23.94 12.01 23.94H12.02C13.55 23.94 14.96 23.15 15.78 21.91C16.6 23.15 18.01 23.93 19.53 23.93H19.54C22.21 23.93 23.56 21.58 23.92 20.87C24.1 20.5 23.95 20.05 23.58 19.87L23.54 19.88Z" fill="#666666"/>
<path d="M23.5399 14.65C23.1699 14.47 22.7199 14.62 22.5399 14.99C22.2799 15.51 21.3099 17.21 19.5099 17.21C18.2699 17.21 17.1399 16.43 16.6999 15.27C16.5499 14.87 16.1799 14.61 15.7599 14.61C15.3399 14.61 14.9699 14.87 14.8199 15.27C14.4699 16.21 13.6599 16.9 12.7099 17.13V3.79001C12.7099 2.53001 13.7399 1.50001 14.9999 1.50001C16.2599 1.50001 17.2899 2.53001 17.2899 3.79001C17.2899 4.20001 17.6299 4.54001 18.0399 4.54001C18.4499 4.54001 18.7899 4.20001 18.7899 3.79001C18.7899 1.70001 17.0899 5.49294e-06 14.9999 5.49294e-06C12.9099 5.49294e-06 11.2099 1.70001 11.2099 3.79001V6.75001H3.80991V3.78001C3.80991 2.52001 4.83991 1.49001 6.09991 1.49001C7.35991 1.49001 8.38991 2.52001 8.38991 3.78001C8.38991 4.19001 8.72991 4.53001 9.13991 4.53001C9.54991 4.53001 9.88991 4.19001 9.88991 3.78001C9.88991 1.69001 8.18991 -0.00999451 6.09991 -0.00999451C4.00991 -0.00999451 2.30991 1.69001 2.30991 3.78001V16.28C1.95991 15.9 1.66991 15.45 1.37991 15.01L1.35991 14.98C1.13991 14.63 0.679911 14.54 0.329911 14.76C-0.020089 14.98 -0.110089 15.46 0.109911 15.81C0.849911 16.97 1.96991 18.73 4.43991 18.73H4.44991C5.96991 18.73 7.37991 17.94 8.19991 16.7C9.02991 17.94 10.4399 18.71 11.9599 18.71C13.4899 18.71 14.8999 17.92 15.7199 16.68C16.5399 17.92 17.9499 18.7 19.4699 18.7C22.1399 18.7 23.4899 16.35 23.8499 15.64C24.0299 15.27 23.8799 14.82 23.5099 14.64L23.5399 14.65ZM11.1899 8.26001V11.49H3.80991V8.26001H11.1899ZM9.14991 15.29C8.99991 14.89 8.62991 14.63 8.20991 14.63C7.78991 14.63 7.41991 14.89 7.26991 15.29C6.83991 16.46 5.70991 17.25 4.45991 17.25C4.22991 17.25 4.01991 17.22 3.81991 17.18V12.98H11.1999V17.12C10.2699 16.88 9.50991 16.21 9.15991 15.28L9.14991 15.29Z" fill="#666666"/>
</g>
<defs>
<clipPath id="clip0_629_221">
<rect width="23.96" height="23.98" fill="white"/>
</clipPath>
</defs>
</svg>
