<svg width="24" height="24" viewBox="0 0 24 24" fill="none" xmlns="http://www.w3.org/2000/svg">
<g clip-path="url(#clip0_629_229)">
<path d="M23.97 21.53C23.97 22.18 23.71 22.79 23.26 23.25C22.78 23.72 22.16 23.96 21.53 23.96C20.9 23.96 20.29 23.72 19.81 23.25L11.97 15.4L13.03 14.34L20.87 22.19C21.24 22.55 21.83 22.55 22.19 22.19C22.37 22.01 22.47 21.78 22.47 21.53C22.47 21.28 22.37 21.04 22.19 20.87L14.35 13.03L15.41 11.97L23.25 19.81C23.71 20.26 23.97 20.88 23.97 21.53Z" fill="#666666"/>
<path d="M11.1099 7.80001C10.6399 7.33001 10.3499 6.66001 10.2499 5.83001C10.1399 4.94001 9.74991 4.13001 9.12991 3.50001C9.11991 3.49001 9.10991 3.49001 9.09991 3.48001C9.08991 3.47001 9.07991 3.46001 9.07991 3.45001L5.23991 0.210013C4.91991 -0.0599875 4.44991 -0.0199874 4.17991 0.300013C3.90991 0.620013 3.94991 1.09001 4.26991 1.36001L7.47991 4.07001L6.28991 5.26001L3.29991 2.28001C3.00991 1.98001 2.53991 1.98001 2.23991 2.28001C1.94991 2.57001 1.94991 3.04001 2.23991 3.34001L5.21991 6.32001L4.02991 7.50001L1.31991 4.30001C1.05991 3.98001 0.589907 3.94001 0.269907 4.21001C-0.050093 4.48001 -0.0900931 4.95001 0.179907 5.27001L3.40991 9.09001C3.40991 9.09001 3.42991 9.10001 3.42991 9.11001C3.43991 9.11001 3.43991 9.13001 3.44991 9.13001C4.08991 9.78001 4.91991 10.17 5.82991 10.28C6.68991 10.37 7.36991 10.67 7.85991 11.16L8.65991 11.96L9.71991 10.9L8.91991 10.1C8.18991 9.37001 7.18991 8.92001 5.99991 8.79001C5.68991 8.75001 5.39991 8.66001 5.12991 8.52001L6.71991 6.94001C6.71991 6.94001 6.79991 6.90001 6.82991 6.86001C6.85991 6.83001 6.87991 6.79001 6.89991 6.76001L8.49991 5.17001C8.63991 5.43001 8.71991 5.71001 8.75991 6.01001C8.88991 7.17001 9.33991 8.15001 10.0499 8.86001L10.9099 9.72001L11.9699 8.66001L11.1099 7.80001ZM10.0899 12.66C10.1599 12.63 10.2199 12.59 10.2799 12.53L12.5299 10.29C12.5899 10.23 12.6399 10.16 12.6699 10.08L10.0899 12.66Z" fill="#666666"/>
<path d="M10.91 9.72L9.71997 10.9L9.74997 10.93L10.94 9.75L10.91 9.72Z" fill="#EB741E"/>
<path d="M10.91 9.72L9.71997 10.9L9.74997 10.93L10.94 9.75L10.91 9.72Z" fill="#EB741E"/>
<path d="M23.24 0.760006C21.89 -0.589994 18.03 -0.159994 15.61 2.25001C14.41 3.44001 13.59 4.87001 13.29 6.27001C13.1 7.16001 12.66 7.97001 12.03 8.60001L10.91 9.72001L10.94 9.75001L9.75 10.93L9.72 10.9L8.66 11.96L0.7 19.92C0.25 20.37 0 20.97 0 21.61C0 22.25 0.25 22.84 0.7 23.29C1.15 23.75 1.75 23.99 2.39 23.99C3.03 23.99 3.63 23.75 4.08 23.29L13.03 14.34L14.35 13.03L15.42 11.96C16.05 11.33 16.85 10.9 17.74 10.7C19.14 10.4 20.56 9.58001 21.74 8.39001C23.4 6.74001 23.99 4.57001 23.99 3.09001C23.99 2.07001 23.72 1.24001 23.24 0.760006ZM22.09 5.15001C21.8 5.90001 21.35 6.67001 20.68 7.33001C19.71 8.30001 18.52 9.00001 17.42 9.24001C16.25 9.49001 15.2 10.07 14.36 10.9L3.02 22.23C2.68 22.57 2.1 22.57 1.76 22.23C1.59 22.07 1.5 21.84 1.5 21.61C1.5 21.38 1.59 21.15 1.76 20.98L10.09 12.66L13.09 9.66001C13.92 8.83001 14.5 7.76001 14.75 6.59001C14.99 5.48001 15.69 4.29001 16.67 3.31001C18 1.99001 19.75 1.51001 20.94 1.51001C21.53 1.51001 21.99 1.63001 22.18 1.82001C22.33 1.98001 22.49 2.43001 22.49 3.09001C22.49 3.68001 22.37 4.41001 22.09 5.15001Z" fill="#EB741E"/>
</g>
<defs>
<clipPath id="clip0_629_229">
<rect width="23.99" height="23.99" fill="white"/>
</clipPath>
</defs>
</svg>
