<svg width="24" height="24" viewBox="0 0 24 24" fill="none" xmlns="http://www.w3.org/2000/svg">
<g clip-path="url(#clip0_629_226)">
<path d="M17.7399 10.7C19.1399 10.39 20.5599 9.57001 21.7399 8.39001C23.3999 6.74001 23.9899 4.57001 23.9899 3.09001C23.9899 2.07001 23.7199 1.24001 23.2399 0.760006C21.8899 -0.589994 18.0299 -0.159994 15.6099 2.25001C14.4199 3.44001 13.5899 4.87001 13.2899 6.27001C13.0999 7.16001 12.6599 7.97001 12.0299 8.60001L11.9699 8.66001L11.1099 7.80001C10.6399 7.33001 10.3499 6.66001 10.2499 5.83001C10.1399 4.94001 9.75989 4.13001 9.12989 3.50001C9.12989 3.50001 9.10989 3.49001 9.09989 3.48001C9.09989 3.48001 9.08989 3.46001 9.07989 3.45001L5.22989 0.210006C4.90989 -0.0599944 4.43989 -0.0199944 4.16989 0.300006C3.89989 0.620006 3.93989 1.09001 4.25989 1.36001L7.46989 4.07001L6.26989 5.26001L3.28989 2.28001C2.99989 1.99001 2.51989 1.99001 2.22989 2.28001C1.93989 2.57001 1.93989 3.05001 2.22989 3.34001L5.20989 6.32001L4.01989 7.50001L1.30989 4.30001C1.03989 3.98001 0.569887 3.94001 0.249887 4.21001C-0.0701126 4.48001 -0.110113 4.95001 0.159887 5.27001L3.38989 9.09001C3.38989 9.09001 3.40989 9.10001 3.40989 9.11001C3.40989 9.11001 3.41989 9.13001 3.42989 9.14001C4.06989 9.78001 4.88989 10.18 5.80989 10.28C6.66989 10.38 7.34989 10.68 7.83989 11.16L8.64989 11.97L0.699887 19.91C0.249887 20.36 -0.000112576 20.96 -0.000112576 21.6C-0.000112576 22.24 0.249887 22.84 0.699887 23.29C1.14989 23.74 1.74989 23.99 2.38989 23.99C3.02989 23.99 3.62989 23.74 4.07989 23.29L11.9699 15.4L19.8099 23.24C20.2799 23.71 20.9099 23.95 21.5299 23.95C22.1499 23.95 22.7799 23.71 23.2499 23.24C23.7099 22.78 23.9599 22.17 23.9599 21.52C23.9599 20.87 23.7099 20.26 23.2499 19.8L15.4099 11.97H15.4199C16.0499 11.33 16.8499 10.89 17.7399 10.7ZM8.91989 10.1C8.19989 9.38001 7.18989 8.92001 5.99989 8.79001C5.68989 8.75001 5.38989 8.67001 5.12989 8.53001L6.72989 6.94001C6.72989 6.94001 6.80989 6.90001 6.83989 6.87001C6.86989 6.84001 6.88989 6.80001 6.90989 6.76001L8.50989 5.17001C8.63989 5.43001 8.72989 5.71001 8.75989 6.01001C8.89989 7.17001 9.33989 8.16001 10.0499 8.86001L10.9099 9.72001L9.72989 10.9L8.91989 10.09V10.1ZM3.01989 22.24C2.68989 22.58 2.09989 22.58 1.75989 22.24C1.58989 22.07 1.49989 21.85 1.49989 21.61C1.49989 21.37 1.58989 21.15 1.75989 20.98L10.0999 12.64C10.1599 12.61 10.2199 12.58 10.2799 12.52L12.5299 10.28C12.5899 10.22 12.6299 10.15 12.6699 10.08L13.0899 9.66001C13.9299 8.82001 14.4999 7.76001 14.7599 6.58001C14.9999 5.48001 15.6999 4.28001 16.6699 3.31001C17.9999 1.99001 19.7499 1.51001 20.9399 1.51001C21.5299 1.51001 21.9899 1.63001 22.1799 1.82001C22.3299 1.97001 22.4899 2.42001 22.4899 3.09001C22.4899 4.27001 22.0199 6.00001 20.6799 7.32001C19.7099 8.29001 18.5199 8.99001 17.4199 9.23001C16.2499 9.48001 15.1999 10.06 14.3599 10.89L3.01989 22.23V22.24ZM22.1999 20.87C22.3799 21.05 22.4699 21.28 22.4699 21.53C22.4699 21.78 22.3699 22.01 22.1999 22.19C21.8399 22.55 21.2399 22.55 20.8799 22.19L13.0399 14.35L14.3599 13.04L22.1999 20.87Z" fill="#666666"/>
</g>
<defs>
<clipPath id="clip0_629_226">
<rect width="23.99" height="23.99" fill="white"/>
</clipPath>
</defs>
</svg>
