<svg width="18" height="18" viewBox="0 0 24 24" fill="none" xmlns="http://www.w3.org/2000/svg">
    <path
        d="M22.4213 10.7843V3.61383C22.4213 1.31585 21.134 0 18.8933 0H4.97194C2.72164 0 1.41532 1.31585 1.42486 3.61383V10.7938C1.89208 10.1359 2.51186 9.64958 3.227 9.39213V3.61383C3.227 2.29797 3.69422 1.81168 4.97194 1.81168H18.8933C20.1519 1.81168 20.6191 2.28844 20.6191 3.61383V9.3826C21.3247 9.64005 21.9541 10.1359 22.4213 10.7843Z"
        fill="#FAFAFA" />
    <path
        d="M8.25151 4.67188H15.6031C17.2241 4.67188 18.5209 5.98773 18.5209 7.59917V9.19154H16.7187V7.59917C16.7187 6.97938 16.2229 6.48356 15.6127 6.48356H8.24198C7.63173 6.48356 7.12636 6.96985 7.12636 7.59917V9.19154H5.32422V7.59917C5.32422 5.98773 6.64007 4.67188 8.25151 4.67188Z"
        fill="#FAFAFA" />
    <path
        d="M22.4213 10.7846C21.9541 10.1362 21.3248 9.64035 20.6192 9.3829C20.2569 9.25895 19.885 9.1922 19.5036 9.1922H4.37128C3.9708 9.1922 3.58939 9.26848 3.22706 9.39244C2.51192 9.64989 1.89213 10.1362 1.42491 10.7941C0.843266 11.5855 0.5 12.6344 0.5 13.7595V23.0945C0.5 23.5903 0.900477 24.0003 1.40584 24.0003C1.9112 24.0003 2.31168 23.5903 2.31168 23.0945V20.2435H21.5822V23.0945C21.5822 23.5903 21.9827 24.0003 22.4881 24.0003C22.9934 24.0003 23.3939 23.5903 23.3939 23.0945V13.7595C23.3939 12.6249 23.0411 11.5951 22.4404 10.7846H22.4213ZM21.5632 18.4318H2.29261V16.4961H21.5632V18.4318ZM21.5632 14.6845H2.29261V13.7595C2.29261 12.9681 2.55006 12.2435 2.941 11.7381C2.98868 11.6904 3.02682 11.6523 3.06496 11.6046C3.42729 11.2327 3.88498 11.0039 4.36174 11.0039H19.494C19.9613 11.0039 20.4094 11.2232 20.7622 11.5855H20.7718C20.829 11.6427 20.8766 11.7095 20.9243 11.7667C21.3057 12.2721 21.5632 12.9872 21.5632 13.7691V14.694V14.6845Z"
        fill="#FAFAFA" />
</svg>