<svg width="24" height="24" viewBox="0 0 24 24" fill="none" xmlns="http://www.w3.org/2000/svg">
<g clip-path="url(#clip0_672_20)">
<path d="M22.72 15.9C23.13 15.9 23.47 15.56 23.47 15.15V7.18C23.47 6.77 23.13 6.43 22.72 6.43H19.35C19.01 3.54 16.73 1.25 13.87 0.91V0.75C13.87 0.34 13.53 0 13.12 0C12.71 0 12.37 0.34 12.37 0.75V0.91C9.51 1.26 7.23 3.55 6.89 6.43H4.63L4.25 4.49C4.18 4.14 3.87 3.89 3.52 3.88H0.75V3.87C0.34 3.87 0 4.21 0 4.62C0 5.03 0.33 5.37 0.75 5.37H2.89L3.26 7.25V15.15C3.26 15.56 3.6 15.9 4.01 15.9H5.4L5.43 18.38C4.22 18.71 3.31 19.81 3.31 21.13C3.31 22.71 4.59 23.99 6.16 23.99C7.73 23.99 9.01 22.71 9.01 21.13C9.01 20.42 8.74 19.78 8.31 19.28H18.47C18.04 19.78 17.77 20.42 17.77 21.13C17.77 22.71 19.05 23.99 20.62 23.99C22.19 23.99 23.47 22.71 23.47 21.13C23.47 19.83 22.59 18.73 21.39 18.39L21.35 15.9H22.71H22.72ZM13.12 2.36C15.5 2.36 17.48 4.13 17.84 6.43H8.4C8.76 4.12 10.74 2.36 13.12 2.36ZM4.75 7.93H7.55C7.55 7.93 7.57 7.93 7.58 7.93H18.64C18.64 7.93 18.66 7.93 18.67 7.93H21.96V14.4H4.75V7.93ZM6.15 22.49C5.41 22.49 4.8 21.88 4.8 21.13C4.8 20.38 5.4 19.77 6.15 19.77C6.9 19.77 7.5 20.38 7.5 21.13C7.5 21.88 6.9 22.49 6.15 22.49ZM21.96 21.13C21.96 21.88 21.36 22.49 20.61 22.49C19.86 22.49 19.26 21.88 19.26 21.13C19.26 20.38 19.86 19.77 20.61 19.77C21.36 19.77 21.96 20.38 21.96 21.13ZM19.87 17.78H6.92L6.9 15.9H19.86L19.89 17.78H19.87Z" fill="#666666"/>
</g>
<defs>
<clipPath id="clip0_672_20">
<rect width="23.47" height="23.99" fill="white"/>
</clipPath>
</defs>
</svg>
