<svg width="24" height="24" viewBox="0 0 24 24" fill="none" xmlns="http://www.w3.org/2000/svg">
<g clip-path="url(#clip0_672_14)">
<path d="M23.47 15.15V7.17C23.47 6.76 23.13 6.42 22.72 6.42H19.35C19.38 6.67 19.4 6.92 19.4 7.18C19.4 7.56 19.1 7.88 18.73 7.92H21.97V14.4H4.75V7.92H7.52C7.13 7.89 6.84 7.57 6.84 7.18C6.84 6.92 6.86 6.67 6.89 6.42H4.62L4.24 4.49C4.17 4.14 3.86 3.88 3.51 3.88H0.75C0.34 3.88 0 4.2 0 4.62C0 5.04 0.33 5.37 0.75 5.37H2.89L3.25 7.25V15.15C3.25 15.56 3.59 15.9 4 15.9H5.39L5.42 18.38C4.21 18.7 3.31 19.8 3.31 21.12C3.31 22.7 4.59 23.98 6.16 23.98C7.73 23.98 9.01 22.7 9.01 21.12C9.01 20.42 8.74 19.77 8.31 19.27H18.47C18.04 19.77 17.77 20.42 17.77 21.12C17.77 22.7 19.05 23.98 20.62 23.98C22.19 23.98 23.47 22.7 23.47 21.12C23.47 19.82 22.59 18.73 21.39 18.39L21.36 15.9H22.72C23.13 15.9 23.47 15.56 23.47 15.15ZM6.16 22.48C5.41 22.48 4.81 21.87 4.81 21.12C4.81 20.37 5.41 19.77 6.16 19.77C6.91 19.77 7.51 20.38 7.51 21.12C7.51 21.86 6.9 22.48 6.16 22.48ZM6.92 17.77L6.89 15.9H19.86L19.88 17.77H6.92ZM21.97 21.12C21.97 21.87 21.37 22.48 20.62 22.48C19.87 22.48 19.27 21.87 19.27 21.12C19.27 20.37 19.88 19.77 20.62 19.77C21.36 19.77 21.97 20.38 21.97 21.12Z" fill="#666666"/>
<path d="M7.52002 7.92001C7.52002 7.92001 7.57002 7.93001 7.59002 7.93001H18.65C18.65 7.93001 18.7 7.93001 18.73 7.92001H7.52002Z" fill="#EB741E"/>
<path d="M19.3501 6.42C19.0101 3.54 16.7301 1.25 13.8701 0.9V0.75C13.8701 0.33 13.5301 0 13.1201 0C12.7101 0 12.3701 0.33 12.3701 0.75V0.9C9.51009 1.25 7.23009 3.54 6.89009 6.42C6.86009 6.67 6.84009 6.92 6.84009 7.18C6.84009 7.57 7.13009 7.89 7.52009 7.92H18.7301C19.1001 7.88 19.4001 7.56 19.4001 7.18C19.4001 6.92 19.3801 6.67 19.3501 6.42ZM17.8401 6.43H8.39009C8.76009 4.11 10.7301 2.35 13.1201 2.35C15.5101 2.35 17.4701 4.11 17.8401 6.42V6.43Z" fill="#EB741E"/>
</g>
<defs>
<clipPath id="clip0_672_14">
<rect width="23.47" height="23.98" fill="white"/>
</clipPath>
</defs>
</svg>
