<svg width="20" height="25" viewBox="0 0 20 25" fill="none" xmlns="http://www.w3.org/2000/svg">
<g clip-path="url(#clip0_648_2)">
<path d="M16.33 5.2L13.77 2.64L12.22 1.09C10.77 -0.359998 8.42002 -0.359998 6.97002 1.09L2.86002 5.2C2.16002 5.91 1.77002 6.84 1.77002 7.83C1.77002 8.82 2.16002 9.75 2.86002 10.45L4.21002 11.8C4.21002 11.8 4.22002 11.82 4.22002 11.83C4.37002 12.14 4.55002 12.43 4.76002 12.7L5.83002 11.63L9.61002 7.86L13.44 11.5L14.55 12.55C14.7 12.31 14.84 12.07 14.97 11.81L16.33 10.45C17.78 9.01 17.78 6.65 16.33 5.2ZM9.07002 6.29H9.06002C9.06002 6.29 9.02002 6.33 9.01002 6.35L4.94002 10.41L3.92002 9.39C3.50002 8.97 3.27002 8.42 3.27002 7.83C3.27002 7.24 3.50002 6.68 3.92002 6.26L8.03002 2.15C8.89002 1.29 10.3 1.29 11.16 2.15L12.18 3.17L9.07002 6.29ZM15.27 9.39L14.36 10.3L10.67 6.8L13.24 4.23L15.27 6.26C16.13 7.13 16.13 8.53 15.27 9.39Z" fill="#EB741E"/>
<path d="M12.83 14.22C13.5 13.79 14.08 13.22 14.55 12.55L13.44 11.5C12.66 12.8 11.25 13.63 9.7 13.66H9.48C8.01 13.63 6.63 12.85 5.83 11.63L4.76 12.7C5.19 13.31 5.75 13.82 6.37 14.22C2.67 15.54 0.01 19.08 0 23.22C0 23.42 0.07 23.61 0.21 23.75C0.35 23.89 0.54 23.97 0.74 23.98H5.41C5.41 23.98 5.46 24.01 5.48 24.01H18.44C18.86 24.01 19.19 23.67 19.19 23.26C19.19 19.1 16.54 15.55 12.83 14.22ZM12.96 22.5H6.23V19.58H12.96V22.5ZM14.46 22.5V18.83C14.46 18.42 14.12 18.08 13.71 18.08H5.48C5.07 18.08 4.73 18.42 4.73 18.83V22.48H1.53C1.93 18.43 5.32 15.24 9.44 15.17H9.74C13.89 15.24 17.28 18.44 17.66 22.51H14.46V22.5Z" fill="#666666"/>
</g>
<defs>
<clipPath id="clip0_648_2">
<rect width="19.19" height="24.01" fill="white"/>
</clipPath>
</defs>
</svg>
