<svg width="20" height="24" viewBox="0 0 20 24" fill="none" xmlns="http://www.w3.org/2000/svg">
<g clip-path="url(#clip0_648_7)">
<path d="M12.82 14.22C13.72 13.64 14.46 12.82 14.96 11.83L16.34 10.45C17.79 9 17.79 6.65 16.34 5.2L12.22 1.09C10.77 -0.359998 8.42 -0.359998 6.97 1.09L2.86 5.2C2.16 5.9 1.77 6.83 1.77 7.82C1.77 8.81 2.16 9.74 2.86 10.44L4.22 11.8C4.22 11.8 4.22 11.81 4.22 11.82C4.71 12.81 5.47 13.63 6.38 14.21C2.68 15.54 0.01 19.07 0 23.22C0 23.42 0.08 23.61 0.22 23.75C0.36 23.89 0.55 23.97 0.75 23.97L5.42 23.99C5.42 23.99 5.46 24 5.49 24H18.45C18.86 24 19.2 23.66 19.2 23.25C19.2 19.09 16.53 15.55 12.82 14.22ZM15.28 9.39L14.37 10.3L10.68 6.8L13.25 4.23L15.28 6.26C16.14 7.12 16.14 8.53 15.28 9.39ZM4.94 10.4L3.93 9.39C3.51 8.97 3.28 8.42 3.28 7.83C3.28 7.24 3.51 6.68 3.93 6.27L8.04 2.16C8.9 1.3 10.31 1.3 11.17 2.16L12.19 3.18L9.08 6.29L4.95 10.41L4.94 10.4ZM5.84 11.62L9.62 7.86L13.45 11.5C12.67 12.8 11.26 13.63 9.72 13.67C9.68 13.67 9.64 13.67 9.6 13.67C9.56 13.67 9.52 13.67 9.48 13.67C8.01 13.63 6.63 12.86 5.83 11.63L5.84 11.62ZM12.97 22.49H6.24V19.57H12.97V22.49ZM14.47 22.49V18.82C14.47 18.41 14.13 18.07 13.72 18.07H5.48C5.07 18.07 4.73 18.41 4.73 18.82V22.47H1.54C1.93 18.4 5.34 15.21 9.49 15.15C9.53 15.15 9.57 15.15 9.6 15.15C9.63 15.15 9.67 15.15 9.71 15.15C13.87 15.21 17.29 18.42 17.66 22.49H14.46H14.47Z" fill="#666666"/>
</g>
<defs>
<clipPath id="clip0_648_7">
<rect width="19.19" height="24" fill="white"/>
</clipPath>
</defs>
</svg>
