<svg width="51" height="51" viewBox="0 0 51 51" fill="none" xmlns="http://www.w3.org/2000/svg">
    <g filter="url(#filter0_d_5_594)">
        <rect x="8" y="6" width="35" height="35" rx="17.5" fill="white" shape-rendering="crispEdges" />
        <path
            d="M24.75 30C24.75 30.4142 25.0858 30.75 25.5 30.75C25.9142 30.75 26.25 30.4142 26.25 30L24.75 30ZM26.0303 16.4697C25.7374 16.1768 25.2626 16.1768 24.9697 16.4697L20.1967 21.2426C19.9038 21.5355 19.9038 22.0104 20.1967 22.3033C20.4896 22.5962 20.9645 22.5962 21.2574 22.3033L25.5 18.0607L29.7426 22.3033C30.0355 22.5962 30.5104 22.5962 30.8033 22.3033C31.0962 22.0104 31.0962 21.5355 30.8033 21.2426L26.0303 16.4697ZM26.25 30L26.25 17L24.75 17L24.75 30L26.25 30Z"
            fill="#666666" />
    </g>
    <defs>
        <filter id="filter0_d_5_594" x="0" y="0" width="51" height="51" filterUnits="userSpaceOnUse"
            color-interpolation-filters="sRGB">
            <feFlood flood-opacity="0" result="BackgroundImageFix" />
            <feColorMatrix in="SourceAlpha" type="matrix"
                values="0 0 0 0 0 0 0 0 0 0 0 0 0 0 0 0 0 0 127 0" result="hardAlpha" />
            <feOffset dy="2" />
            <feGaussianBlur stdDeviation="4" />
            <feComposite in2="hardAlpha" operator="out" />
            <feColorMatrix type="matrix" values="0 0 0 0 0 0 0 0 0 0 0 0 0 0 0 0 0 0 0.25 0" />
            <feBlend mode="normal" in2="BackgroundImageFix" result="effect1_dropShadow_5_594" />
            <feBlend mode="normal" in="SourceGraphic" in2="effect1_dropShadow_5_594" result="shape" />
        </filter>
    </defs>
</svg>