<svg width="25" height="24" viewBox="0 0 25 24" fill="none" xmlns="http://www.w3.org/2000/svg">
<g clip-path="url(#clip0_629_254)">
<path d="M12.2499 19.17C10.9299 19.17 9.84985 20.25 9.84985 21.57C9.84985 22.89 10.9299 23.97 12.2499 23.97C13.5699 23.97 14.6499 22.89 14.6499 21.57C14.6499 20.25 13.5699 19.17 12.2499 19.17ZM12.2499 22.47C11.7499 22.47 11.3499 22.07 11.3499 21.57C11.3499 21.07 11.7499 20.67 12.2499 20.67C12.7499 20.67 13.1499 21.07 13.1499 21.57C13.1499 22.07 12.7499 22.47 12.2499 22.47Z" fill="#666666"/>
<path d="M23.4299 3.06C20.0499 1.06 16.1799 0 12.2499 0C8.31988 0 4.46988 1.06 1.08988 3.05C0.559882 3.36 0.179882 3.88 0.049882 4.48C-0.080118 5.08 0.0498821 5.72 0.399882 6.22C1.05988 7.16 2.33988 7.45 3.31988 6.87C6.01988 5.27 9.09988 4.43 12.2499 4.43C15.3999 4.43 18.4999 5.28 21.1999 6.88C21.5399 7.09 21.9299 7.18 22.3099 7.18C23.0099 7.18 23.6999 6.85 24.1199 6.24C24.4699 5.74 24.5999 5.1 24.4699 4.5C24.3399 3.9 23.9599 3.37 23.4299 3.06ZM22.8899 5.38C22.6799 5.68 22.2699 5.78 21.9599 5.59C19.0399 3.85 15.6799 2.93 12.2499 2.93C8.81988 2.93 5.48988 3.85 2.55988 5.58C2.24988 5.76 1.84988 5.67 1.63988 5.37C1.51988 5.2 1.47988 5 1.52988 4.81C1.56988 4.61 1.68988 4.45 1.85988 4.35C5.00988 2.49 8.59988 1.51 12.2499 1.51C15.8999 1.51 19.5199 2.5 22.6699 4.36C22.8399 4.46 22.9599 4.63 22.9999 4.82C23.0399 5.02 22.9999 5.22 22.8899 5.39V5.38Z" fill="#666666"/>
<path d="M19.94 7.95C15.26 5.37 9.23997 5.36 4.54997 7.95C4.00997 8.25 3.61997 8.77 3.47997 9.37C3.32997 9.99 3.45997 10.64 3.81997 11.17C4.46997 12.11 5.71997 12.39 6.72997 11.84C10.08 10.01 14.4 10.01 17.75 11.84C18.09 12.03 18.47 12.12 18.84 12.12C19.55 12.12 20.23 11.79 20.66 11.18C21.03 10.66 21.15 10 21.01 9.38C20.87 8.77 20.48 8.25 19.94 7.95ZM19.43 10.31C19.22 10.61 18.81 10.7 18.47 10.52C16.57 9.48 14.42 8.93 12.23 8.93C10.04 8.93 7.89997 9.48 6.00997 10.51C5.66997 10.69 5.25997 10.6 5.04997 10.3C4.92997 10.13 4.88997 9.91 4.93997 9.7C4.98997 9.5 5.10997 9.34 5.27997 9.25C9.51997 6.91 14.98 6.92 19.22 9.25C19.39 9.34 19.51 9.5 19.56 9.7C19.61 9.91 19.56 10.12 19.44 10.3L19.43 10.31Z" fill="#666666"/>
<path d="M16.3898 12.74C13.7798 11.56 10.7198 11.56 8.09978 12.74C7.49978 13.01 7.05978 13.52 6.88978 14.16C6.70978 14.79 6.82978 15.47 7.19978 16.01L7.30978 16.16C7.90978 17.03 9.03978 17.33 10.0498 16.89C11.4298 16.29 13.0498 16.29 14.4398 16.89C14.7498 17.02 15.0698 17.09 15.3898 17.09C16.0998 17.09 16.7698 16.76 17.1798 16.16L17.2898 16.01C17.6698 15.47 17.7798 14.8 17.5998 14.16C17.4298 13.53 16.9798 13.01 16.3898 12.74ZM16.0598 15.15L15.9498 15.3C15.7598 15.57 15.3798 15.66 15.0398 15.51C14.1598 15.13 13.2098 14.93 12.2398 14.93C11.2698 14.93 10.3298 15.12 9.44978 15.51C9.09978 15.66 8.72978 15.57 8.52978 15.3L8.41978 15.15C8.29978 14.98 8.25978 14.76 8.31978 14.56C8.34978 14.44 8.44978 14.23 8.69978 14.11C10.9298 13.1 13.5398 13.11 15.7598 14.11C16.0198 14.23 16.1098 14.44 16.1398 14.56C16.1998 14.76 16.1598 14.98 16.0398 15.15H16.0598Z" fill="#666666"/>
</g>
<defs>
<clipPath id="clip0_629_254">
<rect width="24.51" height="23.98" fill="white"/>
</clipPath>
</defs>
</svg>
