<svg width="25" height="24" viewBox="0 0 25 24" fill="none" xmlns="http://www.w3.org/2000/svg">
<g clip-path="url(#clip0_629_247)">
<path d="M12.2501 23.98C10.9301 23.98 9.8501 22.9 9.8501 21.58C9.8501 20.26 10.9301 19.18 12.2501 19.18C13.5701 19.18 14.6501 20.26 14.6501 21.58C14.6501 22.9 13.5701 23.98 12.2501 23.98ZM12.2501 20.68C11.7501 20.68 11.3501 21.08 11.3501 21.58C11.3501 22.08 11.7501 22.48 12.2501 22.48C12.7501 22.48 13.1501 22.08 13.1501 21.58C13.1501 21.08 12.7501 20.68 12.2501 20.68Z" fill="#666666"/>
<path d="M22.3 7.18C21.92 7.18 21.5401 7.08 21.1901 6.88C18.5 5.28 15.4 4.43 12.24 4.43C9.08005 4.43 6.01005 5.28 3.31005 6.87C2.33005 7.45 1.05005 7.17 0.390049 6.22C0.0500491 5.72 -0.0799509 5.09 0.0500491 4.49C0.180049 3.89 0.560049 3.37 1.09005 3.06C4.47005 1.06 8.33005 0 12.24 0C16.15 0 20.0401 1.06 23.42 3.06C23.9501 3.37 24.33 3.9 24.46 4.5C24.59 5.1 24.4601 5.74 24.1101 6.24C23.68 6.85 22.99 7.18 22.3 7.18ZM12.25 2.93C15.68 2.93 19.04 3.85 21.96 5.59C22.27 5.77 22.67 5.68 22.89 5.38C23.01 5.21 23.05 5.01 23 4.81C22.96 4.61 22.84 4.45 22.67 4.35C19.5201 2.48 15.91 1.5 12.25 1.5C8.59005 1.5 5.01005 2.48 1.86005 4.34C1.69005 4.44 1.57005 4.61 1.53005 4.8C1.49005 5 1.53005 5.2 1.64005 5.36C1.85005 5.66 2.26005 5.76 2.56005 5.57C5.49005 3.83 8.84005 2.92 12.25 2.92V2.93Z" fill="#EB741E"/>
<path d="M18.85 12.11C18.48 12.11 18.11 12.02 17.76 11.83C14.41 10 10.09 9.99 6.73998 11.83C5.72998 12.38 4.47998 12.1 3.82998 11.16C3.46998 10.64 3.33998 9.98 3.48998 9.36C3.62998 8.75 4.01998 8.24 4.55998 7.94C9.24998 5.36 15.27 5.36 19.95 7.94C20.49 8.24 20.88 8.76 21.02 9.37C21.16 9.99 21.04 10.65 20.67 11.17C20.24 11.78 19.56 12.11 18.85 12.11ZM12.25 8.93001C14.44 8.93001 16.59 9.48001 18.49 10.52C18.82 10.7 19.24 10.61 19.45 10.31C19.57 10.14 19.61 9.92 19.57 9.71C19.52 9.51 19.41 9.35 19.23 9.26C14.99 6.92001 9.53998 6.91001 5.28998 9.26C5.11998 9.35 4.99998 9.51 4.94998 9.71C4.89998 9.92 4.94998 10.13 5.05998 10.31C5.26998 10.61 5.67998 10.7 6.01998 10.52C7.90998 9.48001 10.06 8.94 12.24 8.94L12.25 8.93001Z" fill="#EB741E"/>
<path d="M15.3901 17.09C15.0801 17.09 14.7501 17.03 14.4401 16.89C13.0501 16.29 11.4301 16.29 10.0501 16.89C9.04007 17.33 7.91006 17.03 7.31006 16.16L7.20006 16.01C6.82006 15.47 6.71006 14.8 6.89006 14.16C7.06006 13.53 7.51007 13.01 8.10007 12.74C10.7201 11.56 13.7801 11.56 16.3901 12.74C16.9901 13.01 17.4301 13.53 17.6001 14.16C17.7801 14.79 17.6601 15.47 17.2901 16.01L17.1801 16.16C16.7601 16.76 16.0901 17.09 15.3901 17.09ZM12.2401 14.93C13.2101 14.93 14.1501 15.12 15.0401 15.51C15.3901 15.66 15.7601 15.57 15.9501 15.3L16.0601 15.15C16.1801 14.98 16.2201 14.76 16.1601 14.56C16.1301 14.44 16.0301 14.23 15.7801 14.11C13.5601 13.11 10.9501 13.11 8.72007 14.11C8.46007 14.23 8.37007 14.44 8.34007 14.56C8.28007 14.76 8.32006 14.98 8.44006 15.15L8.55007 15.3C8.74007 15.58 9.12007 15.66 9.47007 15.51C10.3501 15.13 11.2901 14.93 12.2601 14.93H12.2401Z" fill="#EB741E"/>
</g>
<defs>
<clipPath id="clip0_629_247">
<rect width="24.51" height="23.98" fill="white"/>
</clipPath>
</defs>
</svg>
